ISO-10303-21;
HEADER;
/* Generated by software containing ST-Developer
 * from STEP Tools, Inc. (www.steptools.com) 
 */

FILE_DESCRIPTION(
/* description */ (''),
/* implementation_level */ '2;1');

FILE_NAME(
/* name */ 'cd230888-12e5-4b3e-9919-2c9f8a024434.stp',
/* time_stamp */ '2026-08-07T02:20:28Z',
/* author */ (''),
/* organization */ (''),
/* preprocessor_version */ 'ST-DEVELOPER v20.2',
/* originating_system */ 'Autodesk Translation Framework v15.15.0.0',
/* authorisation */ '');

FILE_SCHEMA (('AUTOMOTIVE_DESIGN { 1 0 10303 214 3 1 1 }'));
ENDSEC;

DATA;
#10=MECHANICAL_DESIGN_GEOMETRIC_PRESENTATION_REPRESENTATION('',(#13),#1499);
#11=SHAPE_REPRESENTATION_RELATIONSHIP('SRR','None',#1506,#12);
#12=ADVANCED_BREP_SHAPE_REPRESENTATION('',(#14),#1498);
#13=STYLED_ITEM('',(#1515),#14);
#14=MANIFOLD_SOLID_BREP('Body1',#852);
#15=TOROIDAL_SURFACE('',#893,51.,2.);
#16=B_SPLINE_CURVE_WITH_KNOTS('',3,(#1254,#1255,#1256,#1257,#1258,#1259,
#1260,#1261,#1262,#1263,#1264,#1265,#1266,#1267,#1268,#1269,#1270,#1271,
#1272,#1273,#1274,#1275,#1276,#1277,#1278,#1279,#1280,#1281,#1282,#1283,
#1284,#1285,#1286,#1287),.UNSPECIFIED.,.T.,.F.,(4,2,2,2,2,2,2,2,2,2,2,2,
2,2,2,2,4),(0.,0.188510993559201,0.377021987118401,0.565532000548336,0.754042013978271,
0.942552027408206,1.13106204083814,1.31957303439734,1.50808402795654,1.69659502151574,
1.88510601507494,2.07361602850488,2.26212604193481,2.45063605536475,2.63914606879468,
2.82765706235388,3.01616805591308),.UNSPECIFIED.);
#17=B_SPLINE_CURVE_WITH_KNOTS('',3,(#1333,#1334,#1335,#1336,#1337,#1338,
#1339,#1340,#1341,#1342),.UNSPECIFIED.,.F.,.F.,(4,2,2,2,4),(2.26181033708112,
2.45029418392672,2.63877803077232,2.82726257344024,3.01574711610816),
 .UNSPECIFIED.);
#18=B_SPLINE_CURVE_WITH_KNOTS('',3,(#1344,#1345,#1346,#1347,#1348,#1349,
#1350,#1351,#1352,#1353),.UNSPECIFIED.,.F.,.F.,(4,2,2,2,4),(0.,0.188484542667921,
0.376969085335843,0.565452932181441,0.75393677902704),.UNSPECIFIED.);
#19=B_SPLINE_CURVE_WITH_KNOTS('',3,(#1355,#1356,#1357,#1358,#1359,#1360,
#1361,#1362,#1363,#1364,#1365,#1366,#1367,#1368,#1369,#1370,#1371,#1372),
 .UNSPECIFIED.,.F.,.F.,(4,2,2,2,2,2,2,2,4),(0.75393677902704,0.942420625872638,
1.13090447271824,1.31938901538616,1.50787355805408,1.696358100722,1.88484264338992,
2.07332649023552,2.26181033708112),.UNSPECIFIED.);
#20=FACE_BOUND('',#127,.T.);
#21=FACE_BOUND('',#128,.T.);
#22=FACE_BOUND('',#130,.T.);
#23=FACE_BOUND('',#133,.T.);
#24=FACE_BOUND('',#138,.T.);
#25=FACE_BOUND('',#139,.T.);
#26=FACE_BOUND('',#140,.T.);
#27=FACE_BOUND('',#141,.T.);
#28=FACE_BOUND('',#142,.T.);
#29=FACE_BOUND('',#148,.T.);
#30=FACE_BOUND('',#159,.T.);
#31=FACE_BOUND('',#160,.T.);
#32=FACE_BOUND('',#162,.T.);
#33=FACE_BOUND('',#163,.T.);
#34=FACE_BOUND('',#166,.T.);
#35=FACE_BOUND('',#168,.T.);
#36=FACE_BOUND('',#169,.T.);
#37=FACE_BOUND('',#176,.T.);
#38=FACE_BOUND('',#177,.T.);
#39=FACE_BOUND('',#182,.T.);
#40=FACE_BOUND('',#185,.T.);
#41=FACE_BOUND('',#186,.T.);
#42=FACE_BOUND('',#187,.T.);
#43=FACE_BOUND('',#188,.T.);
#44=FACE_BOUND('',#189,.T.);
#45=FACE_BOUND('',#190,.T.);
#46=FACE_BOUND('',#191,.T.);
#47=FACE_BOUND('',#192,.T.);
#48=PLANE('',#875);
#49=PLANE('',#879);
#50=PLANE('',#880);
#51=PLANE('',#890);
#52=PLANE('',#891);
#53=PLANE('',#892);
#54=PLANE('',#899);
#55=PLANE('',#913);
#56=PLANE('',#915);
#57=PLANE('',#918);
#58=PLANE('',#919);
#59=PLANE('',#920);
#60=PLANE('',#921);
#61=PLANE('',#922);
#62=PLANE('',#929);
#63=PLANE('',#930);
#64=PLANE('',#931);
#65=PLANE('',#932);
#66=PLANE('',#933);
#67=PLANE('',#937);
#68=PLANE('',#941);
#69=PLANE('',#943);
#70=PLANE('',#944);
#71=PLANE('',#945);
#72=PLANE('',#946);
#73=PLANE('',#947);
#74=PLANE('',#950);
#75=FACE_OUTER_BOUND('',#120,.T.);
#76=FACE_OUTER_BOUND('',#121,.T.);
#77=FACE_OUTER_BOUND('',#122,.T.);
#78=FACE_OUTER_BOUND('',#123,.T.);
#79=FACE_OUTER_BOUND('',#124,.T.);
#80=FACE_OUTER_BOUND('',#125,.T.);
#81=FACE_OUTER_BOUND('',#126,.T.);
#82=FACE_OUTER_BOUND('',#129,.T.);
#83=FACE_OUTER_BOUND('',#131,.T.);
#84=FACE_OUTER_BOUND('',#132,.T.);
#85=FACE_OUTER_BOUND('',#134,.T.);
#86=FACE_OUTER_BOUND('',#135,.T.);
#87=FACE_OUTER_BOUND('',#136,.T.);
#88=FACE_OUTER_BOUND('',#137,.T.);
#89=FACE_OUTER_BOUND('',#143,.T.);
#90=FACE_OUTER_BOUND('',#144,.T.);
#91=FACE_OUTER_BOUND('',#145,.T.);
#92=FACE_OUTER_BOUND('',#146,.T.);
#93=FACE_OUTER_BOUND('',#147,.T.);
#94=FACE_OUTER_BOUND('',#149,.T.);
#95=FACE_OUTER_BOUND('',#150,.T.);
#96=FACE_OUTER_BOUND('',#151,.T.);
#97=FACE_OUTER_BOUND('',#152,.T.);
#98=FACE_OUTER_BOUND('',#153,.T.);
#99=FACE_OUTER_BOUND('',#154,.T.);
#100=FACE_OUTER_BOUND('',#155,.T.);
#101=FACE_OUTER_BOUND('',#156,.T.);
#102=FACE_OUTER_BOUND('',#157,.T.);
#103=FACE_OUTER_BOUND('',#158,.T.);
#104=FACE_OUTER_BOUND('',#161,.T.);
#105=FACE_OUTER_BOUND('',#164,.T.);
#106=FACE_OUTER_BOUND('',#165,.T.);
#107=FACE_OUTER_BOUND('',#167,.T.);
#108=FACE_OUTER_BOUND('',#170,.T.);
#109=FACE_OUTER_BOUND('',#171,.T.);
#110=FACE_OUTER_BOUND('',#172,.T.);
#111=FACE_OUTER_BOUND('',#173,.T.);
#112=FACE_OUTER_BOUND('',#174,.T.);
#113=FACE_OUTER_BOUND('',#175,.T.);
#114=FACE_OUTER_BOUND('',#178,.T.);
#115=FACE_OUTER_BOUND('',#179,.T.);
#116=FACE_OUTER_BOUND('',#180,.T.);
#117=FACE_OUTER_BOUND('',#181,.T.);
#118=FACE_OUTER_BOUND('',#183,.T.);
#119=FACE_OUTER_BOUND('',#184,.T.);
#120=EDGE_LOOP('',(#562,#563,#564,#565));
#121=EDGE_LOOP('',(#566,#567,#568,#569));
#122=EDGE_LOOP('',(#570,#571,#572,#573));
#123=EDGE_LOOP('',(#574));
#124=EDGE_LOOP('',(#575,#576,#577,#578));
#125=EDGE_LOOP('',(#579));
#126=EDGE_LOOP('',(#580,#581,#582,#583,#584));
#127=EDGE_LOOP('',(#585));
#128=EDGE_LOOP('',(#586));
#129=EDGE_LOOP('',(#587,#588,#589,#590,#591,#592,#593,#594,#595,#596,#597,
#598,#599,#600,#601,#602));
#130=EDGE_LOOP('',(#603));
#131=EDGE_LOOP('',(#604,#605,#606,#607));
#132=EDGE_LOOP('',(#608,#609,#610,#611,#612,#613));
#133=EDGE_LOOP('',(#614,#615,#616,#617));
#134=EDGE_LOOP('',(#618,#619,#620,#621));
#135=EDGE_LOOP('',(#622,#623,#624,#625));
#136=EDGE_LOOP('',(#626,#627,#628,#629,#630,#631,#632,#633,#634));
#137=EDGE_LOOP('',(#635));
#138=EDGE_LOOP('',(#636));
#139=EDGE_LOOP('',(#637));
#140=EDGE_LOOP('',(#638));
#141=EDGE_LOOP('',(#639));
#142=EDGE_LOOP('',(#640));
#143=EDGE_LOOP('',(#641,#642,#643,#644));
#144=EDGE_LOOP('',(#645,#646,#647,#648));
#145=EDGE_LOOP('',(#649,#650,#651,#652));
#146=EDGE_LOOP('',(#653,#654,#655,#656));
#147=EDGE_LOOP('',(#657,#658,#659,#660,#661,#662));
#148=EDGE_LOOP('',(#663,#664,#665,#666));
#149=EDGE_LOOP('',(#667,#668,#669,#670));
#150=EDGE_LOOP('',(#671,#672,#673,#674));
#151=EDGE_LOOP('',(#675,#676,#677,#678));
#152=EDGE_LOOP('',(#679,#680,#681,#682));
#153=EDGE_LOOP('',(#683,#684,#685,#686));
#154=EDGE_LOOP('',(#687,#688,#689,#690));
#155=EDGE_LOOP('',(#691,#692,#693,#694));
#156=EDGE_LOOP('',(#695,#696,#697,#698));
#157=EDGE_LOOP('',(#699,#700,#701,#702));
#158=EDGE_LOOP('',(#703,#704,#705,#706));
#159=EDGE_LOOP('',(#707));
#160=EDGE_LOOP('',(#708));
#161=EDGE_LOOP('',(#709,#710,#711,#712));
#162=EDGE_LOOP('',(#713));
#163=EDGE_LOOP('',(#714));
#164=EDGE_LOOP('',(#715,#716,#717,#718));
#165=EDGE_LOOP('',(#719,#720,#721,#722));
#166=EDGE_LOOP('',(#723,#724,#725,#726));
#167=EDGE_LOOP('',(#727,#728,#729,#730));
#168=EDGE_LOOP('',(#731));
#169=EDGE_LOOP('',(#732));
#170=EDGE_LOOP('',(#733,#734,#735,#736));
#171=EDGE_LOOP('',(#737));
#172=EDGE_LOOP('',(#738,#739,#740,#741));
#173=EDGE_LOOP('',(#742));
#174=EDGE_LOOP('',(#743,#744,#745,#746,#747,#748));
#175=EDGE_LOOP('',(#749,#750,#751,#752,#753));
#176=EDGE_LOOP('',(#754));
#177=EDGE_LOOP('',(#755));
#178=EDGE_LOOP('',(#756,#757,#758,#759));
#179=EDGE_LOOP('',(#760,#761,#762,#763));
#180=EDGE_LOOP('',(#764,#765,#766,#767));
#181=EDGE_LOOP('',(#768));
#182=EDGE_LOOP('',(#769));
#183=EDGE_LOOP('',(#770,#771,#772,#773));
#184=EDGE_LOOP('',(#774));
#185=EDGE_LOOP('',(#775));
#186=EDGE_LOOP('',(#776));
#187=EDGE_LOOP('',(#777));
#188=EDGE_LOOP('',(#778));
#189=EDGE_LOOP('',(#779,#780,#781,#782));
#190=EDGE_LOOP('',(#783,#784,#785,#786,#787));
#191=EDGE_LOOP('',(#788));
#192=EDGE_LOOP('',(#789));
#193=LINE('',#1198,#263);
#194=LINE('',#1204,#264);
#195=LINE('',#1210,#265);
#196=LINE('',#1217,#266);
#197=LINE('',#1225,#267);
#198=LINE('',#1227,#268);
#199=LINE('',#1229,#269);
#200=LINE('',#1235,#270);
#201=LINE('',#1238,#271);
#202=LINE('',#1240,#272);
#203=LINE('',#1244,#273);
#204=LINE('',#1248,#274);
#205=LINE('',#1251,#275);
#206=LINE('',#1291,#276);
#207=LINE('',#1293,#277);
#208=LINE('',#1295,#278);
#209=LINE('',#1296,#279);
#210=LINE('',#1300,#280);
#211=LINE('',#1302,#281);
#212=LINE('',#1304,#282);
#213=LINE('',#1306,#283);
#214=LINE('',#1308,#284);
#215=LINE('',#1309,#285);
#216=LINE('',#1311,#286);
#217=LINE('',#1313,#287);
#218=LINE('',#1314,#288);
#219=LINE('',#1318,#289);
#220=LINE('',#1319,#290);
#221=LINE('',#1320,#291);
#222=LINE('',#1331,#292);
#223=LINE('',#1354,#293);
#224=LINE('',#1387,#294);
#225=LINE('',#1391,#295);
#226=LINE('',#1395,#296);
#227=LINE('',#1399,#297);
#228=LINE('',#1402,#298);
#229=LINE('',#1404,#299);
#230=LINE('',#1405,#300);
#231=LINE('',#1406,#301);
#232=LINE('',#1407,#302);
#233=LINE('',#1410,#303);
#234=LINE('',#1412,#304);
#235=LINE('',#1415,#305);
#236=LINE('',#1419,#306);
#237=LINE('',#1420,#307);
#238=LINE('',#1421,#308);
#239=LINE('',#1425,#309);
#240=LINE('',#1428,#310);
#241=LINE('',#1429,#311);
#242=LINE('',#1431,#312);
#243=LINE('',#1433,#313);
#244=LINE('',#1435,#314);
#245=LINE('',#1438,#315);
#246=LINE('',#1439,#316);
#247=LINE('',#1444,#317);
#248=LINE('',#1450,#318);
#249=LINE('',#1453,#319);
#250=LINE('',#1455,#320);
#251=LINE('',#1458,#321);
#252=LINE('',#1459,#322);
#253=LINE('',#1461,#323);
#254=LINE('',#1467,#324);
#255=LINE('',#1474,#325);
#256=LINE('',#1478,#326);
#257=LINE('',#1481,#327);
#258=LINE('',#1483,#328);
#259=LINE('',#1484,#329);
#260=LINE('',#1486,#330);
#261=LINE('',#1488,#331);
#262=LINE('',#1493,#332);
#263=VECTOR('',#957,1.3);
#264=VECTOR('',#964,1.3);
#265=VECTOR('',#971,1.3);
#266=VECTOR('',#980,1.3);
#267=VECTOR('',#989,10.);
#268=VECTOR('',#990,10.);
#269=VECTOR('',#991,10.);
#270=VECTOR('',#998,45.);
#271=VECTOR('',#1001,10.);
#272=VECTOR('',#1002,45.);
#273=VECTOR('',#1005,10.);
#274=VECTOR('',#1008,10.);
#275=VECTOR('',#1011,10.);
#276=VECTOR('',#1016,10.);
#277=VECTOR('',#1017,10.);
#278=VECTOR('',#1018,10.);
#279=VECTOR('',#1019,10.);
#280=VECTOR('',#1022,10.);
#281=VECTOR('',#1023,10.);
#282=VECTOR('',#1024,10.);
#283=VECTOR('',#1025,10.);
#284=VECTOR('',#1026,10.);
#285=VECTOR('',#1027,10.);
#286=VECTOR('',#1028,10.);
#287=VECTOR('',#1029,10.);
#288=VECTOR('',#1030,10.);
#289=VECTOR('',#1033,10.);
#290=VECTOR('',#1034,10.);
#291=VECTOR('',#1035,10.);
#292=VECTOR('',#1048,49.);
#293=VECTOR('',#1049,49.);
#294=VECTOR('',#1066,1.5);
#295=VECTOR('',#1071,1.5);
#296=VECTOR('',#1076,1.5);
#297=VECTOR('',#1081,1.5);
#298=VECTOR('',#1084,10.);
#299=VECTOR('',#1085,10.);
#300=VECTOR('',#1086,10.);
#301=VECTOR('',#1087,10.);
#302=VECTOR('',#1088,10.);
#303=VECTOR('',#1089,10.);
#304=VECTOR('',#1090,10.);
#305=VECTOR('',#1093,10.);
#306=VECTOR('',#1096,10.);
#307=VECTOR('',#1097,10.);
#308=VECTOR('',#1098,10.);
#309=VECTOR('',#1103,10.);
#310=VECTOR('',#1106,10.);
#311=VECTOR('',#1107,10.);
#312=VECTOR('',#1110,10.);
#313=VECTOR('',#1113,10.);
#314=VECTOR('',#1116,10.);
#315=VECTOR('',#1119,10.);
#316=VECTOR('',#1120,10.);
#317=VECTOR('',#1125,1.3);
#318=VECTOR('',#1132,1.3);
#319=VECTOR('',#1137,10.);
#320=VECTOR('',#1140,10.);
#321=VECTOR('',#1143,10.);
#322=VECTOR('',#1144,10.);
#323=VECTOR('',#1147,10.);
#324=VECTOR('',#1154,1.3);
#325=VECTOR('',#1163,1.3);
#326=VECTOR('',#1170,5.);
#327=VECTOR('',#1173,10.);
#328=VECTOR('',#1174,10.);
#329=VECTOR('',#1175,10.);
#330=VECTOR('',#1178,10.);
#331=VECTOR('',#1181,10.);
#332=VECTOR('',#1188,60.625);
#333=CIRCLE('',#867,1.3);
#334=CIRCLE('',#868,1.3);
#335=CIRCLE('',#870,1.3);
#336=CIRCLE('',#871,1.3);
#337=CIRCLE('',#873,1.3);
#338=CIRCLE('',#874,1.3);
#339=CIRCLE('',#877,1.3);
#340=CIRCLE('',#878,1.3);
#341=CIRCLE('',#881,45.);
#342=CIRCLE('',#882,45.);
#343=CIRCLE('',#884,45.);
#344=CIRCLE('',#885,45.);
#345=CIRCLE('',#886,45.);
#346=CIRCLE('',#887,45.);
#347=CIRCLE('',#888,45.);
#348=CIRCLE('',#889,45.);
#349=CIRCLE('',#894,49.);
#350=CIRCLE('',#895,2.);
#351=CIRCLE('',#896,51.);
#352=CIRCLE('',#898,49.);
#353=CIRCLE('',#900,60.625);
#354=CIRCLE('',#901,1.5);
#355=CIRCLE('',#902,1.5);
#356=CIRCLE('',#903,1.5);
#357=CIRCLE('',#904,1.5);
#358=CIRCLE('',#906,1.5);
#359=CIRCLE('',#908,1.5);
#360=CIRCLE('',#910,1.5);
#361=CIRCLE('',#912,1.5);
#362=CIRCLE('',#914,37.);
#363=CIRCLE('',#917,37.);
#364=CIRCLE('',#924,1.3);
#365=CIRCLE('',#925,1.3);
#366=CIRCLE('',#927,1.3);
#367=CIRCLE('',#928,1.3);
#368=CIRCLE('',#935,1.3);
#369=CIRCLE('',#936,1.3);
#370=CIRCLE('',#939,1.3);
#371=CIRCLE('',#940,1.3);
#372=CIRCLE('',#949,60.625);
#373=VERTEX_POINT('',#1195);
#374=VERTEX_POINT('',#1197);
#375=VERTEX_POINT('',#1201);
#376=VERTEX_POINT('',#1203);
#377=VERTEX_POINT('',#1207);
#378=VERTEX_POINT('',#1209);
#379=VERTEX_POINT('',#1214);
#380=VERTEX_POINT('',#1216);
#381=VERTEX_POINT('',#1221);
#382=VERTEX_POINT('',#1222);
#383=VERTEX_POINT('',#1224);
#384=VERTEX_POINT('',#1226);
#385=VERTEX_POINT('',#1228);
#386=VERTEX_POINT('',#1232);
#387=VERTEX_POINT('',#1234);
#388=VERTEX_POINT('',#1236);
#389=VERTEX_POINT('',#1239);
#390=VERTEX_POINT('',#1241);
#391=VERTEX_POINT('',#1243);
#392=VERTEX_POINT('',#1245);
#393=VERTEX_POINT('',#1247);
#394=VERTEX_POINT('',#1250);
#395=VERTEX_POINT('',#1253);
#396=VERTEX_POINT('',#1289);
#397=VERTEX_POINT('',#1290);
#398=VERTEX_POINT('',#1292);
#399=VERTEX_POINT('',#1294);
#400=VERTEX_POINT('',#1298);
#401=VERTEX_POINT('',#1299);
#402=VERTEX_POINT('',#1301);
#403=VERTEX_POINT('',#1303);
#404=VERTEX_POINT('',#1305);
#405=VERTEX_POINT('',#1307);
#406=VERTEX_POINT('',#1310);
#407=VERTEX_POINT('',#1312);
#408=VERTEX_POINT('',#1316);
#409=VERTEX_POINT('',#1317);
#410=VERTEX_POINT('',#1322);
#411=VERTEX_POINT('',#1324);
#412=VERTEX_POINT('',#1328);
#413=VERTEX_POINT('',#1330);
#414=VERTEX_POINT('',#1332);
#415=VERTEX_POINT('',#1343);
#416=VERTEX_POINT('',#1374);
#417=VERTEX_POINT('',#1376);
#418=VERTEX_POINT('',#1378);
#419=VERTEX_POINT('',#1380);
#420=VERTEX_POINT('',#1382);
#421=VERTEX_POINT('',#1385);
#422=VERTEX_POINT('',#1389);
#423=VERTEX_POINT('',#1393);
#424=VERTEX_POINT('',#1397);
#425=VERTEX_POINT('',#1401);
#426=VERTEX_POINT('',#1403);
#427=VERTEX_POINT('',#1408);
#428=VERTEX_POINT('',#1409);
#429=VERTEX_POINT('',#1411);
#430=VERTEX_POINT('',#1413);
#431=VERTEX_POINT('',#1417);
#432=VERTEX_POINT('',#1418);
#433=VERTEX_POINT('',#1423);
#434=VERTEX_POINT('',#1427);
#435=VERTEX_POINT('',#1437);
#436=VERTEX_POINT('',#1441);
#437=VERTEX_POINT('',#1443);
#438=VERTEX_POINT('',#1447);
#439=VERTEX_POINT('',#1449);
#440=VERTEX_POINT('',#1457);
#441=VERTEX_POINT('',#1464);
#442=VERTEX_POINT('',#1466);
#443=VERTEX_POINT('',#1471);
#444=VERTEX_POINT('',#1473);
#445=VERTEX_POINT('',#1480);
#446=VERTEX_POINT('',#1482);
#447=VERTEX_POINT('',#1492);
#448=EDGE_CURVE('',#373,#373,#333,.T.);
#449=EDGE_CURVE('',#373,#374,#193,.T.);
#450=EDGE_CURVE('',#374,#374,#334,.T.);
#451=EDGE_CURVE('',#375,#375,#335,.T.);
#452=EDGE_CURVE('',#375,#376,#194,.T.);
#453=EDGE_CURVE('',#376,#376,#336,.T.);
#454=EDGE_CURVE('',#377,#377,#337,.T.);
#455=EDGE_CURVE('',#377,#378,#195,.T.);
#456=EDGE_CURVE('',#378,#378,#338,.T.);
#457=EDGE_CURVE('',#379,#379,#339,.T.);
#458=EDGE_CURVE('',#379,#380,#196,.T.);
#459=EDGE_CURVE('',#380,#380,#340,.T.);
#460=EDGE_CURVE('',#381,#382,#341,.T.);
#461=EDGE_CURVE('',#381,#383,#197,.T.);
#462=EDGE_CURVE('',#383,#384,#198,.T.);
#463=EDGE_CURVE('',#384,#385,#199,.T.);
#464=EDGE_CURVE('',#382,#385,#342,.T.);
#465=EDGE_CURVE('',#386,#386,#343,.T.);
#466=EDGE_CURVE('',#386,#387,#200,.T.);
#467=EDGE_CURVE('',#387,#388,#344,.T.);
#468=EDGE_CURVE('',#388,#381,#201,.T.);
#469=EDGE_CURVE('',#382,#389,#202,.T.);
#470=EDGE_CURVE('',#389,#390,#345,.T.);
#471=EDGE_CURVE('',#390,#391,#203,.T.);
#472=EDGE_CURVE('',#391,#392,#346,.T.);
#473=EDGE_CURVE('',#392,#393,#204,.T.);
#474=EDGE_CURVE('',#393,#389,#347,.T.);
#475=EDGE_CURVE('',#385,#394,#205,.T.);
#476=EDGE_CURVE('',#394,#387,#348,.T.);
#477=EDGE_CURVE('',#395,#395,#16,.T.);
#478=EDGE_CURVE('',#396,#397,#206,.T.);
#479=EDGE_CURVE('',#398,#396,#207,.T.);
#480=EDGE_CURVE('',#399,#398,#208,.T.);
#481=EDGE_CURVE('',#397,#399,#209,.T.);
#482=EDGE_CURVE('',#400,#401,#210,.T.);
#483=EDGE_CURVE('',#402,#400,#211,.T.);
#484=EDGE_CURVE('',#403,#402,#212,.T.);
#485=EDGE_CURVE('',#404,#403,#213,.T.);
#486=EDGE_CURVE('',#405,#404,#214,.T.);
#487=EDGE_CURVE('',#401,#405,#215,.T.);
#488=EDGE_CURVE('',#406,#399,#216,.T.);
#489=EDGE_CURVE('',#398,#407,#217,.T.);
#490=EDGE_CURVE('',#407,#406,#218,.T.);
#491=EDGE_CURVE('',#408,#409,#219,.T.);
#492=EDGE_CURVE('',#406,#408,#220,.T.);
#493=EDGE_CURVE('',#409,#407,#221,.T.);
#494=EDGE_CURVE('',#410,#410,#349,.T.);
#495=EDGE_CURVE('',#410,#411,#350,.T.);
#496=EDGE_CURVE('',#411,#411,#351,.T.);
#497=EDGE_CURVE('',#412,#412,#352,.T.);
#498=EDGE_CURVE('',#412,#413,#222,.T.);
#499=EDGE_CURVE('',#413,#414,#17,.T.);
#500=EDGE_CURVE('',#414,#415,#18,.T.);
#501=EDGE_CURVE('',#415,#410,#223,.T.);
#502=EDGE_CURVE('',#415,#413,#19,.T.);
#503=EDGE_CURVE('',#416,#416,#353,.T.);
#504=EDGE_CURVE('',#417,#417,#354,.T.);
#505=EDGE_CURVE('',#418,#418,#355,.T.);
#506=EDGE_CURVE('',#419,#419,#356,.T.);
#507=EDGE_CURVE('',#420,#420,#357,.T.);
#508=EDGE_CURVE('',#421,#421,#358,.T.);
#509=EDGE_CURVE('',#421,#417,#224,.T.);
#510=EDGE_CURVE('',#422,#422,#359,.T.);
#511=EDGE_CURVE('',#422,#418,#225,.T.);
#512=EDGE_CURVE('',#423,#423,#360,.T.);
#513=EDGE_CURVE('',#423,#419,#226,.T.);
#514=EDGE_CURVE('',#424,#424,#361,.T.);
#515=EDGE_CURVE('',#424,#420,#227,.T.);
#516=EDGE_CURVE('',#425,#403,#228,.T.);
#517=EDGE_CURVE('',#426,#425,#229,.T.);
#518=EDGE_CURVE('',#401,#426,#230,.T.);
#519=EDGE_CURVE('',#401,#392,#231,.T.);
#520=EDGE_CURVE('',#391,#403,#232,.T.);
#521=EDGE_CURVE('',#427,#428,#233,.T.);
#522=EDGE_CURVE('',#428,#429,#234,.T.);
#523=EDGE_CURVE('',#429,#430,#362,.T.);
#524=EDGE_CURVE('',#430,#427,#235,.T.);
#525=EDGE_CURVE('',#431,#432,#236,.T.);
#526=EDGE_CURVE('',#431,#427,#237,.T.);
#527=EDGE_CURVE('',#432,#430,#238,.T.);
#528=EDGE_CURVE('',#432,#433,#363,.T.);
#529=EDGE_CURVE('',#433,#429,#239,.T.);
#530=EDGE_CURVE('',#433,#434,#240,.T.);
#531=EDGE_CURVE('',#434,#428,#241,.T.);
#532=EDGE_CURVE('',#434,#431,#242,.T.);
#533=EDGE_CURVE('',#404,#390,#243,.T.);
#534=EDGE_CURVE('',#405,#393,#244,.T.);
#535=EDGE_CURVE('',#402,#435,#245,.T.);
#536=EDGE_CURVE('',#435,#425,#246,.T.);
#537=EDGE_CURVE('',#436,#436,#364,.T.);
#538=EDGE_CURVE('',#436,#437,#247,.T.);
#539=EDGE_CURVE('',#437,#437,#365,.T.);
#540=EDGE_CURVE('',#438,#438,#366,.T.);
#541=EDGE_CURVE('',#438,#439,#248,.T.);
#542=EDGE_CURVE('',#439,#439,#367,.T.);
#543=EDGE_CURVE('',#397,#408,#249,.T.);
#544=EDGE_CURVE('',#409,#396,#250,.T.);
#545=EDGE_CURVE('',#426,#440,#251,.T.);
#546=EDGE_CURVE('',#440,#400,#252,.T.);
#547=EDGE_CURVE('',#440,#435,#253,.T.);
#548=EDGE_CURVE('',#441,#441,#368,.T.);
#549=EDGE_CURVE('',#441,#442,#254,.T.);
#550=EDGE_CURVE('',#442,#442,#369,.T.);
#551=EDGE_CURVE('',#443,#443,#370,.T.);
#552=EDGE_CURVE('',#443,#444,#255,.T.);
#553=EDGE_CURVE('',#444,#444,#371,.T.);
#554=EDGE_CURVE('',#395,#414,#256,.T.);
#555=EDGE_CURVE('',#445,#394,#257,.T.);
#556=EDGE_CURVE('',#445,#446,#258,.T.);
#557=EDGE_CURVE('',#388,#446,#259,.T.);
#558=EDGE_CURVE('',#445,#384,#260,.T.);
#559=EDGE_CURVE('',#446,#383,#261,.T.);
#560=EDGE_CURVE('',#416,#447,#262,.T.);
#561=EDGE_CURVE('',#447,#447,#372,.T.);
#562=ORIENTED_EDGE('',*,*,#448,.F.);
#563=ORIENTED_EDGE('',*,*,#449,.T.);
#564=ORIENTED_EDGE('',*,*,#450,.F.);
#565=ORIENTED_EDGE('',*,*,#449,.F.);
#566=ORIENTED_EDGE('',*,*,#451,.F.);
#567=ORIENTED_EDGE('',*,*,#452,.T.);
#568=ORIENTED_EDGE('',*,*,#453,.F.);
#569=ORIENTED_EDGE('',*,*,#452,.F.);
#570=ORIENTED_EDGE('',*,*,#454,.F.);
#571=ORIENTED_EDGE('',*,*,#455,.T.);
#572=ORIENTED_EDGE('',*,*,#456,.T.);
#573=ORIENTED_EDGE('',*,*,#455,.F.);
#574=ORIENTED_EDGE('',*,*,#456,.F.);
#575=ORIENTED_EDGE('',*,*,#457,.F.);
#576=ORIENTED_EDGE('',*,*,#458,.T.);
#577=ORIENTED_EDGE('',*,*,#459,.T.);
#578=ORIENTED_EDGE('',*,*,#458,.F.);
#579=ORIENTED_EDGE('',*,*,#459,.F.);
#580=ORIENTED_EDGE('',*,*,#460,.F.);
#581=ORIENTED_EDGE('',*,*,#461,.T.);
#582=ORIENTED_EDGE('',*,*,#462,.T.);
#583=ORIENTED_EDGE('',*,*,#463,.T.);
#584=ORIENTED_EDGE('',*,*,#464,.F.);
#585=ORIENTED_EDGE('',*,*,#454,.T.);
#586=ORIENTED_EDGE('',*,*,#457,.T.);
#587=ORIENTED_EDGE('',*,*,#465,.F.);
#588=ORIENTED_EDGE('',*,*,#466,.T.);
#589=ORIENTED_EDGE('',*,*,#467,.T.);
#590=ORIENTED_EDGE('',*,*,#468,.T.);
#591=ORIENTED_EDGE('',*,*,#460,.T.);
#592=ORIENTED_EDGE('',*,*,#469,.T.);
#593=ORIENTED_EDGE('',*,*,#470,.T.);
#594=ORIENTED_EDGE('',*,*,#471,.T.);
#595=ORIENTED_EDGE('',*,*,#472,.T.);
#596=ORIENTED_EDGE('',*,*,#473,.T.);
#597=ORIENTED_EDGE('',*,*,#474,.T.);
#598=ORIENTED_EDGE('',*,*,#469,.F.);
#599=ORIENTED_EDGE('',*,*,#464,.T.);
#600=ORIENTED_EDGE('',*,*,#475,.T.);
#601=ORIENTED_EDGE('',*,*,#476,.T.);
#602=ORIENTED_EDGE('',*,*,#466,.F.);
#603=ORIENTED_EDGE('',*,*,#477,.T.);
#604=ORIENTED_EDGE('',*,*,#478,.F.);
#605=ORIENTED_EDGE('',*,*,#479,.F.);
#606=ORIENTED_EDGE('',*,*,#480,.F.);
#607=ORIENTED_EDGE('',*,*,#481,.F.);
#608=ORIENTED_EDGE('',*,*,#482,.F.);
#609=ORIENTED_EDGE('',*,*,#483,.F.);
#610=ORIENTED_EDGE('',*,*,#484,.F.);
#611=ORIENTED_EDGE('',*,*,#485,.F.);
#612=ORIENTED_EDGE('',*,*,#486,.F.);
#613=ORIENTED_EDGE('',*,*,#487,.F.);
#614=ORIENTED_EDGE('',*,*,#488,.T.);
#615=ORIENTED_EDGE('',*,*,#480,.T.);
#616=ORIENTED_EDGE('',*,*,#489,.T.);
#617=ORIENTED_EDGE('',*,*,#490,.T.);
#618=ORIENTED_EDGE('',*,*,#491,.F.);
#619=ORIENTED_EDGE('',*,*,#492,.F.);
#620=ORIENTED_EDGE('',*,*,#490,.F.);
#621=ORIENTED_EDGE('',*,*,#493,.F.);
#622=ORIENTED_EDGE('',*,*,#494,.T.);
#623=ORIENTED_EDGE('',*,*,#495,.T.);
#624=ORIENTED_EDGE('',*,*,#496,.T.);
#625=ORIENTED_EDGE('',*,*,#495,.F.);
#626=ORIENTED_EDGE('',*,*,#497,.F.);
#627=ORIENTED_EDGE('',*,*,#498,.T.);
#628=ORIENTED_EDGE('',*,*,#499,.T.);
#629=ORIENTED_EDGE('',*,*,#500,.T.);
#630=ORIENTED_EDGE('',*,*,#501,.T.);
#631=ORIENTED_EDGE('',*,*,#494,.F.);
#632=ORIENTED_EDGE('',*,*,#501,.F.);
#633=ORIENTED_EDGE('',*,*,#502,.T.);
#634=ORIENTED_EDGE('',*,*,#498,.F.);
#635=ORIENTED_EDGE('',*,*,#503,.T.);
#636=ORIENTED_EDGE('',*,*,#504,.T.);
#637=ORIENTED_EDGE('',*,*,#505,.T.);
#638=ORIENTED_EDGE('',*,*,#506,.T.);
#639=ORIENTED_EDGE('',*,*,#507,.T.);
#640=ORIENTED_EDGE('',*,*,#496,.F.);
#641=ORIENTED_EDGE('',*,*,#508,.F.);
#642=ORIENTED_EDGE('',*,*,#509,.T.);
#643=ORIENTED_EDGE('',*,*,#504,.F.);
#644=ORIENTED_EDGE('',*,*,#509,.F.);
#645=ORIENTED_EDGE('',*,*,#510,.F.);
#646=ORIENTED_EDGE('',*,*,#511,.T.);
#647=ORIENTED_EDGE('',*,*,#505,.F.);
#648=ORIENTED_EDGE('',*,*,#511,.F.);
#649=ORIENTED_EDGE('',*,*,#512,.F.);
#650=ORIENTED_EDGE('',*,*,#513,.T.);
#651=ORIENTED_EDGE('',*,*,#506,.F.);
#652=ORIENTED_EDGE('',*,*,#513,.F.);
#653=ORIENTED_EDGE('',*,*,#514,.F.);
#654=ORIENTED_EDGE('',*,*,#515,.T.);
#655=ORIENTED_EDGE('',*,*,#507,.F.);
#656=ORIENTED_EDGE('',*,*,#515,.F.);
#657=ORIENTED_EDGE('',*,*,#516,.F.);
#658=ORIENTED_EDGE('',*,*,#517,.F.);
#659=ORIENTED_EDGE('',*,*,#518,.F.);
#660=ORIENTED_EDGE('',*,*,#519,.T.);
#661=ORIENTED_EDGE('',*,*,#472,.F.);
#662=ORIENTED_EDGE('',*,*,#520,.T.);
#663=ORIENTED_EDGE('',*,*,#521,.T.);
#664=ORIENTED_EDGE('',*,*,#522,.T.);
#665=ORIENTED_EDGE('',*,*,#523,.T.);
#666=ORIENTED_EDGE('',*,*,#524,.T.);
#667=ORIENTED_EDGE('',*,*,#525,.F.);
#668=ORIENTED_EDGE('',*,*,#526,.T.);
#669=ORIENTED_EDGE('',*,*,#524,.F.);
#670=ORIENTED_EDGE('',*,*,#527,.F.);
#671=ORIENTED_EDGE('',*,*,#528,.F.);
#672=ORIENTED_EDGE('',*,*,#527,.T.);
#673=ORIENTED_EDGE('',*,*,#523,.F.);
#674=ORIENTED_EDGE('',*,*,#529,.F.);
#675=ORIENTED_EDGE('',*,*,#530,.F.);
#676=ORIENTED_EDGE('',*,*,#529,.T.);
#677=ORIENTED_EDGE('',*,*,#522,.F.);
#678=ORIENTED_EDGE('',*,*,#531,.F.);
#679=ORIENTED_EDGE('',*,*,#532,.F.);
#680=ORIENTED_EDGE('',*,*,#531,.T.);
#681=ORIENTED_EDGE('',*,*,#521,.F.);
#682=ORIENTED_EDGE('',*,*,#526,.F.);
#683=ORIENTED_EDGE('',*,*,#533,.F.);
#684=ORIENTED_EDGE('',*,*,#485,.T.);
#685=ORIENTED_EDGE('',*,*,#520,.F.);
#686=ORIENTED_EDGE('',*,*,#471,.F.);
#687=ORIENTED_EDGE('',*,*,#534,.T.);
#688=ORIENTED_EDGE('',*,*,#473,.F.);
#689=ORIENTED_EDGE('',*,*,#519,.F.);
#690=ORIENTED_EDGE('',*,*,#487,.T.);
#691=ORIENTED_EDGE('',*,*,#516,.T.);
#692=ORIENTED_EDGE('',*,*,#484,.T.);
#693=ORIENTED_EDGE('',*,*,#535,.T.);
#694=ORIENTED_EDGE('',*,*,#536,.T.);
#695=ORIENTED_EDGE('',*,*,#537,.F.);
#696=ORIENTED_EDGE('',*,*,#538,.T.);
#697=ORIENTED_EDGE('',*,*,#539,.F.);
#698=ORIENTED_EDGE('',*,*,#538,.F.);
#699=ORIENTED_EDGE('',*,*,#540,.F.);
#700=ORIENTED_EDGE('',*,*,#541,.T.);
#701=ORIENTED_EDGE('',*,*,#542,.F.);
#702=ORIENTED_EDGE('',*,*,#541,.F.);
#703=ORIENTED_EDGE('',*,*,#543,.F.);
#704=ORIENTED_EDGE('',*,*,#481,.T.);
#705=ORIENTED_EDGE('',*,*,#488,.F.);
#706=ORIENTED_EDGE('',*,*,#492,.T.);
#707=ORIENTED_EDGE('',*,*,#448,.T.);
#708=ORIENTED_EDGE('',*,*,#451,.T.);
#709=ORIENTED_EDGE('',*,*,#544,.F.);
#710=ORIENTED_EDGE('',*,*,#493,.T.);
#711=ORIENTED_EDGE('',*,*,#489,.F.);
#712=ORIENTED_EDGE('',*,*,#479,.T.);
#713=ORIENTED_EDGE('',*,*,#542,.T.);
#714=ORIENTED_EDGE('',*,*,#539,.T.);
#715=ORIENTED_EDGE('',*,*,#518,.T.);
#716=ORIENTED_EDGE('',*,*,#545,.T.);
#717=ORIENTED_EDGE('',*,*,#546,.T.);
#718=ORIENTED_EDGE('',*,*,#482,.T.);
#719=ORIENTED_EDGE('',*,*,#517,.T.);
#720=ORIENTED_EDGE('',*,*,#536,.F.);
#721=ORIENTED_EDGE('',*,*,#547,.F.);
#722=ORIENTED_EDGE('',*,*,#545,.F.);
#723=ORIENTED_EDGE('',*,*,#543,.T.);
#724=ORIENTED_EDGE('',*,*,#491,.T.);
#725=ORIENTED_EDGE('',*,*,#544,.T.);
#726=ORIENTED_EDGE('',*,*,#478,.T.);
#727=ORIENTED_EDGE('',*,*,#547,.T.);
#728=ORIENTED_EDGE('',*,*,#535,.F.);
#729=ORIENTED_EDGE('',*,*,#483,.T.);
#730=ORIENTED_EDGE('',*,*,#546,.F.);
#731=ORIENTED_EDGE('',*,*,#537,.T.);
#732=ORIENTED_EDGE('',*,*,#540,.T.);
#733=ORIENTED_EDGE('',*,*,#548,.F.);
#734=ORIENTED_EDGE('',*,*,#549,.T.);
#735=ORIENTED_EDGE('',*,*,#550,.T.);
#736=ORIENTED_EDGE('',*,*,#549,.F.);
#737=ORIENTED_EDGE('',*,*,#550,.F.);
#738=ORIENTED_EDGE('',*,*,#551,.F.);
#739=ORIENTED_EDGE('',*,*,#552,.T.);
#740=ORIENTED_EDGE('',*,*,#553,.T.);
#741=ORIENTED_EDGE('',*,*,#552,.F.);
#742=ORIENTED_EDGE('',*,*,#553,.F.);
#743=ORIENTED_EDGE('',*,*,#477,.F.);
#744=ORIENTED_EDGE('',*,*,#554,.T.);
#745=ORIENTED_EDGE('',*,*,#499,.F.);
#746=ORIENTED_EDGE('',*,*,#502,.F.);
#747=ORIENTED_EDGE('',*,*,#500,.F.);
#748=ORIENTED_EDGE('',*,*,#554,.F.);
#749=ORIENTED_EDGE('',*,*,#476,.F.);
#750=ORIENTED_EDGE('',*,*,#555,.F.);
#751=ORIENTED_EDGE('',*,*,#556,.T.);
#752=ORIENTED_EDGE('',*,*,#557,.F.);
#753=ORIENTED_EDGE('',*,*,#467,.F.);
#754=ORIENTED_EDGE('',*,*,#548,.T.);
#755=ORIENTED_EDGE('',*,*,#551,.T.);
#756=ORIENTED_EDGE('',*,*,#475,.F.);
#757=ORIENTED_EDGE('',*,*,#463,.F.);
#758=ORIENTED_EDGE('',*,*,#558,.F.);
#759=ORIENTED_EDGE('',*,*,#555,.T.);
#760=ORIENTED_EDGE('',*,*,#559,.F.);
#761=ORIENTED_EDGE('',*,*,#556,.F.);
#762=ORIENTED_EDGE('',*,*,#558,.T.);
#763=ORIENTED_EDGE('',*,*,#462,.F.);
#764=ORIENTED_EDGE('',*,*,#468,.F.);
#765=ORIENTED_EDGE('',*,*,#557,.T.);
#766=ORIENTED_EDGE('',*,*,#559,.T.);
#767=ORIENTED_EDGE('',*,*,#461,.F.);
#768=ORIENTED_EDGE('',*,*,#497,.T.);
#769=ORIENTED_EDGE('',*,*,#465,.T.);
#770=ORIENTED_EDGE('',*,*,#503,.F.);
#771=ORIENTED_EDGE('',*,*,#560,.T.);
#772=ORIENTED_EDGE('',*,*,#561,.T.);
#773=ORIENTED_EDGE('',*,*,#560,.F.);
#774=ORIENTED_EDGE('',*,*,#561,.F.);
#775=ORIENTED_EDGE('',*,*,#508,.T.);
#776=ORIENTED_EDGE('',*,*,#510,.T.);
#777=ORIENTED_EDGE('',*,*,#512,.T.);
#778=ORIENTED_EDGE('',*,*,#514,.T.);
#779=ORIENTED_EDGE('',*,*,#532,.T.);
#780=ORIENTED_EDGE('',*,*,#525,.T.);
#781=ORIENTED_EDGE('',*,*,#528,.T.);
#782=ORIENTED_EDGE('',*,*,#530,.T.);
#783=ORIENTED_EDGE('',*,*,#474,.F.);
#784=ORIENTED_EDGE('',*,*,#534,.F.);
#785=ORIENTED_EDGE('',*,*,#486,.T.);
#786=ORIENTED_EDGE('',*,*,#533,.T.);
#787=ORIENTED_EDGE('',*,*,#470,.F.);
#788=ORIENTED_EDGE('',*,*,#453,.T.);
#789=ORIENTED_EDGE('',*,*,#450,.T.);
#790=CYLINDRICAL_SURFACE('',#866,1.3);
#791=CYLINDRICAL_SURFACE('',#869,1.3);
#792=CYLINDRICAL_SURFACE('',#872,1.3);
#793=CYLINDRICAL_SURFACE('',#876,1.3);
#794=CYLINDRICAL_SURFACE('',#883,45.);
#795=CYLINDRICAL_SURFACE('',#897,49.);
#796=CYLINDRICAL_SURFACE('',#905,1.5);
#797=CYLINDRICAL_SURFACE('',#907,1.5);
#798=CYLINDRICAL_SURFACE('',#909,1.5);
#799=CYLINDRICAL_SURFACE('',#911,1.5);
#800=CYLINDRICAL_SURFACE('',#916,37.);
#801=CYLINDRICAL_SURFACE('',#923,1.3);
#802=CYLINDRICAL_SURFACE('',#926,1.3);
#803=CYLINDRICAL_SURFACE('',#934,1.3);
#804=CYLINDRICAL_SURFACE('',#938,1.3);
#805=CYLINDRICAL_SURFACE('',#942,5.);
#806=CYLINDRICAL_SURFACE('',#948,60.625);
#807=ADVANCED_FACE('',(#75),#790,.F.);
#808=ADVANCED_FACE('',(#76),#791,.F.);
#809=ADVANCED_FACE('',(#77),#792,.F.);
#810=ADVANCED_FACE('',(#78),#48,.T.);
#811=ADVANCED_FACE('',(#79),#793,.F.);
#812=ADVANCED_FACE('',(#80),#49,.T.);
#813=ADVANCED_FACE('',(#81,#20,#21),#50,.T.);
#814=ADVANCED_FACE('',(#82,#22),#794,.F.);
#815=ADVANCED_FACE('',(#83),#51,.F.);
#816=ADVANCED_FACE('',(#84,#23),#52,.T.);
#817=ADVANCED_FACE('',(#85),#53,.F.);
#818=ADVANCED_FACE('',(#86),#15,.F.);
#819=ADVANCED_FACE('',(#87),#795,.T.);
#820=ADVANCED_FACE('',(#88,#24,#25,#26,#27,#28),#54,.T.);
#821=ADVANCED_FACE('',(#89),#796,.F.);
#822=ADVANCED_FACE('',(#90),#797,.F.);
#823=ADVANCED_FACE('',(#91),#798,.F.);
#824=ADVANCED_FACE('',(#92),#799,.F.);
#825=ADVANCED_FACE('',(#93,#29),#55,.F.);
#826=ADVANCED_FACE('',(#94),#56,.T.);
#827=ADVANCED_FACE('',(#95),#800,.F.);
#828=ADVANCED_FACE('',(#96),#57,.T.);
#829=ADVANCED_FACE('',(#97),#58,.T.);
#830=ADVANCED_FACE('',(#98),#59,.T.);
#831=ADVANCED_FACE('',(#99),#60,.T.);
#832=ADVANCED_FACE('',(#100),#61,.T.);
#833=ADVANCED_FACE('',(#101),#801,.F.);
#834=ADVANCED_FACE('',(#102),#802,.F.);
#835=ADVANCED_FACE('',(#103,#30,#31),#62,.F.);
#836=ADVANCED_FACE('',(#104,#32,#33),#63,.F.);
#837=ADVANCED_FACE('',(#105),#64,.T.);
#838=ADVANCED_FACE('',(#106,#34),#65,.T.);
#839=ADVANCED_FACE('',(#107,#35,#36),#66,.T.);
#840=ADVANCED_FACE('',(#108),#803,.F.);
#841=ADVANCED_FACE('',(#109),#67,.T.);
#842=ADVANCED_FACE('',(#110),#804,.F.);
#843=ADVANCED_FACE('',(#111),#68,.T.);
#844=ADVANCED_FACE('',(#112),#805,.F.);
#845=ADVANCED_FACE('',(#113,#37,#38),#69,.T.);
#846=ADVANCED_FACE('',(#114),#70,.T.);
#847=ADVANCED_FACE('',(#115),#71,.T.);
#848=ADVANCED_FACE('',(#116),#72,.T.);
#849=ADVANCED_FACE('',(#117,#39),#73,.T.);
#850=ADVANCED_FACE('',(#118),#806,.T.);
#851=ADVANCED_FACE('',(#119,#40,#41,#42,#43,#44,#45,#46,#47),#74,.F.);
#852=CLOSED_SHELL('',(#807,#808,#809,#810,#811,#812,#813,#814,#815,#816,
#817,#818,#819,#820,#821,#822,#823,#824,#825,#826,#827,#828,#829,#830,#831,
#832,#833,#834,#835,#836,#837,#838,#839,#840,#841,#842,#843,#844,#845,#846,
#847,#848,#849,#850,#851));
#853=DERIVED_UNIT_ELEMENT(#855,1.);
#854=DERIVED_UNIT_ELEMENT(#1501,-3.);
#855=(
MASS_UNIT()
NAMED_UNIT(*)
SI_UNIT(.KILO.,.GRAM.)
);
#856=DERIVED_UNIT((#853,#854));
#857=MEASURE_REPRESENTATION_ITEM('density measure',
POSITIVE_RATIO_MEASURE(7850.),#856);
#858=PROPERTY_DEFINITION_REPRESENTATION(#863,#860);
#859=PROPERTY_DEFINITION_REPRESENTATION(#864,#861);
#860=REPRESENTATION('material name',(#862),#1498);
#861=REPRESENTATION('density',(#857),#1498);
#862=DESCRIPTIVE_REPRESENTATION_ITEM('Steel','Steel');
#863=PROPERTY_DEFINITION('material property','material name',#1508);
#864=PROPERTY_DEFINITION('material property','density of part',#1508);
#865=AXIS2_PLACEMENT_3D('',#1193,#951,#952);
#866=AXIS2_PLACEMENT_3D('',#1194,#953,#954);
#867=AXIS2_PLACEMENT_3D('',#1196,#955,#956);
#868=AXIS2_PLACEMENT_3D('',#1199,#958,#959);
#869=AXIS2_PLACEMENT_3D('',#1200,#960,#961);
#870=AXIS2_PLACEMENT_3D('',#1202,#962,#963);
#871=AXIS2_PLACEMENT_3D('',#1205,#965,#966);
#872=AXIS2_PLACEMENT_3D('',#1206,#967,#968);
#873=AXIS2_PLACEMENT_3D('',#1208,#969,#970);
#874=AXIS2_PLACEMENT_3D('',#1211,#972,#973);
#875=AXIS2_PLACEMENT_3D('',#1212,#974,#975);
#876=AXIS2_PLACEMENT_3D('',#1213,#976,#977);
#877=AXIS2_PLACEMENT_3D('',#1215,#978,#979);
#878=AXIS2_PLACEMENT_3D('',#1218,#981,#982);
#879=AXIS2_PLACEMENT_3D('',#1219,#983,#984);
#880=AXIS2_PLACEMENT_3D('',#1220,#985,#986);
#881=AXIS2_PLACEMENT_3D('',#1223,#987,#988);
#882=AXIS2_PLACEMENT_3D('',#1230,#992,#993);
#883=AXIS2_PLACEMENT_3D('',#1231,#994,#995);
#884=AXIS2_PLACEMENT_3D('',#1233,#996,#997);
#885=AXIS2_PLACEMENT_3D('',#1237,#999,#1000);
#886=AXIS2_PLACEMENT_3D('',#1242,#1003,#1004);
#887=AXIS2_PLACEMENT_3D('',#1246,#1006,#1007);
#888=AXIS2_PLACEMENT_3D('',#1249,#1009,#1010);
#889=AXIS2_PLACEMENT_3D('',#1252,#1012,#1013);
#890=AXIS2_PLACEMENT_3D('',#1288,#1014,#1015);
#891=AXIS2_PLACEMENT_3D('',#1297,#1020,#1021);
#892=AXIS2_PLACEMENT_3D('',#1315,#1031,#1032);
#893=AXIS2_PLACEMENT_3D('',#1321,#1036,#1037);
#894=AXIS2_PLACEMENT_3D('',#1323,#1038,#1039);
#895=AXIS2_PLACEMENT_3D('',#1325,#1040,#1041);
#896=AXIS2_PLACEMENT_3D('',#1326,#1042,#1043);
#897=AXIS2_PLACEMENT_3D('',#1327,#1044,#1045);
#898=AXIS2_PLACEMENT_3D('',#1329,#1046,#1047);
#899=AXIS2_PLACEMENT_3D('',#1373,#1050,#1051);
#900=AXIS2_PLACEMENT_3D('',#1375,#1052,#1053);
#901=AXIS2_PLACEMENT_3D('',#1377,#1054,#1055);
#902=AXIS2_PLACEMENT_3D('',#1379,#1056,#1057);
#903=AXIS2_PLACEMENT_3D('',#1381,#1058,#1059);
#904=AXIS2_PLACEMENT_3D('',#1383,#1060,#1061);
#905=AXIS2_PLACEMENT_3D('',#1384,#1062,#1063);
#906=AXIS2_PLACEMENT_3D('',#1386,#1064,#1065);
#907=AXIS2_PLACEMENT_3D('',#1388,#1067,#1068);
#908=AXIS2_PLACEMENT_3D('',#1390,#1069,#1070);
#909=AXIS2_PLACEMENT_3D('',#1392,#1072,#1073);
#910=AXIS2_PLACEMENT_3D('',#1394,#1074,#1075);
#911=AXIS2_PLACEMENT_3D('',#1396,#1077,#1078);
#912=AXIS2_PLACEMENT_3D('',#1398,#1079,#1080);
#913=AXIS2_PLACEMENT_3D('',#1400,#1082,#1083);
#914=AXIS2_PLACEMENT_3D('',#1414,#1091,#1092);
#915=AXIS2_PLACEMENT_3D('',#1416,#1094,#1095);
#916=AXIS2_PLACEMENT_3D('',#1422,#1099,#1100);
#917=AXIS2_PLACEMENT_3D('',#1424,#1101,#1102);
#918=AXIS2_PLACEMENT_3D('',#1426,#1104,#1105);
#919=AXIS2_PLACEMENT_3D('',#1430,#1108,#1109);
#920=AXIS2_PLACEMENT_3D('',#1432,#1111,#1112);
#921=AXIS2_PLACEMENT_3D('',#1434,#1114,#1115);
#922=AXIS2_PLACEMENT_3D('',#1436,#1117,#1118);
#923=AXIS2_PLACEMENT_3D('',#1440,#1121,#1122);
#924=AXIS2_PLACEMENT_3D('',#1442,#1123,#1124);
#925=AXIS2_PLACEMENT_3D('',#1445,#1126,#1127);
#926=AXIS2_PLACEMENT_3D('',#1446,#1128,#1129);
#927=AXIS2_PLACEMENT_3D('',#1448,#1130,#1131);
#928=AXIS2_PLACEMENT_3D('',#1451,#1133,#1134);
#929=AXIS2_PLACEMENT_3D('',#1452,#1135,#1136);
#930=AXIS2_PLACEMENT_3D('',#1454,#1138,#1139);
#931=AXIS2_PLACEMENT_3D('',#1456,#1141,#1142);
#932=AXIS2_PLACEMENT_3D('',#1460,#1145,#1146);
#933=AXIS2_PLACEMENT_3D('',#1462,#1148,#1149);
#934=AXIS2_PLACEMENT_3D('',#1463,#1150,#1151);
#935=AXIS2_PLACEMENT_3D('',#1465,#1152,#1153);
#936=AXIS2_PLACEMENT_3D('',#1468,#1155,#1156);
#937=AXIS2_PLACEMENT_3D('',#1469,#1157,#1158);
#938=AXIS2_PLACEMENT_3D('',#1470,#1159,#1160);
#939=AXIS2_PLACEMENT_3D('',#1472,#1161,#1162);
#940=AXIS2_PLACEMENT_3D('',#1475,#1164,#1165);
#941=AXIS2_PLACEMENT_3D('',#1476,#1166,#1167);
#942=AXIS2_PLACEMENT_3D('',#1477,#1168,#1169);
#943=AXIS2_PLACEMENT_3D('',#1479,#1171,#1172);
#944=AXIS2_PLACEMENT_3D('',#1485,#1176,#1177);
#945=AXIS2_PLACEMENT_3D('',#1487,#1179,#1180);
#946=AXIS2_PLACEMENT_3D('',#1489,#1182,#1183);
#947=AXIS2_PLACEMENT_3D('',#1490,#1184,#1185);
#948=AXIS2_PLACEMENT_3D('',#1491,#1186,#1187);
#949=AXIS2_PLACEMENT_3D('',#1494,#1189,#1190);
#950=AXIS2_PLACEMENT_3D('',#1495,#1191,#1192);
#951=DIRECTION('axis',(0.,0.,1.));
#952=DIRECTION('refdir',(1.,0.,0.));
#953=DIRECTION('center_axis',(0.,0.,1.));
#954=DIRECTION('ref_axis',(-1.,-2.6091279917958E-34,0.));
#955=DIRECTION('center_axis',(-1.26392576164109E-53,4.84424591516781E-20,
1.));
#956=DIRECTION('ref_axis',(-1.,-2.6091279917958E-34,0.));
#957=DIRECTION('',(0.,0.,1.));
#958=DIRECTION('center_axis',(1.26392576164109E-53,-4.84424591516781E-20,
-1.));
#959=DIRECTION('ref_axis',(-1.,-2.6091279917958E-34,0.));
#960=DIRECTION('center_axis',(0.,0.,1.));
#961=DIRECTION('ref_axis',(-1.,-2.6091279917958E-34,0.));
#962=DIRECTION('center_axis',(-1.26392576164109E-53,4.84424591516781E-20,
1.));
#963=DIRECTION('ref_axis',(-1.,-2.6091279917958E-34,0.));
#964=DIRECTION('',(0.,0.,1.));
#965=DIRECTION('center_axis',(1.26392576164109E-53,-4.84424591516781E-20,
-1.));
#966=DIRECTION('ref_axis',(-1.,-2.6091279917958E-34,0.));
#967=DIRECTION('center_axis',(0.,0.,-1.));
#968=DIRECTION('ref_axis',(-1.,0.,0.));
#969=DIRECTION('center_axis',(1.26392576164109E-53,-4.84424591516781E-20,
-1.));
#970=DIRECTION('ref_axis',(-1.,0.,0.));
#971=DIRECTION('',(0.,0.,-1.));
#972=DIRECTION('center_axis',(0.,0.,-1.));
#973=DIRECTION('ref_axis',(-1.,0.,0.));
#974=DIRECTION('center_axis',(0.,0.,1.));
#975=DIRECTION('ref_axis',(-1.,0.,0.));
#976=DIRECTION('center_axis',(0.,0.,-1.));
#977=DIRECTION('ref_axis',(-1.,0.,0.));
#978=DIRECTION('center_axis',(1.26392576164109E-53,-4.84424591516781E-20,
-1.));
#979=DIRECTION('ref_axis',(-1.,0.,0.));
#980=DIRECTION('',(0.,0.,-1.));
#981=DIRECTION('center_axis',(0.,0.,-1.));
#982=DIRECTION('ref_axis',(-1.,0.,0.));
#983=DIRECTION('center_axis',(0.,0.,1.));
#984=DIRECTION('ref_axis',(-1.,0.,0.));
#985=DIRECTION('center_axis',(-1.26392576164109E-53,4.84424591516781E-20,
1.));
#986=DIRECTION('ref_axis',(-1.,-2.6091279917958E-34,0.));
#987=DIRECTION('center_axis',(1.26392576164109E-53,-4.84424591516781E-20,
-1.));
#988=DIRECTION('ref_axis',(1.,2.6091279917958E-34,0.));
#989=DIRECTION('',(1.,2.6091279917958E-34,0.));
#990=DIRECTION('',(-2.6091279917958E-34,1.,-4.84424591516781E-20));
#991=DIRECTION('',(-1.,-2.6091279917958E-34,0.));
#992=DIRECTION('center_axis',(1.26392576164109E-53,-4.84424591516781E-20,
-1.));
#993=DIRECTION('ref_axis',(1.,2.6091279917958E-34,0.));
#994=DIRECTION('center_axis',(1.26392576164109E-53,-4.84424591516781E-20,
-1.));
#995=DIRECTION('ref_axis',(1.,2.6091279917958E-34,0.));
#996=DIRECTION('center_axis',(-1.26392576164109E-53,4.84424591516781E-20,
1.));
#997=DIRECTION('ref_axis',(-1.,-2.6091279917958E-34,0.));
#998=DIRECTION('',(-1.26392576164109E-53,4.84424591516781E-20,1.));
#999=DIRECTION('center_axis',(-1.26392576164109E-53,4.84424591516781E-20,
1.));
#1000=DIRECTION('ref_axis',(1.,2.6091279917958E-34,0.));
#1001=DIRECTION('',(-1.26392576164109E-53,4.84424591516781E-20,1.));
#1002=DIRECTION('',(-1.26392576164109E-53,4.84424591516781E-20,1.));
#1003=DIRECTION('center_axis',(-1.26392576164109E-53,4.84424591516781E-20,
1.));
#1004=DIRECTION('ref_axis',(1.,2.6091279917958E-34,0.));
#1005=DIRECTION('',(1.26392576164109E-53,-4.84424591516781E-20,-1.));
#1006=DIRECTION('center_axis',(-1.26392576164109E-53,4.84424591516781E-20,
1.));
#1007=DIRECTION('ref_axis',(1.,2.6091279917958E-34,0.));
#1008=DIRECTION('',(-1.26392576164109E-53,4.84424591516781E-20,1.));
#1009=DIRECTION('center_axis',(-1.26392576164109E-53,4.84424591516781E-20,
1.));
#1010=DIRECTION('ref_axis',(1.,2.6091279917958E-34,0.));
#1011=DIRECTION('',(1.26392576164109E-53,-4.84424591516781E-20,-1.));
#1012=DIRECTION('center_axis',(-1.26392576164109E-53,4.84424591516781E-20,
1.));
#1013=DIRECTION('ref_axis',(1.,2.6091279917958E-34,0.));
#1014=DIRECTION('center_axis',(2.6091279917958E-34,-1.,1.22513122373887E-16));
#1015=DIRECTION('ref_axis',(3.19652416948013E-50,-1.22513122373887E-16,
-1.));
#1016=DIRECTION('',(-3.19652416948013E-50,1.22513122373887E-16,1.));
#1017=DIRECTION('',(1.,2.6091279917958E-34,0.));
#1018=DIRECTION('',(3.19652416948013E-50,-1.22513122373887E-16,-1.));
#1019=DIRECTION('',(-1.,-2.6091279917958E-34,0.));
#1020=DIRECTION('center_axis',(-1.,-2.6091279917958E-34,0.));
#1021=DIRECTION('ref_axis',(1.26392576164109E-53,-4.84424591516781E-20,
-1.));
#1022=DIRECTION('',(-1.26392576164109E-53,4.84424591516781E-20,1.));
#1023=DIRECTION('',(-2.6091279917958E-34,1.,-4.84424591516781E-20));
#1024=DIRECTION('',(1.26392576164109E-53,-4.84424591516781E-20,-1.));
#1025=DIRECTION('',(1.26392576164109E-53,-4.84424591516781E-20,-1.));
#1026=DIRECTION('',(2.6091279917958E-34,-1.,4.84424591516781E-20));
#1027=DIRECTION('',(-1.26392576164109E-53,4.84424591516781E-20,1.));
#1028=DIRECTION('',(2.6091279917958E-34,-1.,1.22513122373887E-16));
#1029=DIRECTION('',(-2.6091279917958E-34,1.,-4.84424591516781E-20));
#1030=DIRECTION('',(-3.19652416948013E-50,1.22513122373887E-16,1.));
#1031=DIRECTION('center_axis',(-2.6091279917958E-34,1.,-1.22513122373887E-16));
#1032=DIRECTION('ref_axis',(-3.19652416948013E-50,1.22513122373887E-16,
1.));
#1033=DIRECTION('',(3.19652416948013E-50,-1.22513122373887E-16,-1.));
#1034=DIRECTION('',(1.,2.6091279917958E-34,0.));
#1035=DIRECTION('',(-1.,-2.6091279917958E-34,0.));
#1036=DIRECTION('center_axis',(-1.26392576164109E-53,4.84424591516781E-20,
1.));
#1037=DIRECTION('ref_axis',(-1.,-2.61635766029964E-34,0.));
#1038=DIRECTION('center_axis',(-1.26392576164109E-53,4.84424591516781E-20,
1.));
#1039=DIRECTION('ref_axis',(-1.,-2.6091279917958E-34,0.));
#1040=DIRECTION('center_axis',(-1.22464679914735E-16,1.,-4.84424591516781E-20));
#1041=DIRECTION('ref_axis',(1.,1.22464679914735E-16,0.));
#1042=DIRECTION('center_axis',(1.26392576164109E-53,-4.84424591516781E-20,
-1.));
#1043=DIRECTION('ref_axis',(-1.,-2.6091279917958E-34,0.));
#1044=DIRECTION('center_axis',(1.26392576164109E-53,-4.84424591516781E-20,
-1.));
#1045=DIRECTION('ref_axis',(-1.,-2.6091279917958E-34,0.));
#1046=DIRECTION('center_axis',(1.26392576164109E-53,-4.84424591516781E-20,
-1.));
#1047=DIRECTION('ref_axis',(-1.,-2.6091279917958E-34,0.));
#1048=DIRECTION('',(-1.26392576164109E-53,4.84424591516781E-20,1.));
#1049=DIRECTION('',(-1.26392576164109E-53,4.84424591516781E-20,1.));
#1050=DIRECTION('center_axis',(1.26392576164109E-53,-4.84424591516781E-20,
-1.));
#1051=DIRECTION('ref_axis',(1.,2.6091279917958E-34,0.));
#1052=DIRECTION('center_axis',(1.26392576164109E-53,-4.84424591516781E-20,
-1.));
#1053=DIRECTION('ref_axis',(1.,2.6091279917958E-34,0.));
#1054=DIRECTION('center_axis',(-1.26392576164109E-53,4.84424591516781E-20,
1.));
#1055=DIRECTION('ref_axis',(1.,2.6091279917958E-34,0.));
#1056=DIRECTION('center_axis',(-1.26392576164109E-53,4.84424591516781E-20,
1.));
#1057=DIRECTION('ref_axis',(1.,2.6091279917958E-34,0.));
#1058=DIRECTION('center_axis',(-1.26392576164109E-53,4.84424591516781E-20,
1.));
#1059=DIRECTION('ref_axis',(1.,2.6091279917958E-34,0.));
#1060=DIRECTION('center_axis',(-1.26392576164109E-53,4.84424591516781E-20,
1.));
#1061=DIRECTION('ref_axis',(1.,2.6091279917958E-34,0.));
#1062=DIRECTION('center_axis',(1.26392576164109E-53,-4.84424591516781E-20,
-1.));
#1063=DIRECTION('ref_axis',(1.,2.6091279917958E-34,0.));
#1064=DIRECTION('center_axis',(1.26392576164109E-53,-4.84424591516781E-20,
-1.));
#1065=DIRECTION('ref_axis',(1.,2.6091279917958E-34,0.));
#1066=DIRECTION('',(1.26392576164109E-53,-4.84424591516781E-20,-1.));
#1067=DIRECTION('center_axis',(1.26392576164109E-53,-4.84424591516781E-20,
-1.));
#1068=DIRECTION('ref_axis',(1.,2.6091279917958E-34,0.));
#1069=DIRECTION('center_axis',(1.26392576164109E-53,-4.84424591516781E-20,
-1.));
#1070=DIRECTION('ref_axis',(1.,2.6091279917958E-34,0.));
#1071=DIRECTION('',(1.26392576164109E-53,-4.84424591516781E-20,-1.));
#1072=DIRECTION('center_axis',(1.26392576164109E-53,-4.84424591516781E-20,
-1.));
#1073=DIRECTION('ref_axis',(1.,2.6091279917958E-34,0.));
#1074=DIRECTION('center_axis',(1.26392576164109E-53,-4.84424591516781E-20,
-1.));
#1075=DIRECTION('ref_axis',(1.,2.6091279917958E-34,0.));
#1076=DIRECTION('',(1.26392576164109E-53,-4.84424591516781E-20,-1.));
#1077=DIRECTION('center_axis',(1.26392576164109E-53,-4.84424591516781E-20,
-1.));
#1078=DIRECTION('ref_axis',(1.,2.6091279917958E-34,0.));
#1079=DIRECTION('center_axis',(1.26392576164109E-53,-4.84424591516781E-20,
-1.));
#1080=DIRECTION('ref_axis',(1.,2.6091279917958E-34,0.));
#1081=DIRECTION('',(1.26392576164109E-53,-4.84424591516781E-20,-1.));
#1082=DIRECTION('center_axis',(-1.26392576164109E-53,4.84424591516781E-20,
1.));
#1083=DIRECTION('ref_axis',(1.,2.6091279917958E-34,0.));
#1084=DIRECTION('',(-1.,-2.6091279917958E-34,0.));
#1085=DIRECTION('',(2.6091279917958E-34,-1.,4.84424591516781E-20));
#1086=DIRECTION('',(1.,2.6091279917958E-34,0.));
#1087=DIRECTION('',(0.5,0.866025403784438,-4.19524002471483E-20));
#1088=DIRECTION('',(-0.5,0.866025403784438,-4.19524002471483E-20));
#1089=DIRECTION('',(2.6091279917958E-34,-1.,4.84424591516781E-20));
#1090=DIRECTION('',(0.5,-0.866025403784438,4.19524002471483E-20));
#1091=DIRECTION('center_axis',(-1.26392576164109E-53,4.84424591516781E-20,
1.));
#1092=DIRECTION('ref_axis',(0.739508176267548,-0.673147574632372,3.26089238871784E-20));
#1093=DIRECTION('',(-0.500000000000001,-0.866025403784438,4.19524002471483E-20));
#1094=DIRECTION('center_axis',(0.866025403784438,-0.500000000000001,2.42212295758391E-20));
#1095=DIRECTION('ref_axis',(-0.500000000000001,-0.866025403784438,4.19524002471483E-20));
#1096=DIRECTION('',(0.500000000000001,0.866025403784438,-4.19524002471483E-20));
#1097=DIRECTION('',(1.26392576164109E-53,-4.84424591516781E-20,-1.));
#1098=DIRECTION('',(1.26392576164109E-53,-4.84424591516781E-20,-1.));
#1099=DIRECTION('center_axis',(1.26392576164109E-53,-4.84424591516781E-20,
-1.));
#1100=DIRECTION('ref_axis',(0.739508176267548,-0.673147574632372,3.26089238871784E-20));
#1101=DIRECTION('center_axis',(1.26392576164109E-53,-4.84424591516781E-20,
-1.));
#1102=DIRECTION('ref_axis',(0.739508176267548,-0.673147574632372,3.26089238871784E-20));
#1103=DIRECTION('',(1.26392576164109E-53,-4.84424591516781E-20,-1.));
#1104=DIRECTION('center_axis',(0.866025403784438,0.5,-2.42212295758391E-20));
#1105=DIRECTION('ref_axis',(0.5,-0.866025403784438,4.19524002471483E-20));
#1106=DIRECTION('',(-0.5,0.866025403784438,-4.19524002471483E-20));
#1107=DIRECTION('',(1.26392576164109E-53,-4.84424591516781E-20,-1.));
#1108=DIRECTION('center_axis',(1.,2.6091279917958E-34,0.));
#1109=DIRECTION('ref_axis',(2.6091279917958E-34,-1.,4.84424591516781E-20));
#1110=DIRECTION('',(-2.6091279917958E-34,1.,-4.84424591516781E-20));
#1111=DIRECTION('center_axis',(-0.866025403784438,-0.5,2.42212295758391E-20));
#1112=DIRECTION('ref_axis',(-0.5,0.866025403784438,-4.19524002471483E-20));
#1113=DIRECTION('',(0.5,-0.866025403784438,4.19524002471483E-20));
#1114=DIRECTION('center_axis',(-0.866025403784438,0.5,-2.42212295758391E-20));
#1115=DIRECTION('ref_axis',(0.5,0.866025403784438,-4.19524002471483E-20));
#1116=DIRECTION('',(0.5,0.866025403784438,-4.19524002471483E-20));
#1117=DIRECTION('center_axis',(2.6091279917958E-34,-1.,4.84424591516781E-20));
#1118=DIRECTION('ref_axis',(1.26392576164109E-53,-4.84424591516781E-20,
-1.));
#1119=DIRECTION('',(1.,2.6091279917958E-34,0.));
#1120=DIRECTION('',(-1.26392576164109E-53,4.84424591516781E-20,1.));
#1121=DIRECTION('center_axis',(-1.26392576164109E-53,4.84424591516781E-20,
1.));
#1122=DIRECTION('ref_axis',(-1.,-2.6091279917958E-34,0.));
#1123=DIRECTION('center_axis',(-1.26392576164109E-53,4.84424591516781E-20,
1.));
#1124=DIRECTION('ref_axis',(-1.,-2.6091279917958E-34,0.));
#1125=DIRECTION('',(-1.26392576164109E-53,4.84424591516781E-20,1.));
#1126=DIRECTION('center_axis',(1.26392576164109E-53,-4.84424591516781E-20,
-1.));
#1127=DIRECTION('ref_axis',(-1.,-2.6091279917958E-34,0.));
#1128=DIRECTION('center_axis',(-1.26392576164109E-53,4.84424591516781E-20,
1.));
#1129=DIRECTION('ref_axis',(-1.,-2.6091279917958E-34,0.));
#1130=DIRECTION('center_axis',(-1.26392576164109E-53,4.84424591516781E-20,
1.));
#1131=DIRECTION('ref_axis',(-1.,-2.6091279917958E-34,0.));
#1132=DIRECTION('',(-1.26392576164109E-53,4.84424591516781E-20,1.));
#1133=DIRECTION('center_axis',(1.26392576164109E-53,-4.84424591516781E-20,
-1.));
#1134=DIRECTION('ref_axis',(-1.,-2.6091279917958E-34,0.));
#1135=DIRECTION('center_axis',(-1.26392576164109E-53,4.84424591516781E-20,
1.));
#1136=DIRECTION('ref_axis',(2.6091279917958E-34,-1.,4.84424591516781E-20));
#1137=DIRECTION('',(-2.6091279917958E-34,1.,-1.22513122373887E-16));
#1138=DIRECTION('center_axis',(1.26392576164109E-53,-4.84424591516781E-20,
-1.));
#1139=DIRECTION('ref_axis',(-2.6091279917958E-34,1.,-4.84424591516781E-20));
#1140=DIRECTION('',(2.6091279917958E-34,-1.,4.84424591516781E-20));
#1141=DIRECTION('center_axis',(-2.6091279917958E-34,1.,-4.84424591516781E-20));
#1142=DIRECTION('ref_axis',(-1.26392576164109E-53,4.84424591516781E-20,
1.));
#1143=DIRECTION('',(1.26392576164109E-53,-4.84424591516781E-20,-1.));
#1144=DIRECTION('',(-1.,-2.6091279917958E-34,0.));
#1145=DIRECTION('center_axis',(1.,2.6091279917958E-34,0.));
#1146=DIRECTION('ref_axis',(-1.26392576164109E-53,4.84424591516781E-20,
1.));
#1147=DIRECTION('',(2.6091279917958E-34,-1.,4.84424591516781E-20));
#1148=DIRECTION('center_axis',(1.26392576164109E-53,-4.84424591516781E-20,
-1.));
#1149=DIRECTION('ref_axis',(1.,2.6091279917958E-34,0.));
#1150=DIRECTION('center_axis',(-1.26392576164109E-53,4.84424591516781E-20,
1.));
#1151=DIRECTION('ref_axis',(-1.,-2.6091279917958E-34,0.));
#1152=DIRECTION('center_axis',(-1.26392576164109E-53,4.84424591516781E-20,
1.));
#1153=DIRECTION('ref_axis',(-1.,-2.6091279917958E-34,0.));
#1154=DIRECTION('',(-1.26392576164109E-53,4.84424591516781E-20,1.));
#1155=DIRECTION('center_axis',(-1.26392576164109E-53,4.84424591516781E-20,
1.));
#1156=DIRECTION('ref_axis',(-1.,-2.6091279917958E-34,0.));
#1157=DIRECTION('center_axis',(1.26392576164109E-53,-4.84424591516781E-20,
-1.));
#1158=DIRECTION('ref_axis',(-1.,-2.6091279917958E-34,0.));
#1159=DIRECTION('center_axis',(-1.26392576164109E-53,4.84424591516781E-20,
1.));
#1160=DIRECTION('ref_axis',(-1.,-2.6091279917958E-34,0.));
#1161=DIRECTION('center_axis',(-1.26392576164109E-53,4.84424591516781E-20,
1.));
#1162=DIRECTION('ref_axis',(-1.,-2.6091279917958E-34,0.));
#1163=DIRECTION('',(-1.26392576164109E-53,4.84424591516781E-20,1.));
#1164=DIRECTION('center_axis',(-1.26392576164109E-53,4.84424591516781E-20,
1.));
#1165=DIRECTION('ref_axis',(-1.,-2.6091279917958E-34,0.));
#1166=DIRECTION('center_axis',(1.26392576164109E-53,-4.84424591516781E-20,
-1.));
#1167=DIRECTION('ref_axis',(-1.,-2.6091279917958E-34,0.));
#1168=DIRECTION('center_axis',(1.,2.6091279917958E-34,0.));
#1169=DIRECTION('ref_axis',(-2.6091279917958E-34,1.,-4.84424591516781E-20));
#1170=DIRECTION('',(1.,2.6091279917958E-34,0.));
#1171=DIRECTION('center_axis',(1.26392576164109E-53,-4.84424591516781E-20,
-1.));
#1172=DIRECTION('ref_axis',(1.,2.6091279917958E-34,0.));
#1173=DIRECTION('',(-1.,-2.6091279917958E-34,0.));
#1174=DIRECTION('',(2.6091279917958E-34,-1.,4.84424591516781E-20));
#1175=DIRECTION('',(1.,2.6091279917958E-34,0.));
#1176=DIRECTION('center_axis',(-2.6091279917958E-34,1.,-4.84424591516781E-20));
#1177=DIRECTION('ref_axis',(-1.26392576164109E-53,4.84424591516781E-20,
1.));
#1178=DIRECTION('',(0.,0.,1.));
#1179=DIRECTION('center_axis',(1.,2.6091279917958E-34,0.));
#1180=DIRECTION('ref_axis',(-1.26392576164109E-53,4.84424591516781E-20,
1.));
#1181=DIRECTION('',(-1.26392576164109E-53,4.84424591516781E-20,1.));
#1182=DIRECTION('center_axis',(2.6091279917958E-34,-1.,4.84424591516781E-20));
#1183=DIRECTION('ref_axis',(1.26392576164109E-53,-4.84424591516781E-20,
-1.));
#1184=DIRECTION('center_axis',(1.26392576164109E-53,-4.84424591516781E-20,
-1.));
#1185=DIRECTION('ref_axis',(-1.,-2.6091279917958E-34,0.));
#1186=DIRECTION('center_axis',(1.26392576164109E-53,-4.84424591516781E-20,
-1.));
#1187=DIRECTION('ref_axis',(1.,2.6091279917958E-34,0.));
#1188=DIRECTION('',(-1.26392576164109E-53,4.84424591516781E-20,1.));
#1189=DIRECTION('center_axis',(1.26392576164109E-53,-4.84424591516781E-20,
-1.));
#1190=DIRECTION('ref_axis',(1.,2.6091279917958E-34,0.));
#1191=DIRECTION('center_axis',(1.26392576164109E-53,-4.84424591516781E-20,
-1.));
#1192=DIRECTION('ref_axis',(1.,2.6091279917958E-34,0.));
#1193=CARTESIAN_POINT('',(0.,0.,0.));
#1194=CARTESIAN_POINT('Origin',(84.5954544243431,5.,33.4861561565032));
#1195=CARTESIAN_POINT('',(85.8954544243431,5.,59.2861561565032));
#1196=CARTESIAN_POINT('Origin',(84.5954544243431,5.,59.2861561565032));
#1197=CARTESIAN_POINT('',(85.8954544243431,5.,64.2861561565032));
#1198=CARTESIAN_POINT('',(85.8954544243431,5.,33.4861561565032));
#1199=CARTESIAN_POINT('Origin',(84.5954544243431,5.,64.2861561565032));
#1200=CARTESIAN_POINT('Origin',(84.5954544243431,-5.,33.4861561565032));
#1201=CARTESIAN_POINT('',(85.8954544243431,-5.,59.2861561565032));
#1202=CARTESIAN_POINT('Origin',(84.5954544243431,-5.,59.2861561565032));
#1203=CARTESIAN_POINT('',(85.8954544243431,-5.,64.2861561565032));
#1204=CARTESIAN_POINT('',(85.8954544243431,-5.,33.4861561565032));
#1205=CARTESIAN_POINT('Origin',(84.5954544243431,-5.,64.2861561565032));
#1206=CARTESIAN_POINT('Origin',(36.0000005364418,5.00000007450581,51.2861561565032));
#1207=CARTESIAN_POINT('',(37.3000005364418,5.00000007450581,51.2861561565032));
#1208=CARTESIAN_POINT('Origin',(36.0000005364418,5.00000007450581,51.2861561565032));
#1209=CARTESIAN_POINT('',(37.3000005364418,5.00000007450581,46.2861561565032));
#1210=CARTESIAN_POINT('',(37.3000005364418,5.00000007450581,51.2861561565032));
#1211=CARTESIAN_POINT('Origin',(36.0000005364418,5.00000007450581,46.2861561565032));
#1212=CARTESIAN_POINT('Origin',(36.0000005364418,5.00000007450581,46.2861561565032));
#1213=CARTESIAN_POINT('Origin',(36.0000005364418,-5.00000007450581,51.2861561565032));
#1214=CARTESIAN_POINT('',(37.3000005364418,-5.00000007450581,51.2861561565032));
#1215=CARTESIAN_POINT('Origin',(36.0000005364418,-5.00000007450581,51.2861561565032));
#1216=CARTESIAN_POINT('',(37.3000005364418,-5.00000007450581,46.2861561565032));
#1217=CARTESIAN_POINT('',(37.3000005364418,-5.00000007450581,51.2861561565032));
#1218=CARTESIAN_POINT('Origin',(36.0000005364418,-5.00000007450581,46.2861561565032));
#1219=CARTESIAN_POINT('Origin',(36.0000005364418,-5.00000007450581,46.2861561565032));
#1220=CARTESIAN_POINT('Origin',(39.0954544243431,6.87882919953891E-18,51.2861561565032));
#1221=CARTESIAN_POINT('',(27.7641359672671,-13.,51.2861561565032));
#1222=CARTESIAN_POINT('',(25.8454544243431,5.51861294716821E-15,51.2861561565032));
#1223=CARTESIAN_POINT('Origin',(70.8454544243431,7.70235100511768E-18,51.2861561565032));
#1224=CARTESIAN_POINT('',(39.0954544243431,-13.,51.2861561565032));
#1225=CARTESIAN_POINT('',(39.0954544243431,-13.,51.2861561565032));
#1226=CARTESIAN_POINT('',(39.0954544243431,13.,51.2861561565032));
#1227=CARTESIAN_POINT('',(39.0954544243431,6.87882919953891E-18,51.2861561565032));
#1228=CARTESIAN_POINT('',(27.7641359672671,13.,51.2861561565032));
#1229=CARTESIAN_POINT('',(39.0954544243431,13.,51.2861561565032));
#1230=CARTESIAN_POINT('Origin',(70.8454544243431,7.70235100511768E-18,51.2861561565032));
#1231=CARTESIAN_POINT('Origin',(70.8454544243431,8.3321029740895E-18,64.2861561565032));
#1232=CARTESIAN_POINT('',(25.8454544243431,5.51652992142468E-15,8.28615615650325));
#1233=CARTESIAN_POINT('Origin',(70.8454544243431,5.61932526159503E-18,8.28615615650324));
#1234=CARTESIAN_POINT('',(25.8454544243431,5.51740188568941E-15,26.2861561565032));
#1235=CARTESIAN_POINT('',(25.8454544243431,5.51924269913718E-15,64.2861561565032));
#1236=CARTESIAN_POINT('',(27.7641359672671,-13.,26.2861561565032));
#1237=CARTESIAN_POINT('Origin',(70.8454544243431,6.49128952632499E-18,26.2861561565032));
#1238=CARTESIAN_POINT('',(27.7641359672671,-13.,64.2861561565032));
#1239=CARTESIAN_POINT('',(25.8454544243431,5.51924269913718E-15,64.2861561565032));
#1240=CARTESIAN_POINT('',(25.8454544243431,5.51924269913718E-15,64.2861561565032));
#1241=CARTESIAN_POINT('',(96.0952930553535,-37.2484314986274,64.2861561565032));
#1242=CARTESIAN_POINT('Origin',(70.8454544243431,8.3321029740895E-18,64.2861561565032));
#1243=CARTESIAN_POINT('',(96.0952930553535,-37.2484314986274,60.2861561565032));
#1244=CARTESIAN_POINT('',(96.0952930553535,-37.2484314986274,64.2861561565032));
#1245=CARTESIAN_POINT('',(96.0952930553535,37.2484314986274,60.2861561565032));
#1246=CARTESIAN_POINT('Origin',(70.8454544243431,8.13833313748131E-18,60.2861561565032));
#1247=CARTESIAN_POINT('',(96.0952930553535,37.2484314986274,64.2861561565032));
#1248=CARTESIAN_POINT('',(96.0952930553535,37.2484314986274,64.2861561565032));
#1249=CARTESIAN_POINT('Origin',(70.8454544243431,8.3321029740895E-18,64.2861561565032));
#1250=CARTESIAN_POINT('',(27.7641359672671,13.,26.2861561565032));
#1251=CARTESIAN_POINT('',(27.7641359672671,13.,64.2861561565032));
#1252=CARTESIAN_POINT('Origin',(70.8454544243431,6.49128952632499E-18,26.2861561565032));
#1253=CARTESIAN_POINT('',(115.566813974339,-5.,50.2861561565032));
#1254=CARTESIAN_POINT('Ctrl Pts',(115.566813974339,-5.,50.2861561565033));
#1255=CARTESIAN_POINT('Ctrl Pts',(115.566813974339,-5.,49.6577861779726));
#1256=CARTESIAN_POINT('Ctrl Pts',(115.581423099964,-4.87431378339569,48.9878895542033));
#1257=CARTESIAN_POINT('Ctrl Pts',(115.634095143997,-4.36388477603762,47.7561480329659));
#1258=CARTESIAN_POINT('Ctrl Pts',(115.671387095783,-3.97917023656896,47.1942585812067));
#1259=CARTESIAN_POINT('Ctrl Pts',(115.741313795749,-3.09189988190444,46.3069882265422));
#1260=CARTESIAN_POINT('Ctrl Pts',(115.778505052285,-2.53000942287774,45.9222718831243));
#1261=CARTESIAN_POINT('Ctrl Pts',(115.830946481957,-1.29826451010429,45.4118415418927));
#1262=CARTESIAN_POINT('Ctrl Pts',(115.845454424343,-0.628366711433116,45.2861561565032));
#1263=CARTESIAN_POINT('Ctrl Pts',(115.845454424343,0.628366711433116,45.2861561565032));
#1264=CARTESIAN_POINT('Ctrl Pts',(115.830946481957,1.29826451010429,45.4118415418927));
#1265=CARTESIAN_POINT('Ctrl Pts',(115.778505052285,2.53000942287774,45.9222718831243));
#1266=CARTESIAN_POINT('Ctrl Pts',(115.741313795749,3.09189988190444,46.3069882265422));
#1267=CARTESIAN_POINT('Ctrl Pts',(115.671387095783,3.97917023656896,47.1942585812067));
#1268=CARTESIAN_POINT('Ctrl Pts',(115.634095143997,4.36388477603762,47.7561480329659));
#1269=CARTESIAN_POINT('Ctrl Pts',(115.581423099964,4.87431378339569,48.9878895542033));
#1270=CARTESIAN_POINT('Ctrl Pts',(115.566813974339,5.,49.6577861779726));
#1271=CARTESIAN_POINT('Ctrl Pts',(115.566813974339,5.,50.9145261350339));
#1272=CARTESIAN_POINT('Ctrl Pts',(115.581423099964,4.87431378339569,51.5844227588031));
#1273=CARTESIAN_POINT('Ctrl Pts',(115.634095143997,4.36388477603762,52.8161642800406));
#1274=CARTESIAN_POINT('Ctrl Pts',(115.671387095783,3.97917023656896,53.3780537317998));
#1275=CARTESIAN_POINT('Ctrl Pts',(115.741313795749,3.09189988190444,54.2653240864643));
#1276=CARTESIAN_POINT('Ctrl Pts',(115.778505052285,2.53000942287774,54.6500404298822));
#1277=CARTESIAN_POINT('Ctrl Pts',(115.830946481957,1.29826451010429,55.1604707711138));
#1278=CARTESIAN_POINT('Ctrl Pts',(115.845454424343,0.628366711433118,55.2861561565032));
#1279=CARTESIAN_POINT('Ctrl Pts',(115.845454424343,-0.628366711433113,55.2861561565032));
#1280=CARTESIAN_POINT('Ctrl Pts',(115.830946481957,-1.29826451010428,55.1604707711138));
#1281=CARTESIAN_POINT('Ctrl Pts',(115.778505052285,-2.53000942287774,54.6500404298822));
#1282=CARTESIAN_POINT('Ctrl Pts',(115.741313795749,-3.09189988190443,54.2653240864643));
#1283=CARTESIAN_POINT('Ctrl Pts',(115.671387095783,-3.97917023656895,53.3780537317998));
#1284=CARTESIAN_POINT('Ctrl Pts',(115.634095143997,-4.36388477603762,52.8161642800406));
#1285=CARTESIAN_POINT('Ctrl Pts',(115.581423099964,-4.87431378339569,51.5844227588031));
#1286=CARTESIAN_POINT('Ctrl Pts',(115.566813974339,-5.,50.9145261350339));
#1287=CARTESIAN_POINT('Ctrl Pts',(115.566813974339,-5.,50.2861561565033));
#1288=CARTESIAN_POINT('Origin',(82.0954544243431,-9.99999999999995,59.2861561565032));
#1289=CARTESIAN_POINT('',(90.0954544243431,-9.99999999999996,35.2861561565032));
#1290=CARTESIAN_POINT('',(90.0954544243431,-9.99999999999995,59.2861561565032));
#1291=CARTESIAN_POINT('',(90.0954544243431,-9.99999999999996,42.7861561565032));
#1292=CARTESIAN_POINT('',(82.0954544243431,-9.99999999999996,35.2861561565032));
#1293=CARTESIAN_POINT('',(82.0954544243431,-9.99999999999996,35.2861561565032));
#1294=CARTESIAN_POINT('',(82.0954544243431,-9.99999999999995,59.2861561565032));
#1295=CARTESIAN_POINT('',(82.0954544243431,-9.99999999999995,61.7861561565032));
#1296=CARTESIAN_POINT('',(82.0954544243431,-9.99999999999995,59.2861561565032));
#1297=CARTESIAN_POINT('Origin',(82.0954544243431,8.3321029740895E-18,64.2861561565032));
#1298=CARTESIAN_POINT('',(82.0954544243431,13.,26.2861561565032));
#1299=CARTESIAN_POINT('',(82.0954549586895,13.0000006174669,60.2861561565032));
#1300=CARTESIAN_POINT('',(82.0954544243431,13.,26.2861561565032));
#1301=CARTESIAN_POINT('',(82.0954544243431,-13.,26.2861561565032));
#1302=CARTESIAN_POINT('',(82.0954544243431,6.49128952632548E-18,26.2861561565032));
#1303=CARTESIAN_POINT('',(82.0954549586895,-13.0000006174669,60.2861561565032));
#1304=CARTESIAN_POINT('',(82.0954544243431,-13.,26.2861561565032));
#1305=CARTESIAN_POINT('',(82.0954544243431,-13.,64.2861561565032));
#1306=CARTESIAN_POINT('',(82.0954544243431,-13.,26.2861561565032));
#1307=CARTESIAN_POINT('',(82.0954544243431,13.,64.2861561565032));
#1308=CARTESIAN_POINT('',(82.0954544243431,8.3321029740895E-18,64.2861561565032));
#1309=CARTESIAN_POINT('',(82.0954544243431,13.,26.2861561565032));
#1310=CARTESIAN_POINT('',(82.0954544243431,10.,59.2861561565032));
#1311=CARTESIAN_POINT('',(82.0954544243431,-2.49999999999998,59.2861561565032));
#1312=CARTESIAN_POINT('',(82.0954544243431,10.,35.2861561565032));
#1313=CARTESIAN_POINT('',(82.0954544243431,-2.49999999999998,35.2861561565032));
#1314=CARTESIAN_POINT('',(82.0954544243431,10.,49.7861561565032));
#1315=CARTESIAN_POINT('Origin',(82.0954544243431,10.,35.2861561565032));
#1316=CARTESIAN_POINT('',(90.0954544243431,10.,59.2861561565032));
#1317=CARTESIAN_POINT('',(90.0954544243431,10.,35.2861561565032));
#1318=CARTESIAN_POINT('',(90.0954544243431,10.,30.7861561565032));
#1319=CARTESIAN_POINT('',(82.0954544243431,10.,59.2861561565032));
#1320=CARTESIAN_POINT('',(82.0954544243431,10.,35.2861561565032));
#1321=CARTESIAN_POINT('Origin',(70.8454544243431,8.0414482191782E-18,58.2861561565032));
#1322=CARTESIAN_POINT('',(119.845454424343,6.00881076404121E-15,58.2861561565032));
#1323=CARTESIAN_POINT('Origin',(70.8454544243431,8.0414482191782E-18,58.2861561565032));
#1324=CARTESIAN_POINT('',(121.845454424343,-6.23756034251402E-15,60.2861561565032));
#1325=CARTESIAN_POINT('Origin',(121.845454424343,6.25374012387068E-15,58.2861561565032));
#1326=CARTESIAN_POINT('Origin',(70.8454544243431,8.13833313748131E-18,60.2861561565032));
#1327=CARTESIAN_POINT('Origin',(70.8454544243431,8.13833313748131E-18,60.2861561565032));
#1328=CARTESIAN_POINT('',(119.845454424343,-5.99514999056044E-15,8.28615615650324));
#1329=CARTESIAN_POINT('Origin',(70.8454544243431,5.61932526159503E-18,8.28615615650324));
#1330=CARTESIAN_POINT('',(119.845454424343,-2.23340048035612E-15,45.2861561565032));
#1331=CARTESIAN_POINT('',(119.845454424343,-5.99263098268455E-15,60.2861561565032));
#1332=CARTESIAN_POINT('',(119.589684852159,-5.,50.2861561565032));
#1333=CARTESIAN_POINT('Ctrl Pts',(119.845454424343,1.52655665885959E-15,
45.2861561565032));
#1334=CARTESIAN_POINT('Ctrl Pts',(119.845454424343,-0.628279489485326,45.2861561565032));
#1335=CARTESIAN_POINT('Ctrl Pts',(119.832133499635,-1.29813955394642,45.4118074325739));
#1336=CARTESIAN_POINT('Ctrl Pts',(119.783981759813,-2.52990817430889,45.9222122573231));
#1337=CARTESIAN_POINT('Ctrl Pts',(119.749833836113,-3.09185332979107,46.3069416744288));
#1338=CARTESIAN_POINT('Ctrl Pts',(119.685639960381,-3.97921612000175,47.1943044646395));
#1339=CARTESIAN_POINT('Ctrl Pts',(119.651414125384,-4.36394425840142,47.7562489025512));
#1340=CARTESIAN_POINT('Ctrl Pts',(119.603084006072,-4.8743481305124,48.9880151170116));
#1341=CARTESIAN_POINT('Ctrl Pts',(119.589684852159,-5.,49.6578743476102));
#1342=CARTESIAN_POINT('Ctrl Pts',(119.589684852159,-5.,50.2861561565032));
#1343=CARTESIAN_POINT('',(119.845454424343,-2.3719361461385E-15,55.2861561565032));
#1344=CARTESIAN_POINT('Ctrl Pts',(119.589684852159,-5.,50.2861561565032));
#1345=CARTESIAN_POINT('Ctrl Pts',(119.589684852159,-5.,50.9144379653963));
#1346=CARTESIAN_POINT('Ctrl Pts',(119.603084006072,-4.87434813051241,51.5842971959949));
#1347=CARTESIAN_POINT('Ctrl Pts',(119.651414125384,-4.36394425840143,52.8160634104552));
#1348=CARTESIAN_POINT('Ctrl Pts',(119.685639960381,-3.97921612000175,53.378007848367));
#1349=CARTESIAN_POINT('Ctrl Pts',(119.749833836113,-3.09185332979108,54.2653706385776));
#1350=CARTESIAN_POINT('Ctrl Pts',(119.783981759813,-2.52990817430889,54.6501000556834));
#1351=CARTESIAN_POINT('Ctrl Pts',(119.832133499635,-1.29813955394642,55.1605048804326));
#1352=CARTESIAN_POINT('Ctrl Pts',(119.845454424343,-0.628279489485327,55.2861561565032));
#1353=CARTESIAN_POINT('Ctrl Pts',(119.845454424343,1.17961196366423E-15,
55.2861561565032));
#1354=CARTESIAN_POINT('',(119.845454424343,-5.99263098268455E-15,60.2861561565032));
#1355=CARTESIAN_POINT('Ctrl Pts',(119.845454424343,1.2490009027033E-15,
55.2861561565032));
#1356=CARTESIAN_POINT('Ctrl Pts',(119.845454424343,0.628279489485329,55.2861561565032));
#1357=CARTESIAN_POINT('Ctrl Pts',(119.832133499635,1.29813955394642,55.1605048804326));
#1358=CARTESIAN_POINT('Ctrl Pts',(119.783981759813,2.52990817430889,54.6501000556834));
#1359=CARTESIAN_POINT('Ctrl Pts',(119.749833836113,3.09185332979108,54.2653706385776));
#1360=CARTESIAN_POINT('Ctrl Pts',(119.685639960381,3.97921612000176,53.378007848367));
#1361=CARTESIAN_POINT('Ctrl Pts',(119.651414125384,4.36394425840143,52.8160634104552));
#1362=CARTESIAN_POINT('Ctrl Pts',(119.603084006072,4.87434813051241,51.5842971959949));
#1363=CARTESIAN_POINT('Ctrl Pts',(119.589684852159,5.,50.9144379653963));
#1364=CARTESIAN_POINT('Ctrl Pts',(119.589684852159,5.,49.6578743476102));
#1365=CARTESIAN_POINT('Ctrl Pts',(119.603084006072,4.87434813051241,48.9880151170116));
#1366=CARTESIAN_POINT('Ctrl Pts',(119.651414125384,4.36394425840143,47.7562489025512));
#1367=CARTESIAN_POINT('Ctrl Pts',(119.685639960381,3.97921612000176,47.1943044646395));
#1368=CARTESIAN_POINT('Ctrl Pts',(119.749833836113,3.09185332979108,46.3069416744288));
#1369=CARTESIAN_POINT('Ctrl Pts',(119.783981759813,2.52990817430889,45.9222122573231));
#1370=CARTESIAN_POINT('Ctrl Pts',(119.832133499635,1.29813955394642,45.4118074325739));
#1371=CARTESIAN_POINT('Ctrl Pts',(119.845454424343,0.62827948948533,45.2861561565032));
#1372=CARTESIAN_POINT('Ctrl Pts',(119.845454424343,6.93889390390723E-16,
45.2861561565032));
#1373=CARTESIAN_POINT('Origin',(70.8454544243431,8.13833313748131E-18,60.2861561565032));
#1374=CARTESIAN_POINT('',(10.2204544243431,7.43255955296831E-15,60.2861561565032));
#1375=CARTESIAN_POINT('Origin',(70.8454544243431,8.13833313748131E-18,60.2861561565032));
#1376=CARTESIAN_POINT('',(69.3454544243431,-54.5,60.2861561565032));
#1377=CARTESIAN_POINT('Origin',(70.8454544243431,-54.5,60.2861561565032));
#1378=CARTESIAN_POINT('',(14.8454544243431,6.49876636861845E-15,60.2861561565032));
#1379=CARTESIAN_POINT('Origin',(16.3454544243431,6.68246338849056E-15,60.2861561565032));
#1380=CARTESIAN_POINT('',(123.845454424343,-1.75558686734622E-16,60.2861561565032));
#1381=CARTESIAN_POINT('Origin',(125.345454424343,8.13833313748131E-18,60.2861561565032));
#1382=CARTESIAN_POINT('',(69.3454544243431,54.5,60.2861561565032));
#1383=CARTESIAN_POINT('Origin',(70.8454544243431,54.5,60.2861561565032));
#1384=CARTESIAN_POINT('Origin',(70.8454544243431,-54.5,64.2861561565032));
#1385=CARTESIAN_POINT('',(69.3454544243431,-54.5,64.2861561565032));
#1386=CARTESIAN_POINT('Origin',(70.8454544243431,-54.5,64.2861561565032));
#1387=CARTESIAN_POINT('',(69.3454544243431,-54.5,64.2861561565032));
#1388=CARTESIAN_POINT('Origin',(16.3454544243431,6.68265715832716E-15,64.2861561565032));
#1389=CARTESIAN_POINT('',(14.8454544243431,6.49896013845506E-15,64.2861561565032));
#1390=CARTESIAN_POINT('Origin',(16.3454544243431,6.68265715832716E-15,64.2861561565032));
#1391=CARTESIAN_POINT('',(14.8454544243431,6.86635417819927E-15,64.2861561565032));
#1392=CARTESIAN_POINT('Origin',(125.345454424343,8.3321029740895E-18,64.2861561565032));
#1393=CARTESIAN_POINT('',(123.845454424343,-1.75364916898014E-16,64.2861561565032));
#1394=CARTESIAN_POINT('Origin',(125.345454424343,8.3321029740895E-18,64.2861561565032));
#1395=CARTESIAN_POINT('',(123.845454424343,1.92029122846193E-16,64.2861561565032));
#1396=CARTESIAN_POINT('Origin',(70.8454544243431,54.5,64.2861561565032));
#1397=CARTESIAN_POINT('',(69.3454544243431,54.5,64.2861561565032));
#1398=CARTESIAN_POINT('Origin',(70.8454544243431,54.5,64.2861561565032));
#1399=CARTESIAN_POINT('',(69.3454544243431,54.5,64.2861561565032));
#1400=CARTESIAN_POINT('Origin',(98.9704546915163,-4.43275376536314E-15,
60.2861561565032));
#1401=CARTESIAN_POINT('',(90.0954544243431,-13.,60.2861561565032));
#1402=CARTESIAN_POINT('',(92.5329545579297,-13.,60.2861561565032));
#1403=CARTESIAN_POINT('',(90.0954544243431,13.,60.2861561565032));
#1404=CARTESIAN_POINT('',(90.0954544243431,-2.21230771611283E-15,60.2861561565032));
#1405=CARTESIAN_POINT('',(92.5329545579297,13.,60.2861561565032));
#1406=CARTESIAN_POINT('',(82.0954549586895,13.0000006174669,60.2861561565032));
#1407=CARTESIAN_POINT('',(82.0954549586895,-13.0000006174669,60.2861561565032));
#1408=CARTESIAN_POINT('',(95.0954549586895,19.5166611158623,60.2861561565032));
#1409=CARTESIAN_POINT('',(95.0954549586895,-19.5166611158623,60.2861561565032));
#1410=CARTESIAN_POINT('',(95.0954549586895,10.8564070780179,60.2861561565032));
#1411=CARTESIAN_POINT('',(98.2072569462424,-24.9064602613978,60.2861561565032));
#1412=CARTESIAN_POINT('',(95.0954549586895,-19.5166611158623,60.2861561565032));
#1413=CARTESIAN_POINT('',(98.2072569462424,24.9064602613978,60.2861561565032));
#1414=CARTESIAN_POINT('Origin',(70.8454544243431,8.13833313748131E-18,60.2861561565032));
#1415=CARTESIAN_POINT('',(95.0954549586895,19.5166611158623,60.2861561565032));
#1416=CARTESIAN_POINT('Origin',(98.2072569462424,24.9064602613978,64.2861561565032));
#1417=CARTESIAN_POINT('',(95.0954549586895,19.5166611158623,64.2861561565032));
#1418=CARTESIAN_POINT('',(98.2072569462424,24.9064602613978,64.2861561565032));
#1419=CARTESIAN_POINT('',(95.0954549586895,19.5166611158623,64.2861561565032));
#1420=CARTESIAN_POINT('',(95.0954549586895,19.5166611158623,64.2861561565032));
#1421=CARTESIAN_POINT('',(98.2072569462424,24.9064602613978,64.2861561565032));
#1422=CARTESIAN_POINT('Origin',(70.8454544243431,8.3321029740895E-18,64.2861561565032));
#1423=CARTESIAN_POINT('',(98.2072569462424,-24.9064602613978,64.2861561565032));
#1424=CARTESIAN_POINT('Origin',(70.8454544243431,8.3321029740895E-18,64.2861561565032));
#1425=CARTESIAN_POINT('',(98.2072569462424,-24.9064602613978,64.2861561565032));
#1426=CARTESIAN_POINT('Origin',(95.0954549586895,-19.5166611158623,64.2861561565032));
#1427=CARTESIAN_POINT('',(95.0954549586895,-19.5166611158623,64.2861561565032));
#1428=CARTESIAN_POINT('',(95.0954549586895,-19.5166611158623,64.2861561565032));
#1429=CARTESIAN_POINT('',(95.0954549586895,-19.5166611158623,64.2861561565032));
#1430=CARTESIAN_POINT('Origin',(95.0954549586895,19.5166611158623,64.2861561565032));
#1431=CARTESIAN_POINT('',(95.0954549586895,10.8564070780179,64.2861561565032));
#1432=CARTESIAN_POINT('Origin',(96.0952930553535,-37.2484314986274,64.2861561565032));
#1433=CARTESIAN_POINT('',(82.0954549586895,-13.0000006174669,64.2861561565032));
#1434=CARTESIAN_POINT('Origin',(82.0954549586895,13.0000006174669,64.2861561565032));
#1435=CARTESIAN_POINT('',(82.0954549586895,13.0000006174669,64.2861561565032));
#1436=CARTESIAN_POINT('Origin',(86.0954544243431,-13.,45.2861561565032));
#1437=CARTESIAN_POINT('',(90.0954544243431,-13.,26.2861561565032));
#1438=CARTESIAN_POINT('',(90.0954544243431,-13.,26.2861561565032));
#1439=CARTESIAN_POINT('',(90.0954544243431,-13.,64.2861561565032));
#1440=CARTESIAN_POINT('Origin',(84.5954544243431,-5.,26.2861561565032));
#1441=CARTESIAN_POINT('',(85.8954544243431,-5.,26.2861561565032));
#1442=CARTESIAN_POINT('Origin',(84.5954544243431,-5.,26.2861561565032));
#1443=CARTESIAN_POINT('',(85.8954544243431,-5.,35.2861561565032));
#1444=CARTESIAN_POINT('',(85.8954544243431,-5.,26.2861561565032));
#1445=CARTESIAN_POINT('Origin',(84.5954544243431,-5.,35.2861561565032));
#1446=CARTESIAN_POINT('Origin',(84.5954544243431,5.,26.2861561565032));
#1447=CARTESIAN_POINT('',(85.8954544243431,5.,26.2861561565032));
#1448=CARTESIAN_POINT('Origin',(84.5954544243431,5.,26.2861561565032));
#1449=CARTESIAN_POINT('',(85.8954544243431,5.,35.2861561565032));
#1450=CARTESIAN_POINT('',(85.8954544243431,5.,26.2861561565032));
#1451=CARTESIAN_POINT('Origin',(84.5954544243431,5.,35.2861561565032));
#1452=CARTESIAN_POINT('Origin',(82.0954544243431,5.00000000000005,59.2861561565032));
#1453=CARTESIAN_POINT('',(90.0954544243431,-2.49999999999997,59.2861561565032));
#1454=CARTESIAN_POINT('Origin',(82.0954544243431,-4.99999999999996,35.2861561565032));
#1455=CARTESIAN_POINT('',(90.0954544243431,-2.49999999999998,35.2861561565032));
#1456=CARTESIAN_POINT('Origin',(86.0954544243431,13.,45.2861561565032));
#1457=CARTESIAN_POINT('',(90.0954544243431,13.,26.2861561565032));
#1458=CARTESIAN_POINT('',(90.0954544243431,13.,64.2861561565032));
#1459=CARTESIAN_POINT('',(90.0954544243431,13.,26.2861561565032));
#1460=CARTESIAN_POINT('Origin',(90.0954544243431,6.49128952632548E-18,26.2861561565032));
#1461=CARTESIAN_POINT('',(90.0954544243431,6.49128952632548E-18,26.2861561565032));
#1462=CARTESIAN_POINT('Origin',(82.0954544243431,6.49128952632548E-18,26.2861561565032));
#1463=CARTESIAN_POINT('Origin',(36.5954544243431,5.,26.2861561565032));
#1464=CARTESIAN_POINT('',(37.8954544243431,5.,26.2861561565032));
#1465=CARTESIAN_POINT('Origin',(36.5954544243431,5.,26.2861561565032));
#1466=CARTESIAN_POINT('',(37.8954544243431,5.,33.4861561565032));
#1467=CARTESIAN_POINT('',(37.8954544243431,5.,26.2861561565032));
#1468=CARTESIAN_POINT('Origin',(36.5954544243431,5.,33.4861561565032));
#1469=CARTESIAN_POINT('Origin',(36.5954544243431,5.,33.4861561565032));
#1470=CARTESIAN_POINT('Origin',(36.5954544243431,-5.,26.2861561565032));
#1471=CARTESIAN_POINT('',(37.8954544243431,-5.,26.2861561565032));
#1472=CARTESIAN_POINT('Origin',(36.5954544243431,-5.,26.2861561565032));
#1473=CARTESIAN_POINT('',(37.8954544243431,-5.,33.4861561565032));
#1474=CARTESIAN_POINT('',(37.8954544243431,-5.,26.2861561565032));
#1475=CARTESIAN_POINT('Origin',(36.5954544243431,-5.,33.4861561565032));
#1476=CARTESIAN_POINT('Origin',(36.5954544243431,-5.,33.4861561565032));
#1477=CARTESIAN_POINT('Origin',(82.0954544243431,8.64906667949112E-16,50.2861561565032));
#1478=CARTESIAN_POINT('',(82.0954544243431,-5.,50.2861561565032));
#1479=CARTESIAN_POINT('Origin',(24.0954544243431,6.49128952632499E-18,26.2861561565032));
#1480=CARTESIAN_POINT('',(39.0954544243431,13.,26.2861561565032));
#1481=CARTESIAN_POINT('',(24.0954544243431,13.,26.2861561565032));
#1482=CARTESIAN_POINT('',(39.0954544243431,-13.,26.2861561565032));
#1483=CARTESIAN_POINT('',(39.0954544243431,6.49128952632499E-18,26.2861561565032));
#1484=CARTESIAN_POINT('',(24.0954544243431,-13.,26.2861561565032));
#1485=CARTESIAN_POINT('Origin',(31.5954544243431,13.,30.2861561565032));
#1486=CARTESIAN_POINT('',(39.0954544243431,13.,34.2861561565032));
#1487=CARTESIAN_POINT('Origin',(39.0954544243431,6.49128952632499E-18,26.2861561565032));
#1488=CARTESIAN_POINT('',(39.0954544243431,-13.,26.2861561565032));
#1489=CARTESIAN_POINT('Origin',(31.5954544243431,-13.,30.2861561565032));
#1490=CARTESIAN_POINT('Origin',(70.8454544243431,5.61932526159503E-18,8.28615615650324));
#1491=CARTESIAN_POINT('Origin',(70.8454544243431,8.3321029740895E-18,64.2861561565032));
#1492=CARTESIAN_POINT('',(10.2204544243431,7.43275332280492E-15,64.2861561565032));
#1493=CARTESIAN_POINT('',(10.2204544243431,7.43275332280492E-15,64.2861561565032));
#1494=CARTESIAN_POINT('Origin',(70.8454544243431,8.3321029740895E-18,64.2861561565032));
#1495=CARTESIAN_POINT('Origin',(70.8454544243431,8.3321029740895E-18,64.2861561565032));
#1496=UNCERTAINTY_MEASURE_WITH_UNIT(LENGTH_MEASURE(0.01),#1500,
'DISTANCE_ACCURACY_VALUE',
'Maximum model space distance between geometric entities at asserted c
onnectivities');
#1497=UNCERTAINTY_MEASURE_WITH_UNIT(LENGTH_MEASURE(0.01),#1500,
'DISTANCE_ACCURACY_VALUE',
'Maximum model space distance between geometric entities at asserted c
onnectivities');
#1498=(
GEOMETRIC_REPRESENTATION_CONTEXT(3)
GLOBAL_UNCERTAINTY_ASSIGNED_CONTEXT((#1496))
GLOBAL_UNIT_ASSIGNED_CONTEXT((#1500,#1502,#1503))
REPRESENTATION_CONTEXT('','3D')
);
#1499=(
GEOMETRIC_REPRESENTATION_CONTEXT(3)
GLOBAL_UNCERTAINTY_ASSIGNED_CONTEXT((#1497))
GLOBAL_UNIT_ASSIGNED_CONTEXT((#1500,#1502,#1503))
REPRESENTATION_CONTEXT('','3D')
);
#1500=(
LENGTH_UNIT()
NAMED_UNIT(*)
SI_UNIT(.MILLI.,.METRE.)
);
#1501=(
LENGTH_UNIT()
NAMED_UNIT(*)
SI_UNIT($,.METRE.)
);
#1502=(
NAMED_UNIT(*)
PLANE_ANGLE_UNIT()
SI_UNIT($,.RADIAN.)
);
#1503=(
NAMED_UNIT(*)
SI_UNIT($,.STERADIAN.)
SOLID_ANGLE_UNIT()
);
#1504=SHAPE_DEFINITION_REPRESENTATION(#1505,#1506);
#1505=PRODUCT_DEFINITION_SHAPE('',$,#1508);
#1506=SHAPE_REPRESENTATION('',(#865),#1498);
#1507=PRODUCT_DEFINITION_CONTEXT('part definition',#1512,'design');
#1508=PRODUCT_DEFINITION('base','base v4',#1509,#1507);
#1509=PRODUCT_DEFINITION_FORMATION('',$,#1514);
#1510=PRODUCT_RELATED_PRODUCT_CATEGORY('base v4','base v4',(#1514));
#1511=APPLICATION_PROTOCOL_DEFINITION('international standard',
'automotive_design',2009,#1512);
#1512=APPLICATION_CONTEXT(
'Core Data for Automotive Mechanical Design Process');
#1513=PRODUCT_CONTEXT('part definition',#1512,'mechanical');
#1514=PRODUCT('base','base v4',$,(#1513));
#1515=PRESENTATION_STYLE_ASSIGNMENT((#1516));
#1516=SURFACE_STYLE_USAGE(.BOTH.,#1517);
#1517=SURFACE_SIDE_STYLE('',(#1518));
#1518=SURFACE_STYLE_FILL_AREA(#1519);
#1519=FILL_AREA_STYLE('Steel - Satin',(#1520));
#1520=FILL_AREA_STYLE_COLOUR('Steel - Satin',#1521);
#1521=COLOUR_RGB('Steel - Satin',0.627450980392157,0.627450980392157,0.627450980392157);
ENDSEC;
END-ISO-10303-21;
