ISO-10303-21;
HEADER;
/* Generated by software containing ST-Developer
 * from STEP Tools, Inc. (www.steptools.com) 
 */

FILE_DESCRIPTION(
/* description */ (''),
/* implementation_level */ '2;1');

FILE_NAME(
/* name */ 'b16f28d6-3c92-4e66-a7f4-0c42c6db798e.stp',
/* time_stamp */ '2026-08-07T02:23:14Z',
/* author */ (''),
/* organization */ (''),
/* preprocessor_version */ 'ST-DEVELOPER v20.2',
/* originating_system */ 'Autodesk Translation Framework v15.15.0.0',
/* authorisation */ '');

FILE_SCHEMA (('AUTOMOTIVE_DESIGN { 1 0 10303 214 3 1 1 }'));
ENDSEC;

DATA;
#10=MECHANICAL_DESIGN_GEOMETRIC_PRESENTATION_REPRESENTATION('',(#13),#1258);
#11=SHAPE_REPRESENTATION_RELATIONSHIP('SRR','None',#1265,#12);
#12=ADVANCED_BREP_SHAPE_REPRESENTATION('',(#14),#1257);
#13=STYLED_ITEM('',(#1274),#14);
#14=MANIFOLD_SOLID_BREP('base',#723);
#15=FACE_BOUND('',#247,.T.);
#16=FACE_BOUND('',#248,.T.);
#17=FACE_BOUND('',#249,.T.);
#18=FACE_BOUND('',#250,.T.);
#19=FACE_BOUND('',#251,.T.);
#20=FACE_BOUND('',#254,.T.);
#21=FACE_BOUND('',#265,.T.);
#22=FACE_BOUND('',#266,.T.);
#23=FACE_BOUND('',#267,.T.);
#24=FACE_BOUND('',#268,.T.);
#25=FACE_BOUND('',#269,.T.);
#26=FACE_BOUND('',#271,.T.);
#27=FACE_BOUND('',#272,.T.);
#28=FACE_BOUND('',#273,.T.);
#29=FACE_BOUND('',#274,.T.);
#30=FACE_BOUND('',#275,.T.);
#31=FACE_BOUND('',#281,.T.);
#32=FACE_BOUND('',#282,.T.);
#33=FACE_BOUND('',#283,.T.);
#34=PLANE('',#751);
#35=PLANE('',#754);
#36=PLANE('',#759);
#37=PLANE('',#762);
#38=PLANE('',#766);
#39=PLANE('',#773);
#40=PLANE('',#774);
#41=PLANE('',#775);
#42=PLANE('',#783);
#43=PLANE('',#784);
#44=PLANE('',#785);
#45=PLANE('',#795);
#46=PLANE('',#796);
#47=PLANE('',#800);
#48=PLANE('',#801);
#49=PLANE('',#802);
#50=PLANE('',#811);
#51=(
BOUNDED_SURFACE()
B_SPLINE_SURFACE(2,2,((#1055,#1056,#1057,#1058,#1059),(#1060,#1061,#1062,
#1063,#1064),(#1065,#1066,#1067,#1068,#1069)),.UNSPECIFIED.,.F.,.F.,.F.)
B_SPLINE_SURFACE_WITH_KNOTS((3,3),(3,2,3),(-3.14159265358979,-1.5707963267949),
(-3.14159265358979,-2.1027735215757,-1.0639543895616),.UNSPECIFIED.)
GEOMETRIC_REPRESENTATION_ITEM()
RATIONAL_B_SPLINE_SURFACE(((1.,0.868112403318195,1.,0.868112403318195,1.),
(0.707106781186548,0.613848167218447,0.707106781186548,0.613848167218447,
0.707106781186548),(1.,0.868112403318195,1.,0.868112403318195,1.)))
REPRESENTATION_ITEM('')
SURFACE()
);
#52=B_SPLINE_CURVE_WITH_KNOTS('',3,(#1047,#1048,#1049,#1050),
 .UNSPECIFIED.,.F.,.F.,(4,4),(4.17012826681795,4.20417386365425),
 .UNSPECIFIED.);
#53=B_SPLINE_CURVE_WITH_KNOTS('',3,(#1071,#1072,#1073,#1074,#1075,#1076,
#1077,#1078,#1079,#1080),.UNSPECIFIED.,.F.,.F.,(4,2,2,2,4),(0.,0.202005043177602,
0.412321275186012,0.787117779445657,0.791212928373885),.UNSPECIFIED.);
#54=B_SPLINE_CURVE_WITH_KNOTS('',3,(#1083,#1084,#1085,#1086,#1087,#1088),
 .UNSPECIFIED.,.F.,.F.,(4,2,4),(5.41507975575013,5.55311229277576,5.55853563875216),
 .UNSPECIFIED.);
#55=LINE('',#1036,#113);
#56=LINE('',#1037,#114);
#57=LINE('',#1051,#115);
#58=LINE('',#1053,#116);
#59=LINE('',#1091,#117);
#60=LINE('',#1093,#118);
#61=LINE('',#1094,#119);
#62=LINE('',#1097,#120);
#63=LINE('',#1101,#121);
#64=LINE('',#1102,#122);
#65=LINE('',#1105,#123);
#66=LINE('',#1109,#124);
#67=LINE('',#1113,#125);
#68=LINE('',#1115,#126);
#69=LINE('',#1116,#127);
#70=LINE('',#1119,#128);
#71=LINE('',#1123,#129);
#72=LINE('',#1124,#130);
#73=LINE('',#1127,#131);
#74=LINE('',#1129,#132);
#75=LINE('',#1130,#133);
#76=LINE('',#1136,#134);
#77=LINE('',#1139,#135);
#78=LINE('',#1141,#136);
#79=LINE('',#1142,#137);
#80=LINE('',#1148,#138);
#81=LINE('',#1154,#139);
#82=LINE('',#1157,#140);
#83=LINE('',#1159,#141);
#84=LINE('',#1160,#142);
#85=LINE('',#1162,#143);
#86=LINE('',#1163,#144);
#87=LINE('',#1174,#145);
#88=LINE('',#1176,#146);
#89=LINE('',#1177,#147);
#90=LINE('',#1182,#148);
#91=LINE('',#1187,#149);
#92=LINE('',#1189,#150);
#93=LINE('',#1191,#151);
#94=LINE('',#1192,#152);
#95=LINE('',#1195,#153);
#96=LINE('',#1197,#154);
#97=LINE('',#1198,#155);
#98=LINE('',#1201,#156);
#99=LINE('',#1202,#157);
#100=LINE('',#1207,#158);
#101=LINE('',#1213,#159);
#102=LINE('',#1219,#160);
#103=LINE('',#1223,#161);
#104=LINE('',#1224,#162);
#105=LINE('',#1226,#163);
#106=LINE('',#1231,#164);
#107=LINE('',#1234,#165);
#108=LINE('',#1235,#166);
#109=LINE('',#1240,#167);
#110=LINE('',#1244,#168);
#111=LINE('',#1248,#169);
#112=LINE('',#1252,#170);
#113=VECTOR('',#828,10.);
#114=VECTOR('',#829,10.);
#115=VECTOR('',#840,10.);
#116=VECTOR('',#841,10.);
#117=VECTOR('',#848,10.);
#118=VECTOR('',#849,10.);
#119=VECTOR('',#850,10.);
#120=VECTOR('',#853,10.);
#121=VECTOR('',#858,10.);
#122=VECTOR('',#859,10.);
#123=VECTOR('',#862,10.);
#124=VECTOR('',#867,10.);
#125=VECTOR('',#872,10.);
#126=VECTOR('',#873,10.);
#127=VECTOR('',#874,10.);
#128=VECTOR('',#877,10.);
#129=VECTOR('',#880,10.);
#130=VECTOR('',#881,10.);
#131=VECTOR('',#884,10.);
#132=VECTOR('',#885,10.);
#133=VECTOR('',#886,10.);
#134=VECTOR('',#893,10.);
#135=VECTOR('',#896,10.);
#136=VECTOR('',#897,10.);
#137=VECTOR('',#898,10.);
#138=VECTOR('',#905,10.);
#139=VECTOR('',#912,10.);
#140=VECTOR('',#915,10.);
#141=VECTOR('',#916,10.);
#142=VECTOR('',#917,10.);
#143=VECTOR('',#920,10.);
#144=VECTOR('',#921,10.);
#145=VECTOR('',#932,10.);
#146=VECTOR('',#933,10.);
#147=VECTOR('',#934,10.);
#148=VECTOR('',#939,9.);
#149=VECTOR('',#944,10.);
#150=VECTOR('',#945,10.);
#151=VECTOR('',#946,10.);
#152=VECTOR('',#947,10.);
#153=VECTOR('',#950,10.);
#154=VECTOR('',#951,10.);
#155=VECTOR('',#952,10.);
#156=VECTOR('',#955,10.);
#157=VECTOR('',#956,10.);
#158=VECTOR('',#961,1.3);
#159=VECTOR('',#968,1.3);
#160=VECTOR('',#975,1.3);
#161=VECTOR('',#980,10.);
#162=VECTOR('',#981,10.);
#163=VECTOR('',#984,10.);
#164=VECTOR('',#989,1.3);
#165=VECTOR('',#994,10.);
#166=VECTOR('',#995,10.);
#167=VECTOR('',#1002,3.35);
#168=VECTOR('',#1007,1.5);
#169=VECTOR('',#1012,1.5);
#170=VECTOR('',#1017,48.5);
#171=CYLINDRICAL_SURFACE('',#742,6.);
#172=CYLINDRICAL_SURFACE('',#748,6.);
#173=CYLINDRICAL_SURFACE('',#752,41.23);
#174=CYLINDRICAL_SURFACE('',#755,30.7684221222162);
#175=CYLINDRICAL_SURFACE('',#757,9.00000000000015);
#176=CYLINDRICAL_SURFACE('',#760,99.9999999999999);
#177=CYLINDRICAL_SURFACE('',#763,35.23);
#178=CYLINDRICAL_SURFACE('',#767,24.7684221222162);
#179=CYLINDRICAL_SURFACE('',#770,15.0000000000002);
#180=CYLINDRICAL_SURFACE('',#780,9.);
#181=CYLINDRICAL_SURFACE('',#786,1.3);
#182=CYLINDRICAL_SURFACE('',#789,1.3);
#183=CYLINDRICAL_SURFACE('',#792,1.3);
#184=CYLINDRICAL_SURFACE('',#797,1.3);
#185=CYLINDRICAL_SURFACE('',#803,3.35);
#186=CYLINDRICAL_SURFACE('',#805,1.5);
#187=CYLINDRICAL_SURFACE('',#807,1.5);
#188=CYLINDRICAL_SURFACE('',#809,48.5);
#189=FACE_OUTER_BOUND('',#227,.T.);
#190=FACE_OUTER_BOUND('',#228,.T.);
#191=FACE_OUTER_BOUND('',#229,.T.);
#192=FACE_OUTER_BOUND('',#230,.T.);
#193=FACE_OUTER_BOUND('',#231,.T.);
#194=FACE_OUTER_BOUND('',#232,.T.);
#195=FACE_OUTER_BOUND('',#233,.T.);
#196=FACE_OUTER_BOUND('',#234,.T.);
#197=FACE_OUTER_BOUND('',#235,.T.);
#198=FACE_OUTER_BOUND('',#236,.T.);
#199=FACE_OUTER_BOUND('',#237,.T.);
#200=FACE_OUTER_BOUND('',#238,.T.);
#201=FACE_OUTER_BOUND('',#239,.T.);
#202=FACE_OUTER_BOUND('',#240,.T.);
#203=FACE_OUTER_BOUND('',#241,.T.);
#204=FACE_OUTER_BOUND('',#242,.T.);
#205=FACE_OUTER_BOUND('',#243,.T.);
#206=FACE_OUTER_BOUND('',#244,.T.);
#207=FACE_OUTER_BOUND('',#245,.T.);
#208=FACE_OUTER_BOUND('',#246,.T.);
#209=FACE_OUTER_BOUND('',#252,.T.);
#210=FACE_OUTER_BOUND('',#253,.T.);
#211=FACE_OUTER_BOUND('',#255,.T.);
#212=FACE_OUTER_BOUND('',#256,.T.);
#213=FACE_OUTER_BOUND('',#257,.T.);
#214=FACE_OUTER_BOUND('',#258,.T.);
#215=FACE_OUTER_BOUND('',#259,.T.);
#216=FACE_OUTER_BOUND('',#260,.T.);
#217=FACE_OUTER_BOUND('',#261,.T.);
#218=FACE_OUTER_BOUND('',#262,.T.);
#219=FACE_OUTER_BOUND('',#263,.T.);
#220=FACE_OUTER_BOUND('',#264,.T.);
#221=FACE_OUTER_BOUND('',#270,.T.);
#222=FACE_OUTER_BOUND('',#276,.T.);
#223=FACE_OUTER_BOUND('',#277,.T.);
#224=FACE_OUTER_BOUND('',#278,.T.);
#225=FACE_OUTER_BOUND('',#279,.T.);
#226=FACE_OUTER_BOUND('',#280,.T.);
#227=EDGE_LOOP('',(#485,#486,#487,#488));
#228=EDGE_LOOP('',(#489,#490,#491,#492));
#229=EDGE_LOOP('',(#493,#494,#495,#496));
#230=EDGE_LOOP('',(#497,#498,#499,#500,#501));
#231=EDGE_LOOP('',(#502,#503,#504,#505));
#232=EDGE_LOOP('',(#506,#507,#508,#509));
#233=EDGE_LOOP('',(#510,#511,#512,#513));
#234=EDGE_LOOP('',(#514,#515,#516,#517));
#235=EDGE_LOOP('',(#518,#519,#520,#521));
#236=EDGE_LOOP('',(#522,#523,#524,#525));
#237=EDGE_LOOP('',(#526,#527,#528,#529,#530));
#238=EDGE_LOOP('',(#531,#532,#533,#534,#535));
#239=EDGE_LOOP('',(#536,#537,#538,#539));
#240=EDGE_LOOP('',(#540,#541,#542,#543));
#241=EDGE_LOOP('',(#544,#545,#546,#547));
#242=EDGE_LOOP('',(#548,#549,#550,#551));
#243=EDGE_LOOP('',(#552,#553,#554,#555));
#244=EDGE_LOOP('',(#556,#557,#558,#559));
#245=EDGE_LOOP('',(#560,#561,#562,#563,#564,#565,#566,#567,#568,#569,#570,
#571,#572,#573,#574));
#246=EDGE_LOOP('',(#575));
#247=EDGE_LOOP('',(#576));
#248=EDGE_LOOP('',(#577));
#249=EDGE_LOOP('',(#578));
#250=EDGE_LOOP('',(#579,#580,#581,#582,#583,#584));
#251=EDGE_LOOP('',(#585,#586,#587,#588));
#252=EDGE_LOOP('',(#589,#590,#591,#592));
#253=EDGE_LOOP('',(#593,#594,#595,#596));
#254=EDGE_LOOP('',(#597));
#255=EDGE_LOOP('',(#598,#599,#600,#601));
#256=EDGE_LOOP('',(#602,#603,#604,#605));
#257=EDGE_LOOP('',(#606,#607,#608,#609));
#258=EDGE_LOOP('',(#610,#611,#612,#613));
#259=EDGE_LOOP('',(#614,#615,#616,#617));
#260=EDGE_LOOP('',(#618,#619,#620,#621));
#261=EDGE_LOOP('',(#622,#623,#624,#625));
#262=EDGE_LOOP('',(#626,#627,#628,#629));
#263=EDGE_LOOP('',(#630,#631,#632,#633));
#264=EDGE_LOOP('',(#634,#635,#636,#637,#638,#639,#640,#641));
#265=EDGE_LOOP('',(#642));
#266=EDGE_LOOP('',(#643,#644,#645,#646));
#267=EDGE_LOOP('',(#647));
#268=EDGE_LOOP('',(#648));
#269=EDGE_LOOP('',(#649));
#270=EDGE_LOOP('',(#650,#651,#652,#653,#654,#655,#656,#657));
#271=EDGE_LOOP('',(#658));
#272=EDGE_LOOP('',(#659));
#273=EDGE_LOOP('',(#660));
#274=EDGE_LOOP('',(#661));
#275=EDGE_LOOP('',(#662));
#276=EDGE_LOOP('',(#663,#664,#665,#666));
#277=EDGE_LOOP('',(#667,#668,#669,#670));
#278=EDGE_LOOP('',(#671,#672,#673,#674));
#279=EDGE_LOOP('',(#675,#676,#677,#678));
#280=EDGE_LOOP('',(#679));
#281=EDGE_LOOP('',(#680));
#282=EDGE_LOOP('',(#681));
#283=EDGE_LOOP('',(#682));
#284=CIRCLE('',#738,6.);
#285=CIRCLE('',#739,30.7684221222162);
#286=CIRCLE('',#740,6.);
#287=CIRCLE('',#741,24.7684221222162);
#288=CIRCLE('',#743,5.99999999999999);
#289=CIRCLE('',#745,6.);
#290=CIRCLE('',#746,35.23);
#291=CIRCLE('',#747,41.23);
#292=CIRCLE('',#749,6.);
#293=CIRCLE('',#750,6.);
#294=CIRCLE('',#753,41.23);
#295=CIRCLE('',#756,30.7684221222162);
#296=CIRCLE('',#758,9.00000000000015);
#297=CIRCLE('',#761,99.9999999999999);
#298=CIRCLE('',#764,35.23);
#299=CIRCLE('',#765,35.23);
#300=CIRCLE('',#768,24.7684221222162);
#301=CIRCLE('',#769,24.7684221222162);
#302=CIRCLE('',#771,15.);
#303=CIRCLE('',#772,15.0000000000002);
#304=CIRCLE('',#776,48.5);
#305=CIRCLE('',#777,1.5);
#306=CIRCLE('',#778,1.5);
#307=CIRCLE('',#779,3.35);
#308=CIRCLE('',#781,9.);
#309=CIRCLE('',#782,9.);
#310=CIRCLE('',#787,1.3);
#311=CIRCLE('',#788,1.3);
#312=CIRCLE('',#790,1.3);
#313=CIRCLE('',#791,1.3);
#314=CIRCLE('',#793,1.3);
#315=CIRCLE('',#794,1.3);
#316=CIRCLE('',#798,1.3);
#317=CIRCLE('',#799,1.3);
#318=CIRCLE('',#804,3.35);
#319=CIRCLE('',#806,1.5);
#320=CIRCLE('',#808,1.5);
#321=CIRCLE('',#810,48.5);
#322=VERTEX_POINT('',#1024);
#323=VERTEX_POINT('',#1025);
#324=VERTEX_POINT('',#1027);
#325=VERTEX_POINT('',#1029);
#326=VERTEX_POINT('',#1033);
#327=VERTEX_POINT('',#1034);
#328=VERTEX_POINT('',#1039);
#329=VERTEX_POINT('',#1040);
#330=VERTEX_POINT('',#1045);
#331=VERTEX_POINT('',#1046);
#332=VERTEX_POINT('',#1052);
#333=VERTEX_POINT('',#1070);
#334=VERTEX_POINT('',#1081);
#335=VERTEX_POINT('',#1090);
#336=VERTEX_POINT('',#1092);
#337=VERTEX_POINT('',#1096);
#338=VERTEX_POINT('',#1100);
#339=VERTEX_POINT('',#1104);
#340=VERTEX_POINT('',#1108);
#341=VERTEX_POINT('',#1112);
#342=VERTEX_POINT('',#1114);
#343=VERTEX_POINT('',#1118);
#344=VERTEX_POINT('',#1120);
#345=VERTEX_POINT('',#1122);
#346=VERTEX_POINT('',#1126);
#347=VERTEX_POINT('',#1128);
#348=VERTEX_POINT('',#1132);
#349=VERTEX_POINT('',#1134);
#350=VERTEX_POINT('',#1138);
#351=VERTEX_POINT('',#1140);
#352=VERTEX_POINT('',#1144);
#353=VERTEX_POINT('',#1146);
#354=VERTEX_POINT('',#1150);
#355=VERTEX_POINT('',#1152);
#356=VERTEX_POINT('',#1156);
#357=VERTEX_POINT('',#1158);
#358=VERTEX_POINT('',#1165);
#359=VERTEX_POINT('',#1167);
#360=VERTEX_POINT('',#1169);
#361=VERTEX_POINT('',#1171);
#362=VERTEX_POINT('',#1173);
#363=VERTEX_POINT('',#1175);
#364=VERTEX_POINT('',#1179);
#365=VERTEX_POINT('',#1181);
#366=VERTEX_POINT('',#1185);
#367=VERTEX_POINT('',#1186);
#368=VERTEX_POINT('',#1188);
#369=VERTEX_POINT('',#1190);
#370=VERTEX_POINT('',#1194);
#371=VERTEX_POINT('',#1196);
#372=VERTEX_POINT('',#1200);
#373=VERTEX_POINT('',#1204);
#374=VERTEX_POINT('',#1206);
#375=VERTEX_POINT('',#1210);
#376=VERTEX_POINT('',#1212);
#377=VERTEX_POINT('',#1216);
#378=VERTEX_POINT('',#1218);
#379=VERTEX_POINT('',#1222);
#380=VERTEX_POINT('',#1228);
#381=VERTEX_POINT('',#1230);
#382=VERTEX_POINT('',#1239);
#383=VERTEX_POINT('',#1243);
#384=VERTEX_POINT('',#1247);
#385=VERTEX_POINT('',#1251);
#386=EDGE_CURVE('',#322,#323,#284,.T.);
#387=EDGE_CURVE('',#323,#324,#285,.T.);
#388=EDGE_CURVE('',#324,#325,#286,.T.);
#389=EDGE_CURVE('',#325,#322,#287,.T.);
#390=EDGE_CURVE('',#326,#327,#288,.T.);
#391=EDGE_CURVE('',#327,#325,#55,.T.);
#392=EDGE_CURVE('',#324,#326,#56,.T.);
#393=EDGE_CURVE('',#328,#329,#289,.T.);
#394=EDGE_CURVE('',#329,#327,#290,.T.);
#395=EDGE_CURVE('',#326,#328,#291,.T.);
#396=EDGE_CURVE('',#330,#331,#52,.T.);
#397=EDGE_CURVE('',#331,#329,#57,.T.);
#398=EDGE_CURVE('',#328,#332,#58,.T.);
#399=EDGE_CURVE('',#332,#330,#292,.F.);
#400=EDGE_CURVE('',#333,#323,#53,.T.);
#401=EDGE_CURVE('',#322,#334,#293,.T.);
#402=EDGE_CURVE('',#334,#333,#54,.T.);
#403=EDGE_CURVE('',#328,#335,#59,.T.);
#404=EDGE_CURVE('',#336,#335,#60,.T.);
#405=EDGE_CURVE('',#332,#336,#61,.T.);
#406=EDGE_CURVE('',#326,#337,#62,.T.);
#407=EDGE_CURVE('',#335,#337,#294,.T.);
#408=EDGE_CURVE('',#324,#338,#63,.T.);
#409=EDGE_CURVE('',#337,#338,#64,.T.);
#410=EDGE_CURVE('',#323,#339,#65,.T.);
#411=EDGE_CURVE('',#338,#339,#295,.T.);
#412=EDGE_CURVE('',#333,#340,#66,.T.);
#413=EDGE_CURVE('',#339,#340,#296,.T.);
#414=EDGE_CURVE('',#341,#334,#67,.T.);
#415=EDGE_CURVE('',#342,#341,#68,.T.);
#416=EDGE_CURVE('',#340,#342,#69,.T.);
#417=EDGE_CURVE('',#343,#330,#70,.T.);
#418=EDGE_CURVE('',#344,#343,#297,.T.);
#419=EDGE_CURVE('',#345,#344,#71,.T.);
#420=EDGE_CURVE('',#331,#345,#72,.T.);
#421=EDGE_CURVE('',#345,#346,#73,.T.);
#422=EDGE_CURVE('',#347,#344,#74,.T.);
#423=EDGE_CURVE('',#346,#347,#75,.T.);
#424=EDGE_CURVE('',#346,#348,#298,.T.);
#425=EDGE_CURVE('',#349,#347,#299,.T.);
#426=EDGE_CURVE('',#348,#349,#76,.T.);
#427=EDGE_CURVE('',#348,#350,#77,.T.);
#428=EDGE_CURVE('',#351,#349,#78,.T.);
#429=EDGE_CURVE('',#350,#351,#79,.T.);
#430=EDGE_CURVE('',#350,#352,#300,.T.);
#431=EDGE_CURVE('',#353,#351,#301,.T.);
#432=EDGE_CURVE('',#352,#353,#80,.T.);
#433=EDGE_CURVE('',#352,#354,#302,.T.);
#434=EDGE_CURVE('',#355,#353,#303,.T.);
#435=EDGE_CURVE('',#354,#355,#81,.T.);
#436=EDGE_CURVE('',#354,#356,#82,.T.);
#437=EDGE_CURVE('',#357,#355,#83,.T.);
#438=EDGE_CURVE('',#356,#357,#84,.T.);
#439=EDGE_CURVE('',#357,#342,#85,.T.);
#440=EDGE_CURVE('',#336,#343,#86,.T.);
#441=EDGE_CURVE('',#358,#358,#304,.T.);
#442=EDGE_CURVE('',#359,#359,#305,.T.);
#443=EDGE_CURVE('',#360,#360,#306,.T.);
#444=EDGE_CURVE('',#361,#361,#307,.T.);
#445=EDGE_CURVE('',#341,#362,#87,.T.);
#446=EDGE_CURVE('',#362,#363,#88,.T.);
#447=EDGE_CURVE('',#363,#356,#89,.T.);
#448=EDGE_CURVE('',#364,#364,#308,.T.);
#449=EDGE_CURVE('',#364,#365,#90,.T.);
#450=EDGE_CURVE('',#365,#365,#309,.T.);
#451=EDGE_CURVE('',#366,#367,#91,.T.);
#452=EDGE_CURVE('',#368,#366,#92,.T.);
#453=EDGE_CURVE('',#369,#368,#93,.T.);
#454=EDGE_CURVE('',#367,#369,#94,.T.);
#455=EDGE_CURVE('',#368,#370,#95,.T.);
#456=EDGE_CURVE('',#371,#370,#96,.T.);
#457=EDGE_CURVE('',#369,#371,#97,.T.);
#458=EDGE_CURVE('',#366,#372,#98,.T.);
#459=EDGE_CURVE('',#370,#372,#99,.T.);
#460=EDGE_CURVE('',#373,#373,#310,.T.);
#461=EDGE_CURVE('',#373,#374,#100,.T.);
#462=EDGE_CURVE('',#374,#374,#311,.T.);
#463=EDGE_CURVE('',#375,#375,#312,.T.);
#464=EDGE_CURVE('',#375,#376,#101,.T.);
#465=EDGE_CURVE('',#376,#376,#313,.T.);
#466=EDGE_CURVE('',#377,#377,#314,.T.);
#467=EDGE_CURVE('',#377,#378,#102,.T.);
#468=EDGE_CURVE('',#378,#378,#315,.T.);
#469=EDGE_CURVE('',#367,#379,#103,.T.);
#470=EDGE_CURVE('',#372,#379,#104,.T.);
#471=EDGE_CURVE('',#379,#371,#105,.T.);
#472=EDGE_CURVE('',#380,#380,#316,.T.);
#473=EDGE_CURVE('',#380,#381,#106,.T.);
#474=EDGE_CURVE('',#381,#381,#317,.T.);
#475=EDGE_CURVE('',#363,#345,#107,.T.);
#476=EDGE_CURVE('',#362,#331,#108,.T.);
#477=EDGE_CURVE('',#361,#382,#109,.T.);
#478=EDGE_CURVE('',#382,#382,#318,.T.);
#479=EDGE_CURVE('',#359,#383,#110,.T.);
#480=EDGE_CURVE('',#383,#383,#319,.T.);
#481=EDGE_CURVE('',#360,#384,#111,.T.);
#482=EDGE_CURVE('',#384,#384,#320,.T.);
#483=EDGE_CURVE('',#358,#385,#112,.T.);
#484=EDGE_CURVE('',#385,#385,#321,.T.);
#485=ORIENTED_EDGE('',*,*,#386,.T.);
#486=ORIENTED_EDGE('',*,*,#387,.T.);
#487=ORIENTED_EDGE('',*,*,#388,.T.);
#488=ORIENTED_EDGE('',*,*,#389,.T.);
#489=ORIENTED_EDGE('',*,*,#390,.T.);
#490=ORIENTED_EDGE('',*,*,#391,.T.);
#491=ORIENTED_EDGE('',*,*,#388,.F.);
#492=ORIENTED_EDGE('',*,*,#392,.T.);
#493=ORIENTED_EDGE('',*,*,#393,.T.);
#494=ORIENTED_EDGE('',*,*,#394,.T.);
#495=ORIENTED_EDGE('',*,*,#390,.F.);
#496=ORIENTED_EDGE('',*,*,#395,.T.);
#497=ORIENTED_EDGE('',*,*,#396,.T.);
#498=ORIENTED_EDGE('',*,*,#397,.T.);
#499=ORIENTED_EDGE('',*,*,#393,.F.);
#500=ORIENTED_EDGE('',*,*,#398,.T.);
#501=ORIENTED_EDGE('',*,*,#399,.T.);
#502=ORIENTED_EDGE('',*,*,#400,.T.);
#503=ORIENTED_EDGE('',*,*,#386,.F.);
#504=ORIENTED_EDGE('',*,*,#401,.T.);
#505=ORIENTED_EDGE('',*,*,#402,.T.);
#506=ORIENTED_EDGE('',*,*,#398,.F.);
#507=ORIENTED_EDGE('',*,*,#403,.T.);
#508=ORIENTED_EDGE('',*,*,#404,.F.);
#509=ORIENTED_EDGE('',*,*,#405,.F.);
#510=ORIENTED_EDGE('',*,*,#395,.F.);
#511=ORIENTED_EDGE('',*,*,#406,.T.);
#512=ORIENTED_EDGE('',*,*,#407,.F.);
#513=ORIENTED_EDGE('',*,*,#403,.F.);
#514=ORIENTED_EDGE('',*,*,#392,.F.);
#515=ORIENTED_EDGE('',*,*,#408,.T.);
#516=ORIENTED_EDGE('',*,*,#409,.F.);
#517=ORIENTED_EDGE('',*,*,#406,.F.);
#518=ORIENTED_EDGE('',*,*,#387,.F.);
#519=ORIENTED_EDGE('',*,*,#410,.T.);
#520=ORIENTED_EDGE('',*,*,#411,.F.);
#521=ORIENTED_EDGE('',*,*,#408,.F.);
#522=ORIENTED_EDGE('',*,*,#400,.F.);
#523=ORIENTED_EDGE('',*,*,#412,.T.);
#524=ORIENTED_EDGE('',*,*,#413,.F.);
#525=ORIENTED_EDGE('',*,*,#410,.F.);
#526=ORIENTED_EDGE('',*,*,#402,.F.);
#527=ORIENTED_EDGE('',*,*,#414,.F.);
#528=ORIENTED_EDGE('',*,*,#415,.F.);
#529=ORIENTED_EDGE('',*,*,#416,.F.);
#530=ORIENTED_EDGE('',*,*,#412,.F.);
#531=ORIENTED_EDGE('',*,*,#396,.F.);
#532=ORIENTED_EDGE('',*,*,#417,.F.);
#533=ORIENTED_EDGE('',*,*,#418,.F.);
#534=ORIENTED_EDGE('',*,*,#419,.F.);
#535=ORIENTED_EDGE('',*,*,#420,.F.);
#536=ORIENTED_EDGE('',*,*,#421,.F.);
#537=ORIENTED_EDGE('',*,*,#419,.T.);
#538=ORIENTED_EDGE('',*,*,#422,.F.);
#539=ORIENTED_EDGE('',*,*,#423,.F.);
#540=ORIENTED_EDGE('',*,*,#424,.F.);
#541=ORIENTED_EDGE('',*,*,#423,.T.);
#542=ORIENTED_EDGE('',*,*,#425,.F.);
#543=ORIENTED_EDGE('',*,*,#426,.F.);
#544=ORIENTED_EDGE('',*,*,#427,.F.);
#545=ORIENTED_EDGE('',*,*,#426,.T.);
#546=ORIENTED_EDGE('',*,*,#428,.F.);
#547=ORIENTED_EDGE('',*,*,#429,.F.);
#548=ORIENTED_EDGE('',*,*,#430,.F.);
#549=ORIENTED_EDGE('',*,*,#429,.T.);
#550=ORIENTED_EDGE('',*,*,#431,.F.);
#551=ORIENTED_EDGE('',*,*,#432,.F.);
#552=ORIENTED_EDGE('',*,*,#433,.F.);
#553=ORIENTED_EDGE('',*,*,#432,.T.);
#554=ORIENTED_EDGE('',*,*,#434,.F.);
#555=ORIENTED_EDGE('',*,*,#435,.F.);
#556=ORIENTED_EDGE('',*,*,#436,.F.);
#557=ORIENTED_EDGE('',*,*,#435,.T.);
#558=ORIENTED_EDGE('',*,*,#437,.F.);
#559=ORIENTED_EDGE('',*,*,#438,.F.);
#560=ORIENTED_EDGE('',*,*,#404,.T.);
#561=ORIENTED_EDGE('',*,*,#407,.T.);
#562=ORIENTED_EDGE('',*,*,#409,.T.);
#563=ORIENTED_EDGE('',*,*,#411,.T.);
#564=ORIENTED_EDGE('',*,*,#413,.T.);
#565=ORIENTED_EDGE('',*,*,#416,.T.);
#566=ORIENTED_EDGE('',*,*,#439,.F.);
#567=ORIENTED_EDGE('',*,*,#437,.T.);
#568=ORIENTED_EDGE('',*,*,#434,.T.);
#569=ORIENTED_EDGE('',*,*,#431,.T.);
#570=ORIENTED_EDGE('',*,*,#428,.T.);
#571=ORIENTED_EDGE('',*,*,#425,.T.);
#572=ORIENTED_EDGE('',*,*,#422,.T.);
#573=ORIENTED_EDGE('',*,*,#418,.T.);
#574=ORIENTED_EDGE('',*,*,#440,.F.);
#575=ORIENTED_EDGE('',*,*,#441,.T.);
#576=ORIENTED_EDGE('',*,*,#442,.T.);
#577=ORIENTED_EDGE('',*,*,#443,.T.);
#578=ORIENTED_EDGE('',*,*,#444,.T.);
#579=ORIENTED_EDGE('',*,*,#438,.T.);
#580=ORIENTED_EDGE('',*,*,#439,.T.);
#581=ORIENTED_EDGE('',*,*,#415,.T.);
#582=ORIENTED_EDGE('',*,*,#445,.T.);
#583=ORIENTED_EDGE('',*,*,#446,.T.);
#584=ORIENTED_EDGE('',*,*,#447,.T.);
#585=ORIENTED_EDGE('',*,*,#399,.F.);
#586=ORIENTED_EDGE('',*,*,#405,.T.);
#587=ORIENTED_EDGE('',*,*,#440,.T.);
#588=ORIENTED_EDGE('',*,*,#417,.T.);
#589=ORIENTED_EDGE('',*,*,#448,.F.);
#590=ORIENTED_EDGE('',*,*,#449,.T.);
#591=ORIENTED_EDGE('',*,*,#450,.F.);
#592=ORIENTED_EDGE('',*,*,#449,.F.);
#593=ORIENTED_EDGE('',*,*,#451,.F.);
#594=ORIENTED_EDGE('',*,*,#452,.F.);
#595=ORIENTED_EDGE('',*,*,#453,.F.);
#596=ORIENTED_EDGE('',*,*,#454,.F.);
#597=ORIENTED_EDGE('',*,*,#448,.T.);
#598=ORIENTED_EDGE('',*,*,#453,.T.);
#599=ORIENTED_EDGE('',*,*,#455,.T.);
#600=ORIENTED_EDGE('',*,*,#456,.F.);
#601=ORIENTED_EDGE('',*,*,#457,.F.);
#602=ORIENTED_EDGE('',*,*,#452,.T.);
#603=ORIENTED_EDGE('',*,*,#458,.T.);
#604=ORIENTED_EDGE('',*,*,#459,.F.);
#605=ORIENTED_EDGE('',*,*,#455,.F.);
#606=ORIENTED_EDGE('',*,*,#460,.F.);
#607=ORIENTED_EDGE('',*,*,#461,.T.);
#608=ORIENTED_EDGE('',*,*,#462,.F.);
#609=ORIENTED_EDGE('',*,*,#461,.F.);
#610=ORIENTED_EDGE('',*,*,#463,.F.);
#611=ORIENTED_EDGE('',*,*,#464,.T.);
#612=ORIENTED_EDGE('',*,*,#465,.F.);
#613=ORIENTED_EDGE('',*,*,#464,.F.);
#614=ORIENTED_EDGE('',*,*,#466,.F.);
#615=ORIENTED_EDGE('',*,*,#467,.T.);
#616=ORIENTED_EDGE('',*,*,#468,.F.);
#617=ORIENTED_EDGE('',*,*,#467,.F.);
#618=ORIENTED_EDGE('',*,*,#451,.T.);
#619=ORIENTED_EDGE('',*,*,#469,.T.);
#620=ORIENTED_EDGE('',*,*,#470,.F.);
#621=ORIENTED_EDGE('',*,*,#458,.F.);
#622=ORIENTED_EDGE('',*,*,#454,.T.);
#623=ORIENTED_EDGE('',*,*,#457,.T.);
#624=ORIENTED_EDGE('',*,*,#471,.F.);
#625=ORIENTED_EDGE('',*,*,#469,.F.);
#626=ORIENTED_EDGE('',*,*,#472,.F.);
#627=ORIENTED_EDGE('',*,*,#473,.T.);
#628=ORIENTED_EDGE('',*,*,#474,.F.);
#629=ORIENTED_EDGE('',*,*,#473,.F.);
#630=ORIENTED_EDGE('',*,*,#420,.T.);
#631=ORIENTED_EDGE('',*,*,#475,.F.);
#632=ORIENTED_EDGE('',*,*,#446,.F.);
#633=ORIENTED_EDGE('',*,*,#476,.T.);
#634=ORIENTED_EDGE('',*,*,#447,.F.);
#635=ORIENTED_EDGE('',*,*,#475,.T.);
#636=ORIENTED_EDGE('',*,*,#421,.T.);
#637=ORIENTED_EDGE('',*,*,#424,.T.);
#638=ORIENTED_EDGE('',*,*,#427,.T.);
#639=ORIENTED_EDGE('',*,*,#430,.T.);
#640=ORIENTED_EDGE('',*,*,#433,.T.);
#641=ORIENTED_EDGE('',*,*,#436,.T.);
#642=ORIENTED_EDGE('',*,*,#474,.T.);
#643=ORIENTED_EDGE('',*,*,#471,.T.);
#644=ORIENTED_EDGE('',*,*,#456,.T.);
#645=ORIENTED_EDGE('',*,*,#459,.T.);
#646=ORIENTED_EDGE('',*,*,#470,.T.);
#647=ORIENTED_EDGE('',*,*,#468,.T.);
#648=ORIENTED_EDGE('',*,*,#465,.T.);
#649=ORIENTED_EDGE('',*,*,#462,.T.);
#650=ORIENTED_EDGE('',*,*,#397,.F.);
#651=ORIENTED_EDGE('',*,*,#476,.F.);
#652=ORIENTED_EDGE('',*,*,#445,.F.);
#653=ORIENTED_EDGE('',*,*,#414,.T.);
#654=ORIENTED_EDGE('',*,*,#401,.F.);
#655=ORIENTED_EDGE('',*,*,#389,.F.);
#656=ORIENTED_EDGE('',*,*,#391,.F.);
#657=ORIENTED_EDGE('',*,*,#394,.F.);
#658=ORIENTED_EDGE('',*,*,#450,.T.);
#659=ORIENTED_EDGE('',*,*,#472,.T.);
#660=ORIENTED_EDGE('',*,*,#466,.T.);
#661=ORIENTED_EDGE('',*,*,#463,.T.);
#662=ORIENTED_EDGE('',*,*,#460,.T.);
#663=ORIENTED_EDGE('',*,*,#444,.F.);
#664=ORIENTED_EDGE('',*,*,#477,.T.);
#665=ORIENTED_EDGE('',*,*,#478,.F.);
#666=ORIENTED_EDGE('',*,*,#477,.F.);
#667=ORIENTED_EDGE('',*,*,#442,.F.);
#668=ORIENTED_EDGE('',*,*,#479,.T.);
#669=ORIENTED_EDGE('',*,*,#480,.T.);
#670=ORIENTED_EDGE('',*,*,#479,.F.);
#671=ORIENTED_EDGE('',*,*,#443,.F.);
#672=ORIENTED_EDGE('',*,*,#481,.T.);
#673=ORIENTED_EDGE('',*,*,#482,.T.);
#674=ORIENTED_EDGE('',*,*,#481,.F.);
#675=ORIENTED_EDGE('',*,*,#441,.F.);
#676=ORIENTED_EDGE('',*,*,#483,.T.);
#677=ORIENTED_EDGE('',*,*,#484,.T.);
#678=ORIENTED_EDGE('',*,*,#483,.F.);
#679=ORIENTED_EDGE('',*,*,#484,.F.);
#680=ORIENTED_EDGE('',*,*,#478,.T.);
#681=ORIENTED_EDGE('',*,*,#482,.F.);
#682=ORIENTED_EDGE('',*,*,#480,.F.);
#683=TOROIDAL_SURFACE('',#737,24.7684221222162,6.);
#684=TOROIDAL_SURFACE('',#744,35.23,6.);
#685=ADVANCED_FACE('',(#189),#683,.T.);
#686=ADVANCED_FACE('',(#190),#171,.T.);
#687=ADVANCED_FACE('',(#191),#684,.T.);
#688=ADVANCED_FACE('',(#192),#172,.T.);
#689=ADVANCED_FACE('',(#193),#51,.T.);
#690=ADVANCED_FACE('',(#194),#34,.T.);
#691=ADVANCED_FACE('',(#195),#173,.T.);
#692=ADVANCED_FACE('',(#196),#35,.T.);
#693=ADVANCED_FACE('',(#197),#174,.T.);
#694=ADVANCED_FACE('',(#198),#175,.F.);
#695=ADVANCED_FACE('',(#199),#36,.T.);
#696=ADVANCED_FACE('',(#200),#176,.F.);
#697=ADVANCED_FACE('',(#201),#37,.T.);
#698=ADVANCED_FACE('',(#202),#177,.F.);
#699=ADVANCED_FACE('',(#203),#38,.T.);
#700=ADVANCED_FACE('',(#204),#178,.F.);
#701=ADVANCED_FACE('',(#205),#179,.T.);
#702=ADVANCED_FACE('',(#206),#39,.T.);
#703=ADVANCED_FACE('',(#207),#40,.T.);
#704=ADVANCED_FACE('',(#208,#15,#16,#17,#18,#19),#41,.T.);
#705=ADVANCED_FACE('',(#209),#180,.F.);
#706=ADVANCED_FACE('',(#210,#20),#42,.F.);
#707=ADVANCED_FACE('',(#211),#43,.F.);
#708=ADVANCED_FACE('',(#212),#44,.F.);
#709=ADVANCED_FACE('',(#213),#181,.F.);
#710=ADVANCED_FACE('',(#214),#182,.F.);
#711=ADVANCED_FACE('',(#215),#183,.F.);
#712=ADVANCED_FACE('',(#216),#45,.F.);
#713=ADVANCED_FACE('',(#217),#46,.F.);
#714=ADVANCED_FACE('',(#218),#184,.F.);
#715=ADVANCED_FACE('',(#219),#47,.T.);
#716=ADVANCED_FACE('',(#220,#21,#22,#23,#24,#25),#48,.T.);
#717=ADVANCED_FACE('',(#221,#26,#27,#28,#29,#30),#49,.F.);
#718=ADVANCED_FACE('',(#222),#185,.F.);
#719=ADVANCED_FACE('',(#223),#186,.F.);
#720=ADVANCED_FACE('',(#224),#187,.F.);
#721=ADVANCED_FACE('',(#225),#188,.T.);
#722=ADVANCED_FACE('',(#226,#31,#32,#33),#50,.F.);
#723=CLOSED_SHELL('',(#685,#686,#687,#688,#689,#690,#691,#692,#693,#694,
#695,#696,#697,#698,#699,#700,#701,#702,#703,#704,#705,#706,#707,#708,#709,
#710,#711,#712,#713,#714,#715,#716,#717,#718,#719,#720,#721,#722));
#724=DERIVED_UNIT_ELEMENT(#726,1.);
#725=DERIVED_UNIT_ELEMENT(#1260,-3.);
#726=(
MASS_UNIT()
NAMED_UNIT(*)
SI_UNIT(.KILO.,.GRAM.)
);
#727=DERIVED_UNIT((#724,#725));
#728=MEASURE_REPRESENTATION_ITEM('density measure',
POSITIVE_RATIO_MEASURE(7850.),#727);
#729=PROPERTY_DEFINITION_REPRESENTATION(#734,#731);
#730=PROPERTY_DEFINITION_REPRESENTATION(#735,#732);
#731=REPRESENTATION('material name',(#733),#1257);
#732=REPRESENTATION('density',(#728),#1257);
#733=DESCRIPTIVE_REPRESENTATION_ITEM('Steel','Steel');
#734=PROPERTY_DEFINITION('material property','material name',#1267);
#735=PROPERTY_DEFINITION('material property','density of part',#1267);
#736=AXIS2_PLACEMENT_3D('',#1022,#812,#813);
#737=AXIS2_PLACEMENT_3D('',#1023,#814,#815);
#738=AXIS2_PLACEMENT_3D('',#1026,#816,#817);
#739=AXIS2_PLACEMENT_3D('',#1028,#818,#819);
#740=AXIS2_PLACEMENT_3D('',#1030,#820,#821);
#741=AXIS2_PLACEMENT_3D('',#1031,#822,#823);
#742=AXIS2_PLACEMENT_3D('',#1032,#824,#825);
#743=AXIS2_PLACEMENT_3D('',#1035,#826,#827);
#744=AXIS2_PLACEMENT_3D('',#1038,#830,#831);
#745=AXIS2_PLACEMENT_3D('',#1041,#832,#833);
#746=AXIS2_PLACEMENT_3D('',#1042,#834,#835);
#747=AXIS2_PLACEMENT_3D('',#1043,#836,#837);
#748=AXIS2_PLACEMENT_3D('',#1044,#838,#839);
#749=AXIS2_PLACEMENT_3D('',#1054,#842,#843);
#750=AXIS2_PLACEMENT_3D('',#1082,#844,#845);
#751=AXIS2_PLACEMENT_3D('',#1089,#846,#847);
#752=AXIS2_PLACEMENT_3D('',#1095,#851,#852);
#753=AXIS2_PLACEMENT_3D('',#1098,#854,#855);
#754=AXIS2_PLACEMENT_3D('',#1099,#856,#857);
#755=AXIS2_PLACEMENT_3D('',#1103,#860,#861);
#756=AXIS2_PLACEMENT_3D('',#1106,#863,#864);
#757=AXIS2_PLACEMENT_3D('',#1107,#865,#866);
#758=AXIS2_PLACEMENT_3D('',#1110,#868,#869);
#759=AXIS2_PLACEMENT_3D('',#1111,#870,#871);
#760=AXIS2_PLACEMENT_3D('',#1117,#875,#876);
#761=AXIS2_PLACEMENT_3D('',#1121,#878,#879);
#762=AXIS2_PLACEMENT_3D('',#1125,#882,#883);
#763=AXIS2_PLACEMENT_3D('',#1131,#887,#888);
#764=AXIS2_PLACEMENT_3D('',#1133,#889,#890);
#765=AXIS2_PLACEMENT_3D('',#1135,#891,#892);
#766=AXIS2_PLACEMENT_3D('',#1137,#894,#895);
#767=AXIS2_PLACEMENT_3D('',#1143,#899,#900);
#768=AXIS2_PLACEMENT_3D('',#1145,#901,#902);
#769=AXIS2_PLACEMENT_3D('',#1147,#903,#904);
#770=AXIS2_PLACEMENT_3D('',#1149,#906,#907);
#771=AXIS2_PLACEMENT_3D('',#1151,#908,#909);
#772=AXIS2_PLACEMENT_3D('',#1153,#910,#911);
#773=AXIS2_PLACEMENT_3D('',#1155,#913,#914);
#774=AXIS2_PLACEMENT_3D('',#1161,#918,#919);
#775=AXIS2_PLACEMENT_3D('',#1164,#922,#923);
#776=AXIS2_PLACEMENT_3D('',#1166,#924,#925);
#777=AXIS2_PLACEMENT_3D('',#1168,#926,#927);
#778=AXIS2_PLACEMENT_3D('',#1170,#928,#929);
#779=AXIS2_PLACEMENT_3D('',#1172,#930,#931);
#780=AXIS2_PLACEMENT_3D('',#1178,#935,#936);
#781=AXIS2_PLACEMENT_3D('',#1180,#937,#938);
#782=AXIS2_PLACEMENT_3D('',#1183,#940,#941);
#783=AXIS2_PLACEMENT_3D('',#1184,#942,#943);
#784=AXIS2_PLACEMENT_3D('',#1193,#948,#949);
#785=AXIS2_PLACEMENT_3D('',#1199,#953,#954);
#786=AXIS2_PLACEMENT_3D('',#1203,#957,#958);
#787=AXIS2_PLACEMENT_3D('',#1205,#959,#960);
#788=AXIS2_PLACEMENT_3D('',#1208,#962,#963);
#789=AXIS2_PLACEMENT_3D('',#1209,#964,#965);
#790=AXIS2_PLACEMENT_3D('',#1211,#966,#967);
#791=AXIS2_PLACEMENT_3D('',#1214,#969,#970);
#792=AXIS2_PLACEMENT_3D('',#1215,#971,#972);
#793=AXIS2_PLACEMENT_3D('',#1217,#973,#974);
#794=AXIS2_PLACEMENT_3D('',#1220,#976,#977);
#795=AXIS2_PLACEMENT_3D('',#1221,#978,#979);
#796=AXIS2_PLACEMENT_3D('',#1225,#982,#983);
#797=AXIS2_PLACEMENT_3D('',#1227,#985,#986);
#798=AXIS2_PLACEMENT_3D('',#1229,#987,#988);
#799=AXIS2_PLACEMENT_3D('',#1232,#990,#991);
#800=AXIS2_PLACEMENT_3D('',#1233,#992,#993);
#801=AXIS2_PLACEMENT_3D('',#1236,#996,#997);
#802=AXIS2_PLACEMENT_3D('',#1237,#998,#999);
#803=AXIS2_PLACEMENT_3D('',#1238,#1000,#1001);
#804=AXIS2_PLACEMENT_3D('',#1241,#1003,#1004);
#805=AXIS2_PLACEMENT_3D('',#1242,#1005,#1006);
#806=AXIS2_PLACEMENT_3D('',#1245,#1008,#1009);
#807=AXIS2_PLACEMENT_3D('',#1246,#1010,#1011);
#808=AXIS2_PLACEMENT_3D('',#1249,#1013,#1014);
#809=AXIS2_PLACEMENT_3D('',#1250,#1015,#1016);
#810=AXIS2_PLACEMENT_3D('',#1253,#1018,#1019);
#811=AXIS2_PLACEMENT_3D('',#1254,#1020,#1021);
#812=DIRECTION('axis',(0.,0.,1.));
#813=DIRECTION('refdir',(1.,0.,0.));
#814=DIRECTION('center_axis',(-1.,3.4958256787836E-35,1.49880108324396E-15));
#815=DIRECTION('ref_axis',(1.84745966611543E-15,0.,1.));
#816=DIRECTION('center_axis',(1.14817725260736E-15,-0.642764540878696,0.766063799555233));
#817=DIRECTION('ref_axis',(-1.,3.4958256787836E-35,1.49880108324396E-15));
#818=DIRECTION('center_axis',(-1.,3.4958256787836E-35,1.49880108324396E-15));
#819=DIRECTION('ref_axis',(1.10699549524977E-15,-0.674157808721192,0.738587333319656));
#820=DIRECTION('center_axis',(1.06388701946953E-15,-0.704377709304831,0.709825360658859));
#821=DIRECTION('ref_axis',(1.05572207371898E-15,0.709825360658859,0.704377709304831));
#822=DIRECTION('center_axis',(1.,-3.4958256787836E-35,-1.49880108324396E-15));
#823=DIRECTION('ref_axis',(1.10699549524977E-15,-0.674157808721192,0.738587333319656));
#824=DIRECTION('center_axis',(-1.06388701946953E-15,0.704377709304832,-0.709825360658858));
#825=DIRECTION('ref_axis',(-0.707106781186547,0.501922325980066,0.498070254766094));
#826=DIRECTION('center_axis',(1.06388701946953E-15,-0.704377709304832,0.709825360658858));
#827=DIRECTION('ref_axis',(1.05572207371898E-15,0.709825360658858,0.704377709304832));
#828=DIRECTION('',(1.06388701946953E-15,-0.704377709304831,0.709825360658858));
#829=DIRECTION('',(-1.06388701946953E-15,0.704377709304831,-0.709825360658858));
#830=DIRECTION('center_axis',(-1.,3.4958256787836E-35,1.49880108324396E-15));
#831=DIRECTION('ref_axis',(1.72336341440723E-15,0.,1.));
#832=DIRECTION('center_axis',(1.49880108324396E-15,3.70074341541719E-16,
1.));
#833=DIRECTION('ref_axis',(-5.54632865726734E-31,1.,-3.70074341541719E-16));
#834=DIRECTION('center_axis',(1.,-3.4958256787836E-35,-1.49880108324396E-15));
#835=DIRECTION('ref_axis',(5.70898270229969E-16,0.92461488216956,0.380903294381357));
#836=DIRECTION('center_axis',(-1.,3.4958256787836E-35,1.49880108324396E-15));
#837=DIRECTION('ref_axis',(5.70898270229969E-16,0.92461488216956,0.380903294381357));
#838=DIRECTION('center_axis',(-1.49880108324396E-15,9.61232055952516E-16,
-1.));
#839=DIRECTION('ref_axis',(-0.707106781186548,0.707106781186547,2.10654071540073E-15));
#840=DIRECTION('',(1.49880108324396E-15,-9.61232055952516E-16,1.));
#841=DIRECTION('',(-1.49880108324396E-15,9.61232055952516E-16,-1.));
#842=DIRECTION('center_axis',(-1.49880108324396E-15,2.29716774905421E-61,
-1.));
#843=DIRECTION('ref_axis',(-0.707106781186548,0.707106781186547,2.10654071540073E-15));
#844=DIRECTION('center_axis',(-1.,3.4958256787836E-35,1.49880108324396E-15));
#845=DIRECTION('ref_axis',(-9.63376190139793E-16,-0.766063799555233,-0.642764540878696));
#846=DIRECTION('center_axis',(1.44073060496723E-30,1.,9.61232055952516E-16));
#847=DIRECTION('ref_axis',(1.49880108324396E-15,-9.61232055952516E-16,1.));
#848=DIRECTION('',(1.,-3.4958256787836E-35,-1.49880108324396E-15));
#849=DIRECTION('',(1.49880108324396E-15,-9.61232055952516E-16,1.));
#850=DIRECTION('',(1.,-3.4958256787836E-35,-1.49880108324396E-15));
#851=DIRECTION('center_axis',(1.,-3.4958256787836E-35,-1.49880108324396E-15));
#852=DIRECTION('ref_axis',(-3.22837410785282E-31,1.,-2.15420426800904E-16));
#853=DIRECTION('',(1.,-3.4958256787836E-35,-1.49880108324396E-15));
#854=DIRECTION('center_axis',(1.,-3.4958256787836E-35,-1.49880108324396E-15));
#855=DIRECTION('ref_axis',(-3.22837410785282E-31,1.,-2.15420426800904E-16));
#856=DIRECTION('center_axis',(1.05572207371898E-15,0.709825360658858,0.704377709304832));
#857=DIRECTION('ref_axis',(1.06388701946953E-15,-0.704377709304831,0.709825360658858));
#858=DIRECTION('',(1.,-3.4958256787836E-35,-1.49880108324396E-15));
#859=DIRECTION('',(1.06388701946953E-15,-0.704377709304832,0.709825360658858));
#860=DIRECTION('center_axis',(1.,-3.4958256787836E-35,-1.49880108324396E-15));
#861=DIRECTION('ref_axis',(1.05572207371898E-15,0.709825360658859,0.704377709304831));
#862=DIRECTION('',(1.,-3.4958256787836E-35,-1.49880108324396E-15));
#863=DIRECTION('center_axis',(1.,-3.4958256787836E-35,-1.49880108324396E-15));
#864=DIRECTION('ref_axis',(1.05572207371898E-15,0.709825360658859,0.704377709304831));
#865=DIRECTION('center_axis',(1.,-3.4958256787836E-35,-1.49880108324396E-15));
#866=DIRECTION('ref_axis',(6.65604884605894E-30,1.,4.44089209850055E-15));
#867=DIRECTION('',(1.,-3.4958256787836E-35,-1.49880108324396E-15));
#868=DIRECTION('center_axis',(-1.,3.4958256787836E-35,1.49880108324396E-15));
#869=DIRECTION('ref_axis',(6.65604884605894E-30,1.,4.44089209850055E-15));
#870=DIRECTION('center_axis',(4.87942599499976E-31,-1.,3.2557859959682E-16));
#871=DIRECTION('ref_axis',(-1.49880108324396E-15,-3.2557859959682E-16,-1.));
#872=DIRECTION('',(1.49880108324396E-15,3.2557859959682E-16,1.));
#873=DIRECTION('',(-1.,3.4958256787836E-35,1.49880108324396E-15));
#874=DIRECTION('',(-1.49880108324396E-15,-3.2557859959682E-16,-1.));
#875=DIRECTION('center_axis',(1.,-3.4958256787836E-35,-1.49880108324396E-15));
#876=DIRECTION('ref_axis',(3.17587837053222E-16,0.977292527266996,0.211894587349673));
#877=DIRECTION('',(-1.,3.4958256787836E-35,1.49880108324396E-15));
#878=DIRECTION('center_axis',(-1.,3.4958256787836E-35,1.49880108324396E-15));
#879=DIRECTION('ref_axis',(3.17587837053222E-16,0.977292527266996,0.211894587349673));
#880=DIRECTION('',(1.,-3.4958256787836E-35,-1.49880108324396E-15));
#881=DIRECTION('',(1.,-3.4958256787836E-35,-1.49880108324396E-15));
#882=DIRECTION('center_axis',(-8.46856063575142E-31,-1.,-5.64998994720181E-16));
#883=DIRECTION('ref_axis',(-1.49880108324396E-15,5.64998994720181E-16,-1.));
#884=DIRECTION('',(1.49880108324396E-15,-2.29716774905421E-61,1.));
#885=DIRECTION('',(-1.49880108324396E-15,5.64998994720181E-16,-1.));
#886=DIRECTION('',(1.,-3.4958256787836E-35,-1.49880108324396E-15));
#887=DIRECTION('center_axis',(1.,-3.4958256787836E-35,-1.49880108324396E-15));
#888=DIRECTION('ref_axis',(-4.72290750500115E-31,1.,-3.15135686808163E-16));
#889=DIRECTION('center_axis',(1.,-3.4958256787836E-35,-1.49880108324396E-15));
#890=DIRECTION('ref_axis',(-4.72290750500115E-31,1.,-3.15135686808163E-16));
#891=DIRECTION('center_axis',(-1.,3.4958256787836E-35,1.49880108324396E-15));
#892=DIRECTION('ref_axis',(-4.72290750500115E-31,1.,-3.15135686808163E-16));
#893=DIRECTION('',(1.,-3.4958256787836E-35,-1.49880108324396E-15));
#894=DIRECTION('center_axis',(-1.05572207371898E-15,-0.709825360658858,
-0.704377709304832));
#895=DIRECTION('ref_axis',(-1.06388701946953E-15,0.704377709304832,-0.709825360658858));
#896=DIRECTION('',(1.06388701946953E-15,-0.704377709304832,0.709825360658858));
#897=DIRECTION('',(-1.06388701946953E-15,0.704377709304832,-0.709825360658858));
#898=DIRECTION('',(1.,-3.4958256787836E-35,-1.49880108324396E-15));
#899=DIRECTION('center_axis',(1.,-3.4958256787836E-35,-1.49880108324396E-15));
#900=DIRECTION('ref_axis',(1.05572207371898E-15,0.709825360658859,0.704377709304831));
#901=DIRECTION('center_axis',(1.,-3.4958256787836E-35,-1.49880108324396E-15));
#902=DIRECTION('ref_axis',(1.05572207371898E-15,0.709825360658859,0.704377709304831));
#903=DIRECTION('center_axis',(-1.,3.4958256787836E-35,1.49880108324396E-15));
#904=DIRECTION('ref_axis',(1.05572207371898E-15,0.709825360658859,0.704377709304831));
#905=DIRECTION('',(1.,-3.4958256787836E-35,-1.49880108324396E-15));
#906=DIRECTION('center_axis',(1.,-3.4958256787836E-35,-1.49880108324396E-15));
#907=DIRECTION('ref_axis',(3.54990903175129E-30,1.,2.36847578586697E-15));
#908=DIRECTION('center_axis',(-1.,3.4958256787836E-35,1.49880108324396E-15));
#909=DIRECTION('ref_axis',(3.4958256787836E-35,1.,-5.23954731416993E-50));
#910=DIRECTION('center_axis',(1.,-3.4958256787836E-35,-1.49880108324396E-15));
#911=DIRECTION('ref_axis',(3.54990903175129E-30,1.,2.36847578586697E-15));
#912=DIRECTION('',(1.,-3.4958256787836E-35,-1.49880108324396E-15));
#913=DIRECTION('center_axis',(-8.71171048000054E-31,1.,-5.81268599280187E-16));
#914=DIRECTION('ref_axis',(1.49880108324396E-15,5.81268599280187E-16,1.));
#915=DIRECTION('',(-1.49880108324396E-15,2.29716774905421E-61,-1.));
#916=DIRECTION('',(1.49880108324396E-15,5.81268599280187E-16,1.));
#917=DIRECTION('',(1.,-3.4958256787836E-35,-1.49880108324396E-15));
#918=DIRECTION('center_axis',(1.,-3.4958256787836E-35,-1.49880108324396E-15));
#919=DIRECTION('ref_axis',(3.4958256787836E-35,1.,-5.23954731416993E-50));
#920=DIRECTION('',(-3.4958256787836E-35,-1.,5.23954731416993E-50));
#921=DIRECTION('',(-3.4958256787836E-35,-1.,5.23954731416993E-50));
#922=DIRECTION('center_axis',(1.49880108324396E-15,-2.29716774905421E-61,
1.));
#923=DIRECTION('ref_axis',(-1.,3.4958256787836E-35,1.49880108324396E-15));
#924=DIRECTION('center_axis',(1.49880108324396E-15,-2.29716774905421E-61,
1.));
#925=DIRECTION('ref_axis',(-1.,3.4958256787836E-35,1.49880108324396E-15));
#926=DIRECTION('center_axis',(-1.49880108324396E-15,2.29716774905421E-61,
-1.));
#927=DIRECTION('ref_axis',(-1.,3.4958256787836E-35,1.49880108324396E-15));
#928=DIRECTION('center_axis',(-1.49880108324396E-15,2.29716774905421E-61,
-1.));
#929=DIRECTION('ref_axis',(-1.,3.4958256787836E-35,1.49880108324396E-15));
#930=DIRECTION('center_axis',(-1.49880108324396E-15,2.29716774905421E-61,
-1.));
#931=DIRECTION('ref_axis',(-1.,3.4958256787836E-35,1.49880108324396E-15));
#932=DIRECTION('',(3.4958256787836E-35,1.,-5.23954731416993E-50));
#933=DIRECTION('',(1.,-3.4958256787836E-35,-1.49880108324396E-15));
#934=DIRECTION('',(-3.4958256787836E-35,-1.,5.23954731416993E-50));
#935=DIRECTION('center_axis',(1.,-3.4958256787836E-35,-1.49880108324396E-15));
#936=DIRECTION('ref_axis',(-3.4958256787836E-35,-1.,5.23954731416993E-50));
#937=DIRECTION('center_axis',(-1.,3.4958256787836E-35,1.49880108324396E-15));
#938=DIRECTION('ref_axis',(-3.4958256787836E-35,-1.,5.23954731416993E-50));
#939=DIRECTION('',(-1.,3.4958256787836E-35,1.49880108324396E-15));
#940=DIRECTION('center_axis',(1.,-3.4958256787836E-35,-1.49880108324396E-15));
#941=DIRECTION('ref_axis',(-3.4958256787836E-35,-1.,5.23954731416993E-50));
#942=DIRECTION('center_axis',(-1.,3.4958256787836E-35,1.49880108324396E-15));
#943=DIRECTION('ref_axis',(-3.4958256787836E-35,-1.,5.23954731416993E-50));
#944=DIRECTION('',(-1.05981240961154E-15,-0.707106781186547,-0.707106781186548));
#945=DIRECTION('',(-1.05981240961154E-15,0.707106781186548,-0.707106781186547));
#946=DIRECTION('',(1.05981240961154E-15,0.707106781186547,0.707106781186548));
#947=DIRECTION('',(1.05981240961154E-15,-0.707106781186547,0.707106781186548));
#948=DIRECTION('center_axis',(1.05981240961154E-15,-0.707106781186548,0.707106781186547));
#949=DIRECTION('ref_axis',(-1.05981240961154E-15,-0.707106781186547,-0.707106781186548));
#950=DIRECTION('',(1.,-3.4958256787836E-35,-1.49880108324396E-15));
#951=DIRECTION('',(1.05981240961154E-15,0.707106781186547,0.707106781186548));
#952=DIRECTION('',(1.,-3.4958256787836E-35,-1.49880108324396E-15));
#953=DIRECTION('center_axis',(1.05981240961155E-15,0.707106781186547,0.707106781186548));
#954=DIRECTION('ref_axis',(1.05981240961154E-15,-0.707106781186548,0.707106781186547));
#955=DIRECTION('',(1.,-3.4958256787836E-35,-1.49880108324396E-15));
#956=DIRECTION('',(-1.05981240961154E-15,0.707106781186548,-0.707106781186547));
#957=DIRECTION('center_axis',(1.,-3.4958256787836E-35,-1.49880108324396E-15));
#958=DIRECTION('ref_axis',(-3.4958256787836E-35,-1.,5.23954731416993E-50));
#959=DIRECTION('center_axis',(1.,-3.4958256787836E-35,-1.49880108324396E-15));
#960=DIRECTION('ref_axis',(-3.4958256787836E-35,-1.,5.23954731416993E-50));
#961=DIRECTION('',(1.,-3.4958256787836E-35,-1.49880108324396E-15));
#962=DIRECTION('center_axis',(-1.,3.4958256787836E-35,1.49880108324396E-15));
#963=DIRECTION('ref_axis',(-3.4958256787836E-35,-1.,5.23954731416993E-50));
#964=DIRECTION('center_axis',(1.,-3.4958256787836E-35,-1.49880108324396E-15));
#965=DIRECTION('ref_axis',(-3.4958256787836E-35,-1.,5.23954731416993E-50));
#966=DIRECTION('center_axis',(1.,-3.4958256787836E-35,-1.49880108324396E-15));
#967=DIRECTION('ref_axis',(-3.4958256787836E-35,-1.,5.23954731416993E-50));
#968=DIRECTION('',(1.,-3.4958256787836E-35,-1.49880108324396E-15));
#969=DIRECTION('center_axis',(-1.,3.4958256787836E-35,1.49880108324396E-15));
#970=DIRECTION('ref_axis',(-3.4958256787836E-35,-1.,5.23954731416993E-50));
#971=DIRECTION('center_axis',(1.,-3.4958256787836E-35,-1.49880108324396E-15));
#972=DIRECTION('ref_axis',(-3.4958256787836E-35,-1.,5.23954731416993E-50));
#973=DIRECTION('center_axis',(1.,-3.4958256787836E-35,-1.49880108324396E-15));
#974=DIRECTION('ref_axis',(-3.4958256787836E-35,-1.,5.23954731416993E-50));
#975=DIRECTION('',(1.,-3.4958256787836E-35,-1.49880108324396E-15));
#976=DIRECTION('center_axis',(-1.,3.4958256787836E-35,1.49880108324396E-15));
#977=DIRECTION('ref_axis',(-3.4958256787836E-35,-1.,5.23954731416993E-50));
#978=DIRECTION('center_axis',(-1.05981240961154E-15,0.707106781186548,-0.707106781186547));
#979=DIRECTION('ref_axis',(1.05981240961154E-15,0.707106781186547,0.707106781186548));
#980=DIRECTION('',(1.,-3.4958256787836E-35,-1.49880108324396E-15));
#981=DIRECTION('',(-1.05981240961154E-15,-0.707106781186547,-0.707106781186548));
#982=DIRECTION('center_axis',(-1.05981240961154E-15,-0.707106781186548,
-0.707106781186547));
#983=DIRECTION('ref_axis',(-1.05981240961154E-15,0.707106781186547,-0.707106781186548));
#984=DIRECTION('',(1.05981240961154E-15,-0.707106781186547,0.707106781186548));
#985=DIRECTION('center_axis',(1.,-3.4958256787836E-35,-1.49880108324396E-15));
#986=DIRECTION('ref_axis',(-3.4958256787836E-35,-1.,5.23954731416993E-50));
#987=DIRECTION('center_axis',(1.,-3.4958256787836E-35,-1.49880108324396E-15));
#988=DIRECTION('ref_axis',(-3.4958256787836E-35,-1.,5.23954731416993E-50));
#989=DIRECTION('',(1.,-3.4958256787836E-35,-1.49880108324396E-15));
#990=DIRECTION('center_axis',(-1.,3.4958256787836E-35,1.49880108324396E-15));
#991=DIRECTION('ref_axis',(-3.4958256787836E-35,-1.,5.23954731416993E-50));
#992=DIRECTION('center_axis',(3.4958256787836E-35,1.,-5.23954731416993E-50));
#993=DIRECTION('ref_axis',(1.49880108324396E-15,-2.29716774905421E-61,1.));
#994=DIRECTION('',(1.49880108324396E-15,-2.29716774905421E-61,1.));
#995=DIRECTION('',(1.49880108324396E-15,-2.29716774905421E-61,1.));
#996=DIRECTION('center_axis',(1.,-3.4958256787836E-35,-1.49880108324396E-15));
#997=DIRECTION('ref_axis',(3.4958256787836E-35,1.,-5.23954731416993E-50));
#998=DIRECTION('center_axis',(1.,-3.4958256787836E-35,-1.49880108324396E-15));
#999=DIRECTION('ref_axis',(3.4958256787836E-35,1.,-5.23954731416993E-50));
#1000=DIRECTION('center_axis',(-1.49880108324396E-15,2.29716774905421E-61,
-1.));
#1001=DIRECTION('ref_axis',(-1.,3.4958256787836E-35,1.49880108324396E-15));
#1002=DIRECTION('',(-1.49880108324396E-15,2.29716774905421E-61,-1.));
#1003=DIRECTION('center_axis',(1.49880108324396E-15,-2.29716774905421E-61,
1.));
#1004=DIRECTION('ref_axis',(-1.,3.4958256787836E-35,1.49880108324396E-15));
#1005=DIRECTION('center_axis',(1.49880108324396E-15,-2.29716774905421E-61,
1.));
#1006=DIRECTION('ref_axis',(-1.,3.4958256787836E-35,1.49880108324396E-15));
#1007=DIRECTION('',(-1.49880108324396E-15,2.29716774905421E-61,-1.));
#1008=DIRECTION('center_axis',(-1.49880108324396E-15,2.29716774905421E-61,
-1.));
#1009=DIRECTION('ref_axis',(-1.,3.4958256787836E-35,1.49880108324396E-15));
#1010=DIRECTION('center_axis',(1.49880108324396E-15,-2.29716774905421E-61,
1.));
#1011=DIRECTION('ref_axis',(-1.,3.4958256787836E-35,1.49880108324396E-15));
#1012=DIRECTION('',(-1.49880108324396E-15,2.29716774905421E-61,-1.));
#1013=DIRECTION('center_axis',(-1.49880108324396E-15,2.29716774905421E-61,
-1.));
#1014=DIRECTION('ref_axis',(-1.,3.4958256787836E-35,1.49880108324396E-15));
#1015=DIRECTION('center_axis',(1.49880108324396E-15,-2.29716774905421E-61,
1.));
#1016=DIRECTION('ref_axis',(-1.,3.4958256787836E-35,1.49880108324396E-15));
#1017=DIRECTION('',(-1.49880108324396E-15,2.29716774905421E-61,-1.));
#1018=DIRECTION('center_axis',(1.49880108324396E-15,-2.29716774905421E-61,
1.));
#1019=DIRECTION('ref_axis',(-1.,3.4958256787836E-35,1.49880108324396E-15));
#1020=DIRECTION('center_axis',(1.49880108324396E-15,-2.29716774905421E-61,
1.));
#1021=DIRECTION('ref_axis',(-1.,3.4958256787836E-35,1.49880108324396E-15));
#1022=CARTESIAN_POINT('',(0.,0.,0.));
#1023=CARTESIAN_POINT('Origin',(80.8454544243435,-13.91,100.088144199463));
#1024=CARTESIAN_POINT('',(74.8454544243435,-32.8841915599328,84.1678807257865));
#1025=CARTESIAN_POINT('',(80.8454544243435,-37.4805743572642,80.3112934805144));
#1026=CARTESIAN_POINT('Origin',(80.8454544243435,-32.8841915599328,84.1678807257865));
#1027=CARTESIAN_POINT('',(80.8454544243435,7.93020632980612,121.760734892833));
#1028=CARTESIAN_POINT('Origin',(80.8454544243435,-13.91,100.088144199463));
#1029=CARTESIAN_POINT('',(74.8454544243435,3.67125416585296,117.534468637004));
#1030=CARTESIAN_POINT('Origin',(80.8454544243435,3.67125416585296,117.534468637004));
#1031=CARTESIAN_POINT('Origin',(74.8454544243435,-13.91,100.088144199463));
#1032=CARTESIAN_POINT('Origin',(80.8454544243435,15.1898067156208,105.926831697476));
#1033=CARTESIAN_POINT('',(80.8454544243435,24.3760996199648,105.187649200549));
#1034=CARTESIAN_POINT('',(74.8454544243435,20.1171474560116,100.96138294472));
#1035=CARTESIAN_POINT('Origin',(80.8454544243435,20.1171474560116,100.96138294472));
#1036=CARTESIAN_POINT('',(74.8454544243435,15.1898067156208,105.926831697476));
#1037=CARTESIAN_POINT('',(80.8454544243435,19.448758879574,110.153097953305));
#1038=CARTESIAN_POINT('Origin',(80.8454544243435,-4.88999999999998,76.1461562459107));
#1039=CARTESIAN_POINT('',(80.8454544243435,36.34,76.1461562459107));
#1040=CARTESIAN_POINT('',(74.8454544243435,30.34,76.1461562459107));
#1041=CARTESIAN_POINT('Origin',(80.8454544243435,30.34,76.1461562459107));
#1042=CARTESIAN_POINT('Origin',(74.8454544243435,-4.88999999999998,76.1461562459107));
#1043=CARTESIAN_POINT('Origin',(80.8454544243435,-4.88999999999998,76.1461562459107));
#1044=CARTESIAN_POINT('Origin',(80.8454544243435,30.34,82.4287588626416));
#1045=CARTESIAN_POINT('',(74.8459610673546,30.4179708884565,68.2861561565038));
#1046=CARTESIAN_POINT('',(74.8454544243435,30.34,68.6426287209915));
#1047=CARTESIAN_POINT('Ctrl Pts',(74.8459610673546,30.4179708884565,68.2861561565038));
#1048=CARTESIAN_POINT('Ctrl Pts',(74.8456259123122,30.3921822833706,68.4050974268272));
#1049=CARTESIAN_POINT('Ctrl Pts',(74.8454544243434,30.3661913888852,68.5239231195644));
#1050=CARTESIAN_POINT('Ctrl Pts',(74.8454544243434,30.34,68.6426287209915));
#1051=CARTESIAN_POINT('',(74.8454544243435,30.34,82.4287588626416));
#1052=CARTESIAN_POINT('',(80.8454544243435,36.34,68.2861561565038));
#1053=CARTESIAN_POINT('',(80.8454544243435,36.34,82.4287588626416));
#1054=CARTESIAN_POINT('Origin',(80.8454544243435,30.34,68.2861561565038));
#1055=CARTESIAN_POINT('Ctrl Pts',(80.8454544243435,-37.4805743572642,80.3112934805144));
#1056=CARTESIAN_POINT('Ctrl Pts',(80.8454544243435,-37.4805743572642,80.3112934805144));
#1057=CARTESIAN_POINT('Ctrl Pts',(80.8454544243435,-37.4805743572642,80.3112934805144));
#1058=CARTESIAN_POINT('Ctrl Pts',(80.8454544243435,-37.4805743572642,80.3112934805144));
#1059=CARTESIAN_POINT('Ctrl Pts',(80.8454544243435,-37.4805743572642,80.3112934805144));
#1060=CARTESIAN_POINT('Ctrl Pts',(74.8454544243435,-37.4805743572642,80.3112934805144));
#1061=CARTESIAN_POINT('Ctrl Pts',(74.8454544243435,-37.4805743572642,80.3112934805144));
#1062=CARTESIAN_POINT('Ctrl Pts',(74.8454544243435,-37.4805743572642,80.3112934805144));
#1063=CARTESIAN_POINT('Ctrl Pts',(74.8454544243435,-37.4805743572642,80.3112934805144));
#1064=CARTESIAN_POINT('Ctrl Pts',(74.8454544243435,-37.4805743572642,80.3112934805144));
#1065=CARTESIAN_POINT('Ctrl Pts',(74.8454544243435,-32.8841915599328,84.1678807257865));
#1066=CARTESIAN_POINT('Ctrl Pts',(74.8454544243435,-30.6790794289478,81.5397696990047));
#1067=CARTESIAN_POINT('Ctrl Pts',(74.8454544243435,-31.8254835721864,78.3063126296012));
#1068=CARTESIAN_POINT('Ctrl Pts',(74.8454544243435,-32.971887715425,75.0728555601978));
#1069=CARTESIAN_POINT('Ctrl Pts',(74.8454544243435,-36.34,74.4207001202873));
#1070=CARTESIAN_POINT('',(75.02805282527,-36.34,75.9261562459107));
#1071=CARTESIAN_POINT('Ctrl Pts',(75.02805282527,-36.34,75.9261562459107));
#1072=CARTESIAN_POINT('Ctrl Pts',(75.1879020902669,-36.34,76.5802576362198));
#1073=CARTESIAN_POINT('Ctrl Pts',(75.4503372732095,-36.4122333705779,77.1972712019635));
#1074=CARTESIAN_POINT('Ctrl Pts',(76.1926464467435,-36.6467324250154,78.329234606544));
#1075=CARTESIAN_POINT('Ctrl Pts',(76.6693313928797,-36.8076385234947,78.8206429708563));
#1076=CARTESIAN_POINT('Ctrl Pts',(78.2246677337825,-37.2380241902591,79.9170492081254));
#1077=CARTESIAN_POINT('Ctrl Pts',(79.4694383041715,-37.4757717116808,80.302685405557));
#1078=CARTESIAN_POINT('Ctrl Pts',(80.8163386233189,-37.4805485414958,80.3112472122015));
#1079=CARTESIAN_POINT('Ctrl Pts',(80.8308965238309,-37.4805743576728,80.3112934802864));
#1080=CARTESIAN_POINT('Ctrl Pts',(80.8454544243435,-37.4805743572642,80.3112934805144));
#1081=CARTESIAN_POINT('',(74.8454544243435,-36.34,74.4207001202873));
#1082=CARTESIAN_POINT('Origin',(74.8454544243435,-37.4805743572642,80.3112934805144));
#1083=CARTESIAN_POINT('Ctrl Pts',(74.8454544243435,-36.34,74.4207001202873));
#1084=CARTESIAN_POINT('Ctrl Pts',(74.8454544243435,-36.34,74.8808085770394));
#1085=CARTESIAN_POINT('Ctrl Pts',(74.8999368999226,-36.34,75.3816382008449));
#1086=CARTESIAN_POINT('Ctrl Pts',(75.0188046917179,-36.34,75.8879374271691));
#1087=CARTESIAN_POINT('Ctrl Pts',(75.0233856574021,-36.34,75.9070582476105));
#1088=CARTESIAN_POINT('Ctrl Pts',(75.02805282527,-36.34,75.9261562459107));
#1089=CARTESIAN_POINT('Origin',(88.8454544243435,36.34,68.2861564414885));
#1090=CARTESIAN_POINT('',(97.8454544243435,36.34,76.1461562459107));
#1091=CARTESIAN_POINT('',(88.8454544243435,36.34,76.1461562459107));
#1092=CARTESIAN_POINT('',(97.8454544243435,36.34,68.2861564414885));
#1093=CARTESIAN_POINT('',(97.8454544243434,36.34,62.2861562459107));
#1094=CARTESIAN_POINT('',(79.8454544243435,36.34,68.2861561565038));
#1095=CARTESIAN_POINT('Origin',(88.8454544243435,-4.88999999999998,76.1461562459107));
#1096=CARTESIAN_POINT('',(97.8454544243435,24.3760996199648,105.187649200549));
#1097=CARTESIAN_POINT('',(88.8454544243435,24.3760996199648,105.187649200549));
#1098=CARTESIAN_POINT('Origin',(97.8454544243435,-4.88999999999998,76.1461562459107));
#1099=CARTESIAN_POINT('Origin',(88.8454544243435,24.3760996199648,105.187649200549));
#1100=CARTESIAN_POINT('',(97.8454544243435,7.93020632980612,121.760734892833));
#1101=CARTESIAN_POINT('',(88.8454544243436,7.93020632980612,121.760734892833));
#1102=CARTESIAN_POINT('',(97.8454544243435,24.3760996199648,105.187649200549));
#1103=CARTESIAN_POINT('Origin',(88.8454544243435,-13.91,100.088144199463));
#1104=CARTESIAN_POINT('',(97.8454544243435,-37.4805743572642,80.3112934805143));
#1105=CARTESIAN_POINT('',(88.8454544243435,-37.4805743572642,80.3112934805144));
#1106=CARTESIAN_POINT('Origin',(97.8454544243435,-13.91,100.088144199463));
#1107=CARTESIAN_POINT('Origin',(88.8454544243435,-45.3400000000002,75.9261562459107));
#1108=CARTESIAN_POINT('',(97.8454544243435,-36.34,75.9261562459107));
#1109=CARTESIAN_POINT('',(88.8454544243435,-36.34,75.9261562459107));
#1110=CARTESIAN_POINT('Origin',(97.8454544243435,-45.3400000000002,75.9261562459106));
#1111=CARTESIAN_POINT('Origin',(88.8454544243435,-36.34,75.9261562459107));
#1112=CARTESIAN_POINT('',(74.8454544243435,-36.34,68.2861564414885));
#1113=CARTESIAN_POINT('',(74.8454544243435,-36.34,75.9261562459107));
#1114=CARTESIAN_POINT('',(97.8454544243435,-36.34,68.2861564414884));
#1115=CARTESIAN_POINT('',(79.8454544243435,-36.34,68.2861561565038));
#1116=CARTESIAN_POINT('',(97.8454544243435,-36.34,75.9261562459107));
#1117=CARTESIAN_POINT('Origin',(88.8454544243434,-67.3112819000327,47.0966977065212));
#1118=CARTESIAN_POINT('',(97.8454544243435,30.4179708266667,68.2861564414885));
#1119=CARTESIAN_POINT('',(88.8454544243435,30.4179708884565,68.2861561565038));
#1120=CARTESIAN_POINT('',(97.8454544243435,30.34,68.6426287209915));
#1121=CARTESIAN_POINT('Origin',(97.8454544243434,-67.3112819000327,47.0966977065212));
#1122=CARTESIAN_POINT('',(88.8454544243435,30.34,68.6426287209915));
#1123=CARTESIAN_POINT('',(88.8454544243435,30.34,68.6426287209915));
#1124=CARTESIAN_POINT('',(88.8454544243435,30.34,68.6426287209915));
#1125=CARTESIAN_POINT('Origin',(88.8454544243435,30.34,76.1461562459107));
#1126=CARTESIAN_POINT('',(88.8454544243435,30.34,76.1461562459107));
#1127=CARTESIAN_POINT('',(88.8454544243435,30.34,68.2861562459107));
#1128=CARTESIAN_POINT('',(97.8454544243435,30.34,76.1461562459107));
#1129=CARTESIAN_POINT('',(97.8454544243435,30.34,68.2861562459107));
#1130=CARTESIAN_POINT('',(88.8454544243435,30.34,76.1461562459107));
#1131=CARTESIAN_POINT('Origin',(88.8454544243435,-4.88999999999998,76.1461562459107));
#1132=CARTESIAN_POINT('',(88.8454544243435,20.1171474560116,100.96138294472));
#1133=CARTESIAN_POINT('Origin',(88.8454544243435,-4.88999999999998,76.1461562459107));
#1134=CARTESIAN_POINT('',(97.8454544243435,20.1171474560116,100.96138294472));
#1135=CARTESIAN_POINT('Origin',(97.8454544243435,-4.88999999999998,76.1461562459107));
#1136=CARTESIAN_POINT('',(88.8454544243435,20.1171474560116,100.96138294472));
#1137=CARTESIAN_POINT('Origin',(88.8454544243435,3.67125416585296,117.534468637004));
#1138=CARTESIAN_POINT('',(88.8454544243435,3.67125416585296,117.534468637004));
#1139=CARTESIAN_POINT('',(88.8454544243435,3.67125416585296,117.534468637004));
#1140=CARTESIAN_POINT('',(97.8454544243435,3.67125416585297,117.534468637004));
#1141=CARTESIAN_POINT('',(97.8454544243435,20.1171474560116,100.96138294472));
#1142=CARTESIAN_POINT('',(88.8454544243435,3.67125416585297,117.534468637004));
#1143=CARTESIAN_POINT('Origin',(88.8454544243435,-13.91,100.088144199463));
#1144=CARTESIAN_POINT('',(88.8454544243435,-32.5810156402702,83.8133812400498));
#1145=CARTESIAN_POINT('Origin',(88.8454544243435,-13.91,100.088144199463));
#1146=CARTESIAN_POINT('',(97.8454544243435,-32.5810156402703,83.8133812400498));
#1147=CARTESIAN_POINT('Origin',(97.8454544243435,-13.91,100.088144199463));
#1148=CARTESIAN_POINT('',(88.8454544243435,-32.5810156402703,83.8133812400498));
#1149=CARTESIAN_POINT('Origin',(88.8454544243435,-45.3400000000002,75.9261562459107));
#1150=CARTESIAN_POINT('',(88.8454544243435,-30.34,75.9261562459107));
#1151=CARTESIAN_POINT('Origin',(88.8454544243435,-45.34,75.9261562459107));
#1152=CARTESIAN_POINT('',(97.8454544243435,-30.34,75.9261562459107));
#1153=CARTESIAN_POINT('Origin',(97.8454544243435,-45.3400000000002,75.9261562459106));
#1154=CARTESIAN_POINT('',(88.8454544243435,-30.34,75.9261562459107));
#1155=CARTESIAN_POINT('Origin',(88.8454544243435,-30.34,68.2861564414885));
#1156=CARTESIAN_POINT('',(88.8454544243435,-30.34,68.2861562459107));
#1157=CARTESIAN_POINT('',(88.8454544243435,-30.34,68.2861562459107));
#1158=CARTESIAN_POINT('',(97.8454544243435,-30.34,68.2861564414884));
#1159=CARTESIAN_POINT('',(97.8454544243435,-30.34,75.9261562459107));
#1160=CARTESIAN_POINT('',(79.8454544243435,-30.34,68.2861561565038));
#1161=CARTESIAN_POINT('Origin',(97.8454544243435,-4.16921106110809,99.5713612837947));
#1162=CARTESIAN_POINT('',(97.8454544243435,-2.08460553055405,68.2861561565037));
#1163=CARTESIAN_POINT('',(97.8454544243435,-2.08460553055405,68.2861561565037));
#1164=CARTESIAN_POINT('Origin',(70.8454544243435,1.69616072260556E-33,68.2861561565038));
#1165=CARTESIAN_POINT('',(119.345454424343,5.55111512312578E-15,68.2861561565037));
#1166=CARTESIAN_POINT('Origin',(70.8454544243435,1.69616072260556E-33,68.2861561565038));
#1167=CARTESIAN_POINT('',(72.3454544243435,7.,68.2861561565038));
#1168=CARTESIAN_POINT('Origin',(70.8454544243435,7.,68.2861561565038));
#1169=CARTESIAN_POINT('',(72.3454544243435,-7.,68.2861561565038));
#1170=CARTESIAN_POINT('Origin',(70.8454544243435,-7.,68.2861561565038));
#1171=CARTESIAN_POINT('',(74.1954544243435,4.10256677714363E-16,68.2861561565038));
#1172=CARTESIAN_POINT('Origin',(70.8454544243435,1.69616072260556E-33,68.2861561565038));
#1173=CARTESIAN_POINT('',(74.8454544243435,30.34,68.2861562459107));
#1174=CARTESIAN_POINT('',(74.8454544243435,-2.08460553055405,68.2861561565038));
#1175=CARTESIAN_POINT('',(88.8454544243435,30.34,68.2861562459107));
#1176=CARTESIAN_POINT('',(72.8454544243435,30.34,68.2861561565038));
#1177=CARTESIAN_POINT('',(88.8454544243435,-2.08460553055405,68.2861561565038));
#1178=CARTESIAN_POINT('Origin',(74.8454544243435,-13.91,100.088144199463));
#1179=CARTESIAN_POINT('',(82.8454544243435,-4.91,100.088144199463));
#1180=CARTESIAN_POINT('Origin',(82.8454544243435,-13.91,100.088144199463));
#1181=CARTESIAN_POINT('',(74.8454544243435,-4.91,100.088144199463));
#1182=CARTESIAN_POINT('',(74.8454544243435,-4.91,100.088144199463));
#1183=CARTESIAN_POINT('Origin',(74.8454544243435,-13.91,100.088144199463));
#1184=CARTESIAN_POINT('Origin',(82.8454544243435,-7.48106781186547,95.3164663732867));
#1185=CARTESIAN_POINT('',(82.8454544243435,14.4392424049175,88.2453985614213));
#1186=CARTESIAN_POINT('',(82.8454544243435,-0.409999999999999,73.3961561565037));
#1187=CARTESIAN_POINT('',(82.8454544243435,3.30231060122938,77.1084667577331));
#1188=CARTESIAN_POINT('',(82.8454544243435,-14.552135623731,117.23677659007));
#1189=CARTESIAN_POINT('',(82.8454544243435,7.19139789775539,95.4932430685834));
#1190=CARTESIAN_POINT('',(82.8454544243435,-29.4013780286484,102.387534185152));
#1191=CARTESIAN_POINT('',(82.8454544243435,-18.2644462249603,113.52446598884));
#1192=CARTESIAN_POINT('',(82.8454544243435,-22.1535335214863,95.1396896779901));
#1193=CARTESIAN_POINT('Origin',(74.8454544243435,-14.552135623731,117.23677659007));
#1194=CARTESIAN_POINT('',(88.8454544243435,-14.552135623731,117.23677659007));
#1195=CARTESIAN_POINT('',(74.8454544243435,-14.552135623731,117.23677659007));
#1196=CARTESIAN_POINT('',(88.8454544243435,-29.4013780286484,102.387534185152));
#1197=CARTESIAN_POINT('',(88.8454544243435,-17.122758309644,114.666153904157));
#1198=CARTESIAN_POINT('',(74.8454544243435,-29.4013780286484,102.387534185152));
#1199=CARTESIAN_POINT('Origin',(74.8454544243435,14.4392424049175,88.2453985614213));
#1200=CARTESIAN_POINT('',(88.8454544243435,14.4392424049175,88.2453985614213));
#1201=CARTESIAN_POINT('',(74.8454544243435,14.4392424049175,88.2453985614213));
#1202=CARTESIAN_POINT('',(88.8454544243435,7.70563835781773,94.979002608521));
#1203=CARTESIAN_POINT('Origin',(74.8454544243435,-27.828676252145,107.900195168468));
#1204=CARTESIAN_POINT('',(74.8454544243435,-26.528676252145,107.900195168468));
#1205=CARTESIAN_POINT('Origin',(74.8454544243435,-27.828676252145,107.900195168468));
#1206=CARTESIAN_POINT('',(88.8454544243435,-26.528676252145,107.900195168468));
#1207=CARTESIAN_POINT('',(74.8454544243435,-26.528676252145,107.900195168468));
#1208=CARTESIAN_POINT('Origin',(88.8454544243435,-27.828676252145,107.900195168468));
#1209=CARTESIAN_POINT('Origin',(74.8454544243435,-20.9075602125306,115.118100180741));
#1210=CARTESIAN_POINT('',(74.8454544243435,-19.6075602125306,115.118100180741));
#1211=CARTESIAN_POINT('Origin',(74.8454544243435,-20.9075602125306,115.118100180741));
#1212=CARTESIAN_POINT('',(88.8454544243435,-19.6075602125306,115.118100180741));
#1213=CARTESIAN_POINT('',(74.8454544243435,-19.6075602125306,115.118100180741));
#1214=CARTESIAN_POINT('Origin',(88.8454544243435,-20.9075602125306,115.118100180741));
#1215=CARTESIAN_POINT('Origin',(74.8454544243435,12.3205659955886,81.8899739726216));
#1216=CARTESIAN_POINT('',(74.8454544243435,13.6205659955886,81.8899739726216));
#1217=CARTESIAN_POINT('Origin',(74.8454544243435,12.3205659955886,81.8899739726216));
#1218=CARTESIAN_POINT('',(88.8454544243435,13.6205659955886,81.8899739726216));
#1219=CARTESIAN_POINT('',(74.8454544243435,13.6205659955886,81.8899739726216));
#1220=CARTESIAN_POINT('Origin',(88.8454544243435,12.3205659955886,81.8899739726216));
#1221=CARTESIAN_POINT('Origin',(74.8454544243435,-0.409999999999999,73.3961561565037));
#1222=CARTESIAN_POINT('',(88.8454544243435,-0.409999999999999,73.3961561565037));
#1223=CARTESIAN_POINT('',(74.8454544243435,-0.409999999999999,73.3961561565037));
#1224=CARTESIAN_POINT('',(88.8454544243435,4.44399851654572,78.2501546730495));
#1225=CARTESIAN_POINT('Origin',(74.8454544243435,-29.4013780286484,102.387534185152));
#1226=CARTESIAN_POINT('',(88.8454544243435,-21.639293061424,94.6254492179278));
#1227=CARTESIAN_POINT('Origin',(74.8454544243435,5.10266098331575,74.9688579330072));
#1228=CARTESIAN_POINT('',(74.8454544243435,6.40266098331575,74.9688579330072));
#1229=CARTESIAN_POINT('Origin',(74.8454544243435,5.10266098331575,74.9688579330072));
#1230=CARTESIAN_POINT('',(88.8454544243435,6.40266098331575,74.9688579330072));
#1231=CARTESIAN_POINT('',(74.8454544243435,6.40266098331575,74.9688579330072));
#1232=CARTESIAN_POINT('Origin',(88.8454544243435,5.10266098331575,74.9688579330072));
#1233=CARTESIAN_POINT('Origin',(74.8454544243435,30.34,68.2861562459107));
#1234=CARTESIAN_POINT('',(88.8454544243435,30.34,68.2861562459107));
#1235=CARTESIAN_POINT('',(74.8454544243435,30.34,68.2861562459107));
#1236=CARTESIAN_POINT('Origin',(88.8454544243435,-4.16921106110809,96.5713612837947));
#1237=CARTESIAN_POINT('Origin',(74.8454544243435,-4.16921106110809,96.5713612837947));
#1238=CARTESIAN_POINT('Origin',(70.8454544243435,1.69616072260556E-33,68.2861561565038));
#1239=CARTESIAN_POINT('',(74.1954544243434,4.10256677714363E-16,64.2861561565037));
#1240=CARTESIAN_POINT('',(74.1954544243435,-4.10256677714363E-16,68.2861561565038));
#1241=CARTESIAN_POINT('Origin',(70.8454544243434,1.69616072260556E-33,64.2861561565037));
#1242=CARTESIAN_POINT('Origin',(70.8454544243434,7.,64.2861561565037));
#1243=CARTESIAN_POINT('',(72.3454544243434,7.,64.2861561565037));
#1244=CARTESIAN_POINT('',(72.3454544243434,7.,64.2861561565037));
#1245=CARTESIAN_POINT('Origin',(70.8454544243434,7.,64.2861561565037));
#1246=CARTESIAN_POINT('Origin',(70.8454544243434,-7.,64.2861561565037));
#1247=CARTESIAN_POINT('',(72.3454544243434,-7.,64.2861561565037));
#1248=CARTESIAN_POINT('',(72.3454544243434,-7.,64.2861561565037));
#1249=CARTESIAN_POINT('Origin',(70.8454544243434,-7.,64.2861561565037));
#1250=CARTESIAN_POINT('Origin',(70.8454544243434,1.69616072260556E-33,64.2861561565037));
#1251=CARTESIAN_POINT('',(119.345454424343,5.93953697586466E-15,64.2861561565037));
#1252=CARTESIAN_POINT('',(119.345454424343,5.93953697586466E-15,64.2861561565037));
#1253=CARTESIAN_POINT('Origin',(70.8454544243434,1.69616072260556E-33,64.2861561565037));
#1254=CARTESIAN_POINT('Origin',(70.8454544243434,1.69616072260556E-33,64.2861561565037));
#1255=UNCERTAINTY_MEASURE_WITH_UNIT(LENGTH_MEASURE(0.01),#1259,
'DISTANCE_ACCURACY_VALUE',
'Maximum model space distance between geometric entities at asserted c
onnectivities');
#1256=UNCERTAINTY_MEASURE_WITH_UNIT(LENGTH_MEASURE(0.01),#1259,
'DISTANCE_ACCURACY_VALUE',
'Maximum model space distance between geometric entities at asserted c
onnectivities');
#1257=(
GEOMETRIC_REPRESENTATION_CONTEXT(3)
GLOBAL_UNCERTAINTY_ASSIGNED_CONTEXT((#1255))
GLOBAL_UNIT_ASSIGNED_CONTEXT((#1259,#1261,#1262))
REPRESENTATION_CONTEXT('','3D')
);
#1258=(
GEOMETRIC_REPRESENTATION_CONTEXT(3)
GLOBAL_UNCERTAINTY_ASSIGNED_CONTEXT((#1256))
GLOBAL_UNIT_ASSIGNED_CONTEXT((#1259,#1261,#1262))
REPRESENTATION_CONTEXT('','3D')
);
#1259=(
LENGTH_UNIT()
NAMED_UNIT(*)
SI_UNIT(.MILLI.,.METRE.)
);
#1260=(
LENGTH_UNIT()
NAMED_UNIT(*)
SI_UNIT($,.METRE.)
);
#1261=(
NAMED_UNIT(*)
PLANE_ANGLE_UNIT()
SI_UNIT($,.RADIAN.)
);
#1262=(
NAMED_UNIT(*)
SI_UNIT($,.STERADIAN.)
SOLID_ANGLE_UNIT()
);
#1263=SHAPE_DEFINITION_REPRESENTATION(#1264,#1265);
#1264=PRODUCT_DEFINITION_SHAPE('',$,#1267);
#1265=SHAPE_REPRESENTATION('',(#736),#1257);
#1266=PRODUCT_DEFINITION_CONTEXT('part definition',#1271,'design');
#1267=PRODUCT_DEFINITION('Chassis for Robot','Chassis for Robot v1',#1268,
#1266);
#1268=PRODUCT_DEFINITION_FORMATION('',$,#1273);
#1269=PRODUCT_RELATED_PRODUCT_CATEGORY('Chassis for Robot v1',
'Chassis for Robot v1',(#1273));
#1270=APPLICATION_PROTOCOL_DEFINITION('international standard',
'automotive_design',2009,#1271);
#1271=APPLICATION_CONTEXT(
'Core Data for Automotive Mechanical Design Process');
#1272=PRODUCT_CONTEXT('part definition',#1271,'mechanical');
#1273=PRODUCT('Chassis for Robot','Chassis for Robot v1',$,(#1272));
#1274=PRESENTATION_STYLE_ASSIGNMENT((#1275));
#1275=SURFACE_STYLE_USAGE(.BOTH.,#1276);
#1276=SURFACE_SIDE_STYLE('',(#1277));
#1277=SURFACE_STYLE_FILL_AREA(#1278);
#1278=FILL_AREA_STYLE('Steel - Satin',(#1279));
#1279=FILL_AREA_STYLE_COLOUR('Steel - Satin',#1280);
#1280=COLOUR_RGB('Steel - Satin',0.627450980392157,0.627450980392157,0.627450980392157);
ENDSEC;
END-ISO-10303-21;
