ISO-10303-21;
HEADER;
/* Generated by software containing ST-Developer
 * from STEP Tools, Inc. (www.steptools.com) 
 */

FILE_DESCRIPTION(
/* description */ (''),
/* implementation_level */ '2;1');

FILE_NAME(
/* name */ 'e8b4fa27-33a6-409e-9ae8-e7b7f542b6f3.stp',
/* time_stamp */ '2026-08-07T02:21:47Z',
/* author */ (''),
/* organization */ (''),
/* preprocessor_version */ 'ST-DEVELOPER v20.2',
/* originating_system */ 'Autodesk Translation Framework v15.15.0.0',
/* authorisation */ '');

FILE_SCHEMA (('AUTOMOTIVE_DESIGN { 1 0 10303 214 3 1 1 }'));
ENDSEC;

DATA;
#10=MECHANICAL_DESIGN_GEOMETRIC_PRESENTATION_REPRESENTATION('',(#13),#548);
#11=SHAPE_REPRESENTATION_RELATIONSHIP('SRR','None',#555,#12);
#12=ADVANCED_BREP_SHAPE_REPRESENTATION('',(#14),#547);
#13=STYLED_ITEM('',(#564),#14);
#14=MANIFOLD_SOLID_BREP('gripper',#252);
#15=FACE_BOUND('',#61,.T.);
#16=FACE_BOUND('',#62,.T.);
#17=FACE_BOUND('',#64,.T.);
#18=FACE_BOUND('',#65,.T.);
#19=CIRCLE('',#272,1.75);
#20=CIRCLE('',#273,1.75);
#21=CIRCLE('',#275,1.75);
#22=CIRCLE('',#276,1.75);
#23=CIRCLE('',#279,5.);
#24=CIRCLE('',#280,5.);
#25=CYLINDRICAL_SURFACE('',#271,1.75);
#26=CYLINDRICAL_SURFACE('',#274,1.75);
#27=CYLINDRICAL_SURFACE('',#278,5.);
#28=PLANE('',#266);
#29=PLANE('',#267);
#30=PLANE('',#268);
#31=PLANE('',#269);
#32=PLANE('',#270);
#33=PLANE('',#277);
#34=PLANE('',#281);
#35=PLANE('',#282);
#36=FACE_OUTER_BOUND('',#49,.T.);
#37=FACE_OUTER_BOUND('',#50,.T.);
#38=FACE_OUTER_BOUND('',#51,.T.);
#39=FACE_OUTER_BOUND('',#52,.T.);
#40=FACE_OUTER_BOUND('',#53,.T.);
#41=FACE_OUTER_BOUND('',#54,.T.);
#42=FACE_OUTER_BOUND('',#55,.T.);
#43=FACE_OUTER_BOUND('',#56,.T.);
#44=FACE_OUTER_BOUND('',#57,.T.);
#45=FACE_OUTER_BOUND('',#58,.T.);
#46=FACE_OUTER_BOUND('',#59,.T.);
#47=FACE_OUTER_BOUND('',#60,.T.);
#48=FACE_OUTER_BOUND('',#63,.T.);
#49=EDGE_LOOP('',(#171,#172,#173,#174));
#50=EDGE_LOOP('',(#175,#176,#177,#178));
#51=EDGE_LOOP('',(#179,#180,#181,#182));
#52=EDGE_LOOP('',(#183,#184,#185,#186));
#53=EDGE_LOOP('',(#187,#188,#189,#190));
#54=EDGE_LOOP('',(#191,#192,#193,#194));
#55=EDGE_LOOP('',(#195,#196,#197,#198));
#56=EDGE_LOOP('',(#199,#200,#201,#202));
#57=EDGE_LOOP('',(#203,#204,#205,#206));
#58=EDGE_LOOP('',(#207,#208,#209,#210));
#59=EDGE_LOOP('',(#211,#212,#213,#214));
#60=EDGE_LOOP('',(#215,#216,#217,#218,#219,#220,#221,#222,#223));
#61=EDGE_LOOP('',(#224));
#62=EDGE_LOOP('',(#225));
#63=EDGE_LOOP('',(#226,#227,#228,#229,#230,#231,#232,#233,#234));
#64=EDGE_LOOP('',(#235));
#65=EDGE_LOOP('',(#236));
#66=LINE('',#391,#89);
#67=LINE('',#408,#90);
#68=LINE('',#411,#91);
#69=LINE('',#413,#92);
#70=LINE('',#414,#93);
#71=LINE('',#417,#94);
#72=LINE('',#419,#95);
#73=LINE('',#420,#96);
#74=LINE('',#503,#97);
#75=LINE('',#507,#98);
#76=LINE('',#509,#99);
#77=LINE('',#511,#100);
#78=LINE('',#512,#101);
#79=LINE('',#514,#102);
#80=LINE('',#515,#103);
#81=LINE('',#518,#104);
#82=LINE('',#520,#105);
#83=LINE('',#521,#106);
#84=LINE('',#526,#107);
#85=LINE('',#532,#108);
#86=LINE('',#536,#109);
#87=LINE('',#538,#110);
#88=LINE('',#539,#111);
#89=VECTOR('',#285,10.);
#90=VECTOR('',#286,10.);
#91=VECTOR('',#289,10.);
#92=VECTOR('',#290,10.);
#93=VECTOR('',#291,10.);
#94=VECTOR('',#294,10.);
#95=VECTOR('',#295,10.);
#96=VECTOR('',#296,10.);
#97=VECTOR('',#297,10.);
#98=VECTOR('',#300,10.);
#99=VECTOR('',#301,10.);
#100=VECTOR('',#302,10.);
#101=VECTOR('',#303,10.);
#102=VECTOR('',#306,10.);
#103=VECTOR('',#307,10.);
#104=VECTOR('',#310,10.);
#105=VECTOR('',#311,10.);
#106=VECTOR('',#312,10.);
#107=VECTOR('',#317,1.75);
#108=VECTOR('',#324,1.75);
#109=VECTOR('',#329,10.);
#110=VECTOR('',#330,10.);
#111=VECTOR('',#331,10.);
#112=(
BOUNDED_CURVE()
B_SPLINE_CURVE(5,(#375,#376,#377,#378,#379,#380,#381,#382,#383,#384,#385,
#386,#387,#388,#389),.UNSPECIFIED.,.F.,.F.)
B_SPLINE_CURVE_WITH_KNOTS((6,1,1,1,1,1,1,1,1,1,6),(0.,0.1,0.2,0.3,0.4,0.5,
0.6,0.7,0.8,0.9,1.),.UNSPECIFIED.)
CURVE()
GEOMETRIC_REPRESENTATION_ITEM()
RATIONAL_B_SPLINE_CURVE((1.,1.,1.,1.,1.,1.,1.,1.,1.,1.,1.,1.,1.,1.,1.))
REPRESENTATION_ITEM('')
);
#113=(
BOUNDED_CURVE()
B_SPLINE_CURVE(5,(#393,#394,#395,#396,#397,#398,#399,#400,#401,#402,#403,
#404,#405,#406,#407),.UNSPECIFIED.,.F.,.F.)
B_SPLINE_CURVE_WITH_KNOTS((6,1,1,1,1,1,1,1,1,1,6),(0.,0.1,0.2,0.3,0.4,0.5,
0.6,0.7,0.8,0.9,1.),.UNSPECIFIED.)
CURVE()
GEOMETRIC_REPRESENTATION_ITEM()
RATIONAL_B_SPLINE_CURVE((1.,1.,1.,1.,1.,1.,1.,1.,1.,1.,1.,1.,1.,1.,1.))
REPRESENTATION_ITEM('')
);
#114=(
BOUNDED_CURVE()
B_SPLINE_CURVE(5,(#462,#463,#464,#465,#466,#467,#468,#469,#470,#471,#472,
#473,#474,#475,#476,#477,#478,#479,#480,#481),.UNSPECIFIED.,.F.,.F.)
B_SPLINE_CURVE_WITH_KNOTS((6,1,1,1,1,1,1,1,1,1,1,1,1,1,1,6),(0.,0.0666666666666667,
0.133333333333333,0.2,0.266666666666667,0.333333333333333,0.4,0.466666666666667,
0.533333333333333,0.6,0.666666666666667,0.733333333333333,0.8,0.866666666666667,
0.933333333333333,1.),.UNSPECIFIED.)
CURVE()
GEOMETRIC_REPRESENTATION_ITEM()
RATIONAL_B_SPLINE_CURVE((1.,1.,1.,1.,1.,1.,1.,1.,1.,1.,1.,1.,1.,1.,1.,1.,
1.,1.,1.,1.))
REPRESENTATION_ITEM('')
);
#115=(
BOUNDED_CURVE()
B_SPLINE_CURVE(5,(#483,#484,#485,#486,#487,#488,#489,#490,#491,#492,#493,
#494,#495,#496,#497,#498,#499,#500,#501,#502),.UNSPECIFIED.,.F.,.F.)
B_SPLINE_CURVE_WITH_KNOTS((6,1,1,1,1,1,1,1,1,1,1,1,1,1,1,6),(0.,0.0666666666666667,
0.133333333333333,0.2,0.266666666666667,0.333333333333333,0.4,0.466666666666667,
0.533333333333333,0.6,0.666666666666667,0.733333333333333,0.8,0.866666666666667,
0.933333333333333,1.),.UNSPECIFIED.)
CURVE()
GEOMETRIC_REPRESENTATION_ITEM()
RATIONAL_B_SPLINE_CURVE((1.,1.,1.,1.,1.,1.,1.,1.,1.,1.,1.,1.,1.,1.,1.,1.,
1.,1.,1.,1.))
REPRESENTATION_ITEM('')
);
#116=VERTEX_POINT('',#373);
#117=VERTEX_POINT('',#374);
#118=VERTEX_POINT('',#390);
#119=VERTEX_POINT('',#392);
#120=VERTEX_POINT('',#410);
#121=VERTEX_POINT('',#412);
#122=VERTEX_POINT('',#416);
#123=VERTEX_POINT('',#418);
#124=VERTEX_POINT('',#461);
#125=VERTEX_POINT('',#482);
#126=VERTEX_POINT('',#505);
#127=VERTEX_POINT('',#506);
#128=VERTEX_POINT('',#508);
#129=VERTEX_POINT('',#510);
#130=VERTEX_POINT('',#517);
#131=VERTEX_POINT('',#519);
#132=VERTEX_POINT('',#523);
#133=VERTEX_POINT('',#525);
#134=VERTEX_POINT('',#529);
#135=VERTEX_POINT('',#531);
#136=VERTEX_POINT('',#535);
#137=VERTEX_POINT('',#537);
#138=EDGE_CURVE('',#116,#117,#112,.T.);
#139=EDGE_CURVE('',#117,#118,#66,.T.);
#140=EDGE_CURVE('',#119,#118,#113,.T.);
#141=EDGE_CURVE('',#116,#119,#67,.T.);
#142=EDGE_CURVE('',#120,#116,#68,.T.);
#143=EDGE_CURVE('',#121,#119,#69,.T.);
#144=EDGE_CURVE('',#120,#121,#70,.T.);
#145=EDGE_CURVE('',#122,#120,#71,.T.);
#146=EDGE_CURVE('',#123,#121,#72,.T.);
#147=EDGE_CURVE('',#122,#123,#73,.T.);
#148=EDGE_CURVE('',#124,#122,#114,.T.);
#149=EDGE_CURVE('',#125,#123,#115,.T.);
#150=EDGE_CURVE('',#124,#125,#74,.T.);
#151=EDGE_CURVE('',#126,#127,#75,.T.);
#152=EDGE_CURVE('',#128,#127,#76,.T.);
#153=EDGE_CURVE('',#129,#128,#77,.T.);
#154=EDGE_CURVE('',#126,#129,#78,.T.);
#155=EDGE_CURVE('',#117,#126,#79,.T.);
#156=EDGE_CURVE('',#118,#129,#80,.T.);
#157=EDGE_CURVE('',#125,#130,#81,.T.);
#158=EDGE_CURVE('',#130,#131,#82,.T.);
#159=EDGE_CURVE('',#124,#131,#83,.T.);
#160=EDGE_CURVE('',#132,#132,#19,.T.);
#161=EDGE_CURVE('',#132,#133,#84,.T.);
#162=EDGE_CURVE('',#133,#133,#20,.T.);
#163=EDGE_CURVE('',#134,#134,#21,.T.);
#164=EDGE_CURVE('',#134,#135,#85,.T.);
#165=EDGE_CURVE('',#135,#135,#22,.T.);
#166=EDGE_CURVE('',#136,#128,#86,.T.);
#167=EDGE_CURVE('',#137,#127,#87,.T.);
#168=EDGE_CURVE('',#136,#137,#88,.T.);
#169=EDGE_CURVE('',#130,#136,#23,.T.);
#170=EDGE_CURVE('',#131,#137,#24,.T.);
#171=ORIENTED_EDGE('',*,*,#138,.T.);
#172=ORIENTED_EDGE('',*,*,#139,.T.);
#173=ORIENTED_EDGE('',*,*,#140,.F.);
#174=ORIENTED_EDGE('',*,*,#141,.F.);
#175=ORIENTED_EDGE('',*,*,#142,.T.);
#176=ORIENTED_EDGE('',*,*,#141,.T.);
#177=ORIENTED_EDGE('',*,*,#143,.F.);
#178=ORIENTED_EDGE('',*,*,#144,.F.);
#179=ORIENTED_EDGE('',*,*,#145,.T.);
#180=ORIENTED_EDGE('',*,*,#144,.T.);
#181=ORIENTED_EDGE('',*,*,#146,.F.);
#182=ORIENTED_EDGE('',*,*,#147,.F.);
#183=ORIENTED_EDGE('',*,*,#148,.T.);
#184=ORIENTED_EDGE('',*,*,#147,.T.);
#185=ORIENTED_EDGE('',*,*,#149,.F.);
#186=ORIENTED_EDGE('',*,*,#150,.F.);
#187=ORIENTED_EDGE('',*,*,#151,.T.);
#188=ORIENTED_EDGE('',*,*,#152,.F.);
#189=ORIENTED_EDGE('',*,*,#153,.F.);
#190=ORIENTED_EDGE('',*,*,#154,.F.);
#191=ORIENTED_EDGE('',*,*,#155,.T.);
#192=ORIENTED_EDGE('',*,*,#154,.T.);
#193=ORIENTED_EDGE('',*,*,#156,.F.);
#194=ORIENTED_EDGE('',*,*,#139,.F.);
#195=ORIENTED_EDGE('',*,*,#150,.T.);
#196=ORIENTED_EDGE('',*,*,#157,.T.);
#197=ORIENTED_EDGE('',*,*,#158,.T.);
#198=ORIENTED_EDGE('',*,*,#159,.F.);
#199=ORIENTED_EDGE('',*,*,#160,.F.);
#200=ORIENTED_EDGE('',*,*,#161,.T.);
#201=ORIENTED_EDGE('',*,*,#162,.T.);
#202=ORIENTED_EDGE('',*,*,#161,.F.);
#203=ORIENTED_EDGE('',*,*,#163,.F.);
#204=ORIENTED_EDGE('',*,*,#164,.T.);
#205=ORIENTED_EDGE('',*,*,#165,.T.);
#206=ORIENTED_EDGE('',*,*,#164,.F.);
#207=ORIENTED_EDGE('',*,*,#166,.T.);
#208=ORIENTED_EDGE('',*,*,#152,.T.);
#209=ORIENTED_EDGE('',*,*,#167,.F.);
#210=ORIENTED_EDGE('',*,*,#168,.F.);
#211=ORIENTED_EDGE('',*,*,#169,.T.);
#212=ORIENTED_EDGE('',*,*,#168,.T.);
#213=ORIENTED_EDGE('',*,*,#170,.F.);
#214=ORIENTED_EDGE('',*,*,#158,.F.);
#215=ORIENTED_EDGE('',*,*,#170,.T.);
#216=ORIENTED_EDGE('',*,*,#167,.T.);
#217=ORIENTED_EDGE('',*,*,#151,.F.);
#218=ORIENTED_EDGE('',*,*,#155,.F.);
#219=ORIENTED_EDGE('',*,*,#138,.F.);
#220=ORIENTED_EDGE('',*,*,#142,.F.);
#221=ORIENTED_EDGE('',*,*,#145,.F.);
#222=ORIENTED_EDGE('',*,*,#148,.F.);
#223=ORIENTED_EDGE('',*,*,#159,.T.);
#224=ORIENTED_EDGE('',*,*,#163,.T.);
#225=ORIENTED_EDGE('',*,*,#160,.T.);
#226=ORIENTED_EDGE('',*,*,#169,.F.);
#227=ORIENTED_EDGE('',*,*,#157,.F.);
#228=ORIENTED_EDGE('',*,*,#149,.T.);
#229=ORIENTED_EDGE('',*,*,#146,.T.);
#230=ORIENTED_EDGE('',*,*,#143,.T.);
#231=ORIENTED_EDGE('',*,*,#140,.T.);
#232=ORIENTED_EDGE('',*,*,#156,.T.);
#233=ORIENTED_EDGE('',*,*,#153,.T.);
#234=ORIENTED_EDGE('',*,*,#166,.F.);
#235=ORIENTED_EDGE('',*,*,#165,.F.);
#236=ORIENTED_EDGE('',*,*,#162,.F.);
#237=(
BOUNDED_SURFACE()
B_SPLINE_SURFACE(5,1,((#343,#344),(#345,#346),(#347,#348),(#349,#350),(#351,
#352),(#353,#354),(#355,#356),(#357,#358),(#359,#360),(#361,#362),(#363,
#364),(#365,#366),(#367,#368),(#369,#370),(#371,#372)),.UNSPECIFIED.,.F.,
 .F.,.F.)
B_SPLINE_SURFACE_WITH_KNOTS((6,1,1,1,1,1,1,1,1,1,6),(2,2),(0.,0.1,0.2,0.3,
0.4,0.5,0.6,0.7,0.8,0.9,1.),(0.,0.45),.UNSPECIFIED.)
GEOMETRIC_REPRESENTATION_ITEM()
RATIONAL_B_SPLINE_SURFACE(((1.,1.),(1.,1.),(1.,1.),(1.,1.),(1.,1.),(1.,
1.),(1.,1.),(1.,1.),(1.,1.),(1.,1.),(1.,1.),(1.,1.),(1.,1.),(1.,1.),(1.,
1.)))
REPRESENTATION_ITEM('')
SURFACE()
);
#238=(
BOUNDED_SURFACE()
B_SPLINE_SURFACE(5,1,((#421,#422),(#423,#424),(#425,#426),(#427,#428),(#429,
#430),(#431,#432),(#433,#434),(#435,#436),(#437,#438),(#439,#440),(#441,
#442),(#443,#444),(#445,#446),(#447,#448),(#449,#450),(#451,#452),(#453,
#454),(#455,#456),(#457,#458),(#459,#460)),.UNSPECIFIED.,.F.,.F.,.F.)
B_SPLINE_SURFACE_WITH_KNOTS((6,1,1,1,1,1,1,1,1,1,1,1,1,1,1,6),(2,2),(0.,
0.0666666666666667,0.133333333333333,0.2,0.266666666666667,0.333333333333333,
0.4,0.466666666666667,0.533333333333333,0.6,0.666666666666667,0.733333333333333,
0.8,0.866666666666667,0.933333333333333,1.),(0.,0.45),.UNSPECIFIED.)
GEOMETRIC_REPRESENTATION_ITEM()
RATIONAL_B_SPLINE_SURFACE(((1.,1.),(1.,1.),(1.,1.),(1.,1.),(1.,1.),(1.,
1.),(1.,1.),(1.,1.),(1.,1.),(1.,1.),(1.,1.),(1.,1.),(1.,1.),(1.,1.),(1.,
1.),(1.,1.),(1.,1.),(1.,1.),(1.,1.),(1.,1.)))
REPRESENTATION_ITEM('')
SURFACE()
);
#239=ADVANCED_FACE('',(#36),#237,.T.);
#240=ADVANCED_FACE('',(#37),#28,.T.);
#241=ADVANCED_FACE('',(#38),#29,.T.);
#242=ADVANCED_FACE('',(#39),#238,.T.);
#243=ADVANCED_FACE('',(#40),#30,.T.);
#244=ADVANCED_FACE('',(#41),#31,.T.);
#245=ADVANCED_FACE('',(#42),#32,.T.);
#246=ADVANCED_FACE('',(#43),#25,.F.);
#247=ADVANCED_FACE('',(#44),#26,.F.);
#248=ADVANCED_FACE('',(#45),#33,.T.);
#249=ADVANCED_FACE('',(#46),#27,.T.);
#250=ADVANCED_FACE('',(#47,#15,#16),#34,.T.);
#251=ADVANCED_FACE('',(#48,#17,#18),#35,.F.);
#252=CLOSED_SHELL('',(#239,#240,#241,#242,#243,#244,#245,#246,#247,#248,
#249,#250,#251));
#253=DERIVED_UNIT_ELEMENT(#255,1.);
#254=DERIVED_UNIT_ELEMENT(#550,-3.);
#255=(
MASS_UNIT()
NAMED_UNIT(*)
SI_UNIT(.KILO.,.GRAM.)
);
#256=DERIVED_UNIT((#253,#254));
#257=MEASURE_REPRESENTATION_ITEM('density measure',
POSITIVE_RATIO_MEASURE(7850.),#256);
#258=PROPERTY_DEFINITION_REPRESENTATION(#263,#260);
#259=PROPERTY_DEFINITION_REPRESENTATION(#264,#261);
#260=REPRESENTATION('material name',(#262),#547);
#261=REPRESENTATION('density',(#257),#547);
#262=DESCRIPTIVE_REPRESENTATION_ITEM('Steel','Steel');
#263=PROPERTY_DEFINITION('material property','material name',#557);
#264=PROPERTY_DEFINITION('material property','density of part',#557);
#265=AXIS2_PLACEMENT_3D('',#342,#283,#284);
#266=AXIS2_PLACEMENT_3D('',#409,#287,#288);
#267=AXIS2_PLACEMENT_3D('',#415,#292,#293);
#268=AXIS2_PLACEMENT_3D('',#504,#298,#299);
#269=AXIS2_PLACEMENT_3D('',#513,#304,#305);
#270=AXIS2_PLACEMENT_3D('',#516,#308,#309);
#271=AXIS2_PLACEMENT_3D('',#522,#313,#314);
#272=AXIS2_PLACEMENT_3D('',#524,#315,#316);
#273=AXIS2_PLACEMENT_3D('',#527,#318,#319);
#274=AXIS2_PLACEMENT_3D('',#528,#320,#321);
#275=AXIS2_PLACEMENT_3D('',#530,#322,#323);
#276=AXIS2_PLACEMENT_3D('',#533,#325,#326);
#277=AXIS2_PLACEMENT_3D('',#534,#327,#328);
#278=AXIS2_PLACEMENT_3D('',#540,#332,#333);
#279=AXIS2_PLACEMENT_3D('',#541,#334,#335);
#280=AXIS2_PLACEMENT_3D('',#542,#336,#337);
#281=AXIS2_PLACEMENT_3D('',#543,#338,#339);
#282=AXIS2_PLACEMENT_3D('',#544,#340,#341);
#283=DIRECTION('axis',(0.,0.,1.));
#284=DIRECTION('refdir',(1.,0.,0.));
#285=DIRECTION('',(5.29090660172926E-16,8.53483950180589E-16,-1.));
#286=DIRECTION('',(5.29090660172926E-16,8.53483950180589E-16,-1.));
#287=DIRECTION('center_axis',(0.86384948775814,0.503749999999999,8.86997235671469E-16));
#288=DIRECTION('ref_axis',(0.503749999999999,-0.86384948775814,-4.70752253111185E-16));
#289=DIRECTION('',(0.503749999999999,-0.86384948775814,-4.70752253111185E-16));
#290=DIRECTION('',(0.503749999999999,-0.86384948775814,-4.70752253111185E-16));
#291=DIRECTION('',(5.29090660172926E-16,8.53483950180589E-16,-1.));
#292=DIRECTION('center_axis',(-0.815382984620754,0.578921919079724,6.26890447155248E-17));
#293=DIRECTION('ref_axis',(0.578921919079724,0.815382984620754,1.00221847097863E-15));
#294=DIRECTION('',(0.578921919079724,0.815382984620754,1.00221847097863E-15));
#295=DIRECTION('',(0.578921919079724,0.815382984620754,1.00221847097863E-15));
#296=DIRECTION('',(5.29090660172926E-16,8.53483950180589E-16,-1.));
#297=DIRECTION('',(5.29090660172926E-16,8.53483950180589E-16,-1.));
#298=DIRECTION('center_axis',(0.99999999960948,2.79470831972055E-5,5.29114512353269E-16));
#299=DIRECTION('ref_axis',(2.79470831972055E-5,-0.99999999960948,-8.53469163306588E-16));
#300=DIRECTION('',(2.79470831972055E-5,-0.99999999960948,-8.53469163306587E-16));
#301=DIRECTION('',(-5.29090660172926E-16,-8.53483950180589E-16,1.));
#302=DIRECTION('',(2.79470831972055E-5,-0.99999999960948,-8.53469163306587E-16));
#303=DIRECTION('',(5.29090660172926E-16,8.53483950180589E-16,-1.));
#304=DIRECTION('center_axis',(0.882947592858928,0.469471562785889,8.67845768707781E-16));
#305=DIRECTION('ref_axis',(0.469471562785889,-0.882947592858928,-5.05188580268878E-16));
#306=DIRECTION('',(0.469471562785889,-0.882947592858928,-5.05188580268878E-16));
#307=DIRECTION('',(0.469471562785889,-0.882947592858928,-5.05188580268878E-16));
#308=DIRECTION('center_axis',(-1.,1.53349555276355E-15,-5.29090660172925E-16));
#309=DIRECTION('ref_axis',(-1.53349555276355E-15,-1.,-8.5348395018059E-16));
#310=DIRECTION('',(-1.53349555276355E-15,-1.,-8.5348395018059E-16));
#311=DIRECTION('',(-5.29090660172926E-16,-8.53483950180589E-16,1.));
#312=DIRECTION('',(-1.53349555276355E-15,-1.,-8.5348395018059E-16));
#313=DIRECTION('center_axis',(-5.29090660172926E-16,-8.53483950180589E-16,
1.));
#314=DIRECTION('ref_axis',(1.53349555276355E-15,1.,8.5348395018059E-16));
#315=DIRECTION('center_axis',(5.29090660172926E-16,8.53483950180589E-16,
-1.));
#316=DIRECTION('ref_axis',(1.53349555276355E-15,1.,8.5348395018059E-16));
#317=DIRECTION('',(5.29090660172926E-16,8.53483950180589E-16,-1.));
#318=DIRECTION('center_axis',(5.29090660172926E-16,8.53483950180589E-16,
-1.));
#319=DIRECTION('ref_axis',(1.53349555276355E-15,1.,8.5348395018059E-16));
#320=DIRECTION('center_axis',(-5.29090660172926E-16,-8.53483950180589E-16,
1.));
#321=DIRECTION('ref_axis',(1.53349555276355E-15,1.,8.5348395018059E-16));
#322=DIRECTION('center_axis',(5.29090660172926E-16,8.53483950180589E-16,
-1.));
#323=DIRECTION('ref_axis',(1.53349555276355E-15,1.,8.5348395018059E-16));
#324=DIRECTION('',(5.29090660172926E-16,8.53483950180589E-16,-1.));
#325=DIRECTION('center_axis',(5.29090660172926E-16,8.53483950180589E-16,
-1.));
#326=DIRECTION('ref_axis',(1.53349555276355E-15,1.,8.5348395018059E-16));
#327=DIRECTION('center_axis',(1.,-1.70696790036117E-15,5.29090660172925E-16));
#328=DIRECTION('ref_axis',(1.70696790036117E-15,1.,8.5348395018059E-16));
#329=DIRECTION('',(1.70696790036117E-15,1.,8.5348395018059E-16));
#330=DIRECTION('',(1.70696790036117E-15,1.,8.5348395018059E-16));
#331=DIRECTION('',(-5.29090660172926E-16,-8.53483950180589E-16,1.));
#332=DIRECTION('center_axis',(-5.29090660172926E-16,-8.53483950180589E-16,
1.));
#333=DIRECTION('ref_axis',(-1.65596023267828E-15,-1.,-8.53483950180589E-16));
#334=DIRECTION('center_axis',(-5.29090660172926E-16,-8.53483950180589E-16,
1.));
#335=DIRECTION('ref_axis',(1.53349555276355E-15,1.,8.5348395018059E-16));
#336=DIRECTION('center_axis',(-5.29090660172926E-16,-8.53483950180589E-16,
1.));
#337=DIRECTION('ref_axis',(1.53349555276355E-15,1.,8.5348395018059E-16));
#338=DIRECTION('center_axis',(-5.29090660172926E-16,-8.53483950180589E-16,
1.));
#339=DIRECTION('ref_axis',(1.53349555276355E-15,1.,8.5348395018059E-16));
#340=DIRECTION('center_axis',(-5.29090660172926E-16,-8.53483950180589E-16,
1.));
#341=DIRECTION('ref_axis',(1.53349555276355E-15,1.,8.5348395018059E-16));
#342=CARTESIAN_POINT('',(0.,0.,0.));
#343=CARTESIAN_POINT('Ctrl Pts',(30.3530203934342,68.7661348459288,37.869341341806));
#344=CARTESIAN_POINT('Ctrl Pts',(30.3530203934342,68.7661348459288,33.369341341806));
#345=CARTESIAN_POINT('Ctrl Pts',(30.3434657622582,68.3136839945479,37.869341341806));
#346=CARTESIAN_POINT('Ctrl Pts',(30.3434657622582,68.3136839945479,33.369341341806));
#347=CARTESIAN_POINT('Ctrl Pts',(30.3384554185122,67.4104876533263,37.869341341806));
#348=CARTESIAN_POINT('Ctrl Pts',(30.3384554185122,67.4104876533263,33.369341341806));
#349=CARTESIAN_POINT('Ctrl Pts',(30.3732364332908,66.060809198849,37.869341341806));
#350=CARTESIAN_POINT('Ctrl Pts',(30.3732364332908,66.060809198849,33.369341341806));
#351=CARTESIAN_POINT('Ctrl Pts',(30.5055978276834,64.2716386121742,37.869341341806));
#352=CARTESIAN_POINT('Ctrl Pts',(30.5055978276834,64.2716386121742,33.369341341806));
#353=CARTESIAN_POINT('Ctrl Pts',(30.8239107681247,62.0536649959631,37.869341341806));
#354=CARTESIAN_POINT('Ctrl Pts',(30.8239107681247,62.0536649959631,33.369341341806));
#355=CARTESIAN_POINT('Ctrl Pts',(31.308049614848,59.8557491679128,37.869341341806));
#356=CARTESIAN_POINT('Ctrl Pts',(31.308049614848,59.8557491679128,33.369341341806));
#357=CARTESIAN_POINT('Ctrl Pts',(31.9704695656529,57.679397670176,37.869341341806));
#358=CARTESIAN_POINT('Ctrl Pts',(31.9704695656529,57.679397670176,33.369341341806));
#359=CARTESIAN_POINT('Ctrl Pts',(32.8159606261551,55.5251898869945,37.869341341806));
#360=CARTESIAN_POINT('Ctrl Pts',(32.8159606261551,55.5251898869945,33.369341341806));
#361=CARTESIAN_POINT('Ctrl Pts',(33.8350952351551,53.3919854897543,37.869341341806));
#362=CARTESIAN_POINT('Ctrl Pts',(33.8350952351551,53.3919854897543,33.369341341806));
#363=CARTESIAN_POINT('Ctrl Pts',(35.0138334858854,51.2780862548044,37.869341341806));
#364=CARTESIAN_POINT('Ctrl Pts',(35.0138334858854,51.2780862548044,33.369341341806));
#365=CARTESIAN_POINT('Ctrl Pts',(36.0735705354348,49.6010881558038,37.869341341806));
#366=CARTESIAN_POINT('Ctrl Pts',(36.0735705354348,49.6010881558038,33.369341341806));
#367=CARTESIAN_POINT('Ctrl Pts',(36.9297991969214,48.3507694651047,37.869341341806));
#368=CARTESIAN_POINT('Ctrl Pts',(36.9297991969214,48.3507694651047,33.369341341806));
#369=CARTESIAN_POINT('Ctrl Pts',(37.5274709858366,47.5204716884801,37.869341341806));
#370=CARTESIAN_POINT('Ctrl Pts',(37.5274709858366,47.5204716884801,33.369341341806));
#371=CARTESIAN_POINT('Ctrl Pts',(37.8330203934356,47.1061348459288,37.869341341806));
#372=CARTESIAN_POINT('Ctrl Pts',(37.8330203934356,47.1061348459288,33.369341341806));
#373=CARTESIAN_POINT('',(30.3530203934342,68.7661348459288,37.869341341806));
#374=CARTESIAN_POINT('',(37.8330203934356,47.1061348459288,37.869341341806));
#375=CARTESIAN_POINT('Ctrl Pts',(30.3530203934342,68.7661348459288,37.869341341806));
#376=CARTESIAN_POINT('Ctrl Pts',(30.3434657622582,68.3136839945479,37.869341341806));
#377=CARTESIAN_POINT('Ctrl Pts',(30.3384554185122,67.4104876533263,37.869341341806));
#378=CARTESIAN_POINT('Ctrl Pts',(30.3732364332908,66.060809198849,37.869341341806));
#379=CARTESIAN_POINT('Ctrl Pts',(30.5055978276834,64.2716386121742,37.869341341806));
#380=CARTESIAN_POINT('Ctrl Pts',(30.8239107681247,62.0536649959631,37.869341341806));
#381=CARTESIAN_POINT('Ctrl Pts',(31.308049614848,59.8557491679128,37.869341341806));
#382=CARTESIAN_POINT('Ctrl Pts',(31.9704695656529,57.679397670176,37.869341341806));
#383=CARTESIAN_POINT('Ctrl Pts',(32.8159606261551,55.5251898869945,37.869341341806));
#384=CARTESIAN_POINT('Ctrl Pts',(33.8350952351551,53.3919854897543,37.869341341806));
#385=CARTESIAN_POINT('Ctrl Pts',(35.0138334858854,51.2780862548044,37.869341341806));
#386=CARTESIAN_POINT('Ctrl Pts',(36.0735705354348,49.6010881558038,37.869341341806));
#387=CARTESIAN_POINT('Ctrl Pts',(36.9297991969214,48.3507694651047,37.869341341806));
#388=CARTESIAN_POINT('Ctrl Pts',(37.5274709858366,47.5204716884801,37.869341341806));
#389=CARTESIAN_POINT('Ctrl Pts',(37.8330203934356,47.1061348459288,37.869341341806));
#390=CARTESIAN_POINT('',(37.8330203934356,47.1061348459288,33.369341341806));
#391=CARTESIAN_POINT('',(37.8330203934356,47.1061348459288,37.869341341806));
#392=CARTESIAN_POINT('',(30.3530203934342,68.7661348459288,33.369341341806));
#393=CARTESIAN_POINT('Ctrl Pts',(30.3530203934342,68.7661348459288,33.369341341806));
#394=CARTESIAN_POINT('Ctrl Pts',(30.3434657622583,68.3136839945479,33.369341341806));
#395=CARTESIAN_POINT('Ctrl Pts',(30.3384554185122,67.4104876533263,33.369341341806));
#396=CARTESIAN_POINT('Ctrl Pts',(30.3732364332908,66.060809198849,33.369341341806));
#397=CARTESIAN_POINT('Ctrl Pts',(30.5055978276834,64.2716386121742,33.369341341806));
#398=CARTESIAN_POINT('Ctrl Pts',(30.8239107681248,62.0536649959631,33.369341341806));
#399=CARTESIAN_POINT('Ctrl Pts',(31.308049614848,59.8557491679128,33.369341341806));
#400=CARTESIAN_POINT('Ctrl Pts',(31.9704695656529,57.679397670176,33.369341341806));
#401=CARTESIAN_POINT('Ctrl Pts',(32.8159606261551,55.5251898869945,33.369341341806));
#402=CARTESIAN_POINT('Ctrl Pts',(33.8350952351551,53.3919854897543,33.369341341806));
#403=CARTESIAN_POINT('Ctrl Pts',(35.0138334858854,51.2780862548044,33.369341341806));
#404=CARTESIAN_POINT('Ctrl Pts',(36.0735705354348,49.6010881558038,33.369341341806));
#405=CARTESIAN_POINT('Ctrl Pts',(36.9297991969214,48.3507694651047,33.369341341806));
#406=CARTESIAN_POINT('Ctrl Pts',(37.5274709858366,47.5204716884801,33.369341341806));
#407=CARTESIAN_POINT('Ctrl Pts',(37.8330203934356,47.1061348459288,33.369341341806));
#408=CARTESIAN_POINT('',(30.3530203934342,68.7661348459288,37.869341341806));
#409=CARTESIAN_POINT('Origin',(26.3230203934342,75.6769307479939,37.869341341806));
#410=CARTESIAN_POINT('',(26.3230203934342,75.6769307479939,37.869341341806));
#411=CARTESIAN_POINT('',(26.3230203934342,75.6769307479939,37.869341341806));
#412=CARTESIAN_POINT('',(26.3230203934342,75.6769307479939,33.369341341806));
#413=CARTESIAN_POINT('',(26.3230203934342,75.6769307479939,33.369341341806));
#414=CARTESIAN_POINT('',(26.3230203934342,75.6769307479939,37.869341341806));
#415=CARTESIAN_POINT('Origin',(23.4830203934392,71.6769307479939,37.869341341806));
#416=CARTESIAN_POINT('',(23.4830203934392,71.6769307479939,37.869341341806));
#417=CARTESIAN_POINT('',(23.4830203934392,71.6769307479939,37.869341341806));
#418=CARTESIAN_POINT('',(23.4830203934392,71.6769307479939,33.369341341806));
#419=CARTESIAN_POINT('',(23.4830203934392,71.6769307479939,33.369341341806));
#420=CARTESIAN_POINT('',(23.4830203934392,71.6769307479939,37.869341341806));
#421=CARTESIAN_POINT('Ctrl Pts',(31.353020393431,26.4961348459288,37.869341341806));
#422=CARTESIAN_POINT('Ctrl Pts',(31.353020393431,26.4961348459288,33.369341341806));
#423=CARTESIAN_POINT('Ctrl Pts',(31.0020404719777,27.0342068028338,37.869341341806));
#424=CARTESIAN_POINT('Ctrl Pts',(31.0020404719777,27.0342068028338,33.369341341806));
#425=CARTESIAN_POINT('Ctrl Pts',(30.3295092713553,28.0951158416366,37.869341341806));
#426=CARTESIAN_POINT('Ctrl Pts',(30.3295092713553,28.0951158416366,33.369341341806));
#427=CARTESIAN_POINT('Ctrl Pts',(29.4090007896659,29.6407631184748,37.869341341806));
#428=CARTESIAN_POINT('Ctrl Pts',(29.4090007896659,29.6407631184748,33.369341341806));
#429=CARTESIAN_POINT('Ctrl Pts',(28.359495789308,31.6096290663715,37.869341341806));
#430=CARTESIAN_POINT('Ctrl Pts',(28.359495789308,31.6096290663715,33.369341341806));
#431=CARTESIAN_POINT('Ctrl Pts',(27.3483152899724,33.9283145886001,37.869341341806));
#432=CARTESIAN_POINT('Ctrl Pts',(27.3483152899724,33.9283145886001,33.369341341806));
#433=CARTESIAN_POINT('Ctrl Pts',(26.6366871749747,36.1466422679335,37.869341341806));
#434=CARTESIAN_POINT('Ctrl Pts',(26.6366871749747,36.1466422679335,33.369341341806));
#435=CARTESIAN_POINT('Ctrl Pts',(26.2119264425515,38.351911470694,37.869341341806));
#436=CARTESIAN_POINT('Ctrl Pts',(26.2119264425515,38.351911470694,33.369341341806));
#437=CARTESIAN_POINT('Ctrl Pts',(26.039609452863,40.7056728180983,37.869341341806));
#438=CARTESIAN_POINT('Ctrl Pts',(26.039609452863,40.7056728180983,33.369341341806));
#439=CARTESIAN_POINT('Ctrl Pts',(26.0622714267378,43.4070091940826,37.869341341806));
#440=CARTESIAN_POINT('Ctrl Pts',(26.0622714267378,43.4070091940826,33.369341341806));
#441=CARTESIAN_POINT('Ctrl Pts',(26.1919201491688,46.5832893693366,37.869341341806));
#442=CARTESIAN_POINT('Ctrl Pts',(26.1919201491688,46.5832893693366,33.369341341806));
#443=CARTESIAN_POINT('Ctrl Pts',(26.3209367824285,50.2507576702979,37.869341341806));
#444=CARTESIAN_POINT('Ctrl Pts',(26.3209367824285,50.2507576702979,33.369341341806));
#445=CARTESIAN_POINT('Ctrl Pts',(26.2845364156034,54.1311212530517,37.869341341806));
#446=CARTESIAN_POINT('Ctrl Pts',(26.2845364156035,54.1311212530517,33.369341341806));
#447=CARTESIAN_POINT('Ctrl Pts',(25.9391666555272,57.7891714596598,37.869341341806));
#448=CARTESIAN_POINT('Ctrl Pts',(25.9391666555272,57.7891714596598,33.369341341806));
#449=CARTESIAN_POINT('Ctrl Pts',(25.3400361533354,61.21123442684,37.869341341806));
#450=CARTESIAN_POINT('Ctrl Pts',(25.3400361533354,61.21123442684,33.369341341806));
#451=CARTESIAN_POINT('Ctrl Pts',(24.6126951530429,64.5074274951011,37.869341341806));
#452=CARTESIAN_POINT('Ctrl Pts',(24.6126951530429,64.5074274951011,33.369341341806));
#453=CARTESIAN_POINT('Ctrl Pts',(24.0628519510982,67.2191989335848,37.869341341806));
#454=CARTESIAN_POINT('Ctrl Pts',(24.0628519510982,67.2191989335848,33.369341341806));
#455=CARTESIAN_POINT('Ctrl Pts',(23.7329108332839,69.3848551740199,37.869341341806));
#456=CARTESIAN_POINT('Ctrl Pts',(23.7329108332839,69.3848551740199,33.369341341806));
#457=CARTESIAN_POINT('Ctrl Pts',(23.5586968121629,70.9008759148268,37.869341341806));
#458=CARTESIAN_POINT('Ctrl Pts',(23.5586968121629,70.9008759148268,33.369341341806));
#459=CARTESIAN_POINT('Ctrl Pts',(23.4830203934392,71.6769307479939,37.869341341806));
#460=CARTESIAN_POINT('Ctrl Pts',(23.4830203934392,71.6769307479939,33.369341341806));
#461=CARTESIAN_POINT('',(31.353020393431,26.4961348459288,37.869341341806));
#462=CARTESIAN_POINT('Ctrl Pts',(31.353020393431,26.4961348459288,37.869341341806));
#463=CARTESIAN_POINT('Ctrl Pts',(31.0020404719777,27.0342068028338,37.869341341806));
#464=CARTESIAN_POINT('Ctrl Pts',(30.3295092713553,28.0951158416366,37.869341341806));
#465=CARTESIAN_POINT('Ctrl Pts',(29.4090007896659,29.6407631184748,37.869341341806));
#466=CARTESIAN_POINT('Ctrl Pts',(28.359495789308,31.6096290663715,37.869341341806));
#467=CARTESIAN_POINT('Ctrl Pts',(27.3483152899724,33.9283145886001,37.869341341806));
#468=CARTESIAN_POINT('Ctrl Pts',(26.6366871749747,36.1466422679335,37.869341341806));
#469=CARTESIAN_POINT('Ctrl Pts',(26.2119264425515,38.351911470694,37.869341341806));
#470=CARTESIAN_POINT('Ctrl Pts',(26.039609452863,40.7056728180983,37.869341341806));
#471=CARTESIAN_POINT('Ctrl Pts',(26.0622714267378,43.4070091940826,37.869341341806));
#472=CARTESIAN_POINT('Ctrl Pts',(26.1919201491688,46.5832893693366,37.869341341806));
#473=CARTESIAN_POINT('Ctrl Pts',(26.3209367824285,50.2507576702979,37.869341341806));
#474=CARTESIAN_POINT('Ctrl Pts',(26.2845364156034,54.1311212530517,37.869341341806));
#475=CARTESIAN_POINT('Ctrl Pts',(25.9391666555272,57.7891714596598,37.869341341806));
#476=CARTESIAN_POINT('Ctrl Pts',(25.3400361533354,61.21123442684,37.869341341806));
#477=CARTESIAN_POINT('Ctrl Pts',(24.6126951530429,64.5074274951011,37.869341341806));
#478=CARTESIAN_POINT('Ctrl Pts',(24.0628519510982,67.2191989335848,37.869341341806));
#479=CARTESIAN_POINT('Ctrl Pts',(23.7329108332839,69.3848551740199,37.869341341806));
#480=CARTESIAN_POINT('Ctrl Pts',(23.5586968121629,70.9008759148268,37.869341341806));
#481=CARTESIAN_POINT('Ctrl Pts',(23.4830203934392,71.6769307479939,37.869341341806));
#482=CARTESIAN_POINT('',(31.353020393431,26.4961348459288,33.369341341806));
#483=CARTESIAN_POINT('Ctrl Pts',(31.353020393431,26.4961348459288,33.369341341806));
#484=CARTESIAN_POINT('Ctrl Pts',(31.0020404719778,27.0342068028338,33.369341341806));
#485=CARTESIAN_POINT('Ctrl Pts',(30.3295092713553,28.0951158416366,33.369341341806));
#486=CARTESIAN_POINT('Ctrl Pts',(29.4090007896659,29.6407631184748,33.369341341806));
#487=CARTESIAN_POINT('Ctrl Pts',(28.359495789308,31.6096290663715,33.369341341806));
#488=CARTESIAN_POINT('Ctrl Pts',(27.3483152899724,33.9283145886001,33.369341341806));
#489=CARTESIAN_POINT('Ctrl Pts',(26.6366871749748,36.1466422679335,33.369341341806));
#490=CARTESIAN_POINT('Ctrl Pts',(26.2119264425515,38.351911470694,33.369341341806));
#491=CARTESIAN_POINT('Ctrl Pts',(26.0396094528631,40.7056728180983,33.369341341806));
#492=CARTESIAN_POINT('Ctrl Pts',(26.0622714267379,43.4070091940826,33.369341341806));
#493=CARTESIAN_POINT('Ctrl Pts',(26.1919201491688,46.5832893693366,33.369341341806));
#494=CARTESIAN_POINT('Ctrl Pts',(26.3209367824285,50.2507576702979,33.369341341806));
#495=CARTESIAN_POINT('Ctrl Pts',(26.2845364156035,54.1311212530517,33.369341341806));
#496=CARTESIAN_POINT('Ctrl Pts',(25.9391666555272,57.7891714596598,33.369341341806));
#497=CARTESIAN_POINT('Ctrl Pts',(25.3400361533354,61.21123442684,33.369341341806));
#498=CARTESIAN_POINT('Ctrl Pts',(24.6126951530429,64.5074274951011,33.369341341806));
#499=CARTESIAN_POINT('Ctrl Pts',(24.0628519510982,67.2191989335848,33.369341341806));
#500=CARTESIAN_POINT('Ctrl Pts',(23.732910833284,69.3848551740199,33.369341341806));
#501=CARTESIAN_POINT('Ctrl Pts',(23.5586968121629,70.9008759148268,33.369341341806));
#502=CARTESIAN_POINT('Ctrl Pts',(23.4830203934392,71.6769307479939,33.369341341806));
#503=CARTESIAN_POINT('',(31.353020393431,26.4961348459288,37.869341341806));
#504=CARTESIAN_POINT('Origin',(41.3529368316554,40.4861348447611,37.869341341806));
#505=CARTESIAN_POINT('',(41.3529368316554,40.4861348447611,37.869341341806));
#506=CARTESIAN_POINT('',(41.3530203934342,37.4961348459288,37.869341341806));
#507=CARTESIAN_POINT('',(41.3529368316554,40.4861348447611,37.869341341806));
#508=CARTESIAN_POINT('',(41.3530203934342,37.4961348459288,33.369341341806));
#509=CARTESIAN_POINT('',(41.3530203934342,37.4961348459288,33.369341341806));
#510=CARTESIAN_POINT('',(41.3529368316554,40.4861348447611,33.369341341806));
#511=CARTESIAN_POINT('',(41.3529368316554,40.4861348447611,33.369341341806));
#512=CARTESIAN_POINT('',(41.3529368316554,40.4861348447611,37.869341341806));
#513=CARTESIAN_POINT('Origin',(37.8330203934356,47.1061348459288,37.869341341806));
#514=CARTESIAN_POINT('',(37.8330203934356,47.1061348459288,37.869341341806));
#515=CARTESIAN_POINT('',(37.8330203934356,47.1061348459288,33.369341341806));
#516=CARTESIAN_POINT('Origin',(31.353020393431,37.4961348459288,33.369341341806));
#517=CARTESIAN_POINT('',(31.353020393431,15.4961348459288,33.369341341806));
#518=CARTESIAN_POINT('',(31.353020393431,42.496134845939,33.369341341806));
#519=CARTESIAN_POINT('',(31.3530203934309,15.4961348459288,37.869341341806));
#520=CARTESIAN_POINT('',(31.353020393431,15.4961348459288,33.369341341806));
#521=CARTESIAN_POINT('',(31.353020393431,42.496134845939,37.869341341806));
#522=CARTESIAN_POINT('Origin',(36.353020393431,37.4961348459288,33.369341341806));
#523=CARTESIAN_POINT('',(36.353020393431,35.7461348459288,37.869341341806));
#524=CARTESIAN_POINT('Origin',(36.353020393431,37.4961348459288,37.869341341806));
#525=CARTESIAN_POINT('',(36.353020393431,35.7461348459288,33.369341341806));
#526=CARTESIAN_POINT('',(36.353020393431,35.7461348459288,33.369341341806));
#527=CARTESIAN_POINT('Origin',(36.353020393431,37.4961348459288,33.369341341806));
#528=CARTESIAN_POINT('Origin',(36.353020393431,15.4961348459288,33.369341341806));
#529=CARTESIAN_POINT('',(36.3530203934309,13.7461348459288,37.869341341806));
#530=CARTESIAN_POINT('Origin',(36.3530203934309,15.4961348459288,37.869341341806));
#531=CARTESIAN_POINT('',(36.353020393431,13.7461348459288,33.369341341806));
#532=CARTESIAN_POINT('',(36.3530203934309,13.7461348459288,33.369341341806));
#533=CARTESIAN_POINT('Origin',(36.353020393431,15.4961348459288,33.369341341806));
#534=CARTESIAN_POINT('Origin',(41.3530203934342,15.4961348459287,33.369341341806));
#535=CARTESIAN_POINT('',(41.3530203934342,15.4961348459287,33.369341341806));
#536=CARTESIAN_POINT('',(41.3530203934342,10.4961348459287,33.369341341806));
#537=CARTESIAN_POINT('',(41.3530203934341,15.4961348459287,37.869341341806));
#538=CARTESIAN_POINT('',(41.3530203934341,10.4961348459287,37.869341341806));
#539=CARTESIAN_POINT('',(41.3530203934342,15.4961348459287,33.369341341806));
#540=CARTESIAN_POINT('Origin',(36.353020393431,15.4961348459288,33.369341341806));
#541=CARTESIAN_POINT('Origin',(36.353020393431,15.4961348459288,33.369341341806));
#542=CARTESIAN_POINT('Origin',(36.3530203934309,15.4961348459288,37.869341341806));
#543=CARTESIAN_POINT('Origin',(36.3530203934326,26.4961348459288,37.869341341806));
#544=CARTESIAN_POINT('Origin',(36.3530203934326,26.4961348459288,33.369341341806));
#545=UNCERTAINTY_MEASURE_WITH_UNIT(LENGTH_MEASURE(0.01),#549,
'DISTANCE_ACCURACY_VALUE',
'Maximum model space distance between geometric entities at asserted c
onnectivities');
#546=UNCERTAINTY_MEASURE_WITH_UNIT(LENGTH_MEASURE(0.01),#549,
'DISTANCE_ACCURACY_VALUE',
'Maximum model space distance between geometric entities at asserted c
onnectivities');
#547=(
GEOMETRIC_REPRESENTATION_CONTEXT(3)
GLOBAL_UNCERTAINTY_ASSIGNED_CONTEXT((#545))
GLOBAL_UNIT_ASSIGNED_CONTEXT((#549,#551,#552))
REPRESENTATION_CONTEXT('','3D')
);
#548=(
GEOMETRIC_REPRESENTATION_CONTEXT(3)
GLOBAL_UNCERTAINTY_ASSIGNED_CONTEXT((#546))
GLOBAL_UNIT_ASSIGNED_CONTEXT((#549,#551,#552))
REPRESENTATION_CONTEXT('','3D')
);
#549=(
LENGTH_UNIT()
NAMED_UNIT(*)
SI_UNIT(.MILLI.,.METRE.)
);
#550=(
LENGTH_UNIT()
NAMED_UNIT(*)
SI_UNIT($,.METRE.)
);
#551=(
NAMED_UNIT(*)
PLANE_ANGLE_UNIT()
SI_UNIT($,.RADIAN.)
);
#552=(
NAMED_UNIT(*)
SI_UNIT($,.STERADIAN.)
SOLID_ANGLE_UNIT()
);
#553=SHAPE_DEFINITION_REPRESENTATION(#554,#555);
#554=PRODUCT_DEFINITION_SHAPE('',$,#557);
#555=SHAPE_REPRESENTATION('',(#265),#547);
#556=PRODUCT_DEFINITION_CONTEXT('part definition',#561,'design');
#557=PRODUCT_DEFINITION('Claw','Claw v1',#558,#556);
#558=PRODUCT_DEFINITION_FORMATION('',$,#563);
#559=PRODUCT_RELATED_PRODUCT_CATEGORY('Claw v1','Claw v1',(#563));
#560=APPLICATION_PROTOCOL_DEFINITION('international standard',
'automotive_design',2009,#561);
#561=APPLICATION_CONTEXT(
'Core Data for Automotive Mechanical Design Process');
#562=PRODUCT_CONTEXT('part definition',#561,'mechanical');
#563=PRODUCT('Claw','Claw v1',$,(#562));
#564=PRESENTATION_STYLE_ASSIGNMENT((#565));
#565=SURFACE_STYLE_USAGE(.BOTH.,#566);
#566=SURFACE_SIDE_STYLE('',(#567));
#567=SURFACE_STYLE_FILL_AREA(#568);
#568=FILL_AREA_STYLE('Steel - Satin',(#569));
#569=FILL_AREA_STYLE_COLOUR('Steel - Satin',#570);
#570=COLOUR_RGB('Steel - Satin',0.627450980392157,0.627450980392157,0.627450980392157);
ENDSEC;
END-ISO-10303-21;
