ISO-10303-21;
HEADER;
/* Generated by software containing ST-Developer
 * from STEP Tools, Inc. (www.steptools.com) 
 */

FILE_DESCRIPTION(
/* description */ (''),
/* implementation_level */ '2;1');

FILE_NAME(
/* name */ '5c928afd-a70d-48a2-90e2-c60ba20ede49.stp',
/* time_stamp */ '2026-08-07T02:21:04Z',
/* author */ (''),
/* organization */ (''),
/* preprocessor_version */ 'ST-DEVELOPER v20.2',
/* originating_system */ 'Autodesk Translation Framework v15.15.0.0',
/* authorisation */ '');

FILE_SCHEMA (('AUTOMOTIVE_DESIGN { 1 0 10303 214 3 1 1 }'));
ENDSEC;

DATA;
#10=MECHANICAL_DESIGN_GEOMETRIC_PRESENTATION_REPRESENTATION('',(#13),#1182);
#11=SHAPE_REPRESENTATION_RELATIONSHIP('SRR','None',#1189,#12);
#12=ADVANCED_BREP_SHAPE_REPRESENTATION('',(#14),#1181);
#13=STYLED_ITEM('',(#1198),#14);
#14=MANIFOLD_SOLID_BREP('link 3',#568);
#15=(
BOUNDED_CURVE()
B_SPLINE_CURVE(5,(#1102,#1103,#1104,#1105,#1106,#1107,#1108),
 .UNSPECIFIED.,.F.,.F.)
B_SPLINE_CURVE_WITH_KNOTS((6,1,6),(-0.785248099808036,-0.6,-0.551718043189803),
 .UNSPECIFIED.)
CURVE()
GEOMETRIC_REPRESENTATION_ITEM()
RATIONAL_B_SPLINE_CURVE((1.,1.,1.,1.,1.,1.,1.))
REPRESENTATION_ITEM('')
);
#16=(
BOUNDED_SURFACE()
B_SPLINE_SURFACE(5,1,((#910,#911),(#912,#913),(#914,#915),(#916,#917),(#918,
#919),(#920,#921),(#922,#923),(#924,#925),(#926,#927),(#928,#929)),
 .UNSPECIFIED.,.F.,.F.,.F.)
B_SPLINE_SURFACE_WITH_KNOTS((6,1,1,1,1,6),(2,2),(-1.,-0.8,-0.6,-0.4,-0.2,
0.),(0.,11.),.UNSPECIFIED.)
GEOMETRIC_REPRESENTATION_ITEM()
RATIONAL_B_SPLINE_SURFACE(((1.,1.),(1.,1.),(1.,1.),(1.,1.),(1.,1.),(1.,
1.),(1.,1.),(1.,1.),(1.,1.),(1.,1.)))
REPRESENTATION_ITEM('')
SURFACE()
);
#17=FACE_BOUND('',#104,.T.);
#18=FACE_BOUND('',#105,.T.);
#19=FACE_BOUND('',#106,.T.);
#20=FACE_BOUND('',#112,.T.);
#21=FACE_BOUND('',#113,.T.);
#22=FACE_BOUND('',#114,.T.);
#23=FACE_BOUND('',#116,.T.);
#24=FACE_BOUND('',#121,.T.);
#25=FACE_BOUND('',#122,.T.);
#26=FACE_BOUND('',#123,.T.);
#27=B_SPLINE_CURVE_WITH_KNOTS('',3,(#859,#860,#861,#862,#863,#864,#865,
#866),.UNSPECIFIED.,.F.,.F.,(4,2,2,4),(-1.51463061005283,-1.40357344798381,
-0.964345750146241,0.),.UNSPECIFIED.);
#28=B_SPLINE_CURVE_WITH_KNOTS('',3,(#888,#889,#890,#891,#892,#893,#894,
#895,#896,#897,#898,#899,#900,#901,#902,#903,#904,#905,#906),
 .UNSPECIFIED.,.F.,.F.,(4,3,3,3,3,3,4),(1.25395597720251,1.40120205681609,
1.5551083385645,1.72838905918362,2.0169472345971,2.17987260249011,2.30550541001059),
 .UNSPECIFIED.);
#29=B_SPLINE_CURVE_WITH_KNOTS('',3,(#931,#932,#933,#934,#935,#936,#937,
#938,#939,#940,#941,#942,#943,#944,#945,#946,#947,#948,#949,#950,#951,#952,
#953,#954,#955,#956,#957,#958,#959,#960,#961,#962,#963,#964,#965,#966,#967,
#968,#969,#970,#971,#972,#973,#974,#975,#976,#977,#978,#979,#980,#981,#982,
#983,#984,#985,#986,#987,#988,#989,#990,#991,#992,#993,#994),
 .UNSPECIFIED.,.F.,.F.,(4,3,3,3,3,3,3,3,3,3,3,3,3,3,3,3,3,3,3,3,3,4),(-3.09132176465628,
-2.99669891156594,-2.90424010991292,-2.81367645739814,-2.72436536420284,
-2.63553492478832,-2.54264599945188,-2.4549602049848,-2.36768446630576,
-2.28080751902869,-2.19409834656507,-2.10650804421289,-2.01766665675884,
-1.9274594259747,-1.83575077029161,-1.74148894517928,-1.64533888418808,
-1.54428869245307,-1.42627917950896,-1.28779564945706,-1.17344732280067,
-1.14931211940517),.UNSPECIFIED.);
#30=B_SPLINE_CURVE_WITH_KNOTS('',3,(#996,#997,#998,#999,#1000,#1001,#1002,
#1003,#1004,#1005,#1006,#1007,#1008,#1009),.UNSPECIFIED.,.F.,.F.,(4,2,2,
2,2,2,4),(-2.02924610661453,-1.99935650630375,-1.54535867400164,-1.09352847782567,
-0.597617892283434,-0.282738570567891,0.),.UNSPECIFIED.);
#31=B_SPLINE_CURVE_WITH_KNOTS('',3,(#1011,#1012,#1013,#1014),
 .UNSPECIFIED.,.F.,.F.,(4,4),(-1.5,-1.3),.UNSPECIFIED.);
#32=B_SPLINE_CURVE_WITH_KNOTS('',3,(#1016,#1017,#1018,#1019,#1020,#1021,
#1022,#1023,#1024,#1025,#1026,#1027,#1028,#1029),.UNSPECIFIED.,.F.,.F.,
(4,2,2,2,2,2,4),(-4.05873626682924,-3.90542554829259,-3.74784599130654,
-3.4490395815739,-2.9629008564088,-2.47177136729277,-2.02924610661434),
 .UNSPECIFIED.);
#33=B_SPLINE_CURVE_WITH_KNOTS('',3,(#1031,#1032,#1033,#1034,#1035,#1036,
#1037,#1038,#1039,#1040,#1041,#1042,#1043,#1044,#1045,#1046,#1047,#1048,
#1049,#1050,#1051,#1052,#1053,#1054,#1055,#1056,#1057,#1058,#1059,#1060,
#1061,#1062,#1063,#1064,#1065,#1066,#1067,#1068,#1069,#1070,#1071,#1072,
#1073,#1074,#1075,#1076,#1077,#1078,#1079,#1080,#1081,#1082,#1083,#1084,
#1085,#1086,#1087,#1088,#1089,#1090,#1091),.UNSPECIFIED.,.F.,.F.,(4,3,3,
3,3,3,3,3,3,3,3,3,3,3,3,3,3,3,3,3,4),(-1.66326397811066,-1.5749546434951,
-1.43144488604311,-1.34950553074133,-1.27392889485566,-1.20032061696427,
-1.1281246754916,-1.05719157134172,-0.987398571411634,-0.918643246233054,
-0.85083023184252,-0.783310250662176,-0.71548901492142,-0.644857263573353,
-0.576230026788029,-0.507289003898521,-0.438025402040106,-0.366127802564302,
-0.2950317766763,-0.221933555574103,-0.150435004136888),.UNSPECIFIED.);
#34=B_SPLINE_CURVE_WITH_KNOTS('',3,(#1093,#1094,#1095,#1096,#1097,#1098,
#1099,#1100),.UNSPECIFIED.,.F.,.F.,(4,2,2,4),(0.,1.0617968505065,1.4402857818265,
1.50212021489431),.UNSPECIFIED.);
#35=B_SPLINE_CURVE_WITH_KNOTS('',3,(#1110,#1111,#1112,#1113,#1114,#1115,
#1116,#1117,#1118,#1119,#1120,#1121,#1122,#1123),.UNSPECIFIED.,.F.,.F.,
(4,2,2,2,2,2,4),(-2.67645113599162,-2.55665460895463,-1.95958466110302,
-1.36669130186332,-0.738785522630307,-0.350634374703191,0.),
 .UNSPECIFIED.);
#36=B_SPLINE_CURVE_WITH_KNOTS('',3,(#1124,#1125,#1126,#1127,#1128,#1129,
#1130,#1131,#1132,#1133,#1134,#1135,#1136,#1137),.UNSPECIFIED.,.F.,.F.,
(4,2,2,2,2,2,4),(-5.35407618946116,-5.2757374973485,-4.92741909764005,-4.51196366112926,
-3.82051289069758,-3.17627798069979,-2.6764511359919),.UNSPECIFIED.);
#37=PLANE('',#594);
#38=PLANE('',#598);
#39=PLANE('',#604);
#40=PLANE('',#605);
#41=PLANE('',#606);
#42=PLANE('',#607);
#43=PLANE('',#608);
#44=PLANE('',#609);
#45=PLANE('',#610);
#46=PLANE('',#614);
#47=PLANE('',#616);
#48=PLANE('',#619);
#49=PLANE('',#620);
#50=PLANE('',#621);
#51=PLANE('',#624);
#52=PLANE('',#627);
#53=PLANE('',#629);
#54=PLANE('',#631);
#55=PLANE('',#632);
#56=FACE_OUTER_BOUND('',#87,.T.);
#57=FACE_OUTER_BOUND('',#88,.T.);
#58=FACE_OUTER_BOUND('',#89,.T.);
#59=FACE_OUTER_BOUND('',#90,.T.);
#60=FACE_OUTER_BOUND('',#91,.T.);
#61=FACE_OUTER_BOUND('',#92,.T.);
#62=FACE_OUTER_BOUND('',#93,.T.);
#63=FACE_OUTER_BOUND('',#94,.T.);
#64=FACE_OUTER_BOUND('',#95,.T.);
#65=FACE_OUTER_BOUND('',#96,.T.);
#66=FACE_OUTER_BOUND('',#97,.T.);
#67=FACE_OUTER_BOUND('',#98,.T.);
#68=FACE_OUTER_BOUND('',#99,.T.);
#69=FACE_OUTER_BOUND('',#100,.T.);
#70=FACE_OUTER_BOUND('',#101,.T.);
#71=FACE_OUTER_BOUND('',#102,.T.);
#72=FACE_OUTER_BOUND('',#103,.T.);
#73=FACE_OUTER_BOUND('',#107,.T.);
#74=FACE_OUTER_BOUND('',#108,.T.);
#75=FACE_OUTER_BOUND('',#109,.T.);
#76=FACE_OUTER_BOUND('',#110,.T.);
#77=FACE_OUTER_BOUND('',#111,.T.);
#78=FACE_OUTER_BOUND('',#115,.T.);
#79=FACE_OUTER_BOUND('',#117,.T.);
#80=FACE_OUTER_BOUND('',#118,.T.);
#81=FACE_OUTER_BOUND('',#119,.T.);
#82=FACE_OUTER_BOUND('',#120,.T.);
#83=FACE_OUTER_BOUND('',#124,.T.);
#84=FACE_OUTER_BOUND('',#125,.T.);
#85=FACE_OUTER_BOUND('',#126,.T.);
#86=FACE_OUTER_BOUND('',#127,.T.);
#87=EDGE_LOOP('',(#370,#371,#372,#373));
#88=EDGE_LOOP('',(#374,#375,#376,#377));
#89=EDGE_LOOP('',(#378,#379,#380,#381));
#90=EDGE_LOOP('',(#382,#383,#384,#385));
#91=EDGE_LOOP('',(#386));
#92=EDGE_LOOP('',(#387,#388,#389,#390));
#93=EDGE_LOOP('',(#391));
#94=EDGE_LOOP('',(#392,#393,#394,#395,#396,#397));
#95=EDGE_LOOP('',(#398,#399,#400));
#96=EDGE_LOOP('',(#401,#402,#403,#404));
#97=EDGE_LOOP('',(#405,#406,#407));
#98=EDGE_LOOP('',(#408,#409,#410,#411));
#99=EDGE_LOOP('',(#412,#413,#414,#415,#416));
#100=EDGE_LOOP('',(#417,#418,#419,#420,#421));
#101=EDGE_LOOP('',(#422,#423,#424,#425,#426));
#102=EDGE_LOOP('',(#427,#428,#429,#430,#431,#432));
#103=EDGE_LOOP('',(#433,#434,#435,#436,#437,#438));
#104=EDGE_LOOP('',(#439));
#105=EDGE_LOOP('',(#440));
#106=EDGE_LOOP('',(#441));
#107=EDGE_LOOP('',(#442,#443,#444,#445,#446));
#108=EDGE_LOOP('',(#447,#448,#449,#450,#451,#452,#453,#454,#455,#456,#457));
#109=EDGE_LOOP('',(#458,#459,#460,#461,#462,#463));
#110=EDGE_LOOP('',(#464,#465,#466,#467));
#111=EDGE_LOOP('',(#468,#469,#470,#471,#472,#473));
#112=EDGE_LOOP('',(#474));
#113=EDGE_LOOP('',(#475));
#114=EDGE_LOOP('',(#476));
#115=EDGE_LOOP('',(#477,#478,#479,#480));
#116=EDGE_LOOP('',(#481));
#117=EDGE_LOOP('',(#482,#483,#484,#485,#486));
#118=EDGE_LOOP('',(#487,#488,#489,#490,#491));
#119=EDGE_LOOP('',(#492,#493,#494,#495));
#120=EDGE_LOOP('',(#496,#497,#498,#499,#500,#501));
#121=EDGE_LOOP('',(#502));
#122=EDGE_LOOP('',(#503));
#123=EDGE_LOOP('',(#504,#505,#506,#507));
#124=EDGE_LOOP('',(#508,#509,#510,#511));
#125=EDGE_LOOP('',(#512,#513,#514,#515));
#126=EDGE_LOOP('',(#516,#517,#518,#519,#520));
#127=EDGE_LOOP('',(#521,#522,#523,#524,#525));
#128=LINE('',#788,#174);
#129=LINE('',#794,#175);
#130=LINE('',#800,#176);
#131=LINE('',#806,#177);
#132=LINE('',#813,#178);
#133=LINE('',#824,#179);
#134=LINE('',#828,#180);
#135=LINE('',#829,#181);
#136=LINE('',#832,#182);
#137=LINE('',#834,#183);
#138=LINE('',#835,#184);
#139=LINE('',#838,#185);
#140=LINE('',#839,#186);
#141=LINE('',#843,#187);
#142=LINE('',#844,#188);
#143=LINE('',#845,#189);
#144=LINE('',#848,#190);
#145=LINE('',#849,#191);
#146=LINE('',#852,#192);
#147=LINE('',#853,#193);
#148=LINE('',#855,#194);
#149=LINE('',#868,#195);
#150=LINE('',#872,#196);
#151=LINE('',#875,#197);
#152=LINE('',#878,#198);
#153=LINE('',#880,#199);
#154=LINE('',#882,#200);
#155=LINE('',#885,#201);
#156=LINE('',#908,#202);
#157=LINE('',#909,#203);
#158=LINE('',#1142,#204);
#159=LINE('',#1143,#205);
#160=LINE('',#1144,#206);
#161=LINE('',#1146,#207);
#162=LINE('',#1149,#208);
#163=LINE('',#1151,#209);
#164=LINE('',#1152,#210);
#165=LINE('',#1156,#211);
#166=LINE('',#1158,#212);
#167=LINE('',#1164,#213);
#168=LINE('',#1165,#214);
#169=LINE('',#1168,#215);
#170=LINE('',#1171,#216);
#171=LINE('',#1172,#217);
#172=LINE('',#1174,#218);
#173=LINE('',#1176,#219);
#174=VECTOR('',#639,2.5);
#175=VECTOR('',#646,1.3);
#176=VECTOR('',#653,1.3);
#177=VECTOR('',#660,1.);
#178=VECTOR('',#669,1.);
#179=VECTOR('',#682,6.5);
#180=VECTOR('',#687,10.);
#181=VECTOR('',#688,10.);
#182=VECTOR('',#691,10.);
#183=VECTOR('',#692,10.);
#184=VECTOR('',#693,10.);
#185=VECTOR('',#696,10.);
#186=VECTOR('',#697,10.);
#187=VECTOR('',#700,10.);
#188=VECTOR('',#701,10.);
#189=VECTOR('',#702,10.);
#190=VECTOR('',#705,10.);
#191=VECTOR('',#706,10.);
#192=VECTOR('',#709,10.);
#193=VECTOR('',#710,10.);
#194=VECTOR('',#713,10.);
#195=VECTOR('',#716,10.);
#196=VECTOR('',#719,10.);
#197=VECTOR('',#722,10.);
#198=VECTOR('',#725,10.);
#199=VECTOR('',#726,10.);
#200=VECTOR('',#727,10.);
#201=VECTOR('',#730,10.);
#202=VECTOR('',#733,10.);
#203=VECTOR('',#734,10.);
#204=VECTOR('',#739,10.);
#205=VECTOR('',#740,10.);
#206=VECTOR('',#741,10.);
#207=VECTOR('',#744,10.);
#208=VECTOR('',#747,10.);
#209=VECTOR('',#748,10.);
#210=VECTOR('',#749,10.);
#211=VECTOR('',#754,10.);
#212=VECTOR('',#757,10.);
#213=VECTOR('',#764,10.);
#214=VECTOR('',#765,10.);
#215=VECTOR('',#768,10.);
#216=VECTOR('',#771,10.);
#217=VECTOR('',#772,10.);
#218=VECTOR('',#775,10.);
#219=VECTOR('',#778,10.);
#220=CIRCLE('',#583,2.5);
#221=CIRCLE('',#584,2.5);
#222=CIRCLE('',#586,1.3);
#223=CIRCLE('',#587,1.3);
#224=CIRCLE('',#589,1.3);
#225=CIRCLE('',#590,1.3);
#226=CIRCLE('',#592,1.);
#227=CIRCLE('',#593,1.);
#228=CIRCLE('',#596,1.);
#229=CIRCLE('',#597,1.);
#230=CIRCLE('',#600,6.5);
#231=CIRCLE('',#601,6.5);
#232=CIRCLE('',#602,6.5);
#233=CIRCLE('',#603,6.5);
#234=CIRCLE('',#612,6.);
#235=CIRCLE('',#613,6.);
#236=CIRCLE('',#615,6.);
#237=CIRCLE('',#618,6.);
#238=CIRCLE('',#622,16.5);
#239=CIRCLE('',#626,12.5);
#240=CIRCLE('',#628,12.5);
#241=VERTEX_POINT('',#785);
#242=VERTEX_POINT('',#787);
#243=VERTEX_POINT('',#791);
#244=VERTEX_POINT('',#793);
#245=VERTEX_POINT('',#797);
#246=VERTEX_POINT('',#799);
#247=VERTEX_POINT('',#803);
#248=VERTEX_POINT('',#805);
#249=VERTEX_POINT('',#810);
#250=VERTEX_POINT('',#812);
#251=VERTEX_POINT('',#817);
#252=VERTEX_POINT('',#818);
#253=VERTEX_POINT('',#820);
#254=VERTEX_POINT('',#823);
#255=VERTEX_POINT('',#827);
#256=VERTEX_POINT('',#831);
#257=VERTEX_POINT('',#833);
#258=VERTEX_POINT('',#837);
#259=VERTEX_POINT('',#841);
#260=VERTEX_POINT('',#842);
#261=VERTEX_POINT('',#847);
#262=VERTEX_POINT('',#851);
#263=VERTEX_POINT('',#857);
#264=VERTEX_POINT('',#858);
#265=VERTEX_POINT('',#867);
#266=VERTEX_POINT('',#869);
#267=VERTEX_POINT('',#871);
#268=VERTEX_POINT('',#873);
#269=VERTEX_POINT('',#877);
#270=VERTEX_POINT('',#879);
#271=VERTEX_POINT('',#881);
#272=VERTEX_POINT('',#883);
#273=VERTEX_POINT('',#887);
#274=VERTEX_POINT('',#907);
#275=VERTEX_POINT('',#930);
#276=VERTEX_POINT('',#995);
#277=VERTEX_POINT('',#1010);
#278=VERTEX_POINT('',#1015);
#279=VERTEX_POINT('',#1030);
#280=VERTEX_POINT('',#1092);
#281=VERTEX_POINT('',#1101);
#282=VERTEX_POINT('',#1109);
#283=VERTEX_POINT('',#1139);
#284=VERTEX_POINT('',#1140);
#285=VERTEX_POINT('',#1148);
#286=VERTEX_POINT('',#1150);
#287=VERTEX_POINT('',#1154);
#288=VERTEX_POINT('',#1161);
#289=VERTEX_POINT('',#1162);
#290=VERTEX_POINT('',#1167);
#291=VERTEX_POINT('',#1169);
#292=EDGE_CURVE('',#241,#241,#220,.T.);
#293=EDGE_CURVE('',#241,#242,#128,.T.);
#294=EDGE_CURVE('',#242,#242,#221,.T.);
#295=EDGE_CURVE('',#243,#243,#222,.T.);
#296=EDGE_CURVE('',#243,#244,#129,.T.);
#297=EDGE_CURVE('',#244,#244,#223,.T.);
#298=EDGE_CURVE('',#245,#245,#224,.T.);
#299=EDGE_CURVE('',#245,#246,#130,.T.);
#300=EDGE_CURVE('',#246,#246,#225,.T.);
#301=EDGE_CURVE('',#247,#247,#226,.T.);
#302=EDGE_CURVE('',#247,#248,#131,.T.);
#303=EDGE_CURVE('',#248,#248,#227,.T.);
#304=EDGE_CURVE('',#249,#249,#228,.T.);
#305=EDGE_CURVE('',#249,#250,#132,.T.);
#306=EDGE_CURVE('',#250,#250,#229,.T.);
#307=EDGE_CURVE('',#251,#252,#230,.T.);
#308=EDGE_CURVE('',#253,#251,#231,.T.);
#309=EDGE_CURVE('',#252,#253,#232,.T.);
#310=EDGE_CURVE('',#252,#254,#133,.T.);
#311=EDGE_CURVE('',#254,#254,#233,.T.);
#312=EDGE_CURVE('',#255,#253,#134,.T.);
#313=EDGE_CURVE('',#252,#255,#135,.T.);
#314=EDGE_CURVE('',#256,#251,#136,.T.);
#315=EDGE_CURVE('',#257,#256,#137,.T.);
#316=EDGE_CURVE('',#253,#257,#138,.T.);
#317=EDGE_CURVE('',#258,#252,#139,.T.);
#318=EDGE_CURVE('',#251,#258,#140,.T.);
#319=EDGE_CURVE('',#259,#260,#141,.T.);
#320=EDGE_CURVE('',#259,#257,#142,.T.);
#321=EDGE_CURVE('',#260,#256,#143,.T.);
#322=EDGE_CURVE('',#261,#259,#144,.T.);
#323=EDGE_CURVE('',#261,#255,#145,.T.);
#324=EDGE_CURVE('',#262,#261,#146,.T.);
#325=EDGE_CURVE('',#262,#258,#147,.T.);
#326=EDGE_CURVE('',#260,#262,#148,.T.);
#327=EDGE_CURVE('',#263,#264,#27,.T.);
#328=EDGE_CURVE('',#264,#265,#149,.T.);
#329=EDGE_CURVE('',#265,#266,#234,.T.);
#330=EDGE_CURVE('',#266,#267,#150,.T.);
#331=EDGE_CURVE('',#267,#268,#235,.T.);
#332=EDGE_CURVE('',#268,#263,#151,.T.);
#333=EDGE_CURVE('',#269,#265,#152,.T.);
#334=EDGE_CURVE('',#270,#269,#153,.T.);
#335=EDGE_CURVE('',#271,#270,#154,.T.);
#336=EDGE_CURVE('',#272,#271,#236,.T.);
#337=EDGE_CURVE('',#266,#272,#155,.T.);
#338=EDGE_CURVE('',#264,#273,#28,.T.);
#339=EDGE_CURVE('',#274,#273,#156,.T.);
#340=EDGE_CURVE('',#269,#274,#157,.T.);
#341=EDGE_CURVE('',#263,#275,#29,.T.);
#342=EDGE_CURVE('',#276,#275,#30,.T.);
#343=EDGE_CURVE('',#276,#277,#31,.T.);
#344=EDGE_CURVE('',#278,#277,#32,.T.);
#345=EDGE_CURVE('',#278,#279,#33,.T.);
#346=EDGE_CURVE('',#280,#279,#34,.T.);
#347=EDGE_CURVE('',#281,#280,#15,.T.);
#348=EDGE_CURVE('',#282,#281,#35,.T.);
#349=EDGE_CURVE('',#273,#282,#36,.T.);
#350=EDGE_CURVE('',#283,#284,#237,.T.);
#351=EDGE_CURVE('',#284,#272,#158,.T.);
#352=EDGE_CURVE('',#271,#280,#159,.T.);
#353=EDGE_CURVE('',#279,#283,#160,.T.);
#354=EDGE_CURVE('',#284,#267,#161,.T.);
#355=EDGE_CURVE('',#283,#285,#162,.T.);
#356=EDGE_CURVE('',#285,#286,#163,.T.);
#357=EDGE_CURVE('',#286,#268,#164,.T.);
#358=EDGE_CURVE('',#287,#274,#238,.T.);
#359=EDGE_CURVE('',#270,#287,#165,.T.);
#360=EDGE_CURVE('',#281,#287,#166,.T.);
#361=EDGE_CURVE('',#288,#289,#239,.T.);
#362=EDGE_CURVE('',#288,#278,#167,.T.);
#363=EDGE_CURVE('',#277,#289,#168,.T.);
#364=EDGE_CURVE('',#289,#290,#169,.T.);
#365=EDGE_CURVE('',#290,#291,#240,.T.);
#366=EDGE_CURVE('',#291,#286,#170,.T.);
#367=EDGE_CURVE('',#285,#288,#171,.T.);
#368=EDGE_CURVE('',#290,#276,#172,.T.);
#369=EDGE_CURVE('',#275,#291,#173,.T.);
#370=ORIENTED_EDGE('',*,*,#292,.F.);
#371=ORIENTED_EDGE('',*,*,#293,.T.);
#372=ORIENTED_EDGE('',*,*,#294,.F.);
#373=ORIENTED_EDGE('',*,*,#293,.F.);
#374=ORIENTED_EDGE('',*,*,#295,.F.);
#375=ORIENTED_EDGE('',*,*,#296,.T.);
#376=ORIENTED_EDGE('',*,*,#297,.F.);
#377=ORIENTED_EDGE('',*,*,#296,.F.);
#378=ORIENTED_EDGE('',*,*,#298,.F.);
#379=ORIENTED_EDGE('',*,*,#299,.T.);
#380=ORIENTED_EDGE('',*,*,#300,.F.);
#381=ORIENTED_EDGE('',*,*,#299,.F.);
#382=ORIENTED_EDGE('',*,*,#301,.F.);
#383=ORIENTED_EDGE('',*,*,#302,.T.);
#384=ORIENTED_EDGE('',*,*,#303,.T.);
#385=ORIENTED_EDGE('',*,*,#302,.F.);
#386=ORIENTED_EDGE('',*,*,#303,.F.);
#387=ORIENTED_EDGE('',*,*,#304,.F.);
#388=ORIENTED_EDGE('',*,*,#305,.T.);
#389=ORIENTED_EDGE('',*,*,#306,.T.);
#390=ORIENTED_EDGE('',*,*,#305,.F.);
#391=ORIENTED_EDGE('',*,*,#306,.F.);
#392=ORIENTED_EDGE('',*,*,#307,.F.);
#393=ORIENTED_EDGE('',*,*,#308,.F.);
#394=ORIENTED_EDGE('',*,*,#309,.F.);
#395=ORIENTED_EDGE('',*,*,#310,.T.);
#396=ORIENTED_EDGE('',*,*,#311,.F.);
#397=ORIENTED_EDGE('',*,*,#310,.F.);
#398=ORIENTED_EDGE('',*,*,#309,.T.);
#399=ORIENTED_EDGE('',*,*,#312,.F.);
#400=ORIENTED_EDGE('',*,*,#313,.F.);
#401=ORIENTED_EDGE('',*,*,#308,.T.);
#402=ORIENTED_EDGE('',*,*,#314,.F.);
#403=ORIENTED_EDGE('',*,*,#315,.F.);
#404=ORIENTED_EDGE('',*,*,#316,.F.);
#405=ORIENTED_EDGE('',*,*,#307,.T.);
#406=ORIENTED_EDGE('',*,*,#317,.F.);
#407=ORIENTED_EDGE('',*,*,#318,.F.);
#408=ORIENTED_EDGE('',*,*,#319,.F.);
#409=ORIENTED_EDGE('',*,*,#320,.T.);
#410=ORIENTED_EDGE('',*,*,#315,.T.);
#411=ORIENTED_EDGE('',*,*,#321,.F.);
#412=ORIENTED_EDGE('',*,*,#322,.F.);
#413=ORIENTED_EDGE('',*,*,#323,.T.);
#414=ORIENTED_EDGE('',*,*,#312,.T.);
#415=ORIENTED_EDGE('',*,*,#316,.T.);
#416=ORIENTED_EDGE('',*,*,#320,.F.);
#417=ORIENTED_EDGE('',*,*,#324,.F.);
#418=ORIENTED_EDGE('',*,*,#325,.T.);
#419=ORIENTED_EDGE('',*,*,#317,.T.);
#420=ORIENTED_EDGE('',*,*,#313,.T.);
#421=ORIENTED_EDGE('',*,*,#323,.F.);
#422=ORIENTED_EDGE('',*,*,#326,.F.);
#423=ORIENTED_EDGE('',*,*,#321,.T.);
#424=ORIENTED_EDGE('',*,*,#314,.T.);
#425=ORIENTED_EDGE('',*,*,#318,.T.);
#426=ORIENTED_EDGE('',*,*,#325,.F.);
#427=ORIENTED_EDGE('',*,*,#327,.T.);
#428=ORIENTED_EDGE('',*,*,#328,.T.);
#429=ORIENTED_EDGE('',*,*,#329,.T.);
#430=ORIENTED_EDGE('',*,*,#330,.T.);
#431=ORIENTED_EDGE('',*,*,#331,.T.);
#432=ORIENTED_EDGE('',*,*,#332,.T.);
#433=ORIENTED_EDGE('',*,*,#329,.F.);
#434=ORIENTED_EDGE('',*,*,#333,.F.);
#435=ORIENTED_EDGE('',*,*,#334,.F.);
#436=ORIENTED_EDGE('',*,*,#335,.F.);
#437=ORIENTED_EDGE('',*,*,#336,.F.);
#438=ORIENTED_EDGE('',*,*,#337,.F.);
#439=ORIENTED_EDGE('',*,*,#292,.T.);
#440=ORIENTED_EDGE('',*,*,#295,.T.);
#441=ORIENTED_EDGE('',*,*,#298,.T.);
#442=ORIENTED_EDGE('',*,*,#328,.F.);
#443=ORIENTED_EDGE('',*,*,#338,.T.);
#444=ORIENTED_EDGE('',*,*,#339,.F.);
#445=ORIENTED_EDGE('',*,*,#340,.F.);
#446=ORIENTED_EDGE('',*,*,#333,.T.);
#447=ORIENTED_EDGE('',*,*,#327,.F.);
#448=ORIENTED_EDGE('',*,*,#341,.T.);
#449=ORIENTED_EDGE('',*,*,#342,.F.);
#450=ORIENTED_EDGE('',*,*,#343,.T.);
#451=ORIENTED_EDGE('',*,*,#344,.F.);
#452=ORIENTED_EDGE('',*,*,#345,.T.);
#453=ORIENTED_EDGE('',*,*,#346,.F.);
#454=ORIENTED_EDGE('',*,*,#347,.F.);
#455=ORIENTED_EDGE('',*,*,#348,.F.);
#456=ORIENTED_EDGE('',*,*,#349,.F.);
#457=ORIENTED_EDGE('',*,*,#338,.F.);
#458=ORIENTED_EDGE('',*,*,#350,.T.);
#459=ORIENTED_EDGE('',*,*,#351,.T.);
#460=ORIENTED_EDGE('',*,*,#336,.T.);
#461=ORIENTED_EDGE('',*,*,#352,.T.);
#462=ORIENTED_EDGE('',*,*,#346,.T.);
#463=ORIENTED_EDGE('',*,*,#353,.T.);
#464=ORIENTED_EDGE('',*,*,#330,.F.);
#465=ORIENTED_EDGE('',*,*,#337,.T.);
#466=ORIENTED_EDGE('',*,*,#351,.F.);
#467=ORIENTED_EDGE('',*,*,#354,.T.);
#468=ORIENTED_EDGE('',*,*,#331,.F.);
#469=ORIENTED_EDGE('',*,*,#354,.F.);
#470=ORIENTED_EDGE('',*,*,#350,.F.);
#471=ORIENTED_EDGE('',*,*,#355,.T.);
#472=ORIENTED_EDGE('',*,*,#356,.T.);
#473=ORIENTED_EDGE('',*,*,#357,.T.);
#474=ORIENTED_EDGE('',*,*,#294,.T.);
#475=ORIENTED_EDGE('',*,*,#297,.T.);
#476=ORIENTED_EDGE('',*,*,#300,.T.);
#477=ORIENTED_EDGE('',*,*,#358,.F.);
#478=ORIENTED_EDGE('',*,*,#359,.F.);
#479=ORIENTED_EDGE('',*,*,#334,.T.);
#480=ORIENTED_EDGE('',*,*,#340,.T.);
#481=ORIENTED_EDGE('',*,*,#311,.T.);
#482=ORIENTED_EDGE('',*,*,#358,.T.);
#483=ORIENTED_EDGE('',*,*,#339,.T.);
#484=ORIENTED_EDGE('',*,*,#349,.T.);
#485=ORIENTED_EDGE('',*,*,#348,.T.);
#486=ORIENTED_EDGE('',*,*,#360,.T.);
#487=ORIENTED_EDGE('',*,*,#352,.F.);
#488=ORIENTED_EDGE('',*,*,#335,.T.);
#489=ORIENTED_EDGE('',*,*,#359,.T.);
#490=ORIENTED_EDGE('',*,*,#360,.F.);
#491=ORIENTED_EDGE('',*,*,#347,.T.);
#492=ORIENTED_EDGE('',*,*,#361,.F.);
#493=ORIENTED_EDGE('',*,*,#362,.T.);
#494=ORIENTED_EDGE('',*,*,#344,.T.);
#495=ORIENTED_EDGE('',*,*,#363,.T.);
#496=ORIENTED_EDGE('',*,*,#361,.T.);
#497=ORIENTED_EDGE('',*,*,#364,.T.);
#498=ORIENTED_EDGE('',*,*,#365,.T.);
#499=ORIENTED_EDGE('',*,*,#366,.T.);
#500=ORIENTED_EDGE('',*,*,#356,.F.);
#501=ORIENTED_EDGE('',*,*,#367,.T.);
#502=ORIENTED_EDGE('',*,*,#301,.T.);
#503=ORIENTED_EDGE('',*,*,#304,.T.);
#504=ORIENTED_EDGE('',*,*,#319,.T.);
#505=ORIENTED_EDGE('',*,*,#326,.T.);
#506=ORIENTED_EDGE('',*,*,#324,.T.);
#507=ORIENTED_EDGE('',*,*,#322,.T.);
#508=ORIENTED_EDGE('',*,*,#363,.F.);
#509=ORIENTED_EDGE('',*,*,#343,.F.);
#510=ORIENTED_EDGE('',*,*,#368,.F.);
#511=ORIENTED_EDGE('',*,*,#364,.F.);
#512=ORIENTED_EDGE('',*,*,#365,.F.);
#513=ORIENTED_EDGE('',*,*,#368,.T.);
#514=ORIENTED_EDGE('',*,*,#342,.T.);
#515=ORIENTED_EDGE('',*,*,#369,.T.);
#516=ORIENTED_EDGE('',*,*,#353,.F.);
#517=ORIENTED_EDGE('',*,*,#345,.F.);
#518=ORIENTED_EDGE('',*,*,#362,.F.);
#519=ORIENTED_EDGE('',*,*,#367,.F.);
#520=ORIENTED_EDGE('',*,*,#355,.F.);
#521=ORIENTED_EDGE('',*,*,#332,.F.);
#522=ORIENTED_EDGE('',*,*,#357,.F.);
#523=ORIENTED_EDGE('',*,*,#366,.F.);
#524=ORIENTED_EDGE('',*,*,#369,.F.);
#525=ORIENTED_EDGE('',*,*,#341,.F.);
#526=CYLINDRICAL_SURFACE('',#582,2.5);
#527=CYLINDRICAL_SURFACE('',#585,1.3);
#528=CYLINDRICAL_SURFACE('',#588,1.3);
#529=CYLINDRICAL_SURFACE('',#591,1.);
#530=CYLINDRICAL_SURFACE('',#595,1.);
#531=CYLINDRICAL_SURFACE('',#599,6.5);
#532=CYLINDRICAL_SURFACE('',#611,6.);
#533=CYLINDRICAL_SURFACE('',#617,6.);
#534=CYLINDRICAL_SURFACE('',#623,16.5);
#535=CYLINDRICAL_SURFACE('',#625,12.5);
#536=CYLINDRICAL_SURFACE('',#630,12.5);
#537=ADVANCED_FACE('',(#56),#526,.F.);
#538=ADVANCED_FACE('',(#57),#527,.F.);
#539=ADVANCED_FACE('',(#58),#528,.F.);
#540=ADVANCED_FACE('',(#59),#529,.F.);
#541=ADVANCED_FACE('',(#60),#37,.T.);
#542=ADVANCED_FACE('',(#61),#530,.F.);
#543=ADVANCED_FACE('',(#62),#38,.T.);
#544=ADVANCED_FACE('',(#63),#531,.F.);
#545=ADVANCED_FACE('',(#64),#39,.F.);
#546=ADVANCED_FACE('',(#65),#40,.F.);
#547=ADVANCED_FACE('',(#66),#41,.F.);
#548=ADVANCED_FACE('',(#67),#42,.F.);
#549=ADVANCED_FACE('',(#68),#43,.F.);
#550=ADVANCED_FACE('',(#69),#44,.F.);
#551=ADVANCED_FACE('',(#70),#45,.F.);
#552=ADVANCED_FACE('',(#71),#532,.T.);
#553=ADVANCED_FACE('',(#72,#17,#18,#19),#46,.T.);
#554=ADVANCED_FACE('',(#73),#47,.T.);
#555=ADVANCED_FACE('',(#74),#16,.F.);
#556=ADVANCED_FACE('',(#75),#533,.T.);
#557=ADVANCED_FACE('',(#76),#48,.T.);
#558=ADVANCED_FACE('',(#77,#20,#21,#22),#49,.F.);
#559=ADVANCED_FACE('',(#78,#23),#50,.T.);
#560=ADVANCED_FACE('',(#79),#534,.T.);
#561=ADVANCED_FACE('',(#80),#51,.T.);
#562=ADVANCED_FACE('',(#81),#535,.F.);
#563=ADVANCED_FACE('',(#82,#24,#25,#26),#52,.F.);
#564=ADVANCED_FACE('',(#83),#53,.F.);
#565=ADVANCED_FACE('',(#84),#536,.F.);
#566=ADVANCED_FACE('',(#85),#54,.F.);
#567=ADVANCED_FACE('',(#86),#55,.T.);
#568=CLOSED_SHELL('',(#537,#538,#539,#540,#541,#542,#543,#544,#545,#546,
#547,#548,#549,#550,#551,#552,#553,#554,#555,#556,#557,#558,#559,#560,#561,
#562,#563,#564,#565,#566,#567));
#569=DERIVED_UNIT_ELEMENT(#571,1.);
#570=DERIVED_UNIT_ELEMENT(#1184,-3.);
#571=(
MASS_UNIT()
NAMED_UNIT(*)
SI_UNIT(.KILO.,.GRAM.)
);
#572=DERIVED_UNIT((#569,#570));
#573=MEASURE_REPRESENTATION_ITEM('density measure',
POSITIVE_RATIO_MEASURE(7850.),#572);
#574=PROPERTY_DEFINITION_REPRESENTATION(#579,#576);
#575=PROPERTY_DEFINITION_REPRESENTATION(#580,#577);
#576=REPRESENTATION('material name',(#578),#1181);
#577=REPRESENTATION('density',(#573),#1181);
#578=DESCRIPTIVE_REPRESENTATION_ITEM('Steel','Steel');
#579=PROPERTY_DEFINITION('material property','material name',#1191);
#580=PROPERTY_DEFINITION('material property','density of part',#1191);
#581=AXIS2_PLACEMENT_3D('',#783,#633,#634);
#582=AXIS2_PLACEMENT_3D('',#784,#635,#636);
#583=AXIS2_PLACEMENT_3D('',#786,#637,#638);
#584=AXIS2_PLACEMENT_3D('',#789,#640,#641);
#585=AXIS2_PLACEMENT_3D('',#790,#642,#643);
#586=AXIS2_PLACEMENT_3D('',#792,#644,#645);
#587=AXIS2_PLACEMENT_3D('',#795,#647,#648);
#588=AXIS2_PLACEMENT_3D('',#796,#649,#650);
#589=AXIS2_PLACEMENT_3D('',#798,#651,#652);
#590=AXIS2_PLACEMENT_3D('',#801,#654,#655);
#591=AXIS2_PLACEMENT_3D('',#802,#656,#657);
#592=AXIS2_PLACEMENT_3D('',#804,#658,#659);
#593=AXIS2_PLACEMENT_3D('',#807,#661,#662);
#594=AXIS2_PLACEMENT_3D('',#808,#663,#664);
#595=AXIS2_PLACEMENT_3D('',#809,#665,#666);
#596=AXIS2_PLACEMENT_3D('',#811,#667,#668);
#597=AXIS2_PLACEMENT_3D('',#814,#670,#671);
#598=AXIS2_PLACEMENT_3D('',#815,#672,#673);
#599=AXIS2_PLACEMENT_3D('',#816,#674,#675);
#600=AXIS2_PLACEMENT_3D('',#819,#676,#677);
#601=AXIS2_PLACEMENT_3D('',#821,#678,#679);
#602=AXIS2_PLACEMENT_3D('',#822,#680,#681);
#603=AXIS2_PLACEMENT_3D('',#825,#683,#684);
#604=AXIS2_PLACEMENT_3D('',#826,#685,#686);
#605=AXIS2_PLACEMENT_3D('',#830,#689,#690);
#606=AXIS2_PLACEMENT_3D('',#836,#694,#695);
#607=AXIS2_PLACEMENT_3D('',#840,#698,#699);
#608=AXIS2_PLACEMENT_3D('',#846,#703,#704);
#609=AXIS2_PLACEMENT_3D('',#850,#707,#708);
#610=AXIS2_PLACEMENT_3D('',#854,#711,#712);
#611=AXIS2_PLACEMENT_3D('',#856,#714,#715);
#612=AXIS2_PLACEMENT_3D('',#870,#717,#718);
#613=AXIS2_PLACEMENT_3D('',#874,#720,#721);
#614=AXIS2_PLACEMENT_3D('',#876,#723,#724);
#615=AXIS2_PLACEMENT_3D('',#884,#728,#729);
#616=AXIS2_PLACEMENT_3D('',#886,#731,#732);
#617=AXIS2_PLACEMENT_3D('',#1138,#735,#736);
#618=AXIS2_PLACEMENT_3D('',#1141,#737,#738);
#619=AXIS2_PLACEMENT_3D('',#1145,#742,#743);
#620=AXIS2_PLACEMENT_3D('',#1147,#745,#746);
#621=AXIS2_PLACEMENT_3D('',#1153,#750,#751);
#622=AXIS2_PLACEMENT_3D('',#1155,#752,#753);
#623=AXIS2_PLACEMENT_3D('',#1157,#755,#756);
#624=AXIS2_PLACEMENT_3D('',#1159,#758,#759);
#625=AXIS2_PLACEMENT_3D('',#1160,#760,#761);
#626=AXIS2_PLACEMENT_3D('',#1163,#762,#763);
#627=AXIS2_PLACEMENT_3D('',#1166,#766,#767);
#628=AXIS2_PLACEMENT_3D('',#1170,#769,#770);
#629=AXIS2_PLACEMENT_3D('',#1173,#773,#774);
#630=AXIS2_PLACEMENT_3D('',#1175,#776,#777);
#631=AXIS2_PLACEMENT_3D('',#1177,#779,#780);
#632=AXIS2_PLACEMENT_3D('',#1178,#781,#782);
#633=DIRECTION('axis',(0.,0.,1.));
#634=DIRECTION('refdir',(1.,0.,0.));
#635=DIRECTION('center_axis',(1.2193130784392E-15,0.864229809530126,0.503097243402825));
#636=DIRECTION('ref_axis',(8.37998069645532E-16,0.503097243402825,-0.864229809530126));
#637=DIRECTION('center_axis',(1.2193130784392E-15,0.864229809530126,0.503097243402825));
#638=DIRECTION('ref_axis',(8.37998069645532E-16,0.503097243402825,-0.864229809530126));
#639=DIRECTION('',(1.2193130784392E-15,0.864229809530126,0.503097243402825));
#640=DIRECTION('center_axis',(-1.28275439413207E-15,-0.864229809530126,
-0.503097243402825));
#641=DIRECTION('ref_axis',(8.37998069645532E-16,0.503097243402825,-0.864229809530126));
#642=DIRECTION('center_axis',(1.2193130784392E-15,0.864229809530126,0.503097243402825));
#643=DIRECTION('ref_axis',(8.37998069645532E-16,0.503097243402825,-0.864229809530126));
#644=DIRECTION('center_axis',(1.2193130784392E-15,0.864229809530126,0.503097243402825));
#645=DIRECTION('ref_axis',(8.37998069645532E-16,0.503097243402825,-0.864229809530126));
#646=DIRECTION('',(1.2193130784392E-15,0.864229809530126,0.503097243402825));
#647=DIRECTION('center_axis',(-1.28275439413207E-15,-0.864229809530126,
-0.503097243402825));
#648=DIRECTION('ref_axis',(8.37998069645532E-16,0.503097243402825,-0.864229809530126));
#649=DIRECTION('center_axis',(1.2193130784392E-15,0.864229809530126,0.503097243402825));
#650=DIRECTION('ref_axis',(8.37998069645532E-16,0.503097243402825,-0.864229809530126));
#651=DIRECTION('center_axis',(1.2193130784392E-15,0.864229809530126,0.503097243402825));
#652=DIRECTION('ref_axis',(8.37998069645532E-16,0.503097243402825,-0.864229809530126));
#653=DIRECTION('',(1.2193130784392E-15,0.864229809530126,0.503097243402825));
#654=DIRECTION('center_axis',(-1.28275439413207E-15,-0.864229809530126,
-0.503097243402825));
#655=DIRECTION('ref_axis',(8.37998069645532E-16,0.503097243402825,-0.864229809530126));
#656=DIRECTION('center_axis',(1.,-1.47536122835266E-15,1.10789863508594E-16));
#657=DIRECTION('ref_axis',(-1.2193130784392E-15,-0.864229809530126,-0.503097243402825));
#658=DIRECTION('center_axis',(1.,-1.57635994762716E-15,5.19951115874086E-17));
#659=DIRECTION('ref_axis',(-1.2193130784392E-15,-0.864229809530126,-0.503097243402825));
#660=DIRECTION('',(1.,-1.47536122835266E-15,1.10789863508594E-16));
#661=DIRECTION('center_axis',(1.,-1.47536122835266E-15,1.10789863508594E-16));
#662=DIRECTION('ref_axis',(-1.2193130784392E-15,-0.864229809530126,-0.503097243402825));
#663=DIRECTION('center_axis',(-1.,1.47536122835266E-15,-1.10789863508594E-16));
#664=DIRECTION('ref_axis',(-1.2193130784392E-15,-0.864229809530126,-0.503097243402825));
#665=DIRECTION('center_axis',(1.,-1.47536122835266E-15,1.10789863508594E-16));
#666=DIRECTION('ref_axis',(-1.2193130784392E-15,-0.864229809530126,-0.503097243402825));
#667=DIRECTION('center_axis',(1.,-1.57635994762716E-15,5.19951115874086E-17));
#668=DIRECTION('ref_axis',(-1.2193130784392E-15,-0.864229809530126,-0.503097243402825));
#669=DIRECTION('',(1.,-1.47536122835266E-15,1.10789863508594E-16));
#670=DIRECTION('center_axis',(1.,-1.47536122835266E-15,1.10789863508594E-16));
#671=DIRECTION('ref_axis',(-1.2193130784392E-15,-0.864229809530126,-0.503097243402825));
#672=DIRECTION('center_axis',(-1.,1.47536122835266E-15,-1.10789863508594E-16));
#673=DIRECTION('ref_axis',(-1.2193130784392E-15,-0.864229809530126,-0.503097243402825));
#674=DIRECTION('center_axis',(1.,-1.47536122835266E-15,1.10789863508594E-16));
#675=DIRECTION('ref_axis',(-1.2193130784392E-15,-0.864229809530126,-0.503097243402825));
#676=DIRECTION('center_axis',(1.,-1.47536122835266E-15,1.10789863508594E-16));
#677=DIRECTION('ref_axis',(-1.2193130784392E-15,-0.864229809530126,-0.503097243402825));
#678=DIRECTION('center_axis',(1.,-1.47536122835266E-15,1.10789863508594E-16));
#679=DIRECTION('ref_axis',(-1.2193130784392E-15,-0.864229809530126,-0.503097243402825));
#680=DIRECTION('center_axis',(1.,-1.47536122835266E-15,1.10789863508594E-16));
#681=DIRECTION('ref_axis',(-1.2193130784392E-15,-0.864229809530126,-0.503097243402825));
#682=DIRECTION('',(1.,-1.47536122835266E-15,1.10789863508594E-16));
#683=DIRECTION('center_axis',(-1.,1.47536122835266E-15,-1.10789863508594E-16));
#684=DIRECTION('ref_axis',(-1.2193130784392E-15,-0.864229809530126,-0.503097243402825));
#685=DIRECTION('center_axis',(1.,-1.47536122835266E-15,1.10789863508594E-16));
#686=DIRECTION('ref_axis',(-1.2193130784392E-15,-0.864229809530126,-0.503097243402825));
#687=DIRECTION('',(-1.2193130784392E-15,-0.864229809530126,-0.503097243402825));
#688=DIRECTION('',(-8.37998069645532E-16,-0.503097243402825,0.864229809530126));
#689=DIRECTION('center_axis',(1.,-1.47536122835266E-15,1.10789863508594E-16));
#690=DIRECTION('ref_axis',(-1.2193130784392E-15,-0.864229809530126,-0.503097243402825));
#691=DIRECTION('',(1.2193130784392E-15,0.864229809530126,0.503097243402825));
#692=DIRECTION('',(8.37998069645532E-16,0.503097243402825,-0.864229809530126));
#693=DIRECTION('',(-1.2193130784392E-15,-0.864229809530126,-0.503097243402825));
#694=DIRECTION('center_axis',(1.,-1.47536122835266E-15,1.10789863508594E-16));
#695=DIRECTION('ref_axis',(-1.2193130784392E-15,-0.864229809530126,-0.503097243402825));
#696=DIRECTION('',(-8.37998069645532E-16,-0.503097243402825,0.864229809530126));
#697=DIRECTION('',(1.2193130784392E-15,0.864229809530126,0.503097243402825));
#698=DIRECTION('center_axis',(-1.2193130784392E-15,-0.864229809530126,-0.503097243402825));
#699=DIRECTION('ref_axis',(8.37998069645532E-16,0.503097243402825,-0.864229809530126));
#700=DIRECTION('',(8.37998069645532E-16,0.503097243402825,-0.864229809530126));
#701=DIRECTION('',(1.,-1.47536122835266E-15,1.10789863508594E-16));
#702=DIRECTION('',(1.,-1.47536122835266E-15,1.10789863508594E-16));
#703=DIRECTION('center_axis',(-8.37998069645532E-16,-0.503097243402825,
0.864229809530126));
#704=DIRECTION('ref_axis',(-1.2193130784392E-15,-0.864229809530126,-0.503097243402825));
#705=DIRECTION('',(-1.33617865997869E-15,-0.864229809530126,-0.503097243402825));
#706=DIRECTION('',(1.,-1.47536122835266E-15,1.10789863508594E-16));
#707=DIRECTION('center_axis',(1.2193130784392E-15,0.864229809530126,0.503097243402825));
#708=DIRECTION('ref_axis',(-8.37998069645532E-16,-0.503097243402825,0.864229809530126));
#709=DIRECTION('',(-8.37998069645532E-16,-0.503097243402825,0.864229809530126));
#710=DIRECTION('',(1.,-1.47536122835266E-15,1.10789863508594E-16));
#711=DIRECTION('center_axis',(8.37998069645532E-16,0.503097243402825,-0.864229809530126));
#712=DIRECTION('ref_axis',(1.2193130784392E-15,0.864229809530126,0.503097243402825));
#713=DIRECTION('',(1.33617865997869E-15,0.864229809530126,0.503097243402825));
#714=DIRECTION('center_axis',(1.2193130784392E-15,0.864229809530126,0.503097243402825));
#715=DIRECTION('ref_axis',(-0.707106781186547,0.355743472406398,-0.611102758822311));
#716=DIRECTION('',(-1.2193130784392E-15,-0.864229809530126,-0.503097243402825));
#717=DIRECTION('center_axis',(1.2193130784392E-15,0.864229809530126,0.503097243402825));
#718=DIRECTION('ref_axis',(-0.707106781186547,0.355743472406398,-0.611102758822311));
#719=DIRECTION('',(1.2193130784392E-15,0.864229809530126,0.503097243402825));
#720=DIRECTION('center_axis',(-1.28275439413207E-15,-0.864229809530126,
-0.503097243402825));
#721=DIRECTION('ref_axis',(-0.707106781186547,0.355743472406398,-0.611102758822311));
#722=DIRECTION('',(1.2193130784392E-15,0.864229809530126,0.503097243402825));
#723=DIRECTION('center_axis',(-1.2193130784392E-15,-0.864229809530126,-0.503097243402825));
#724=DIRECTION('ref_axis',(8.37998069645532E-16,0.503097243402825,-0.864229809530126));
#725=DIRECTION('',(-1.,1.63494698356731E-15,-3.84929244396526E-16));
#726=DIRECTION('',(8.37998069645532E-16,0.503097243402825,-0.864229809530126));
#727=DIRECTION('',(1.,-1.47536122835266E-15,1.10789863508594E-16));
#728=DIRECTION('center_axis',(1.2193130784392E-15,0.864229809530126,0.503097243402825));
#729=DIRECTION('ref_axis',(-0.707106781186548,-0.355743472406396,0.611102758822311));
#730=DIRECTION('',(-7.03425581812179E-16,-0.503097243402825,0.864229809530126));
#731=DIRECTION('center_axis',(1.15520464810986E-15,0.503097243402825,-0.864229809530126));
#732=DIRECTION('ref_axis',(-1.,1.63494698356731E-15,-3.84929244396526E-16));
#733=DIRECTION('',(-1.,1.63494698356731E-15,-3.84929244396526E-16));
#734=DIRECTION('',(1.2193130784392E-15,0.864229809530126,0.503097243402825));
#735=DIRECTION('center_axis',(1.2193130784392E-15,0.864229809530126,0.503097243402825));
#736=DIRECTION('ref_axis',(-0.707106781186548,-0.355743472406396,0.611102758822311));
#737=DIRECTION('center_axis',(-1.28275439413207E-15,-0.864229809530126,
-0.503097243402825));
#738=DIRECTION('ref_axis',(-0.707106781186548,-0.355743472406396,0.611102758822311));
#739=DIRECTION('',(-1.2193130784392E-15,-0.864229809530126,-0.503097243402825));
#740=DIRECTION('',(1.2193130784392E-15,0.864229809530126,0.503097243402825));
#741=DIRECTION('',(-1.2193130784392E-15,-0.864229809530126,-0.503097243402825));
#742=DIRECTION('center_axis',(-1.,1.40765818068584E-15,5.51169201961899E-18));
#743=DIRECTION('ref_axis',(-7.03425581812179E-16,-0.503097243402825,0.864229809530126));
#744=DIRECTION('',(7.03425581812179E-16,0.503097243402825,-0.864229809530126));
#745=DIRECTION('center_axis',(-1.28275439413207E-15,-0.864229809530126,
-0.503097243402825));
#746=DIRECTION('ref_axis',(-1.,1.53018910453025E-15,-7.8872712465665E-17));
#747=DIRECTION('',(1.,-1.53018910453025E-15,7.8872712465665E-17));
#748=DIRECTION('',(8.37998069645532E-16,0.503097243402825,-0.864229809530126));
#749=DIRECTION('',(-1.,1.53018910453025E-15,-7.8872712465665E-17));
#750=DIRECTION('center_axis',(1.,-1.47536122835266E-15,1.10789863508594E-16));
#751=DIRECTION('ref_axis',(8.37998069645532E-16,0.503097243402825,-0.864229809530126));
#752=DIRECTION('center_axis',(-1.,1.47536122835266E-15,-1.10789863508594E-16));
#753=DIRECTION('ref_axis',(1.64505290123761E-15,0.966846231228708,-0.255359286415914));
#754=DIRECTION('',(1.2193130784392E-15,0.864229809530126,0.503097243402825));
#755=DIRECTION('center_axis',(1.,-1.47536122835266E-15,1.10789863508594E-16));
#756=DIRECTION('ref_axis',(2.69630428486214E-16,0.255359286415914,0.966846231228708));
#757=DIRECTION('',(1.,-1.47536122835266E-15,1.10789863508594E-16));
#758=DIRECTION('center_axis',(-8.37998069645532E-16,-0.503097243402825,
0.864229809530126));
#759=DIRECTION('ref_axis',(1.,-1.47536122835266E-15,1.10789863508594E-16));
#760=DIRECTION('center_axis',(-1.,1.47536122835266E-15,-1.10789863508594E-16));
#761=DIRECTION('ref_axis',(2.69630428486214E-16,0.255359286415914,0.966846231228707));
#762=DIRECTION('center_axis',(-1.,1.57635994762716E-15,-5.19951115874086E-17));
#763=DIRECTION('ref_axis',(2.69630428486214E-16,0.255359286415914,0.966846231228707));
#764=DIRECTION('',(-1.,1.47536122835266E-15,-1.10789863508594E-16));
#765=DIRECTION('',(1.,-1.47536122835266E-15,1.10789863508594E-16));
#766=DIRECTION('center_axis',(1.,-1.57635994762716E-15,5.19951115874086E-17));
#767=DIRECTION('ref_axis',(-1.33617865997869E-15,-0.864229809530126,-0.503097243402825));
#768=DIRECTION('',(8.37998069645532E-16,0.503097243402825,-0.864229809530126));
#769=DIRECTION('center_axis',(-1.,1.57635994762716E-15,-5.19951115874086E-17));
#770=DIRECTION('ref_axis',(1.4547386638214E-15,0.966846231228707,-0.255359286415914));
#771=DIRECTION('',(-1.33617865997869E-15,-0.864229809530126,-0.503097243402825));
#772=DIRECTION('',(1.33617865997869E-15,0.864229809530126,0.503097243402825));
#773=DIRECTION('center_axis',(1.2193130784392E-15,0.864229809530126,0.503097243402825));
#774=DIRECTION('ref_axis',(1.,-1.47536122835266E-15,1.10789863508594E-16));
#775=DIRECTION('',(-1.,1.47536122835266E-15,-1.10789863508594E-16));
#776=DIRECTION('center_axis',(1.,-1.47536122835266E-15,1.10789863508594E-16));
#777=DIRECTION('ref_axis',(1.4547386638214E-15,0.966846231228707,-0.255359286415914));
#778=DIRECTION('',(1.,-1.47536122835266E-15,1.10789863508594E-16));
#779=DIRECTION('center_axis',(-8.37998069645532E-16,-0.503097243402825,
0.864229809530126));
#780=DIRECTION('ref_axis',(-1.2193130784392E-15,-0.864229809530126,-0.503097243402825));
#781=DIRECTION('center_axis',(-8.37998069645532E-16,-0.503097243402825,
0.864229809530126));
#782=DIRECTION('ref_axis',(-1.2193130784392E-15,-0.864229809530126,-0.503097243402825));
#783=CARTESIAN_POINT('',(0.,0.,0.));
#784=CARTESIAN_POINT('Origin',(80.3454544243436,-72.969371359183,112.584655110064));
#785=CARTESIAN_POINT('',(80.3454544243436,-74.22711446769,114.74522963389));
#786=CARTESIAN_POINT('Origin',(80.3454544243436,-72.969371359183,112.584655110064));
#787=CARTESIAN_POINT('',(80.3454544243436,-72.0665399438647,116.002972742397));
#788=CARTESIAN_POINT('',(80.3454544243436,-74.22711446769,114.74522963389));
#789=CARTESIAN_POINT('Origin',(80.3454544243436,-70.8087968353576,113.842398218572));
#790=CARTESIAN_POINT('Origin',(80.3454544243436,-75.2333089544957,116.47368925295));
#791=CARTESIAN_POINT('',(80.3454544243436,-75.8873353709194,117.597188005339));
#792=CARTESIAN_POINT('Origin',(80.3454544243436,-75.2333089544957,116.47368925295));
#793=CARTESIAN_POINT('',(80.3454544243436,-73.726760847094,118.854931113846));
#794=CARTESIAN_POINT('',(80.3454544243436,-75.8873353709194,117.597188005339));
#795=CARTESIAN_POINT('Origin',(80.3454544243436,-73.0727344306704,117.731432361457));
#796=CARTESIAN_POINT('Origin',(80.3454544243436,-70.7054337638702,108.695620967179));
#797=CARTESIAN_POINT('',(80.3454544243436,-71.3594601802939,109.819119719568));
#798=CARTESIAN_POINT('Origin',(80.3454544243436,-70.7054337638702,108.695620967179));
#799=CARTESIAN_POINT('',(80.3454544243436,-69.1988856564686,111.076862828075));
#800=CARTESIAN_POINT('',(80.3454544243436,-71.3594601802939,109.819119719568));
#801=CARTESIAN_POINT('Origin',(80.3454544243436,-68.5448592400449,109.953364075686));
#802=CARTESIAN_POINT('Origin',(83.8454544243436,-64.6635454183169,111.634257593213));
#803=CARTESIAN_POINT('',(83.8454544243436,-63.7993156087868,112.137354836616));
#804=CARTESIAN_POINT('Origin',(83.8454544243436,-64.6635454183169,111.634257593213));
#805=CARTESIAN_POINT('',(91.8454544243436,-63.7993156087868,112.137354836616));
#806=CARTESIAN_POINT('',(83.8454544243436,-63.7993156087868,112.137354836616));
#807=CARTESIAN_POINT('Origin',(91.8454544243436,-64.663545418317,111.634257593213));
#808=CARTESIAN_POINT('Origin',(91.8454544243436,-64.663545418317,111.634257593213));
#809=CARTESIAN_POINT('Origin',(83.8454544243436,-40.8108026752855,125.519741511131));
#810=CARTESIAN_POINT('',(83.8454544243436,-39.9465728657553,126.022838754534));
#811=CARTESIAN_POINT('Origin',(83.8454544243436,-40.8108026752855,125.519741511131));
#812=CARTESIAN_POINT('',(91.8454544243436,-39.9465728657553,126.022838754534));
#813=CARTESIAN_POINT('',(83.8454544243436,-39.9465728657554,126.022838754534));
#814=CARTESIAN_POINT('Origin',(91.8454544243436,-40.8108026752855,125.519741511131));
#815=CARTESIAN_POINT('Origin',(91.8454544243436,-40.8108026752855,125.519741511131));
#816=CARTESIAN_POINT('Origin',(92.8454544243436,-48.4160249991506,121.092485769186));
#817=CARTESIAN_POINT('',(92.8454544243436,-45.1458929170323,115.47499200724));
#818=CARTESIAN_POINT('',(92.8454544243436,-42.7985312372047,124.362617851304));
#819=CARTESIAN_POINT('Origin',(92.8454544243436,-48.4160249991506,121.092485769186));
#820=CARTESIAN_POINT('',(92.8454544243436,-51.686157081269,126.709979531132));
#821=CARTESIAN_POINT('Origin',(92.8454544243436,-48.4160249991506,121.092485769186));
#822=CARTESIAN_POINT('Origin',(92.8454544243436,-48.4160249991506,121.092485769186));
#823=CARTESIAN_POINT('',(94.3454544243436,-42.7985312372047,124.362617851304));
#824=CARTESIAN_POINT('',(92.8454544243436,-42.7985312372048,124.362617851304));
#825=CARTESIAN_POINT('Origin',(94.3454544243436,-48.4160249991507,121.092485769186));
#826=CARTESIAN_POINT('Origin',(92.8454544243436,-52.7371740468013,118.576999552172));
#827=CARTESIAN_POINT('',(92.8454544243436,-46.0686633193231,129.98011161325));
#828=CARTESIAN_POINT('',(92.8454544243436,-46.0686633193231,129.98011161325));
#829=CARTESIAN_POINT('',(92.8454544243436,-39.5283991550864,118.745124089358));
#830=CARTESIAN_POINT('Origin',(92.8454544243436,-52.7371740468013,118.576999552172));
#831=CARTESIAN_POINT('',(92.8454544243436,-59.4056847742793,107.173887491093));
#832=CARTESIAN_POINT('',(92.8454544243436,-59.4056847742793,107.173887491093));
#833=CARTESIAN_POINT('',(92.8454544243436,-65.9459489385161,118.408875014985));
#834=CARTESIAN_POINT('',(92.8454544243436,-65.9459489385161,118.408875014985));
#835=CARTESIAN_POINT('',(92.8454544243436,-46.0686633193231,129.98011161325));
#836=CARTESIAN_POINT('Origin',(92.8454544243436,-52.7371740468013,118.576999552172));
#837=CARTESIAN_POINT('',(92.8454544243436,-39.5283991550864,118.745124089358));
#838=CARTESIAN_POINT('',(92.8454544243436,-39.5283991550864,118.745124089358));
#839=CARTESIAN_POINT('',(92.8454544243436,-59.4056847742793,107.173887491093));
#840=CARTESIAN_POINT('Origin',(83.8454544243436,-65.9459489385161,118.408875014985));
#841=CARTESIAN_POINT('',(83.8454544243436,-65.9459489385161,118.408875014985));
#842=CARTESIAN_POINT('',(83.8454544243436,-59.4056847742793,107.173887491093));
#843=CARTESIAN_POINT('',(83.8454544243436,-67.706789290426,121.433679348341));
#844=CARTESIAN_POINT('',(83.8454544243436,-65.9459489385161,118.408875014985));
#845=CARTESIAN_POINT('',(83.8454544243436,-59.4056847742793,107.173887491093));
#846=CARTESIAN_POINT('Origin',(83.8454544243436,-46.0686633193231,129.98011161325));
#847=CARTESIAN_POINT('',(83.8454544243436,-46.0686633193231,129.98011161325));
#848=CARTESIAN_POINT('',(83.8454544243436,-42.3956866288201,132.118274897712));
#849=CARTESIAN_POINT('',(83.8454544243436,-46.0686633193231,129.98011161325));
#850=CARTESIAN_POINT('Origin',(83.8454544243436,-39.5283991550864,118.745124089358));
#851=CARTESIAN_POINT('',(83.8454544243436,-39.5283991550864,118.745124089358));
#852=CARTESIAN_POINT('',(83.8454544243436,-44.5593715891146,127.38742218466));
#853=CARTESIAN_POINT('',(83.8454544243436,-39.5283991550864,118.745124089358));
#854=CARTESIAN_POINT('Origin',(83.8454544243436,-59.4056847742793,107.173887491093));
#855=CARTESIAN_POINT('',(83.8454544243436,-45.7940652741798,115.097669074688));
#856=CARTESIAN_POINT('Origin',(72.3454544243436,-65.1713640864391,99.1890930623475));
#857=CARTESIAN_POINT('',(67.1493020037288,-58.1360946882184,99.8132611183069));
#858=CARTESIAN_POINT('',(72.3454544246,-46.6450684815663,103.031275098492));
#859=CARTESIAN_POINT('Ctrl Pts',(67.1493020036169,-58.1360946890184,99.8132611147115));
#860=CARTESIAN_POINT('Ctrl Pts',(67.2546300328872,-57.8778251713253,99.7525147543175));
#861=CARTESIAN_POINT('Ctrl Pts',(67.3650136125464,-57.6151913608996,99.7098258816179));
#862=CARTESIAN_POINT('Ctrl Pts',(67.9226088509885,-56.3124810519926,99.572774644763));
#863=CARTESIAN_POINT('Ctrl Pts',(68.4285040323124,-55.1986888438809,99.6923612995767));
#864=CARTESIAN_POINT('Ctrl Pts',(69.9549668911821,-51.8507208953852,100.40574436059));
#865=CARTESIAN_POINT('Ctrl Pts',(71.1607272110434,-49.2275601970413,101.527919800123));
#866=CARTESIAN_POINT('Ctrl Pts',(72.3454544243436,-46.6450684826844,103.031275097841));
#867=CARTESIAN_POINT('',(72.3454544243436,-62.1527806260222,94.0037142051668));
#868=CARTESIAN_POINT('',(72.3454544243436,-62.1527806260222,94.0037142051668));
#869=CARTESIAN_POINT('',(66.3454544243436,-65.1713640864391,99.1890930623475));
#870=CARTESIAN_POINT('Origin',(72.3454544243436,-65.1713640864391,99.1890930623475));
#871=CARTESIAN_POINT('',(66.3454544243436,-63.0107895626138,100.446836170855));
#872=CARTESIAN_POINT('',(66.3454544243436,-65.1713640864391,99.1890930623475));
#873=CARTESIAN_POINT('',(67.149302001637,-61.5014978324053,97.8541467422642));
#874=CARTESIAN_POINT('Origin',(72.3454544243436,-63.0107895626138,100.446836170855));
#875=CARTESIAN_POINT('',(67.1493020016369,-63.6620723562307,96.5964036337571));
#876=CARTESIAN_POINT('Origin',(80.3454544243436,-70.4538851421688,108.263506062414));
#877=CARTESIAN_POINT('',(94.3454544243436,-62.1527806260222,94.0037142051668));
#878=CARTESIAN_POINT('',(94.3454544243436,-62.1527806260222,94.0037142051668));
#879=CARTESIAN_POINT('',(94.3454544243436,-78.7549896583155,122.523297919661));
#880=CARTESIAN_POINT('',(94.3454544243436,-78.7549896583155,122.523297919661));
#881=CARTESIAN_POINT('',(72.3454544243436,-78.7549896583154,122.523297919661));
#882=CARTESIAN_POINT('',(66.3454544243436,-78.7549896583154,122.523297919661));
#883=CARTESIAN_POINT('',(66.3454544243436,-75.7364061978985,117.33791906248));
#884=CARTESIAN_POINT('Origin',(72.3454544243436,-75.7364061978985,117.33791906248));
#885=CARTESIAN_POINT('',(66.3454544243436,-62.1527806260222,94.0037142051668));
#886=CARTESIAN_POINT('Origin',(94.3454544243436,-62.1527806260222,94.0037142051668));
#887=CARTESIAN_POINT('',(76.660875910733,-36.6580012448532,108.845082885568));
#888=CARTESIAN_POINT('Ctrl Pts',(72.3454544248216,-46.6450684816423,103.031275098448));
#889=CARTESIAN_POINT('Ctrl Pts',(72.5120620937929,-46.2818938032492,103.242691295342));
#890=CARTESIAN_POINT('Ctrl Pts',(72.6827693367731,-45.9065940584546,103.461165901256));
#891=CARTESIAN_POINT('Ctrl Pts',(72.8578874141504,-45.5182486509074,103.687234826292));
#892=CARTESIAN_POINT('Ctrl Pts',(73.0409263937063,-45.1123376897021,103.92352925099));
#893=CARTESIAN_POINT('Ctrl Pts',(73.2287842578502,-44.6921741999454,104.168120551989));
#894=CARTESIAN_POINT('Ctrl Pts',(73.4218332821495,-44.2566571243167,104.421649691793));
#895=CARTESIAN_POINT('Ctrl Pts',(73.6391842158826,-43.7663151327518,104.707094259385));
#896=CARTESIAN_POINT('Ctrl Pts',(73.8631158073148,-43.2565099210101,105.003869022152));
#897=CARTESIAN_POINT('Ctrl Pts',(74.094178851582,-42.725612435053,105.31292230725));
#898=CARTESIAN_POINT('Ctrl Pts',(74.4789598602309,-41.8415278737006,105.82757766957));
#899=CARTESIAN_POINT('Ctrl Pts',(74.8835190642164,-40.8989465194539,106.37628598277));
#900=CARTESIAN_POINT('Ctrl Pts',(75.3104457821856,-39.8902100984378,106.963505385684));
#901=CARTESIAN_POINT('Ctrl Pts',(75.5514966291728,-39.3206585608124,107.295060494517));
#902=CARTESIAN_POINT('Ctrl Pts',(75.7996786552959,-38.7300155584749,107.638893654441));
#903=CARTESIAN_POINT('Ctrl Pts',(76.0554506094415,-38.116924277108,107.995794712711));
#904=CARTESIAN_POINT('Ctrl Pts',(76.2526780215989,-37.6441656150252,108.271003432736));
#905=CARTESIAN_POINT('Ctrl Pts',(76.4544183732365,-37.1580593000531,108.553982270502));
#906=CARTESIAN_POINT('Ctrl Pts',(76.6608759107219,-36.6580012448498,108.84508288557));
#907=CARTESIAN_POINT('',(94.3454544243436,-36.6580012448835,108.84508288555));
#908=CARTESIAN_POINT('',(87.3454544243436,-36.6580012448835,108.84508288555));
#909=CARTESIAN_POINT('',(94.3454544243436,-62.1527806260222,94.0037142051668));
#910=CARTESIAN_POINT('Ctrl Pts',(82.3454544243436,-39.0004184199296,145.665771116191));
#911=CARTESIAN_POINT('Ctrl Pts',(82.3454544243437,16.3402783543812,50.600492067877));
#912=CARTESIAN_POINT('Ctrl Pts',(81.104646638733,-42.194728788005,143.806255599565));
#913=CARTESIAN_POINT('Ctrl Pts',(81.1046466387331,13.1459679863058,48.7409765512513));
#914=CARTESIAN_POINT('Ctrl Pts',(78.7983815878576,-48.064725711517,140.389132933306));
#915=CARTESIAN_POINT('Ctrl Pts',(78.7983815878577,7.27597106279382,45.3238538849924));
#916=CARTESIAN_POINT('Ctrl Pts',(75.8645623433538,-55.3152493008303,136.168359256229));
#917=CARTESIAN_POINT('Ctrl Pts',(75.8645623433539,0.0254474734804955,41.1030802079147));
#918=CARTESIAN_POINT('Ctrl Pts',(72.8589547274006,-62.302544013819,132.100819962648));
#919=CARTESIAN_POINT('Ctrl Pts',(72.8589547274007,-6.96184723950819,37.0355409143337));
#920=CARTESIAN_POINT('Ctrl Pts',(70.1072427249071,-68.0633536842829,128.747258869268));
#921=CARTESIAN_POINT('Ctrl Pts',(70.1072427249072,-12.7226569099721,33.6819798209545));
#922=CARTESIAN_POINT('Ctrl Pts',(68.3992359323197,-71.2128115606781,126.913853496814));
#923=CARTESIAN_POINT('Ctrl Pts',(68.3992359323198,-15.8721147863673,31.8485744485002));
#924=CARTESIAN_POINT('Ctrl Pts',(67.3045805757319,-73.0237494234138,125.859645649932));
#925=CARTESIAN_POINT('Ctrl Pts',(67.304580575732,-17.683052649103,30.794366601618));
#926=CARTESIAN_POINT('Ctrl Pts',(66.6522509448995,-74.0019998513257,125.290173169102));
#927=CARTESIAN_POINT('Ctrl Pts',(66.6522509448996,-18.6613030770149,30.2248941207883));
#928=CARTESIAN_POINT('Ctrl Pts',(66.3454544243436,-74.4338406106648,125.038784136675));
#929=CARTESIAN_POINT('Ctrl Pts',(66.3454544243437,-19.093143836354,29.9735050883612));
#930=CARTESIAN_POINT('',(76.1232342945549,-39.4636376910313,110.683126448079));
#931=CARTESIAN_POINT('Ctrl Pts',(67.1493020049839,-58.1360946885829,99.813261118933));
#932=CARTESIAN_POINT('Ctrl Pts',(67.2421187762037,-57.9893829970023,99.8986669297431));
#933=CARTESIAN_POINT('Ctrl Pts',(67.3366620910829,-57.8375648098518,99.9870454033986));
#934=CARTESIAN_POINT('Ctrl Pts',(67.4329736703221,-57.6805167322946,100.078468372185));
#935=CARTESIAN_POINT('Ctrl Pts',(67.527082576479,-57.5270603887304,100.167800471794));
#936=CARTESIAN_POINT('Ctrl Pts',(67.6228797549396,-57.3686107425103,100.260039340845));
#937=CARTESIAN_POINT('Ctrl Pts',(67.7204180879512,-57.2050113869545,100.355276028928));
#938=CARTESIAN_POINT('Ctrl Pts',(67.8159571555122,-57.0447653646904,100.448560628902));
#939=CARTESIAN_POINT('Ctrl Pts',(67.9131666996175,-56.8795786732305,100.54472135861));
#940=CARTESIAN_POINT('Ctrl Pts',(68.0121104639268,-56.709262781741,100.643867968194));
#941=CARTESIAN_POINT('Ctrl Pts',(68.1096857660478,-56.5413024794003,100.741643310096));
#942=CARTESIAN_POINT('Ctrl Pts',(68.2089476206866,-56.3683539609131,100.842322460413));
#943=CARTESIAN_POINT('Ctrl Pts',(68.30997147642,-56.1901940765065,100.946035322132));
#944=CARTESIAN_POINT('Ctrl Pts',(68.4104516427139,-56.0129930116482,101.04919002274));
#945=CARTESIAN_POINT('Ctrl Pts',(68.5126748874512,-55.830636547272,101.155345854826));
#946=CARTESIAN_POINT('Ctrl Pts',(68.6167299319138,-55.6428622777153,101.264655573554));
#947=CARTESIAN_POINT('Ctrl Pts',(68.7255390441919,-55.4465089756275,101.378959435703));
#948=CARTESIAN_POINT('Ctrl Pts',(68.8363510121297,-55.2442319463878,101.496711698691));
#949=CARTESIAN_POINT('Ctrl Pts',(68.9492845503178,-55.0356800749076,101.618116758423));
#950=CARTESIAN_POINT('Ctrl Pts',(69.0558921677721,-54.8388101415749,101.732721368998));
#951=CARTESIAN_POINT('Ctrl Pts',(69.1643904589578,-54.6363482749124,101.850581232068));
#952=CARTESIAN_POINT('Ctrl Pts',(69.2748940330123,-54.4279555022865,101.971893675005));
#953=CARTESIAN_POINT('Ctrl Pts',(69.3848808457098,-54.2205372622302,102.092638809752));
#954=CARTESIAN_POINT('Ctrl Pts',(69.4968542219374,-54.0072434812858,102.216804294493));
#955=CARTESIAN_POINT('Ctrl Pts',(69.6109415548337,-53.7876973763386,102.344609467354));
#956=CARTESIAN_POINT('Ctrl Pts',(69.7245075853827,-53.5691544493686,102.471830656569));
#957=CARTESIAN_POINT('Ctrl Pts',(69.8401682901231,-53.3444162290327,102.602658334453));
#958=CARTESIAN_POINT('Ctrl Pts',(69.9580637301158,-53.1130684650554,102.737333650024));
#959=CARTESIAN_POINT('Ctrl Pts',(70.0757314930771,-52.8821674746949,102.871748883644));
#960=CARTESIAN_POINT('Ctrl Pts',(70.1956253543603,-52.6446824856287,103.009996884385));
#961=CARTESIAN_POINT('Ctrl Pts',(70.3178991214952,-52.4001585904667,103.152342469142));
#962=CARTESIAN_POINT('Ctrl Pts',(70.4414154223523,-52.1531498680785,103.296134555413));
#963=CARTESIAN_POINT('Ctrl Pts',(70.5673602507308,-51.8989584341718,103.444107939674));
#964=CARTESIAN_POINT('Ctrl Pts',(70.6959072361089,-51.6370707551582,103.5965615671));
#965=CARTESIAN_POINT('Ctrl Pts',(70.8262903062359,-51.3714424363161,103.7511927468));
#966=CARTESIAN_POINT('Ctrl Pts',(70.9593504241557,-51.0978963723186,103.910433112295));
#967=CARTESIAN_POINT('Ctrl Pts',(71.0952838973606,-50.815851956163,104.074620654451));
#968=CARTESIAN_POINT('Ctrl Pts',(71.2333072054164,-50.5294714023622,104.241332408191));
#969=CARTESIAN_POINT('Ctrl Pts',(71.3742929243865,-50.2343291018616,104.413144669416));
#970=CARTESIAN_POINT('Ctrl Pts',(71.5184616562007,-49.9297725934441,104.590437257748));
#971=CARTESIAN_POINT('Ctrl Pts',(71.6650299575583,-49.6201469933263,104.770680734875));
#972=CARTESIAN_POINT('Ctrl Pts',(71.8148881400727,-49.3007911072349,104.956588538778));
#973=CARTESIAN_POINT('Ctrl Pts',(71.9682830701581,-48.9709747930474,105.148585709747));
#974=CARTESIAN_POINT('Ctrl Pts',(72.1259485158582,-48.6319763910366,105.345928082908));
#975=CARTESIAN_POINT('Ctrl Pts',(72.2873503858339,-48.2819269890081,105.549703614918));
#976=CARTESIAN_POINT('Ctrl Pts',(72.4527722716219,-47.9199878251281,105.760400577253));
#977=CARTESIAN_POINT('Ctrl Pts',(72.6215078587892,-47.5507983611995,105.975318183135));
#978=CARTESIAN_POINT('Ctrl Pts',(72.7944261692075,-47.1692379052978,106.197437359584));
#979=CARTESIAN_POINT('Ctrl Pts',(72.9718437256833,-46.7743702967299,106.427303077231));
#980=CARTESIAN_POINT('Ctrl Pts',(73.1583030780146,-46.3593789057273,106.668883525564));
#981=CARTESIAN_POINT('Ctrl Pts',(73.3497319966745,-45.9296893237447,106.91902028529));
#982=CARTESIAN_POINT('Ctrl Pts',(73.5465146793624,-45.4841652320799,107.178374845749));
#983=CARTESIAN_POINT('Ctrl Pts',(73.7763235311926,-44.9638685343744,107.481257055412));
#984=CARTESIAN_POINT('Ctrl Pts',(74.0134342650364,-44.4219754942007,107.796711222491));
#985=CARTESIAN_POINT('Ctrl Pts',(74.2584791841822,-43.8566159857016,108.125826010157));
#986=CARTESIAN_POINT('Ctrl Pts',(74.5460380815795,-43.1931696369107,108.512040447036));
#987=CARTESIAN_POINT('Ctrl Pts',(74.8445244042047,-42.4974038919589,108.917069091593));
#988=CARTESIAN_POINT('Ctrl Pts',(75.1549733985128,-41.7662568639335,109.342694371195));
#989=CARTESIAN_POINT('Ctrl Pts',(75.4113166835083,-41.1625356910028,109.694140774149));
#990=CARTESIAN_POINT('Ctrl Pts',(75.6758170763417,-40.5346887250115,110.059631612797));
#991=CARTESIAN_POINT('Ctrl Pts',(75.949050201617,-39.8810134752782,110.440157964231));
#992=CARTESIAN_POINT('Ctrl Pts',(76.0067208055141,-39.7430439433381,110.520474669843));
#993=CARTESIAN_POINT('Ctrl Pts',(76.0647803971444,-39.6039239254982,110.601461111997));
#994=CARTESIAN_POINT('Ctrl Pts',(76.1232342949325,-39.4636376917692,110.68312644765));
#995=CARTESIAN_POINT('',(80.4862968866689,-34.9494806127959,127.774714610698));
#996=CARTESIAN_POINT('Ctrl Pts',(80.4862968866689,-34.9494806128028,127.77471461071));
#997=CARTESIAN_POINT('Ctrl Pts',(80.4862968866689,-34.8995302443833,127.688908938047));
#998=CARTESIAN_POINT('Ctrl Pts',(80.4858939918945,-34.8505671432974,127.602447954863));
#999=CARTESIAN_POINT('Ctrl Pts',(80.4728210301822,-34.0741149059735,126.192352484652));
#1000=CARTESIAN_POINT('Ctrl Pts',(80.3676347330751,-33.5943000995526,124.753642149722));
#1001=CARTESIAN_POINT('Ctrl Pts',(79.9850926161818,-33.1674682054473,121.79425621765));
#1002=CARTESIAN_POINT('Ctrl Pts',(79.7126515773816,-33.2222116356061,120.30535367637));
#1003=CARTESIAN_POINT('Ctrl Pts',(79.000592129415,-33.8651359634782,117.29886707807));
#1004=CARTESIAN_POINT('Ctrl Pts',(78.5543108394831,-34.4981683446805,115.822177737974));
#1005=CARTESIAN_POINT('Ctrl Pts',(77.7435750065501,-35.9359233391316,113.682808198668));
#1006=CARTESIAN_POINT('Ctrl Pts',(77.4110811985238,-36.5893741283988,112.926018020918));
#1007=CARTESIAN_POINT('Ctrl Pts',(76.7588808419304,-37.9789922654473,111.656563820542));
#1008=CARTESIAN_POINT('Ctrl Pts',(76.4425459416996,-38.6973067880422,111.129233444513));
#1009=CARTESIAN_POINT('Ctrl Pts',(76.123234294555,-39.4636376926754,110.683126447122));
#1010=CARTESIAN_POINT('',(80.4862968866689,-35.9556750996015,129.503174229758));
#1011=CARTESIAN_POINT('Ctrl Pts',(80.4862968866689,-34.9494806127959,127.774714610698));
#1012=CARTESIAN_POINT('Ctrl Pts',(80.4862968866689,-35.2848787750644,128.350867817052));
#1013=CARTESIAN_POINT('Ctrl Pts',(80.4862968866689,-35.620276937333,128.927021023405));
#1014=CARTESIAN_POINT('Ctrl Pts',(80.4862968866689,-35.9556750996015,129.503174229758));
#1015=CARTESIAN_POINT('',(76.1232342945549,-53.0472632629076,134.017331305393));
#1016=CARTESIAN_POINT('Ctrl Pts',(76.1232342945549,-53.0472632645517,134.017331304435));
#1017=CARTESIAN_POINT('Ctrl Pts',(76.296383390517,-52.6317146790726,134.259236114586));
#1018=CARTESIAN_POINT('Ctrl Pts',(76.4687346954271,-52.2021900336589,134.47717452862));
#1019=CARTESIAN_POINT('Ctrl Pts',(76.8150544211193,-51.3070505890683,134.868051764934));
#1020=CARTESIAN_POINT('Ctrl Pts',(76.9887483622366,-50.8412452236068,135.039358197056));
#1021=CARTESIAN_POINT('Ctrl Pts',(77.4840748366219,-49.4640109327627,135.454450665324));
#1022=CARTESIAN_POINT('Ctrl Pts',(77.7977171942864,-48.5302944259596,135.624708046659));
#1023=CARTESIAN_POINT('Ctrl Pts',(78.5790630066334,-46.0389177330495,135.789167209572));
#1024=CARTESIAN_POINT('Ctrl Pts',(79.0146108323806,-44.4746305882144,135.604858063546));
#1025=CARTESIAN_POINT('Ctrl Pts',(79.7473382262196,-41.4526287336216,134.644106539775));
#1026=CARTESIAN_POINT('Ctrl Pts',(80.0358642856982,-40.0258299071764,133.870687220101));
#1027=CARTESIAN_POINT('Ctrl Pts',(80.3980899795632,-37.6511269774534,131.900303843536));
#1028=CARTESIAN_POINT('Ctrl Pts',(80.4862968866683,-36.6952065612543,130.773555140457));
#1029=CARTESIAN_POINT('Ctrl Pts',(80.4862968866689,-35.9556750996085,129.50317422977));
#1030=CARTESIAN_POINT('',(67.1493020037287,-71.7197202608238,123.147465976873));
#1031=CARTESIAN_POINT('Ctrl Pts',(76.1232342949325,-53.0472632636456,134.017331304963));
#1032=CARTESIAN_POINT('Ctrl Pts',(75.848678462348,-53.7061826028004,133.633752192674));
#1033=CARTESIAN_POINT('Ctrl Pts',(75.5828229066296,-54.3393696501407,133.265152713042));
#1034=CARTESIAN_POINT('Ctrl Pts',(75.3251098365061,-54.9484741517591,132.910572493372));
#1035=CARTESIAN_POINT('Ctrl Pts',(74.9063054106022,-55.9383178604757,132.334351173807));
#1036=CARTESIAN_POINT('Ctrl Pts',(74.5090024219963,-56.8645680459641,131.795149783295));
#1037=CARTESIAN_POINT('Ctrl Pts',(74.1307651782033,-57.7344286111299,131.288774687627));
#1038=CARTESIAN_POINT('Ctrl Pts',(73.914804142119,-58.2310904073564,130.999651149154));
#1039=CARTESIAN_POINT('Ctrl Pts',(73.7050580915053,-58.7093705104244,130.721228212599));
#1040=CARTESIAN_POINT('Ctrl Pts',(73.5010806164679,-59.1705892403466,130.452737275268));
#1041=CARTESIAN_POINT('Ctrl Pts',(73.3129423121939,-59.5959936127218,130.205095080202));
#1042=CARTESIAN_POINT('Ctrl Pts',(73.1297112439426,-60.0068841447583,129.96590187982));
#1043=CARTESIAN_POINT('Ctrl Pts',(72.9510481770296,-60.404264170721,129.734573599493));
#1044=CARTESIAN_POINT('Ctrl Pts',(72.7770383058022,-60.7912946204991,129.509270155607));
#1045=CARTESIAN_POINT('Ctrl Pts',(72.6073615214066,-61.1655093568777,129.29142716959));
#1046=CARTESIAN_POINT('Ctrl Pts',(72.4417178433615,-61.5277956142982,129.080528152429));
#1047=CARTESIAN_POINT('Ctrl Pts',(72.2792524029512,-61.8831306144686,128.873675695943));
#1048=CARTESIAN_POINT('Ctrl Pts',(72.1206667520806,-62.2269905917003,128.67350323631));
#1049=CARTESIAN_POINT('Ctrl Pts',(71.9656915585165,-62.5601721339323,128.479547052895));
#1050=CARTESIAN_POINT('Ctrl Pts',(71.8134271608025,-62.8875257296314,128.2889835132));
#1051=CARTESIAN_POINT('Ctrl Pts',(71.6646479877974,-63.2045712833421,128.104420631492));
#1052=CARTESIAN_POINT('Ctrl Pts',(71.5191124323864,-63.5120233820685,127.925442422638));
#1053=CARTESIAN_POINT('Ctrl Pts',(71.3759160626467,-63.8145338186565,127.749340921545));
#1054=CARTESIAN_POINT('Ctrl Pts',(71.2358598516364,-64.1077567943957,127.578645963826));
#1055=CARTESIAN_POINT('Ctrl Pts',(71.0987276029735,-64.3923317404763,127.412985315077));
#1056=CARTESIAN_POINT('Ctrl Pts',(70.963634221707,-64.6726756571304,127.249787690883));
#1057=CARTESIAN_POINT('Ctrl Pts',(70.8313784772266,-64.9446268641081,127.091475745308));
#1058=CARTESIAN_POINT('Ctrl Pts',(70.7017677156191,-65.2087551624385,126.937717778006));
#1059=CARTESIAN_POINT('Ctrl Pts',(70.5739333054228,-65.4692635092335,126.786067106263));
#1060=CARTESIAN_POINT('Ctrl Pts',(70.4486718504375,-65.7221619793162,126.638846399738));
#1061=CARTESIAN_POINT('Ctrl Pts',(70.3258126415419,-65.9679554689089,126.495761741355));
#1062=CARTESIAN_POINT('Ctrl Pts',(70.2034843311577,-66.2126868370793,126.353295379581));
#1063=CARTESIAN_POINT('Ctrl Pts',(70.0835375279987,-66.4503745628662,126.214929358974));
#1064=CARTESIAN_POINT('Ctrl Pts',(69.9658182872079,-66.6814739598249,126.0803986262));
#1065=CARTESIAN_POINT('Ctrl Pts',(69.8475738173291,-66.9136044552233,125.945267656338));
#1066=CARTESIAN_POINT('Ctrl Pts',(69.7315768395027,-67.1390876769508,125.814006288085));
#1067=CARTESIAN_POINT('Ctrl Pts',(69.6176860924111,-67.3583414252106,125.686371305886));
#1068=CARTESIAN_POINT('Ctrl Pts',(69.4990757067177,-67.5866810604306,125.553447123253));
#1069=CARTESIAN_POINT('Ctrl Pts',(69.3827496444127,-67.808264488126,125.424455956288));
#1070=CARTESIAN_POINT('Ctrl Pts',(69.2685650606482,-68.0235141920141,125.299151863007));
#1071=CARTESIAN_POINT('Ctrl Pts',(69.1576210118645,-68.2326551536179,125.177403874098));
#1072=CARTESIAN_POINT('Ctrl Pts',(69.0486987115647,-68.4358165098865,125.059136814599));
#1073=CARTESIAN_POINT('Ctrl Pts',(68.941682247678,-68.6333410870636,124.944151113821));
#1074=CARTESIAN_POINT('Ctrl Pts',(68.834176469623,-68.8317688110153,124.828639660925));
#1075=CARTESIAN_POINT('Ctrl Pts',(68.7285940052568,-69.0245080643756,124.716439658111));
#1076=CARTESIAN_POINT('Ctrl Pts',(68.6248321703259,-69.2118625502583,124.60737430958));
#1077=CARTESIAN_POINT('Ctrl Pts',(68.5205848278652,-69.4000936784411,124.497798638078));
#1078=CARTESIAN_POINT('Ctrl Pts',(68.4181752018246,-69.5828895019867,124.39138704024));
#1079=CARTESIAN_POINT('Ctrl Pts',(68.3175139492676,-69.7605142651888,124.287985690574));
#1080=CARTESIAN_POINT('Ctrl Pts',(68.213024690481,-69.9448938489678,124.180652132629));
#1081=CARTESIAN_POINT('Ctrl Pts',(68.1104192332848,-70.1237018247406,124.076561995125));
#1082=CARTESIAN_POINT('Ctrl Pts',(68.0096141802945,-70.2971848519944,123.975571689275));
#1083=CARTESIAN_POINT('Ctrl Pts',(67.9099329849655,-70.4687337477392,123.875707306438));
#1084=CARTESIAN_POINT('Ctrl Pts',(67.8120123705817,-70.6350754778564,123.778874189874));
#1085=CARTESIAN_POINT('Ctrl Pts',(67.7157872815883,-70.7964024532946,123.684960330696));
#1086=CARTESIAN_POINT('Ctrl Pts',(67.6168523166171,-70.9622726939029,123.588401684035));
#1087=CARTESIAN_POINT('Ctrl Pts',(67.5197097377301,-71.1228417007145,123.494929063891));
#1088=CARTESIAN_POINT('Ctrl Pts',(67.424304615064,-71.2782719365217,123.404447895209));
#1089=CARTESIAN_POINT('Ctrl Pts',(67.330987322694,-71.4303007621511,123.31594680181));
#1090=CARTESIAN_POINT('Ctrl Pts',(67.2393324112422,-71.5774128625367,123.230307899565));
#1091=CARTESIAN_POINT('Ctrl Pts',(67.1493020049838,-71.7197202604592,123.147465976247));
#1092=CARTESIAN_POINT('',(72.3454544243436,-63.2472775149775,131.550858812336));
#1093=CARTESIAN_POINT('Ctrl Pts',(72.3454544243435,-63.2472775149777,131.550858812335));
#1094=CARTESIAN_POINT('Ctrl Pts',(71.0410056583272,-66.0907406280234,129.89558328479));
#1095=CARTESIAN_POINT('Ctrl Pts',(69.6922022880374,-68.5911676800259,127.950994711563));
#1096=CARTESIAN_POINT('Ctrl Pts',(68.1511753966779,-70.7283235633004,125.254430317708));
#1097=CARTESIAN_POINT('Ctrl Pts',(67.7204199901329,-71.2466400283301,124.447709360044));
#1098=CARTESIAN_POINT('Ctrl Pts',(67.2724959648043,-71.6275761256778,123.43941908564));
#1099=CARTESIAN_POINT('Ctrl Pts',(67.2102467202876,-71.6764940476241,123.294772093336));
#1100=CARTESIAN_POINT('Ctrl Pts',(67.1493020036169,-71.7197202643452,123.147465977952));
#1101=CARTESIAN_POINT('',(76.660875910708,-53.2602102771767,137.364666600044));
#1102=CARTESIAN_POINT('Ctrl Pts',(76.660875910708,-53.2602102771767,137.364666600044));
#1103=CARTESIAN_POINT('Ctrl Pts',(75.8384067945648,-55.2523017827354,136.205003123963));
#1104=CARTESIAN_POINT('Ctrl Pts',(74.8802092172945,-57.531026125796,134.878481031313));
#1105=CARTESIAN_POINT('Ctrl Pts',(74.0118062781664,-59.544170204275,133.70656214436));
#1106=CARTESIAN_POINT('Ctrl Pts',(73.2199138514049,-61.3310236874808,132.666374624962));
#1107=CARTESIAN_POINT('Ctrl Pts',(72.4930503163309,-62.9255450825228,131.73815008382));
#1108=CARTESIAN_POINT('Ctrl Pts',(72.3454544243436,-63.2472775149775,131.550858812336));
#1109=CARTESIAN_POINT('',(82.3454544243436,-30.699313903783,131.405979258944));
#1110=CARTESIAN_POINT('Ctrl Pts',(82.3454544243436,-30.699313903783,131.405979258944));
#1111=CARTESIAN_POINT('Ctrl Pts',(82.3454544243436,-30.8990380464173,131.74906910889));
#1112=CARTESIAN_POINT('Ctrl Pts',(82.3406450861735,-31.111433697355,132.085449045881));
#1113=CARTESIAN_POINT('Ctrl Pts',(82.2828223383147,-32.4565988610005,134.053866820705));
#1114=CARTESIAN_POINT('Ctrl Pts',(82.1154054032128,-33.8583211232493,135.469917605217));
#1115=CARTESIAN_POINT('Ctrl Pts',(81.5637572903246,-37.0661371327492,137.725708303392));
#1116=CARTESIAN_POINT('Ctrl Pts',(81.1867023823872,-38.8366486509301,138.546776728974));
#1117=CARTESIAN_POINT('Ctrl Pts',(80.2397573808473,-42.6557211031473,139.569367845913));
#1118=CARTESIAN_POINT('Ctrl Pts',(79.6681454062648,-44.6809583031594,139.722823487113));
#1119=CARTESIAN_POINT('Ctrl Pts',(78.6507782931194,-47.8933165300792,139.388690661223));
#1120=CARTESIAN_POINT('Ctrl Pts',(78.2428533415024,-49.0970606554188,139.12437161148));
#1121=CARTESIAN_POINT('Ctrl Pts',(77.4424626409533,-51.3025534680028,138.376817347588));
#1122=CARTESIAN_POINT('Ctrl Pts',(77.0536566436663,-52.3088612887277,137.918478848042));
#1123=CARTESIAN_POINT('Ctrl Pts',(76.660875910708,-53.2602102771767,137.364666600044));
#1124=CARTESIAN_POINT('Ctrl Pts',(76.6608759107219,-36.6580012448498,108.84508288557));
#1125=CARTESIAN_POINT('Ctrl Pts',(76.7485759806268,-36.4455840721376,108.968738067172));
#1126=CARTESIAN_POINT('Ctrl Pts',(76.8361301651017,-36.2358273501493,109.097199248181));
#1127=CARTESIAN_POINT('Ctrl Pts',(77.3118787283279,-35.1088246049225,109.822585984251));
#1128=CARTESIAN_POINT('Ctrl Pts',(77.6949926140841,-34.2476951485072,110.506280516687));
#1129=CARTESIAN_POINT('Ctrl Pts',(78.5128503834061,-32.5188058848847,112.186598148899));
#1130=CARTESIAN_POINT('Ctrl Pts',(78.9413218649048,-31.685998906738,113.214033991413));
#1131=CARTESIAN_POINT('Ctrl Pts',(80.0173859160742,-29.8106759657118,116.203146482522));
#1132=CARTESIAN_POINT('Ctrl Pts',(80.6123670884959,-29.0125056353002,118.306543711454));
#1133=CARTESIAN_POINT('Ctrl Pts',(81.5433272844989,-28.3339245759191,122.602008378093));
#1134=CARTESIAN_POINT('Ctrl Pts',(81.8847896854384,-28.4018826355876,124.735242447486));
#1135=CARTESIAN_POINT('Ctrl Pts',(82.2617892985049,-29.2533095417178,128.426210793168));
#1136=CARTESIAN_POINT('Ctrl Pts',(82.3454544243436,-29.8660052053259,129.97450606526));
#1137=CARTESIAN_POINT('Ctrl Pts',(82.3454544243436,-30.699313903783,131.405979258944));
#1138=CARTESIAN_POINT('Origin',(72.3454544243436,-75.7364061978985,117.33791906248));
#1139=CARTESIAN_POINT('',(67.1493020016369,-75.0851234042817,121.188351599578));
#1140=CARTESIAN_POINT('',(66.3454544243436,-73.5758316740732,118.595662170987));
#1141=CARTESIAN_POINT('Origin',(72.3454544243436,-73.5758316740732,118.595662170987));
#1142=CARTESIAN_POINT('',(66.3454544243436,-75.7364061978985,117.33791906248));
#1143=CARTESIAN_POINT('',(72.3454544243436,-78.7549896583154,122.523297919661));
#1144=CARTESIAN_POINT('',(67.1493020016369,-77.245697928107,119.930608491071));
#1145=CARTESIAN_POINT('Origin',(66.3454544243436,-62.1527806260222,94.0037142051668));
#1146=CARTESIAN_POINT('',(66.3454544243436,-67.5386647532392,108.224904456626));
#1147=CARTESIAN_POINT('Origin',(83.8454544243436,-75.0851234042817,121.188351599578));
#1148=CARTESIAN_POINT('',(83.8454544243436,-75.0851234042817,121.188351599578));
#1149=CARTESIAN_POINT('',(66.3454544243436,-75.0851234042817,121.188351599578));
#1150=CARTESIAN_POINT('',(83.8454544243436,-61.5014978324054,97.8541467422642));
#1151=CARTESIAN_POINT('',(83.8454544243436,-75.0851234042817,121.188351599578));
#1152=CARTESIAN_POINT('',(66.3454544243436,-61.5014978324053,97.8541467422642));
#1153=CARTESIAN_POINT('Origin',(94.3454544243436,-78.7549896583155,122.523297919661));
#1154=CARTESIAN_POINT('',(94.3454544243436,-53.2602102771767,137.364666600044));
#1155=CARTESIAN_POINT('Origin',(94.3454544243436,-44.9591057610301,123.104874742797));
#1156=CARTESIAN_POINT('',(94.3454544243436,-78.7549896583155,122.523297919661));
#1157=CARTESIAN_POINT('Origin',(73.3454544243436,-44.9591057610301,123.104874742797));
#1158=CARTESIAN_POINT('',(73.3454544243436,-53.2602102771767,137.364666600044));
#1159=CARTESIAN_POINT('Origin',(66.3454544243436,-78.7549896583154,122.523297919661));
#1160=CARTESIAN_POINT('Origin',(77.7908756555062,-46.7585477187282,123.214458687223));
#1161=CARTESIAN_POINT('',(83.8454544243436,-53.0472632612635,134.01733130635));
#1162=CARTESIAN_POINT('',(83.8454544243436,-35.9556750996015,129.503174229758));
#1163=CARTESIAN_POINT('Origin',(83.8454544243436,-46.7585477187282,123.214458687223));
#1164=CARTESIAN_POINT('',(77.7908756555062,-53.0472632612635,134.01733130635));
#1165=CARTESIAN_POINT('',(77.7908756555062,-35.9556750996015,129.503174229758));
#1166=CARTESIAN_POINT('Origin',(83.8454544243436,-42.2443906421369,140.306046848885));
#1167=CARTESIAN_POINT('',(83.8454544243436,-34.9494806127959,127.774714610698));
#1168=CARTESIAN_POINT('',(83.8454544243436,-42.2443906421369,140.306046848885));
#1169=CARTESIAN_POINT('',(83.8454544243436,-39.4636376893872,110.683126449036));
#1170=CARTESIAN_POINT('Origin',(83.8454544243436,-45.7523532319225,121.485999068163));
#1171=CARTESIAN_POINT('',(83.8454544243436,-61.5014978324054,97.8541467422642));
#1172=CARTESIAN_POINT('',(83.8454544243436,-75.0851234042817,121.188351599578));
#1173=CARTESIAN_POINT('Origin',(80.4862968866689,-42.2443906421369,140.306046848885));
#1174=CARTESIAN_POINT('',(77.7908756555062,-34.9494806127959,127.774714610698));
#1175=CARTESIAN_POINT('Origin',(77.7908756555062,-45.7523532319225,121.485999068163));
#1176=CARTESIAN_POINT('',(77.7908756555062,-39.4636376893872,110.683126449036));
#1177=CARTESIAN_POINT('Origin',(75.0954544243436,-58.6647570232093,130.747199224231));
#1178=CARTESIAN_POINT('Origin',(75.0954544243436,-45.081131451333,107.412994366918));
#1179=UNCERTAINTY_MEASURE_WITH_UNIT(LENGTH_MEASURE(0.01),#1183,
'DISTANCE_ACCURACY_VALUE',
'Maximum model space distance between geometric entities at asserted c
onnectivities');
#1180=UNCERTAINTY_MEASURE_WITH_UNIT(LENGTH_MEASURE(0.01),#1183,
'DISTANCE_ACCURACY_VALUE',
'Maximum model space distance between geometric entities at asserted c
onnectivities');
#1181=(
GEOMETRIC_REPRESENTATION_CONTEXT(3)
GLOBAL_UNCERTAINTY_ASSIGNED_CONTEXT((#1179))
GLOBAL_UNIT_ASSIGNED_CONTEXT((#1183,#1185,#1186))
REPRESENTATION_CONTEXT('','3D')
);
#1182=(
GEOMETRIC_REPRESENTATION_CONTEXT(3)
GLOBAL_UNCERTAINTY_ASSIGNED_CONTEXT((#1180))
GLOBAL_UNIT_ASSIGNED_CONTEXT((#1183,#1185,#1186))
REPRESENTATION_CONTEXT('','3D')
);
#1183=(
LENGTH_UNIT()
NAMED_UNIT(*)
SI_UNIT(.MILLI.,.METRE.)
);
#1184=(
LENGTH_UNIT()
NAMED_UNIT(*)
SI_UNIT($,.METRE.)
);
#1185=(
NAMED_UNIT(*)
PLANE_ANGLE_UNIT()
SI_UNIT($,.RADIAN.)
);
#1186=(
NAMED_UNIT(*)
SI_UNIT($,.STERADIAN.)
SOLID_ANGLE_UNIT()
);
#1187=SHAPE_DEFINITION_REPRESENTATION(#1188,#1189);
#1188=PRODUCT_DEFINITION_SHAPE('',$,#1191);
#1189=SHAPE_REPRESENTATION('',(#581),#1181);
#1190=PRODUCT_DEFINITION_CONTEXT('part definition',#1195,'design');
#1191=PRODUCT_DEFINITION('Robot Arm 3','Robot Arm 3 v1',#1192,#1190);
#1192=PRODUCT_DEFINITION_FORMATION('',$,#1197);
#1193=PRODUCT_RELATED_PRODUCT_CATEGORY('Robot Arm 3 v1',
'Robot Arm 3 v1',(#1197));
#1194=APPLICATION_PROTOCOL_DEFINITION('international standard',
'automotive_design',2009,#1195);
#1195=APPLICATION_CONTEXT(
'Core Data for Automotive Mechanical Design Process');
#1196=PRODUCT_CONTEXT('part definition',#1195,'mechanical');
#1197=PRODUCT('Robot Arm 3','Robot Arm 3 v1',$,(#1196));
#1198=PRESENTATION_STYLE_ASSIGNMENT((#1199));
#1199=SURFACE_STYLE_USAGE(.BOTH.,#1200);
#1200=SURFACE_SIDE_STYLE('',(#1201));
#1201=SURFACE_STYLE_FILL_AREA(#1202);
#1202=FILL_AREA_STYLE('Steel - Satin',(#1203));
#1203=FILL_AREA_STYLE_COLOUR('Steel - Satin',#1204);
#1204=COLOUR_RGB('Steel - Satin',0.627450980392157,0.627450980392157,0.627450980392157);
ENDSEC;
END-ISO-10303-21;
