ISO-10303-21;
HEADER;
/* Generated by software containing ST-Developer
 * from STEP Tools, Inc. (www.steptools.com) 
 */

FILE_DESCRIPTION(
/* description */ (''),
/* implementation_level */ '2;1');

FILE_NAME(
/* name */ 'ef279af2-ef73-4c24-bf3d-61797c0aaeb2.stp',
/* time_stamp */ '2026-08-07T02:20:56Z',
/* author */ (''),
/* organization */ (''),
/* preprocessor_version */ 'ST-DEVELOPER v20.2',
/* originating_system */ 'Autodesk Translation Framework v15.15.0.0',
/* authorisation */ '');

FILE_SCHEMA (('AUTOMOTIVE_DESIGN { 1 0 10303 214 3 1 1 }'));
ENDSEC;

DATA;
#10=MECHANICAL_DESIGN_GEOMETRIC_PRESENTATION_REPRESENTATION('',(#13),#975);
#11=SHAPE_REPRESENTATION_RELATIONSHIP('SRR','None',#982,#12);
#12=ADVANCED_BREP_SHAPE_REPRESENTATION('',(#14),#974);
#13=STYLED_ITEM('',(#991),#14);
#14=MANIFOLD_SOLID_BREP(' Servo 9G',#582);
#15=FACE_BOUND('',#78,.T.);
#16=PLANE('',#599);
#17=PLANE('',#615);
#18=PLANE('',#616);
#19=PLANE('',#617);
#20=PLANE('',#618);
#21=PLANE('',#622);
#22=PLANE('',#623);
#23=PLANE('',#627);
#24=PLANE('',#628);
#25=PLANE('',#629);
#26=PLANE('',#630);
#27=PLANE('',#631);
#28=PLANE('',#632);
#29=PLANE('',#633);
#30=PLANE('',#634);
#31=PLANE('',#635);
#32=PLANE('',#636);
#33=PLANE('',#637);
#34=PLANE('',#638);
#35=PLANE('',#639);
#36=PLANE('',#640);
#37=PLANE('',#641);
#38=PLANE('',#642);
#39=PLANE('',#643);
#40=FACE_OUTER_BOUND('',#71,.T.);
#41=FACE_OUTER_BOUND('',#72,.T.);
#42=FACE_OUTER_BOUND('',#73,.T.);
#43=FACE_OUTER_BOUND('',#74,.T.);
#44=FACE_OUTER_BOUND('',#75,.T.);
#45=FACE_OUTER_BOUND('',#76,.T.);
#46=FACE_OUTER_BOUND('',#77,.T.);
#47=FACE_OUTER_BOUND('',#79,.T.);
#48=FACE_OUTER_BOUND('',#80,.T.);
#49=FACE_OUTER_BOUND('',#81,.T.);
#50=FACE_OUTER_BOUND('',#82,.T.);
#51=FACE_OUTER_BOUND('',#83,.T.);
#52=FACE_OUTER_BOUND('',#84,.T.);
#53=FACE_OUTER_BOUND('',#85,.T.);
#54=FACE_OUTER_BOUND('',#86,.T.);
#55=FACE_OUTER_BOUND('',#87,.T.);
#56=FACE_OUTER_BOUND('',#88,.T.);
#57=FACE_OUTER_BOUND('',#89,.T.);
#58=FACE_OUTER_BOUND('',#90,.T.);
#59=FACE_OUTER_BOUND('',#91,.T.);
#60=FACE_OUTER_BOUND('',#92,.T.);
#61=FACE_OUTER_BOUND('',#93,.T.);
#62=FACE_OUTER_BOUND('',#94,.T.);
#63=FACE_OUTER_BOUND('',#95,.T.);
#64=FACE_OUTER_BOUND('',#96,.T.);
#65=FACE_OUTER_BOUND('',#97,.T.);
#66=FACE_OUTER_BOUND('',#98,.T.);
#67=FACE_OUTER_BOUND('',#99,.T.);
#68=FACE_OUTER_BOUND('',#100,.T.);
#69=FACE_OUTER_BOUND('',#101,.T.);
#70=FACE_OUTER_BOUND('',#102,.T.);
#71=EDGE_LOOP('',(#382,#383,#384,#385));
#72=EDGE_LOOP('',(#386));
#73=EDGE_LOOP('',(#387,#388,#389,#390));
#74=EDGE_LOOP('',(#391,#392,#393,#394));
#75=EDGE_LOOP('',(#395,#396,#397,#398));
#76=EDGE_LOOP('',(#399,#400,#401,#402,#403,#404,#405));
#77=EDGE_LOOP('',(#406,#407,#408,#409));
#78=EDGE_LOOP('',(#410));
#79=EDGE_LOOP('',(#411,#412,#413,#414,#415,#416,#417,#418));
#80=EDGE_LOOP('',(#419,#420,#421));
#81=EDGE_LOOP('',(#422,#423,#424));
#82=EDGE_LOOP('',(#425,#426,#427,#428));
#83=EDGE_LOOP('',(#429,#430,#431,#432));
#84=EDGE_LOOP('',(#433,#434,#435,#436));
#85=EDGE_LOOP('',(#437,#438,#439,#440));
#86=EDGE_LOOP('',(#441,#442,#443,#444));
#87=EDGE_LOOP('',(#445,#446,#447,#448));
#88=EDGE_LOOP('',(#449,#450,#451,#452,#453,#454,#455,#456));
#89=EDGE_LOOP('',(#457,#458,#459,#460));
#90=EDGE_LOOP('',(#461,#462,#463,#464,#465,#466,#467,#468));
#91=EDGE_LOOP('',(#469,#470,#471,#472));
#92=EDGE_LOOP('',(#473,#474,#475,#476,#477,#478,#479,#480));
#93=EDGE_LOOP('',(#481,#482,#483,#484));
#94=EDGE_LOOP('',(#485,#486,#487,#488));
#95=EDGE_LOOP('',(#489,#490,#491,#492,#493));
#96=EDGE_LOOP('',(#494,#495,#496,#497));
#97=EDGE_LOOP('',(#498,#499,#500,#501,#502,#503,#504,#505));
#98=EDGE_LOOP('',(#506,#507,#508,#509));
#99=EDGE_LOOP('',(#510,#511,#512,#513));
#100=EDGE_LOOP('',(#514,#515,#516,#517,#518,#519,#520,#521,#522,#523,#524,
#525,#526));
#101=EDGE_LOOP('',(#527,#528,#529,#530,#531,#532,#533,#534,#535,#536,#537,
#538,#539));
#102=EDGE_LOOP('',(#540,#541,#542,#543));
#103=LINE('',#811,#167);
#104=LINE('',#819,#168);
#105=LINE('',#822,#169);
#106=LINE('',#828,#170);
#107=LINE('',#834,#171);
#108=LINE('',#847,#172);
#109=LINE('',#849,#173);
#110=LINE('',#850,#174);
#111=LINE('',#853,#175);
#112=LINE('',#854,#176);
#113=LINE('',#857,#177);
#114=LINE('',#858,#178);
#115=LINE('',#864,#179);
#116=LINE('',#867,#180);
#117=LINE('',#870,#181);
#118=LINE('',#872,#182);
#119=LINE('',#873,#183);
#120=LINE('',#876,#184);
#121=LINE('',#878,#185);
#122=LINE('',#879,#186);
#123=LINE('',#885,#187);
#124=LINE('',#888,#188);
#125=LINE('',#891,#189);
#126=LINE('',#893,#190);
#127=LINE('',#894,#191);
#128=LINE('',#897,#192);
#129=LINE('',#899,#193);
#130=LINE('',#900,#194);
#131=LINE('',#903,#195);
#132=LINE('',#905,#196);
#133=LINE('',#907,#197);
#134=LINE('',#909,#198);
#135=LINE('',#910,#199);
#136=LINE('',#913,#200);
#137=LINE('',#914,#201);
#138=LINE('',#917,#202);
#139=LINE('',#919,#203);
#140=LINE('',#921,#204);
#141=LINE('',#923,#205);
#142=LINE('',#924,#206);
#143=LINE('',#927,#207);
#144=LINE('',#928,#208);
#145=LINE('',#931,#209);
#146=LINE('',#933,#210);
#147=LINE('',#935,#211);
#148=LINE('',#936,#212);
#149=LINE('',#938,#213);
#150=LINE('',#941,#214);
#151=LINE('',#943,#215);
#152=LINE('',#944,#216);
#153=LINE('',#946,#217);
#154=LINE('',#947,#218);
#155=LINE('',#950,#219);
#156=LINE('',#951,#220);
#157=LINE('',#954,#221);
#158=LINE('',#956,#222);
#159=LINE('',#957,#223);
#160=LINE('',#959,#224);
#161=LINE('',#960,#225);
#162=LINE('',#963,#226);
#163=LINE('',#965,#227);
#164=LINE('',#966,#228);
#165=LINE('',#968,#229);
#166=LINE('',#970,#230);
#167=VECTOR('',#650,2.5);
#168=VECTOR('',#659,10.);
#169=VECTOR('',#662,10.);
#170=VECTOR('',#669,10.);
#171=VECTOR('',#676,10.);
#172=VECTOR('',#693,10.);
#173=VECTOR('',#694,10.);
#174=VECTOR('',#695,10.);
#175=VECTOR('',#698,10.);
#176=VECTOR('',#699,10.);
#177=VECTOR('',#702,10.);
#178=VECTOR('',#703,10.);
#179=VECTOR('',#708,10.);
#180=VECTOR('',#711,10.);
#181=VECTOR('',#714,10.);
#182=VECTOR('',#715,10.);
#183=VECTOR('',#716,10.);
#184=VECTOR('',#719,10.);
#185=VECTOR('',#720,10.);
#186=VECTOR('',#721,10.);
#187=VECTOR('',#726,10.);
#188=VECTOR('',#729,10.);
#189=VECTOR('',#732,10.);
#190=VECTOR('',#733,10.);
#191=VECTOR('',#734,10.);
#192=VECTOR('',#737,10.);
#193=VECTOR('',#738,10.);
#194=VECTOR('',#739,10.);
#195=VECTOR('',#742,10.);
#196=VECTOR('',#743,10.);
#197=VECTOR('',#744,10.);
#198=VECTOR('',#745,10.);
#199=VECTOR('',#746,10.);
#200=VECTOR('',#749,10.);
#201=VECTOR('',#750,10.);
#202=VECTOR('',#753,10.);
#203=VECTOR('',#754,10.);
#204=VECTOR('',#755,10.);
#205=VECTOR('',#756,10.);
#206=VECTOR('',#757,10.);
#207=VECTOR('',#760,10.);
#208=VECTOR('',#761,10.);
#209=VECTOR('',#764,10.);
#210=VECTOR('',#765,10.);
#211=VECTOR('',#766,10.);
#212=VECTOR('',#767,10.);
#213=VECTOR('',#770,10.);
#214=VECTOR('',#773,10.);
#215=VECTOR('',#774,10.);
#216=VECTOR('',#775,10.);
#217=VECTOR('',#778,10.);
#218=VECTOR('',#779,10.);
#219=VECTOR('',#782,10.);
#220=VECTOR('',#783,10.);
#221=VECTOR('',#786,10.);
#222=VECTOR('',#787,10.);
#223=VECTOR('',#788,10.);
#224=VECTOR('',#791,10.);
#225=VECTOR('',#792,10.);
#226=VECTOR('',#795,10.);
#227=VECTOR('',#796,10.);
#228=VECTOR('',#797,10.);
#229=VECTOR('',#800,10.);
#230=VECTOR('',#803,10.);
#231=CIRCLE('',#597,2.5);
#232=CIRCLE('',#598,2.5);
#233=CIRCLE('',#601,0.25);
#234=CIRCLE('',#602,0.25);
#235=CIRCLE('',#604,1.3);
#236=CIRCLE('',#605,1.3);
#237=CIRCLE('',#607,0.249999999999995);
#238=CIRCLE('',#608,0.249999999999995);
#239=CIRCLE('',#610,6.2);
#240=CIRCLE('',#611,6.2);
#241=CIRCLE('',#612,6.2);
#242=CIRCLE('',#613,6.2);
#243=CIRCLE('',#614,6.2);
#244=CIRCLE('',#620,1.);
#245=CIRCLE('',#621,1.);
#246=CIRCLE('',#625,1.);
#247=CIRCLE('',#626,1.);
#248=VERTEX_POINT('',#808);
#249=VERTEX_POINT('',#810);
#250=VERTEX_POINT('',#815);
#251=VERTEX_POINT('',#816);
#252=VERTEX_POINT('',#818);
#253=VERTEX_POINT('',#820);
#254=VERTEX_POINT('',#824);
#255=VERTEX_POINT('',#826);
#256=VERTEX_POINT('',#830);
#257=VERTEX_POINT('',#832);
#258=VERTEX_POINT('',#836);
#259=VERTEX_POINT('',#838);
#260=VERTEX_POINT('',#840);
#261=VERTEX_POINT('',#846);
#262=VERTEX_POINT('',#848);
#263=VERTEX_POINT('',#852);
#264=VERTEX_POINT('',#856);
#265=VERTEX_POINT('',#860);
#266=VERTEX_POINT('',#861);
#267=VERTEX_POINT('',#863);
#268=VERTEX_POINT('',#865);
#269=VERTEX_POINT('',#869);
#270=VERTEX_POINT('',#871);
#271=VERTEX_POINT('',#875);
#272=VERTEX_POINT('',#877);
#273=VERTEX_POINT('',#881);
#274=VERTEX_POINT('',#882);
#275=VERTEX_POINT('',#884);
#276=VERTEX_POINT('',#886);
#277=VERTEX_POINT('',#890);
#278=VERTEX_POINT('',#892);
#279=VERTEX_POINT('',#896);
#280=VERTEX_POINT('',#898);
#281=VERTEX_POINT('',#902);
#282=VERTEX_POINT('',#904);
#283=VERTEX_POINT('',#906);
#284=VERTEX_POINT('',#908);
#285=VERTEX_POINT('',#912);
#286=VERTEX_POINT('',#916);
#287=VERTEX_POINT('',#918);
#288=VERTEX_POINT('',#920);
#289=VERTEX_POINT('',#922);
#290=VERTEX_POINT('',#926);
#291=VERTEX_POINT('',#930);
#292=VERTEX_POINT('',#932);
#293=VERTEX_POINT('',#934);
#294=VERTEX_POINT('',#940);
#295=VERTEX_POINT('',#942);
#296=VERTEX_POINT('',#949);
#297=VERTEX_POINT('',#953);
#298=VERTEX_POINT('',#955);
#299=VERTEX_POINT('',#962);
#300=VERTEX_POINT('',#964);
#301=EDGE_CURVE('',#248,#248,#231,.T.);
#302=EDGE_CURVE('',#248,#249,#103,.T.);
#303=EDGE_CURVE('',#249,#249,#232,.T.);
#304=EDGE_CURVE('',#250,#251,#233,.T.);
#305=EDGE_CURVE('',#250,#252,#104,.T.);
#306=EDGE_CURVE('',#253,#252,#234,.T.);
#307=EDGE_CURVE('',#251,#253,#105,.T.);
#308=EDGE_CURVE('',#251,#254,#235,.T.);
#309=EDGE_CURVE('',#255,#253,#236,.T.);
#310=EDGE_CURVE('',#254,#255,#106,.T.);
#311=EDGE_CURVE('',#254,#256,#237,.T.);
#312=EDGE_CURVE('',#257,#255,#238,.T.);
#313=EDGE_CURVE('',#256,#257,#107,.T.);
#314=EDGE_CURVE('',#258,#250,#239,.T.);
#315=EDGE_CURVE('',#259,#258,#240,.T.);
#316=EDGE_CURVE('',#260,#259,#241,.T.);
#317=EDGE_CURVE('',#256,#260,#242,.T.);
#318=EDGE_CURVE('',#252,#257,#243,.T.);
#319=EDGE_CURVE('',#261,#260,#108,.T.);
#320=EDGE_CURVE('',#261,#262,#109,.T.);
#321=EDGE_CURVE('',#262,#258,#110,.T.);
#322=EDGE_CURVE('',#263,#259,#111,.T.);
#323=EDGE_CURVE('',#260,#263,#112,.T.);
#324=EDGE_CURVE('',#258,#264,#113,.T.);
#325=EDGE_CURVE('',#259,#264,#114,.T.);
#326=EDGE_CURVE('',#265,#266,#244,.T.);
#327=EDGE_CURVE('',#267,#265,#115,.T.);
#328=EDGE_CURVE('',#268,#267,#245,.T.);
#329=EDGE_CURVE('',#268,#266,#116,.T.);
#330=EDGE_CURVE('',#266,#269,#117,.T.);
#331=EDGE_CURVE('',#270,#268,#118,.T.);
#332=EDGE_CURVE('',#269,#270,#119,.T.);
#333=EDGE_CURVE('',#271,#265,#120,.T.);
#334=EDGE_CURVE('',#272,#271,#121,.T.);
#335=EDGE_CURVE('',#267,#272,#122,.T.);
#336=EDGE_CURVE('',#273,#274,#246,.T.);
#337=EDGE_CURVE('',#275,#273,#123,.T.);
#338=EDGE_CURVE('',#276,#275,#247,.T.);
#339=EDGE_CURVE('',#276,#274,#124,.T.);
#340=EDGE_CURVE('',#274,#277,#125,.T.);
#341=EDGE_CURVE('',#278,#276,#126,.T.);
#342=EDGE_CURVE('',#277,#278,#127,.T.);
#343=EDGE_CURVE('',#279,#273,#128,.T.);
#344=EDGE_CURVE('',#280,#279,#129,.T.);
#345=EDGE_CURVE('',#275,#280,#130,.T.);
#346=EDGE_CURVE('',#281,#269,#131,.T.);
#347=EDGE_CURVE('',#281,#282,#132,.T.);
#348=EDGE_CURVE('',#283,#282,#133,.T.);
#349=EDGE_CURVE('',#284,#283,#134,.T.);
#350=EDGE_CURVE('',#271,#284,#135,.T.);
#351=EDGE_CURVE('',#285,#270,#136,.T.);
#352=EDGE_CURVE('',#285,#281,#137,.T.);
#353=EDGE_CURVE('',#277,#286,#138,.T.);
#354=EDGE_CURVE('',#287,#286,#139,.T.);
#355=EDGE_CURVE('',#288,#287,#140,.T.);
#356=EDGE_CURVE('',#289,#288,#141,.T.);
#357=EDGE_CURVE('',#289,#279,#142,.T.);
#358=EDGE_CURVE('',#278,#290,#143,.T.);
#359=EDGE_CURVE('',#286,#290,#144,.T.);
#360=EDGE_CURVE('',#291,#280,#145,.T.);
#361=EDGE_CURVE('',#292,#291,#146,.T.);
#362=EDGE_CURVE('',#293,#292,#147,.T.);
#363=EDGE_CURVE('',#290,#293,#148,.T.);
#364=EDGE_CURVE('',#291,#289,#149,.T.);
#365=EDGE_CURVE('',#287,#294,#150,.T.);
#366=EDGE_CURVE('',#294,#295,#151,.T.);
#367=EDGE_CURVE('',#295,#288,#152,.T.);
#368=EDGE_CURVE('',#292,#263,#153,.T.);
#369=EDGE_CURVE('',#264,#293,#154,.T.);
#370=EDGE_CURVE('',#296,#284,#155,.T.);
#371=EDGE_CURVE('',#272,#296,#156,.T.);
#372=EDGE_CURVE('',#297,#296,#157,.T.);
#373=EDGE_CURVE('',#298,#297,#158,.T.);
#374=EDGE_CURVE('',#298,#285,#159,.T.);
#375=EDGE_CURVE('',#262,#297,#160,.T.);
#376=EDGE_CURVE('',#298,#261,#161,.T.);
#377=EDGE_CURVE('',#299,#282,#162,.T.);
#378=EDGE_CURVE('',#300,#299,#163,.T.);
#379=EDGE_CURVE('',#283,#300,#164,.T.);
#380=EDGE_CURVE('',#300,#294,#165,.T.);
#381=EDGE_CURVE('',#299,#295,#166,.T.);
#382=ORIENTED_EDGE('',*,*,#301,.F.);
#383=ORIENTED_EDGE('',*,*,#302,.T.);
#384=ORIENTED_EDGE('',*,*,#303,.F.);
#385=ORIENTED_EDGE('',*,*,#302,.F.);
#386=ORIENTED_EDGE('',*,*,#301,.T.);
#387=ORIENTED_EDGE('',*,*,#304,.F.);
#388=ORIENTED_EDGE('',*,*,#305,.T.);
#389=ORIENTED_EDGE('',*,*,#306,.F.);
#390=ORIENTED_EDGE('',*,*,#307,.F.);
#391=ORIENTED_EDGE('',*,*,#308,.F.);
#392=ORIENTED_EDGE('',*,*,#307,.T.);
#393=ORIENTED_EDGE('',*,*,#309,.F.);
#394=ORIENTED_EDGE('',*,*,#310,.F.);
#395=ORIENTED_EDGE('',*,*,#311,.F.);
#396=ORIENTED_EDGE('',*,*,#310,.T.);
#397=ORIENTED_EDGE('',*,*,#312,.F.);
#398=ORIENTED_EDGE('',*,*,#313,.F.);
#399=ORIENTED_EDGE('',*,*,#314,.F.);
#400=ORIENTED_EDGE('',*,*,#315,.F.);
#401=ORIENTED_EDGE('',*,*,#316,.F.);
#402=ORIENTED_EDGE('',*,*,#317,.F.);
#403=ORIENTED_EDGE('',*,*,#313,.T.);
#404=ORIENTED_EDGE('',*,*,#318,.F.);
#405=ORIENTED_EDGE('',*,*,#305,.F.);
#406=ORIENTED_EDGE('',*,*,#318,.T.);
#407=ORIENTED_EDGE('',*,*,#312,.T.);
#408=ORIENTED_EDGE('',*,*,#309,.T.);
#409=ORIENTED_EDGE('',*,*,#306,.T.);
#410=ORIENTED_EDGE('',*,*,#303,.T.);
#411=ORIENTED_EDGE('',*,*,#317,.T.);
#412=ORIENTED_EDGE('',*,*,#319,.F.);
#413=ORIENTED_EDGE('',*,*,#320,.T.);
#414=ORIENTED_EDGE('',*,*,#321,.T.);
#415=ORIENTED_EDGE('',*,*,#314,.T.);
#416=ORIENTED_EDGE('',*,*,#304,.T.);
#417=ORIENTED_EDGE('',*,*,#308,.T.);
#418=ORIENTED_EDGE('',*,*,#311,.T.);
#419=ORIENTED_EDGE('',*,*,#316,.T.);
#420=ORIENTED_EDGE('',*,*,#322,.F.);
#421=ORIENTED_EDGE('',*,*,#323,.F.);
#422=ORIENTED_EDGE('',*,*,#315,.T.);
#423=ORIENTED_EDGE('',*,*,#324,.T.);
#424=ORIENTED_EDGE('',*,*,#325,.F.);
#425=ORIENTED_EDGE('',*,*,#326,.F.);
#426=ORIENTED_EDGE('',*,*,#327,.F.);
#427=ORIENTED_EDGE('',*,*,#328,.F.);
#428=ORIENTED_EDGE('',*,*,#329,.T.);
#429=ORIENTED_EDGE('',*,*,#330,.F.);
#430=ORIENTED_EDGE('',*,*,#329,.F.);
#431=ORIENTED_EDGE('',*,*,#331,.F.);
#432=ORIENTED_EDGE('',*,*,#332,.F.);
#433=ORIENTED_EDGE('',*,*,#333,.F.);
#434=ORIENTED_EDGE('',*,*,#334,.F.);
#435=ORIENTED_EDGE('',*,*,#335,.F.);
#436=ORIENTED_EDGE('',*,*,#327,.T.);
#437=ORIENTED_EDGE('',*,*,#336,.F.);
#438=ORIENTED_EDGE('',*,*,#337,.F.);
#439=ORIENTED_EDGE('',*,*,#338,.F.);
#440=ORIENTED_EDGE('',*,*,#339,.T.);
#441=ORIENTED_EDGE('',*,*,#340,.F.);
#442=ORIENTED_EDGE('',*,*,#339,.F.);
#443=ORIENTED_EDGE('',*,*,#341,.F.);
#444=ORIENTED_EDGE('',*,*,#342,.F.);
#445=ORIENTED_EDGE('',*,*,#343,.F.);
#446=ORIENTED_EDGE('',*,*,#344,.F.);
#447=ORIENTED_EDGE('',*,*,#345,.F.);
#448=ORIENTED_EDGE('',*,*,#337,.T.);
#449=ORIENTED_EDGE('',*,*,#333,.T.);
#450=ORIENTED_EDGE('',*,*,#326,.T.);
#451=ORIENTED_EDGE('',*,*,#330,.T.);
#452=ORIENTED_EDGE('',*,*,#346,.F.);
#453=ORIENTED_EDGE('',*,*,#347,.T.);
#454=ORIENTED_EDGE('',*,*,#348,.F.);
#455=ORIENTED_EDGE('',*,*,#349,.F.);
#456=ORIENTED_EDGE('',*,*,#350,.F.);
#457=ORIENTED_EDGE('',*,*,#332,.T.);
#458=ORIENTED_EDGE('',*,*,#351,.F.);
#459=ORIENTED_EDGE('',*,*,#352,.T.);
#460=ORIENTED_EDGE('',*,*,#346,.T.);
#461=ORIENTED_EDGE('',*,*,#343,.T.);
#462=ORIENTED_EDGE('',*,*,#336,.T.);
#463=ORIENTED_EDGE('',*,*,#340,.T.);
#464=ORIENTED_EDGE('',*,*,#353,.T.);
#465=ORIENTED_EDGE('',*,*,#354,.F.);
#466=ORIENTED_EDGE('',*,*,#355,.F.);
#467=ORIENTED_EDGE('',*,*,#356,.F.);
#468=ORIENTED_EDGE('',*,*,#357,.T.);
#469=ORIENTED_EDGE('',*,*,#342,.T.);
#470=ORIENTED_EDGE('',*,*,#358,.T.);
#471=ORIENTED_EDGE('',*,*,#359,.F.);
#472=ORIENTED_EDGE('',*,*,#353,.F.);
#473=ORIENTED_EDGE('',*,*,#345,.T.);
#474=ORIENTED_EDGE('',*,*,#360,.F.);
#475=ORIENTED_EDGE('',*,*,#361,.F.);
#476=ORIENTED_EDGE('',*,*,#362,.F.);
#477=ORIENTED_EDGE('',*,*,#363,.F.);
#478=ORIENTED_EDGE('',*,*,#358,.F.);
#479=ORIENTED_EDGE('',*,*,#341,.T.);
#480=ORIENTED_EDGE('',*,*,#338,.T.);
#481=ORIENTED_EDGE('',*,*,#344,.T.);
#482=ORIENTED_EDGE('',*,*,#357,.F.);
#483=ORIENTED_EDGE('',*,*,#364,.F.);
#484=ORIENTED_EDGE('',*,*,#360,.T.);
#485=ORIENTED_EDGE('',*,*,#355,.T.);
#486=ORIENTED_EDGE('',*,*,#365,.T.);
#487=ORIENTED_EDGE('',*,*,#366,.T.);
#488=ORIENTED_EDGE('',*,*,#367,.T.);
#489=ORIENTED_EDGE('',*,*,#362,.T.);
#490=ORIENTED_EDGE('',*,*,#368,.T.);
#491=ORIENTED_EDGE('',*,*,#322,.T.);
#492=ORIENTED_EDGE('',*,*,#325,.T.);
#493=ORIENTED_EDGE('',*,*,#369,.T.);
#494=ORIENTED_EDGE('',*,*,#334,.T.);
#495=ORIENTED_EDGE('',*,*,#350,.T.);
#496=ORIENTED_EDGE('',*,*,#370,.F.);
#497=ORIENTED_EDGE('',*,*,#371,.F.);
#498=ORIENTED_EDGE('',*,*,#335,.T.);
#499=ORIENTED_EDGE('',*,*,#371,.T.);
#500=ORIENTED_EDGE('',*,*,#372,.F.);
#501=ORIENTED_EDGE('',*,*,#373,.F.);
#502=ORIENTED_EDGE('',*,*,#374,.T.);
#503=ORIENTED_EDGE('',*,*,#351,.T.);
#504=ORIENTED_EDGE('',*,*,#331,.T.);
#505=ORIENTED_EDGE('',*,*,#328,.T.);
#506=ORIENTED_EDGE('',*,*,#373,.T.);
#507=ORIENTED_EDGE('',*,*,#375,.F.);
#508=ORIENTED_EDGE('',*,*,#320,.F.);
#509=ORIENTED_EDGE('',*,*,#376,.F.);
#510=ORIENTED_EDGE('',*,*,#348,.T.);
#511=ORIENTED_EDGE('',*,*,#377,.F.);
#512=ORIENTED_EDGE('',*,*,#378,.F.);
#513=ORIENTED_EDGE('',*,*,#379,.F.);
#514=ORIENTED_EDGE('',*,*,#375,.T.);
#515=ORIENTED_EDGE('',*,*,#372,.T.);
#516=ORIENTED_EDGE('',*,*,#370,.T.);
#517=ORIENTED_EDGE('',*,*,#349,.T.);
#518=ORIENTED_EDGE('',*,*,#379,.T.);
#519=ORIENTED_EDGE('',*,*,#380,.T.);
#520=ORIENTED_EDGE('',*,*,#365,.F.);
#521=ORIENTED_EDGE('',*,*,#354,.T.);
#522=ORIENTED_EDGE('',*,*,#359,.T.);
#523=ORIENTED_EDGE('',*,*,#363,.T.);
#524=ORIENTED_EDGE('',*,*,#369,.F.);
#525=ORIENTED_EDGE('',*,*,#324,.F.);
#526=ORIENTED_EDGE('',*,*,#321,.F.);
#527=ORIENTED_EDGE('',*,*,#377,.T.);
#528=ORIENTED_EDGE('',*,*,#347,.F.);
#529=ORIENTED_EDGE('',*,*,#352,.F.);
#530=ORIENTED_EDGE('',*,*,#374,.F.);
#531=ORIENTED_EDGE('',*,*,#376,.T.);
#532=ORIENTED_EDGE('',*,*,#319,.T.);
#533=ORIENTED_EDGE('',*,*,#323,.T.);
#534=ORIENTED_EDGE('',*,*,#368,.F.);
#535=ORIENTED_EDGE('',*,*,#361,.T.);
#536=ORIENTED_EDGE('',*,*,#364,.T.);
#537=ORIENTED_EDGE('',*,*,#356,.T.);
#538=ORIENTED_EDGE('',*,*,#367,.F.);
#539=ORIENTED_EDGE('',*,*,#381,.F.);
#540=ORIENTED_EDGE('',*,*,#378,.T.);
#541=ORIENTED_EDGE('',*,*,#381,.T.);
#542=ORIENTED_EDGE('',*,*,#366,.F.);
#543=ORIENTED_EDGE('',*,*,#380,.F.);
#544=CYLINDRICAL_SURFACE('',#596,2.5);
#545=CYLINDRICAL_SURFACE('',#600,0.25);
#546=CYLINDRICAL_SURFACE('',#603,1.3);
#547=CYLINDRICAL_SURFACE('',#606,0.249999999999995);
#548=CYLINDRICAL_SURFACE('',#609,6.2);
#549=CYLINDRICAL_SURFACE('',#619,1.);
#550=CYLINDRICAL_SURFACE('',#624,1.);
#551=ADVANCED_FACE('',(#40),#544,.T.);
#552=ADVANCED_FACE('',(#41),#16,.T.);
#553=ADVANCED_FACE('',(#42),#545,.F.);
#554=ADVANCED_FACE('',(#43),#546,.T.);
#555=ADVANCED_FACE('',(#44),#547,.F.);
#556=ADVANCED_FACE('',(#45),#548,.T.);
#557=ADVANCED_FACE('',(#46,#15),#17,.T.);
#558=ADVANCED_FACE('',(#47),#18,.T.);
#559=ADVANCED_FACE('',(#48),#19,.T.);
#560=ADVANCED_FACE('',(#49),#20,.T.);
#561=ADVANCED_FACE('',(#50),#549,.F.);
#562=ADVANCED_FACE('',(#51),#21,.F.);
#563=ADVANCED_FACE('',(#52),#22,.F.);
#564=ADVANCED_FACE('',(#53),#550,.F.);
#565=ADVANCED_FACE('',(#54),#23,.F.);
#566=ADVANCED_FACE('',(#55),#24,.F.);
#567=ADVANCED_FACE('',(#56),#25,.T.);
#568=ADVANCED_FACE('',(#57),#26,.T.);
#569=ADVANCED_FACE('',(#58),#27,.T.);
#570=ADVANCED_FACE('',(#59),#28,.T.);
#571=ADVANCED_FACE('',(#60),#29,.T.);
#572=ADVANCED_FACE('',(#61),#30,.T.);
#573=ADVANCED_FACE('',(#62),#31,.T.);
#574=ADVANCED_FACE('',(#63),#32,.T.);
#575=ADVANCED_FACE('',(#64),#33,.T.);
#576=ADVANCED_FACE('',(#65),#34,.T.);
#577=ADVANCED_FACE('',(#66),#35,.F.);
#578=ADVANCED_FACE('',(#67),#36,.F.);
#579=ADVANCED_FACE('',(#68),#37,.T.);
#580=ADVANCED_FACE('',(#69),#38,.T.);
#581=ADVANCED_FACE('',(#70),#39,.T.);
#582=CLOSED_SHELL('',(#551,#552,#553,#554,#555,#556,#557,#558,#559,#560,
#561,#562,#563,#564,#565,#566,#567,#568,#569,#570,#571,#572,#573,#574,#575,
#576,#577,#578,#579,#580,#581));
#583=DERIVED_UNIT_ELEMENT(#585,1.);
#584=DERIVED_UNIT_ELEMENT(#977,-3.);
#585=(
MASS_UNIT()
NAMED_UNIT(*)
SI_UNIT(.KILO.,.GRAM.)
);
#586=DERIVED_UNIT((#583,#584));
#587=MEASURE_REPRESENTATION_ITEM('density measure',
POSITIVE_RATIO_MEASURE(7850.),#586);
#588=PROPERTY_DEFINITION_REPRESENTATION(#593,#590);
#589=PROPERTY_DEFINITION_REPRESENTATION(#594,#591);
#590=REPRESENTATION('material name',(#592),#974);
#591=REPRESENTATION('density',(#587),#974);
#592=DESCRIPTIVE_REPRESENTATION_ITEM('Steel','Steel');
#593=PROPERTY_DEFINITION('material property','material name',#984);
#594=PROPERTY_DEFINITION('material property','density of part',#984);
#595=AXIS2_PLACEMENT_3D('',#806,#644,#645);
#596=AXIS2_PLACEMENT_3D('',#807,#646,#647);
#597=AXIS2_PLACEMENT_3D('',#809,#648,#649);
#598=AXIS2_PLACEMENT_3D('',#812,#651,#652);
#599=AXIS2_PLACEMENT_3D('',#813,#653,#654);
#600=AXIS2_PLACEMENT_3D('',#814,#655,#656);
#601=AXIS2_PLACEMENT_3D('',#817,#657,#658);
#602=AXIS2_PLACEMENT_3D('',#821,#660,#661);
#603=AXIS2_PLACEMENT_3D('',#823,#663,#664);
#604=AXIS2_PLACEMENT_3D('',#825,#665,#666);
#605=AXIS2_PLACEMENT_3D('',#827,#667,#668);
#606=AXIS2_PLACEMENT_3D('',#829,#670,#671);
#607=AXIS2_PLACEMENT_3D('',#831,#672,#673);
#608=AXIS2_PLACEMENT_3D('',#833,#674,#675);
#609=AXIS2_PLACEMENT_3D('',#835,#677,#678);
#610=AXIS2_PLACEMENT_3D('',#837,#679,#680);
#611=AXIS2_PLACEMENT_3D('',#839,#681,#682);
#612=AXIS2_PLACEMENT_3D('',#841,#683,#684);
#613=AXIS2_PLACEMENT_3D('',#842,#685,#686);
#614=AXIS2_PLACEMENT_3D('',#843,#687,#688);
#615=AXIS2_PLACEMENT_3D('',#844,#689,#690);
#616=AXIS2_PLACEMENT_3D('',#845,#691,#692);
#617=AXIS2_PLACEMENT_3D('',#851,#696,#697);
#618=AXIS2_PLACEMENT_3D('',#855,#700,#701);
#619=AXIS2_PLACEMENT_3D('',#859,#704,#705);
#620=AXIS2_PLACEMENT_3D('',#862,#706,#707);
#621=AXIS2_PLACEMENT_3D('',#866,#709,#710);
#622=AXIS2_PLACEMENT_3D('',#868,#712,#713);
#623=AXIS2_PLACEMENT_3D('',#874,#717,#718);
#624=AXIS2_PLACEMENT_3D('',#880,#722,#723);
#625=AXIS2_PLACEMENT_3D('',#883,#724,#725);
#626=AXIS2_PLACEMENT_3D('',#887,#727,#728);
#627=AXIS2_PLACEMENT_3D('',#889,#730,#731);
#628=AXIS2_PLACEMENT_3D('',#895,#735,#736);
#629=AXIS2_PLACEMENT_3D('',#901,#740,#741);
#630=AXIS2_PLACEMENT_3D('',#911,#747,#748);
#631=AXIS2_PLACEMENT_3D('',#915,#751,#752);
#632=AXIS2_PLACEMENT_3D('',#925,#758,#759);
#633=AXIS2_PLACEMENT_3D('',#929,#762,#763);
#634=AXIS2_PLACEMENT_3D('',#937,#768,#769);
#635=AXIS2_PLACEMENT_3D('',#939,#771,#772);
#636=AXIS2_PLACEMENT_3D('',#945,#776,#777);
#637=AXIS2_PLACEMENT_3D('',#948,#780,#781);
#638=AXIS2_PLACEMENT_3D('',#952,#784,#785);
#639=AXIS2_PLACEMENT_3D('',#958,#789,#790);
#640=AXIS2_PLACEMENT_3D('',#961,#793,#794);
#641=AXIS2_PLACEMENT_3D('',#967,#798,#799);
#642=AXIS2_PLACEMENT_3D('',#969,#801,#802);
#643=AXIS2_PLACEMENT_3D('',#971,#804,#805);
#644=DIRECTION('axis',(0.,0.,1.));
#645=DIRECTION('refdir',(1.,0.,0.));
#646=DIRECTION('center_axis',(1.09123888735241E-15,0.864229809530126,0.503097243402826));
#647=DIRECTION('ref_axis',(-7.76765729688164E-16,-0.503097243402826,0.864229809530126));
#648=DIRECTION('center_axis',(1.09123888735241E-15,0.864229809530126,0.503097243402826));
#649=DIRECTION('ref_axis',(-7.76765729688164E-16,-0.503097243402826,0.864229809530126));
#650=DIRECTION('',(-1.09123888735241E-15,-0.864229809530126,-0.503097243402826));
#651=DIRECTION('center_axis',(-1.09123888735241E-15,-0.864229809530126,
-0.503097243402826));
#652=DIRECTION('ref_axis',(-7.76765729688164E-16,-0.503097243402826,0.864229809530126));
#653=DIRECTION('center_axis',(1.09123888735241E-15,0.864229809530126,0.503097243402826));
#654=DIRECTION('ref_axis',(-7.76765729688164E-16,-0.503097243402826,0.864229809530126));
#655=DIRECTION('center_axis',(1.09123888735241E-15,0.864229809530126,0.503097243402826));
#656=DIRECTION('ref_axis',(0.240122131873434,-0.488377969214746,0.838944766340573));
#657=DIRECTION('center_axis',(1.09123888735241E-15,0.864229809530126,0.503097243402826));
#658=DIRECTION('ref_axis',(0.240122131873434,-0.488377969214746,0.838944766340573));
#659=DIRECTION('',(1.09123888735241E-15,0.864229809530126,0.503097243402826));
#660=DIRECTION('center_axis',(-1.09123888735241E-15,-0.864229809530126,
-0.503097243402826));
#661=DIRECTION('ref_axis',(0.240122131873434,-0.488377969214746,0.838944766340573));
#662=DIRECTION('',(1.09123888735241E-15,0.864229809530126,0.503097243402826));
#663=DIRECTION('center_axis',(1.09123888735241E-15,0.864229809530126,0.503097243402826));
#664=DIRECTION('ref_axis',(0.999217903602355,0.0198935434436064,-0.0341734992321998));
#665=DIRECTION('center_axis',(-1.09123888735241E-15,-0.864229809530126,
-0.503097243402826));
#666=DIRECTION('ref_axis',(0.999217903602355,0.0198935434436064,-0.0341734992321998));
#667=DIRECTION('center_axis',(1.09123888735241E-15,0.864229809530126,0.503097243402826));
#668=DIRECTION('ref_axis',(0.999217903602355,0.0198935434436064,-0.0341734992321998));
#669=DIRECTION('',(1.09123888735241E-15,0.864229809530126,0.503097243402826));
#670=DIRECTION('center_axis',(1.09123888735241E-15,0.864229809530126,0.503097243402826));
#671=DIRECTION('ref_axis',(-0.999217903602355,-0.0198935434436044,0.0341734992321964));
#672=DIRECTION('center_axis',(1.09123888735241E-15,0.864229809530126,0.503097243402826));
#673=DIRECTION('ref_axis',(-0.999217903602355,-0.0198935434436044,0.0341734992321964));
#674=DIRECTION('center_axis',(-1.09123888735241E-15,-0.864229809530126,
-0.503097243402826));
#675=DIRECTION('ref_axis',(-0.999217903602355,-0.0198935434436044,0.0341734992321964));
#676=DIRECTION('',(1.09123888735241E-15,0.864229809530126,0.503097243402826));
#677=DIRECTION('center_axis',(1.09123888735241E-15,0.864229809530126,0.503097243402826));
#678=DIRECTION('ref_axis',(-9.17724677613536E-16,-0.503097243402826,0.864229809530126));
#679=DIRECTION('center_axis',(-1.09123888735241E-15,-0.864229809530126,
-0.503097243402826));
#680=DIRECTION('ref_axis',(-0.240122131873433,0.488377969214746,-0.838944766340573));
#681=DIRECTION('center_axis',(-1.09123888735241E-15,-0.864229809530126,
-0.503097243402826));
#682=DIRECTION('ref_axis',(-0.240122131873433,0.488377969214746,-0.838944766340573));
#683=DIRECTION('center_axis',(-1.09123888735241E-15,-0.864229809530126,
-0.503097243402826));
#684=DIRECTION('ref_axis',(-0.240122131873433,0.488377969214746,-0.838944766340573));
#685=DIRECTION('center_axis',(-1.09123888735241E-15,-0.864229809530126,
-0.503097243402826));
#686=DIRECTION('ref_axis',(-0.240122131873433,0.488377969214746,-0.838944766340573));
#687=DIRECTION('center_axis',(1.09123888735241E-15,0.864229809530126,0.503097243402826));
#688=DIRECTION('ref_axis',(-0.240122131873433,0.488377969214746,-0.838944766340573));
#689=DIRECTION('center_axis',(1.09123888735241E-15,0.864229809530126,0.503097243402826));
#690=DIRECTION('ref_axis',(-7.76765729688164E-16,-0.503097243402826,0.864229809530126));
#691=DIRECTION('center_axis',(1.09123888735241E-15,0.864229809530126,0.503097243402826));
#692=DIRECTION('ref_axis',(-1.,1.33386987314434E-15,-1.22304822496969E-16));
#693=DIRECTION('',(-7.76765729688164E-16,-0.503097243402826,0.864229809530126));
#694=DIRECTION('',(-1.,1.33386987314434E-15,-1.22304822496969E-16));
#695=DIRECTION('',(-7.76765729688164E-16,-0.503097243402826,0.864229809530126));
#696=DIRECTION('center_axis',(1.09123888735241E-15,0.864229809530126,0.503097243402826));
#697=DIRECTION('ref_axis',(-1.,1.33386987314434E-15,-1.22304822496969E-16));
#698=DIRECTION('',(-1.,1.33386987314434E-15,-1.22304822496969E-16));
#699=DIRECTION('',(-7.76765729688164E-16,-0.503097243402826,0.864229809530126));
#700=DIRECTION('center_axis',(1.09123888735241E-15,0.864229809530126,0.503097243402826));
#701=DIRECTION('ref_axis',(-1.,1.33386987314434E-15,-1.22304822496969E-16));
#702=DIRECTION('',(-7.76765729688164E-16,-0.503097243402826,0.864229809530126));
#703=DIRECTION('',(-1.,1.33386987314434E-15,-1.22304822496969E-16));
#704=DIRECTION('center_axis',(-1.09123888735241E-15,-0.864229809530126,
-0.503097243402826));
#705=DIRECTION('ref_axis',(1.08246744900953E-14,-0.503097243402826,0.864229809530126));
#706=DIRECTION('center_axis',(1.09123888735241E-15,0.864229809530126,0.503097243402826));
#707=DIRECTION('ref_axis',(-0.55,0.420169035428442,-0.721774190219582));
#708=DIRECTION('',(-1.09123888735241E-15,-0.864229809530126,-0.503097243402826));
#709=DIRECTION('center_axis',(-1.09123888735241E-15,-0.864229809530126,
-0.503097243402826));
#710=DIRECTION('ref_axis',(-0.55,0.420169035428442,-0.721774190219582));
#711=DIRECTION('',(-1.09123888735241E-15,-0.864229809530126,-0.503097243402826));
#712=DIRECTION('center_axis',(1.,-1.31290119785917E-15,8.6284441774488E-17));
#713=DIRECTION('ref_axis',(-7.35086560183395E-16,-0.503097243402826,0.864229809530126));
#714=DIRECTION('',(7.35086560183395E-16,0.503097243402826,-0.864229809530126));
#715=DIRECTION('',(-7.35086560183395E-16,-0.503097243402826,0.864229809530126));
#716=DIRECTION('',(1.09123888735241E-15,0.864229809530126,0.503097243402826));
#717=DIRECTION('center_axis',(-1.,1.33386987314434E-15,-1.22304822496969E-16));
#718=DIRECTION('ref_axis',(7.76765729688164E-16,0.503097243402826,-0.864229809530126));
#719=DIRECTION('',(-7.76765729688164E-16,-0.503097243402826,0.864229809530126));
#720=DIRECTION('',(-1.09123888735241E-15,-0.864229809530126,-0.503097243402826));
#721=DIRECTION('',(7.76765729688164E-16,0.503097243402826,-0.864229809530126));
#722=DIRECTION('center_axis',(-1.09123888735241E-15,-0.864229809530126,
-0.503097243402826));
#723=DIRECTION('ref_axis',(-4.71844785465692E-15,0.503097243402826,-0.864229809530126));
#724=DIRECTION('center_axis',(1.09123888735241E-15,0.864229809530126,0.503097243402826));
#725=DIRECTION('ref_axis',(0.55,-0.420169035428442,0.721774190219582));
#726=DIRECTION('',(-1.09123888735241E-15,-0.864229809530126,-0.503097243402826));
#727=DIRECTION('center_axis',(-1.09123888735241E-15,-0.864229809530126,
-0.503097243402826));
#728=DIRECTION('ref_axis',(0.55,-0.420169035428442,0.721774190219582));
#729=DIRECTION('',(-1.09123888735241E-15,-0.864229809530126,-0.503097243402826));
#730=DIRECTION('center_axis',(-1.,1.33386987314434E-15,-1.22304822496969E-16));
#731=DIRECTION('ref_axis',(7.76765729688164E-16,0.503097243402826,-0.864229809530126));
#732=DIRECTION('',(-7.76765729688164E-16,-0.503097243402826,0.864229809530126));
#733=DIRECTION('',(7.76765729688164E-16,0.503097243402826,-0.864229809530126));
#734=DIRECTION('',(1.09123888735241E-15,0.864229809530126,0.503097243402826));
#735=DIRECTION('center_axis',(1.,-1.35483854842951E-15,1.5832520321945E-16));
#736=DIRECTION('ref_axis',(-8.18444899192934E-16,-0.503097243402826,0.864229809530126));
#737=DIRECTION('',(8.18444899192934E-16,0.503097243402826,-0.864229809530126));
#738=DIRECTION('',(-1.09123888735241E-15,-0.864229809530126,-0.503097243402826));
#739=DIRECTION('',(-8.18444899192934E-16,-0.503097243402826,0.864229809530126));
#740=DIRECTION('center_axis',(-1.09123888735241E-15,-0.864229809530126,
-0.503097243402826));
#741=DIRECTION('ref_axis',(-7.76765729688164E-16,-0.503097243402826,0.864229809530126));
#742=DIRECTION('',(-1.,1.33386987314434E-15,-1.22304822496969E-16));
#743=DIRECTION('',(-7.76765729688164E-16,-0.503097243402826,0.864229809530126));
#744=DIRECTION('',(1.,-1.33386987314434E-15,1.22304822496969E-16));
#745=DIRECTION('',(-7.76765729688164E-16,-0.503097243402826,0.864229809530126));
#746=DIRECTION('',(-1.,1.33386987314434E-15,-1.22304822496969E-16));
#747=DIRECTION('center_axis',(7.76765729688164E-16,0.503097243402826,-0.864229809530126));
#748=DIRECTION('ref_axis',(-1.09123888735241E-15,-0.864229809530126,-0.503097243402826));
#749=DIRECTION('',(-1.,1.33386987314434E-15,-1.22304822496969E-16));
#750=DIRECTION('',(-1.09123888735241E-15,-0.864229809530126,-0.503097243402826));
#751=DIRECTION('center_axis',(-1.09123888735241E-15,-0.864229809530126,
-0.503097243402826));
#752=DIRECTION('ref_axis',(-7.76765729688164E-16,-0.503097243402826,0.864229809530126));
#753=DIRECTION('',(-1.,1.33386987314434E-15,-1.22304822496969E-16));
#754=DIRECTION('',(-7.76765729688164E-16,-0.503097243402826,0.864229809530126));
#755=DIRECTION('',(-1.,1.33386987314434E-15,-1.22304822496969E-16));
#756=DIRECTION('',(7.76765729688164E-16,0.503097243402826,-0.864229809530126));
#757=DIRECTION('',(-1.,1.33386987314434E-15,-1.22304822496969E-16));
#758=DIRECTION('center_axis',(-7.76765729688164E-16,-0.503097243402826,
0.864229809530126));
#759=DIRECTION('ref_axis',(1.09123888735241E-15,0.864229809530126,0.503097243402826));
#760=DIRECTION('',(-1.,1.33386987314434E-15,-1.22304822496969E-16));
#761=DIRECTION('',(1.09123888735241E-15,0.864229809530126,0.503097243402826));
#762=DIRECTION('center_axis',(1.09123888735241E-15,0.864229809530126,0.503097243402826));
#763=DIRECTION('ref_axis',(7.76765729688164E-16,0.503097243402826,-0.864229809530126));
#764=DIRECTION('',(-1.,1.33386987314434E-15,-1.22304822496969E-16));
#765=DIRECTION('',(-7.76765729688164E-16,-0.503097243402826,0.864229809530126));
#766=DIRECTION('',(1.,-1.33386987314434E-15,1.22304822496969E-16));
#767=DIRECTION('',(7.76765729688164E-16,0.503097243402826,-0.864229809530126));
#768=DIRECTION('center_axis',(-7.76765729688164E-16,-0.503097243402826,
0.864229809530126));
#769=DIRECTION('ref_axis',(1.09123888735241E-15,0.864229809530126,0.503097243402826));
#770=DIRECTION('',(-1.09123888735241E-15,-0.864229809530126,-0.503097243402826));
#771=DIRECTION('center_axis',(-7.76765729688164E-16,-0.503097243402826,
0.864229809530126));
#772=DIRECTION('ref_axis',(-1.,1.33386987314434E-15,-1.22304822496969E-16));
#773=DIRECTION('',(-1.09123888735241E-15,-0.864229809530126,-0.503097243402826));
#774=DIRECTION('',(1.,-1.17911377103018E-15,2.12393555279431E-16));
#775=DIRECTION('',(1.09123888735241E-15,0.864229809530126,0.503097243402826));
#776=DIRECTION('center_axis',(-7.76765729688164E-16,-0.503097243402826,
0.864229809530126));
#777=DIRECTION('ref_axis',(-1.,1.33386987314434E-15,-1.22304822496969E-16));
#778=DIRECTION('',(1.09123888735241E-15,0.864229809530126,0.503097243402826));
#779=DIRECTION('',(-1.09123888735241E-15,-0.864229809530126,-0.503097243402826));
#780=DIRECTION('center_axis',(7.76765729688164E-16,0.503097243402826,-0.864229809530126));
#781=DIRECTION('ref_axis',(-1.09123888735241E-15,-0.864229809530126,-0.503097243402826));
#782=DIRECTION('',(-1.09123888735241E-15,-0.864229809530126,-0.503097243402826));
#783=DIRECTION('',(-1.,1.33386987314434E-15,-1.22304822496969E-16));
#784=DIRECTION('center_axis',(1.09123888735241E-15,0.864229809530126,0.503097243402826));
#785=DIRECTION('ref_axis',(7.76765729688164E-16,0.503097243402826,-0.864229809530126));
#786=DIRECTION('',(7.76765729688164E-16,0.503097243402826,-0.864229809530126));
#787=DIRECTION('',(-1.,1.33386987314434E-15,-1.22304822496969E-16));
#788=DIRECTION('',(7.76765729688164E-16,0.503097243402826,-0.864229809530126));
#789=DIRECTION('center_axis',(-7.76765729688164E-16,-0.503097243402826,
0.864229809530126));
#790=DIRECTION('ref_axis',(-1.09123888735241E-15,-0.864229809530126,-0.503097243402826));
#791=DIRECTION('',(-1.09123888735241E-15,-0.864229809530126,-0.503097243402826));
#792=DIRECTION('',(1.09123888735241E-15,0.864229809530126,0.503097243402826));
#793=DIRECTION('center_axis',(-7.76765729688164E-16,-0.503097243402826,
0.864229809530126));
#794=DIRECTION('ref_axis',(-1.09123888735241E-15,-0.864229809530126,-0.503097243402826));
#795=DIRECTION('',(1.09123888735241E-15,0.864229809530126,0.503097243402826));
#796=DIRECTION('',(1.,-1.17911377103018E-15,2.12393555279431E-16));
#797=DIRECTION('',(-1.09123888735241E-15,-0.864229809530126,-0.503097243402826));
#798=DIRECTION('center_axis',(-1.,1.33386987314434E-15,-1.22304822496969E-16));
#799=DIRECTION('ref_axis',(-1.09123888735241E-15,-0.864229809530126,-0.503097243402826));
#800=DIRECTION('',(-7.76765729688164E-16,-0.503097243402826,0.864229809530126));
#801=DIRECTION('center_axis',(1.,-1.33386987314434E-15,1.22304822496969E-16));
#802=DIRECTION('ref_axis',(1.09123888735241E-15,0.864229809530126,0.503097243402826));
#803=DIRECTION('',(-7.76765729688164E-16,-0.503097243402826,0.864229809530126));
#804=DIRECTION('center_axis',(-9.12170657574156E-16,-0.864229809530126,
-0.503097243402826));
#805=DIRECTION('ref_axis',(1.,-1.17911377103018E-15,2.12393555279431E-16));
#806=CARTESIAN_POINT('',(0.,0.,0.));
#807=CARTESIAN_POINT('Origin',(80.3454544243434,-59.0928701115722,101.93062869364));
#808=CARTESIAN_POINT('',(80.3454544243434,-54.9831686316157,101.430275073045));
#809=CARTESIAN_POINT('Origin',(80.3454544243434,-56.2409117401228,103.59084959687));
#810=CARTESIAN_POINT('',(80.3454544243434,-57.8351270030652,99.7700541698152));
#811=CARTESIAN_POINT('',(80.3454544243434,-57.8351270030652,99.7700541698152));
#812=CARTESIAN_POINT('Origin',(80.3454544243434,-59.0928701115722,101.93062869364));
#813=CARTESIAN_POINT('Origin',(80.3454544243434,-56.2409117401228,103.59084959687));
#814=CARTESIAN_POINT('Origin',(78.7966666737598,-59.6158089006401,94.3812716662818));
#815=CARTESIAN_POINT('',(78.8566972067281,-59.7379033929438,94.591007857867));
#816=CARTESIAN_POINT('',(79.0464711496604,-59.620782286501,94.3898150410898));
#817=CARTESIAN_POINT('Origin',(78.7966666737598,-59.6158089006401,94.3812716662818));
#818=CARTESIAN_POINT('',(78.8566972067281,-56.0649267024408,96.729171142329));
#819=CARTESIAN_POINT('',(78.8566972067281,-59.7379033929438,94.591007857867));
#820=CARTESIAN_POINT('',(79.0464711496604,-55.947805595998,96.5279783255518));
#821=CARTESIAN_POINT('Origin',(78.7966666737598,-55.9428322101371,96.5194349507438));
#822=CARTESIAN_POINT('',(79.0464711496604,-59.620782286501,94.3898150410898));
#823=CARTESIAN_POINT('Origin',(80.3454544243434,-59.6466438929777,94.4342405900917));
#824=CARTESIAN_POINT('',(81.6444376990265,-59.620782286501,94.3898150410898));
#825=CARTESIAN_POINT('Origin',(80.3454544243434,-59.6466438929777,94.4342405900917));
#826=CARTESIAN_POINT('',(81.6444376990265,-55.947805595998,96.5279783255519));
#827=CARTESIAN_POINT('Origin',(80.3454544243434,-55.9736672024747,96.5724038745537));
#828=CARTESIAN_POINT('',(81.6444376990265,-59.620782286501,94.3898150410898));
#829=CARTESIAN_POINT('Origin',(81.8942421749271,-59.6158089006401,94.3812716662818));
#830=CARTESIAN_POINT('',(81.8342116419587,-59.7379033929438,94.591007857867));
#831=CARTESIAN_POINT('Origin',(81.8942421749271,-59.6158089006401,94.3812716662818));
#832=CARTESIAN_POINT('',(81.8342116419587,-56.0649267024408,96.729171142329));
#833=CARTESIAN_POINT('Origin',(81.8942421749271,-55.9428322101371,96.5194349507438));
#834=CARTESIAN_POINT('',(81.8342116419587,-59.7379033929438,94.591007857867));
#835=CARTESIAN_POINT('Origin',(80.3454544243434,-62.7658468020752,99.7924654091785));
#836=CARTESIAN_POINT('',(74.1454544243434,-62.7658468020752,99.7924654091785));
#837=CARTESIAN_POINT('Origin',(80.3454544243434,-62.7658468020752,99.7924654091785));
#838=CARTESIAN_POINT('',(80.3454544243434,-65.8850497111728,105.150690228265));
#839=CARTESIAN_POINT('Origin',(80.3454544243434,-62.7658468020752,99.7924654091785));
#840=CARTESIAN_POINT('',(86.5454544243434,-62.7658468020752,99.7924654091785));
#841=CARTESIAN_POINT('Origin',(80.3454544243434,-62.7658468020752,99.7924654091785));
#842=CARTESIAN_POINT('Origin',(80.3454544243434,-62.7658468020752,99.7924654091785));
#843=CARTESIAN_POINT('Origin',(80.3454544243434,-59.0928701115722,101.93062869364));
#844=CARTESIAN_POINT('Origin',(80.3454544243434,-58.7658569033604,101.368879317446));
#845=CARTESIAN_POINT('Origin',(86.5454544243434,-54.5653617346092,85.7055195138375));
#846=CARTESIAN_POINT('',(86.5454544243434,-54.5653617346092,85.7055195138375));
#847=CARTESIAN_POINT('',(86.5454544243434,-54.5653617346092,85.7055195138375));
#848=CARTESIAN_POINT('',(74.1454544243434,-54.5653617346092,85.7055195138375));
#849=CARTESIAN_POINT('',(86.5454544243434,-54.5653617346092,85.7055195138375));
#850=CARTESIAN_POINT('',(74.1454544243434,-54.5653617346092,85.7055195138375));
#851=CARTESIAN_POINT('Origin',(86.5454544243434,-54.5653617346092,85.7055195138375));
#852=CARTESIAN_POINT('',(86.5454544243434,-65.8850497111728,105.150690228265));
#853=CARTESIAN_POINT('',(86.5454544243434,-65.8850497111728,105.150690228265));
#854=CARTESIAN_POINT('',(86.5454544243434,-54.5653617346092,85.7055195138375));
#855=CARTESIAN_POINT('Origin',(86.5454544243434,-54.5653617346092,85.7055195138375));
#856=CARTESIAN_POINT('',(74.1454544243434,-65.8850497111728,105.150690228265));
#857=CARTESIAN_POINT('',(74.1454544243434,-54.5653617346092,85.7055195138375));
#858=CARTESIAN_POINT('',(86.5454544243434,-65.8850497111728,105.150690228265));
#859=CARTESIAN_POINT('Origin',(80.3454544243434,-56.9805950917032,81.4067813192093));
#860=CARTESIAN_POINT('',(79.7954544243434,-58.634577599147,79.4775737448229));
#861=CARTESIAN_POINT('',(80.8954544243434,-58.634577599147,79.4775737448229));
#862=CARTESIAN_POINT('Origin',(80.3454544243434,-59.0547466345755,80.1993479350425));
#863=CARTESIAN_POINT('',(79.7954544243434,-56.5604260562747,80.6850071289897));
#864=CARTESIAN_POINT('',(79.7954544243434,-56.5604260562747,80.6850071289897));
#865=CARTESIAN_POINT('',(80.8954544243434,-56.5604260562747,80.6850071289897));
#866=CARTESIAN_POINT('Origin',(80.3454544243434,-56.9805950917032,81.4067813192093));
#867=CARTESIAN_POINT('',(80.8954544243434,-56.5604260562747,80.6850071289897));
#868=CARTESIAN_POINT('Origin',(80.8954544243434,-55.7228521706145,79.2462071173346));
#869=CARTESIAN_POINT('',(80.8954544243434,-57.7970037509704,78.038773797558));
#870=CARTESIAN_POINT('',(80.8954544243434,-57.7970037322286,78.0387737653629));
#871=CARTESIAN_POINT('',(80.8954544243434,-55.7228521706145,79.2462071173346));
#872=CARTESIAN_POINT('',(80.8954544243434,-56.9805952978633,81.4067816733551));
#873=CARTESIAN_POINT('',(80.8954544243434,-55.7228522080981,79.2462071817248));
#874=CARTESIAN_POINT('Origin',(79.7954544243434,-56.5604260562747,80.6850071289897));
#875=CARTESIAN_POINT('',(79.7954544243434,-57.7970037509704,78.038773797558));
#876=CARTESIAN_POINT('',(79.7954544243434,-58.2157906750587,78.7581737711905));
#877=CARTESIAN_POINT('',(79.7954544243434,-55.7228521706145,79.2462071173346));
#878=CARTESIAN_POINT('',(79.7954544243434,-55.7228522080981,79.2462071817248));
#879=CARTESIAN_POINT('',(79.7954544243434,-57.3993822406935,82.1261816791825));
#880=CARTESIAN_POINT('Origin',(80.3454544243434,-70.8157696976012,105.173101789579));
#881=CARTESIAN_POINT('',(80.8954544243434,-73.310090275902,104.687442595632));
#882=CARTESIAN_POINT('',(79.7954544243434,-73.310090275902,104.687442595632));
#883=CARTESIAN_POINT('Origin',(80.3454544243434,-72.8899212404735,103.965668405412));
#884=CARTESIAN_POINT('',(80.8954544243434,-71.2359387330297,105.894875979799));
#885=CARTESIAN_POINT('',(80.8954544243434,-71.2359387330297,105.894875979799));
#886=CARTESIAN_POINT('',(79.7954544243434,-71.2359387330297,105.894875979799));
#887=CARTESIAN_POINT('Origin',(80.3454544243434,-70.8157696976012,105.173101789579));
#888=CARTESIAN_POINT('',(79.7954544243434,-71.2359387330297,105.894875979799));
#889=CARTESIAN_POINT('Origin',(79.7954544243434,-72.0735126186899,107.333675991454));
#890=CARTESIAN_POINT('',(79.7954544243434,-74.1476641615622,106.126242607287));
#891=CARTESIAN_POINT('',(79.7954544243434,-72.8899210530552,103.965668083462));
#892=CARTESIAN_POINT('',(79.7954544243434,-72.0735126186899,107.333675991454));
#893=CARTESIAN_POINT('',(79.7954544243434,-72.0735126186899,107.333675991454));
#894=CARTESIAN_POINT('',(79.7954544243434,-73.1105883901261,106.729959299371));
#895=CARTESIAN_POINT('Origin',(80.8954544243434,-71.2359387330297,105.894875979799));
#896=CARTESIAN_POINT('',(80.8954544243434,-74.1476641615622,106.126242607287));
#897=CARTESIAN_POINT('',(80.8954544243434,-72.471134110225,103.246268077634));
#898=CARTESIAN_POINT('',(80.8954544243434,-72.0735126186899,107.333675991454));
#899=CARTESIAN_POINT('',(80.8954544243434,-73.1105883901261,106.729959299371));
#900=CARTESIAN_POINT('',(80.8954544243434,-71.6547256758598,106.614275985626));
#901=CARTESIAN_POINT('Origin',(86.5454544243434,-57.7970037509704,78.038773797558));
#902=CARTESIAN_POINT('',(86.5454544243434,-57.7970037509704,78.038773797558));
#903=CARTESIAN_POINT('',(86.5454544243434,-57.7970037509704,78.038773797558));
#904=CARTESIAN_POINT('',(86.5454544243434,-60.3124899679845,82.3599228452086));
#905=CARTESIAN_POINT('',(86.5454544243434,-57.7970037509704,78.038773797558));
#906=CARTESIAN_POINT('',(74.1454544243434,-60.3124899679845,82.3599228452086));
#907=CARTESIAN_POINT('',(83.4454544243434,-60.3124899679845,82.3599228452086));
#908=CARTESIAN_POINT('',(74.1454544243434,-57.7970037509704,78.038773797558));
#909=CARTESIAN_POINT('',(74.1454544243434,-57.7970037509704,78.038773797558));
#910=CARTESIAN_POINT('',(86.5454544243434,-57.7970037509704,78.038773797558));
#911=CARTESIAN_POINT('Origin',(86.5454544243434,-55.7228522080981,79.2462071817248));
#912=CARTESIAN_POINT('',(86.5454544243434,-55.7228522080981,79.2462071817248));
#913=CARTESIAN_POINT('',(86.5454544243434,-55.7228522080981,79.2462071817248));
#914=CARTESIAN_POINT('',(86.5454544243434,-55.7228522080981,79.2462071817248));
#915=CARTESIAN_POINT('Origin',(86.5454544243434,-71.6321779445481,101.805093559637));
#916=CARTESIAN_POINT('',(74.1454544243434,-74.1476641615622,106.126242607287));
#917=CARTESIAN_POINT('',(86.5454544243434,-74.1476641615622,106.126242607287));
#918=CARTESIAN_POINT('',(74.1454544243434,-71.6321779445481,101.805093559637));
#919=CARTESIAN_POINT('',(74.1454544243434,-74.1476641615622,106.126242607287));
#920=CARTESIAN_POINT('',(86.5454544243434,-71.6321779445481,101.805093559637));
#921=CARTESIAN_POINT('',(83.4454544243434,-71.6321779445481,101.805093559637));
#922=CARTESIAN_POINT('',(86.5454544243434,-74.1476641615622,106.126242607287));
#923=CARTESIAN_POINT('',(86.5454544243434,-74.1476641615622,106.126242607287));
#924=CARTESIAN_POINT('',(86.5454544243434,-74.1476641615622,106.126242607287));
#925=CARTESIAN_POINT('Origin',(86.5454544243434,-74.1476641615622,106.126242607287));
#926=CARTESIAN_POINT('',(74.1454544243434,-72.0735126186899,107.333675991454));
#927=CARTESIAN_POINT('',(86.5454544243434,-72.0735126186899,107.333675991454));
#928=CARTESIAN_POINT('',(74.1454544243434,-72.0735126186899,107.333675991454));
#929=CARTESIAN_POINT('Origin',(86.5454544243434,-72.0735126186899,107.333675991454));
#930=CARTESIAN_POINT('',(86.5454544243434,-72.0735126186899,107.333675991454));
#931=CARTESIAN_POINT('',(86.5454544243434,-72.0735126186899,107.333675991454));
#932=CARTESIAN_POINT('',(86.5454544243434,-69.5580264016758,103.012526943803));
#933=CARTESIAN_POINT('',(86.5454544243434,-69.5580264016758,103.012526943803));
#934=CARTESIAN_POINT('',(74.1454544243434,-69.5580264016758,103.012526943803));
#935=CARTESIAN_POINT('',(83.4454544243434,-69.5580264016758,103.012526943803));
#936=CARTESIAN_POINT('',(74.1454544243434,-69.5580264016758,103.012526943803));
#937=CARTESIAN_POINT('Origin',(86.5454544243434,-74.1476641615622,106.126242607287));
#938=CARTESIAN_POINT('',(86.5454544243434,-72.0735126186899,107.333675991454));
#939=CARTESIAN_POINT('Origin',(80.3454544243434,-75.6508465588632,99.4656913778134));
#940=CARTESIAN_POINT('',(74.1454544243434,-85.4166434065536,93.7806925273614));
#941=CARTESIAN_POINT('',(74.1454544243434,-65.8850497111728,105.150690228265));
#942=CARTESIAN_POINT('',(86.5454544243434,-85.4166434065536,93.7806925273614));
#943=CARTESIAN_POINT('',(74.1454544243434,-85.4166434065536,93.7806925273614));
#944=CARTESIAN_POINT('',(86.5454544243434,-85.4166434065536,93.7806925273614));
#945=CARTESIAN_POINT('Origin',(80.3454544243434,-75.6508465588632,99.4656913778134));
#946=CARTESIAN_POINT('',(86.5454544243434,-85.4166434065536,93.7806925273614));
#947=CARTESIAN_POINT('',(74.1454544243434,-65.8850497111728,105.150690228265));
#948=CARTESIAN_POINT('Origin',(86.5454544243434,-55.7228522080981,79.2462071817248));
#949=CARTESIAN_POINT('',(74.1454544243434,-55.7228522080981,79.2462071817248));
#950=CARTESIAN_POINT('',(74.1454544243434,-55.7228522080981,79.2462071817248));
#951=CARTESIAN_POINT('',(86.5454544243434,-55.7228522080981,79.2462071817248));
#952=CARTESIAN_POINT('Origin',(86.5454544243434,-58.2383384251122,83.5673562293754));
#953=CARTESIAN_POINT('',(74.1454544243434,-58.2383384251122,83.5673562293754));
#954=CARTESIAN_POINT('',(74.1454544243434,-58.2383384251122,83.5673562293754));
#955=CARTESIAN_POINT('',(86.5454544243434,-58.2383384251122,83.5673562293754));
#956=CARTESIAN_POINT('',(83.4454544243434,-58.2383384251122,83.5673562293754));
#957=CARTESIAN_POINT('',(86.5454544243434,-58.2383384251122,83.5673562293754));
#958=CARTESIAN_POINT('Origin',(80.3454544243434,-64.3311585822996,80.0205206633855));
#959=CARTESIAN_POINT('',(74.1454544243434,-54.5653617346092,85.7055195138375));
#960=CARTESIAN_POINT('',(86.5454544243434,-74.09695542999,74.3355218129336));
#961=CARTESIAN_POINT('Origin',(80.3454544243434,-64.3311585822996,80.0205206633855));
#962=CARTESIAN_POINT('',(86.5454544243434,-74.09695542999,74.3355218129336));
#963=CARTESIAN_POINT('',(86.5454544243434,-74.09695542999,74.3355218129336));
#964=CARTESIAN_POINT('',(74.1454544243434,-74.09695542999,74.3355218129336));
#965=CARTESIAN_POINT('',(74.1454544243434,-74.09695542999,74.3355218129336));
#966=CARTESIAN_POINT('',(74.1454544243434,-54.5653617346092,85.7055195138375));
#967=CARTESIAN_POINT('Origin',(74.1454544243434,-54.5653617346092,85.7055195138375));
#968=CARTESIAN_POINT('',(74.1454544243434,-74.09695542999,74.3355218129336));
#969=CARTESIAN_POINT('Origin',(86.5454544243434,-74.09695542999,74.3355218129336));
#970=CARTESIAN_POINT('',(86.5454544243434,-74.09695542999,74.3355218129336));
#971=CARTESIAN_POINT('Origin',(74.1454544243434,-74.09695542999,74.3355218129336));
#972=UNCERTAINTY_MEASURE_WITH_UNIT(LENGTH_MEASURE(0.01),#976,
'DISTANCE_ACCURACY_VALUE',
'Maximum model space distance between geometric entities at asserted c
onnectivities');
#973=UNCERTAINTY_MEASURE_WITH_UNIT(LENGTH_MEASURE(0.01),#976,
'DISTANCE_ACCURACY_VALUE',
'Maximum model space distance between geometric entities at asserted c
onnectivities');
#974=(
GEOMETRIC_REPRESENTATION_CONTEXT(3)
GLOBAL_UNCERTAINTY_ASSIGNED_CONTEXT((#972))
GLOBAL_UNIT_ASSIGNED_CONTEXT((#976,#978,#979))
REPRESENTATION_CONTEXT('','3D')
);
#975=(
GEOMETRIC_REPRESENTATION_CONTEXT(3)
GLOBAL_UNCERTAINTY_ASSIGNED_CONTEXT((#973))
GLOBAL_UNIT_ASSIGNED_CONTEXT((#976,#978,#979))
REPRESENTATION_CONTEXT('','3D')
);
#976=(
LENGTH_UNIT()
NAMED_UNIT(*)
SI_UNIT(.MILLI.,.METRE.)
);
#977=(
LENGTH_UNIT()
NAMED_UNIT(*)
SI_UNIT($,.METRE.)
);
#978=(
NAMED_UNIT(*)
PLANE_ANGLE_UNIT()
SI_UNIT($,.RADIAN.)
);
#979=(
NAMED_UNIT(*)
SI_UNIT($,.STERADIAN.)
SOLID_ANGLE_UNIT()
);
#980=SHAPE_DEFINITION_REPRESENTATION(#981,#982);
#981=PRODUCT_DEFINITION_SHAPE('',$,#984);
#982=SHAPE_REPRESENTATION('',(#595),#974);
#983=PRODUCT_DEFINITION_CONTEXT('part definition',#988,'design');
#984=PRODUCT_DEFINITION('Servo 2','Servo 2 v1',#985,#983);
#985=PRODUCT_DEFINITION_FORMATION('',$,#990);
#986=PRODUCT_RELATED_PRODUCT_CATEGORY('Servo 2 v1','Servo 2 v1',(#990));
#987=APPLICATION_PROTOCOL_DEFINITION('international standard',
'automotive_design',2009,#988);
#988=APPLICATION_CONTEXT(
'Core Data for Automotive Mechanical Design Process');
#989=PRODUCT_CONTEXT('part definition',#988,'mechanical');
#990=PRODUCT('Servo 2','Servo 2 v1',$,(#989));
#991=PRESENTATION_STYLE_ASSIGNMENT((#992));
#992=SURFACE_STYLE_USAGE(.BOTH.,#993);
#993=SURFACE_SIDE_STYLE('',(#994));
#994=SURFACE_STYLE_FILL_AREA(#995);
#995=FILL_AREA_STYLE('Steel - Satin',(#996));
#996=FILL_AREA_STYLE_COLOUR('Steel - Satin',#997);
#997=COLOUR_RGB('Steel - Satin',0.627450980392157,0.627450980392157,0.627450980392157);
ENDSEC;
END-ISO-10303-21;
